M48
; DRILL file {KiCad 8.0.9-8.0.9-0~ubuntu24.04.1} date 2025-03-04T19:24:37+0100
; FORMAT={-:-/ absolute / inch / decimal}
; #@! TF.CreationDate,2025-03-04T19:24:37+01:00
; #@! TF.GenerationSoftware,Kicad,Pcbnew,8.0.9-8.0.9-0~ubuntu24.04.1
; #@! TF.FileFunction,Plated,1,2,PTH
FMAT,2
INCH
; #@! TA.AperFunction,Plated,PTH,ComponentDrill
T1C0.0315
; #@! TA.AperFunction,Plated,PTH,ComponentDrill
T2C0.0512
%
G90
G05
T1
X4.5281Y-4.1937
X4.5281Y-4.2937
X4.5281Y-4.3937
X4.5281Y-4.4937
X4.5281Y-4.5937
X4.5281Y-4.6937
X4.5281Y-4.7937
X4.5281Y-4.8937
X4.5402Y-2.9724
X4.5402Y-3.1319
X4.5402Y-3.2913
X4.5402Y-3.4508
X4.5402Y-3.6102
X4.5402Y-3.7697
X4.5402Y-3.9291
X4.7402Y-2.9724
X4.7402Y-3.1319
X4.7402Y-3.2913
X4.7402Y-3.4508
X4.7402Y-3.6102
X4.7402Y-3.7697
X4.7402Y-3.9291
X4.8281Y-4.1937
X4.8281Y-4.2937
X4.8281Y-4.3937
X4.8281Y-4.4937
X4.8281Y-4.5937
X4.8281Y-4.6937
X4.8281Y-4.7937
X4.8281Y-4.8937
X4.8819Y-2.9724
X4.8819Y-3.1319
X4.8819Y-3.2913
X4.8819Y-3.4508
X4.8819Y-3.6102
X4.8819Y-3.7697
X4.8819Y-3.9291
X5.0819Y-2.9724
X5.0819Y-3.1319
X5.0819Y-3.2913
X5.0819Y-3.4508
X5.0819Y-3.6102
X5.0819Y-3.7697
X5.0819Y-3.9291
X5.1431Y-4.1937
X5.1431Y-4.2937
X5.1431Y-4.3937
X5.1431Y-4.4937
X5.1431Y-4.5937
X5.1431Y-4.6937
X5.1431Y-4.7937
X5.1431Y-4.8937
X5.2236Y-2.9724
X5.2236Y-3.1319
X5.2236Y-3.2913
X5.2236Y-3.4508
X5.2236Y-3.6102
X5.4236Y-2.9724
X5.4236Y-3.1319
X5.4236Y-3.2913
X5.4236Y-3.4508
X5.4236Y-3.6102
X5.4431Y-4.1937
X5.4431Y-4.2937
X5.4431Y-4.3937
X5.4431Y-4.4937
X5.4431Y-4.5937
X5.4431Y-4.6937
X5.4431Y-4.7937
X5.4431Y-4.8937
T2
X4.0748Y-2.9331
X4.0748Y-3.1299
X4.0748Y-3.3268
X4.0748Y-3.5236
X4.0748Y-3.7205
X4.0748Y-3.9173
X4.0748Y-4.1142
X4.0748Y-4.311
X4.0748Y-4.5079
X4.0748Y-4.7047
X4.0748Y-4.9016
X4.0748Y-5.0984
X4.5768Y-2.5381
X4.7736Y-2.5381
X4.9705Y-2.5381
X5.1673Y-2.5381
X5.3642Y-2.5381
X5.8661Y-2.9331
X5.8661Y-3.1299
X5.8661Y-3.3268
X5.8661Y-3.5236
X5.8661Y-3.7205
X5.8661Y-3.9173
X5.8661Y-4.1142
X5.8661Y-4.311
X5.8661Y-4.5079
X5.8661Y-4.7047
X5.8661Y-4.9016
X5.8661Y-5.0984
M30
