%TF.GenerationSoftware,KiCad,Pcbnew,8.0.8-8.0.8-0~ubuntu24.04.1*%
%TF.CreationDate,2025-02-07T12:56:34+01:00*%
%TF.ProjectId,SNES_CONTROLLER,534e4553-5f43-44f4-9e54-524f4c4c4552,rev?*%
%TF.SameCoordinates,Original*%
%TF.FileFunction,Legend,Top*%
%TF.FilePolarity,Positive*%
%FSLAX46Y46*%
G04 Gerber Fmt 4.6, Leading zero omitted, Abs format (unit mm)*
G04 Created by KiCad (PCBNEW 8.0.8-8.0.8-0~ubuntu24.04.1) date 2025-02-07 12:56:34*
%MOMM*%
%LPD*%
G01*
G04 APERTURE LIST*
%ADD10C,0.150000*%
%ADD11C,0.120000*%
G04 APERTURE END LIST*
D10*
X133683095Y-103644819D02*
X133683095Y-104454342D01*
X133683095Y-104454342D02*
X133730714Y-104549580D01*
X133730714Y-104549580D02*
X133778333Y-104597200D01*
X133778333Y-104597200D02*
X133873571Y-104644819D01*
X133873571Y-104644819D02*
X134064047Y-104644819D01*
X134064047Y-104644819D02*
X134159285Y-104597200D01*
X134159285Y-104597200D02*
X134206904Y-104549580D01*
X134206904Y-104549580D02*
X134254523Y-104454342D01*
X134254523Y-104454342D02*
X134254523Y-103644819D01*
X134683095Y-103740057D02*
X134730714Y-103692438D01*
X134730714Y-103692438D02*
X134825952Y-103644819D01*
X134825952Y-103644819D02*
X135064047Y-103644819D01*
X135064047Y-103644819D02*
X135159285Y-103692438D01*
X135159285Y-103692438D02*
X135206904Y-103740057D01*
X135206904Y-103740057D02*
X135254523Y-103835295D01*
X135254523Y-103835295D02*
X135254523Y-103930533D01*
X135254523Y-103930533D02*
X135206904Y-104073390D01*
X135206904Y-104073390D02*
X134635476Y-104644819D01*
X134635476Y-104644819D02*
X135254523Y-104644819D01*
X118063095Y-103644819D02*
X118063095Y-104454342D01*
X118063095Y-104454342D02*
X118110714Y-104549580D01*
X118110714Y-104549580D02*
X118158333Y-104597200D01*
X118158333Y-104597200D02*
X118253571Y-104644819D01*
X118253571Y-104644819D02*
X118444047Y-104644819D01*
X118444047Y-104644819D02*
X118539285Y-104597200D01*
X118539285Y-104597200D02*
X118586904Y-104549580D01*
X118586904Y-104549580D02*
X118634523Y-104454342D01*
X118634523Y-104454342D02*
X118634523Y-103644819D01*
X119634523Y-104644819D02*
X119063095Y-104644819D01*
X119348809Y-104644819D02*
X119348809Y-103644819D01*
X119348809Y-103644819D02*
X119253571Y-103787676D01*
X119253571Y-103787676D02*
X119158333Y-103882914D01*
X119158333Y-103882914D02*
X119063095Y-103930533D01*
X134577142Y-89784819D02*
X134243809Y-89308628D01*
X134005714Y-89784819D02*
X134005714Y-88784819D01*
X134005714Y-88784819D02*
X134386666Y-88784819D01*
X134386666Y-88784819D02*
X134481904Y-88832438D01*
X134481904Y-88832438D02*
X134529523Y-88880057D01*
X134529523Y-88880057D02*
X134577142Y-88975295D01*
X134577142Y-88975295D02*
X134577142Y-89118152D01*
X134577142Y-89118152D02*
X134529523Y-89213390D01*
X134529523Y-89213390D02*
X134481904Y-89261009D01*
X134481904Y-89261009D02*
X134386666Y-89308628D01*
X134386666Y-89308628D02*
X134005714Y-89308628D01*
X135529523Y-89784819D02*
X134958095Y-89784819D01*
X135243809Y-89784819D02*
X135243809Y-88784819D01*
X135243809Y-88784819D02*
X135148571Y-88927676D01*
X135148571Y-88927676D02*
X135053333Y-89022914D01*
X135053333Y-89022914D02*
X134958095Y-89070533D01*
X136005714Y-89784819D02*
X136196190Y-89784819D01*
X136196190Y-89784819D02*
X136291428Y-89737200D01*
X136291428Y-89737200D02*
X136339047Y-89689580D01*
X136339047Y-89689580D02*
X136434285Y-89546723D01*
X136434285Y-89546723D02*
X136481904Y-89356247D01*
X136481904Y-89356247D02*
X136481904Y-88975295D01*
X136481904Y-88975295D02*
X136434285Y-88880057D01*
X136434285Y-88880057D02*
X136386666Y-88832438D01*
X136386666Y-88832438D02*
X136291428Y-88784819D01*
X136291428Y-88784819D02*
X136100952Y-88784819D01*
X136100952Y-88784819D02*
X136005714Y-88832438D01*
X136005714Y-88832438D02*
X135958095Y-88880057D01*
X135958095Y-88880057D02*
X135910476Y-88975295D01*
X135910476Y-88975295D02*
X135910476Y-89213390D01*
X135910476Y-89213390D02*
X135958095Y-89308628D01*
X135958095Y-89308628D02*
X136005714Y-89356247D01*
X136005714Y-89356247D02*
X136100952Y-89403866D01*
X136100952Y-89403866D02*
X136291428Y-89403866D01*
X136291428Y-89403866D02*
X136386666Y-89356247D01*
X136386666Y-89356247D02*
X136434285Y-89308628D01*
X136434285Y-89308628D02*
X136481904Y-89213390D01*
X134577142Y-85734819D02*
X134243809Y-85258628D01*
X134005714Y-85734819D02*
X134005714Y-84734819D01*
X134005714Y-84734819D02*
X134386666Y-84734819D01*
X134386666Y-84734819D02*
X134481904Y-84782438D01*
X134481904Y-84782438D02*
X134529523Y-84830057D01*
X134529523Y-84830057D02*
X134577142Y-84925295D01*
X134577142Y-84925295D02*
X134577142Y-85068152D01*
X134577142Y-85068152D02*
X134529523Y-85163390D01*
X134529523Y-85163390D02*
X134481904Y-85211009D01*
X134481904Y-85211009D02*
X134386666Y-85258628D01*
X134386666Y-85258628D02*
X134005714Y-85258628D01*
X135529523Y-85734819D02*
X134958095Y-85734819D01*
X135243809Y-85734819D02*
X135243809Y-84734819D01*
X135243809Y-84734819D02*
X135148571Y-84877676D01*
X135148571Y-84877676D02*
X135053333Y-84972914D01*
X135053333Y-84972914D02*
X134958095Y-85020533D01*
X136100952Y-85163390D02*
X136005714Y-85115771D01*
X136005714Y-85115771D02*
X135958095Y-85068152D01*
X135958095Y-85068152D02*
X135910476Y-84972914D01*
X135910476Y-84972914D02*
X135910476Y-84925295D01*
X135910476Y-84925295D02*
X135958095Y-84830057D01*
X135958095Y-84830057D02*
X136005714Y-84782438D01*
X136005714Y-84782438D02*
X136100952Y-84734819D01*
X136100952Y-84734819D02*
X136291428Y-84734819D01*
X136291428Y-84734819D02*
X136386666Y-84782438D01*
X136386666Y-84782438D02*
X136434285Y-84830057D01*
X136434285Y-84830057D02*
X136481904Y-84925295D01*
X136481904Y-84925295D02*
X136481904Y-84972914D01*
X136481904Y-84972914D02*
X136434285Y-85068152D01*
X136434285Y-85068152D02*
X136386666Y-85115771D01*
X136386666Y-85115771D02*
X136291428Y-85163390D01*
X136291428Y-85163390D02*
X136100952Y-85163390D01*
X136100952Y-85163390D02*
X136005714Y-85211009D01*
X136005714Y-85211009D02*
X135958095Y-85258628D01*
X135958095Y-85258628D02*
X135910476Y-85353866D01*
X135910476Y-85353866D02*
X135910476Y-85544342D01*
X135910476Y-85544342D02*
X135958095Y-85639580D01*
X135958095Y-85639580D02*
X136005714Y-85687200D01*
X136005714Y-85687200D02*
X136100952Y-85734819D01*
X136100952Y-85734819D02*
X136291428Y-85734819D01*
X136291428Y-85734819D02*
X136386666Y-85687200D01*
X136386666Y-85687200D02*
X136434285Y-85639580D01*
X136434285Y-85639580D02*
X136481904Y-85544342D01*
X136481904Y-85544342D02*
X136481904Y-85353866D01*
X136481904Y-85353866D02*
X136434285Y-85258628D01*
X136434285Y-85258628D02*
X136386666Y-85211009D01*
X136386666Y-85211009D02*
X136291428Y-85163390D01*
X134577142Y-81684819D02*
X134243809Y-81208628D01*
X134005714Y-81684819D02*
X134005714Y-80684819D01*
X134005714Y-80684819D02*
X134386666Y-80684819D01*
X134386666Y-80684819D02*
X134481904Y-80732438D01*
X134481904Y-80732438D02*
X134529523Y-80780057D01*
X134529523Y-80780057D02*
X134577142Y-80875295D01*
X134577142Y-80875295D02*
X134577142Y-81018152D01*
X134577142Y-81018152D02*
X134529523Y-81113390D01*
X134529523Y-81113390D02*
X134481904Y-81161009D01*
X134481904Y-81161009D02*
X134386666Y-81208628D01*
X134386666Y-81208628D02*
X134005714Y-81208628D01*
X135529523Y-81684819D02*
X134958095Y-81684819D01*
X135243809Y-81684819D02*
X135243809Y-80684819D01*
X135243809Y-80684819D02*
X135148571Y-80827676D01*
X135148571Y-80827676D02*
X135053333Y-80922914D01*
X135053333Y-80922914D02*
X134958095Y-80970533D01*
X135862857Y-80684819D02*
X136529523Y-80684819D01*
X136529523Y-80684819D02*
X136100952Y-81684819D01*
X134577142Y-77634819D02*
X134243809Y-77158628D01*
X134005714Y-77634819D02*
X134005714Y-76634819D01*
X134005714Y-76634819D02*
X134386666Y-76634819D01*
X134386666Y-76634819D02*
X134481904Y-76682438D01*
X134481904Y-76682438D02*
X134529523Y-76730057D01*
X134529523Y-76730057D02*
X134577142Y-76825295D01*
X134577142Y-76825295D02*
X134577142Y-76968152D01*
X134577142Y-76968152D02*
X134529523Y-77063390D01*
X134529523Y-77063390D02*
X134481904Y-77111009D01*
X134481904Y-77111009D02*
X134386666Y-77158628D01*
X134386666Y-77158628D02*
X134005714Y-77158628D01*
X135529523Y-77634819D02*
X134958095Y-77634819D01*
X135243809Y-77634819D02*
X135243809Y-76634819D01*
X135243809Y-76634819D02*
X135148571Y-76777676D01*
X135148571Y-76777676D02*
X135053333Y-76872914D01*
X135053333Y-76872914D02*
X134958095Y-76920533D01*
X136386666Y-76634819D02*
X136196190Y-76634819D01*
X136196190Y-76634819D02*
X136100952Y-76682438D01*
X136100952Y-76682438D02*
X136053333Y-76730057D01*
X136053333Y-76730057D02*
X135958095Y-76872914D01*
X135958095Y-76872914D02*
X135910476Y-77063390D01*
X135910476Y-77063390D02*
X135910476Y-77444342D01*
X135910476Y-77444342D02*
X135958095Y-77539580D01*
X135958095Y-77539580D02*
X136005714Y-77587200D01*
X136005714Y-77587200D02*
X136100952Y-77634819D01*
X136100952Y-77634819D02*
X136291428Y-77634819D01*
X136291428Y-77634819D02*
X136386666Y-77587200D01*
X136386666Y-77587200D02*
X136434285Y-77539580D01*
X136434285Y-77539580D02*
X136481904Y-77444342D01*
X136481904Y-77444342D02*
X136481904Y-77206247D01*
X136481904Y-77206247D02*
X136434285Y-77111009D01*
X136434285Y-77111009D02*
X136386666Y-77063390D01*
X136386666Y-77063390D02*
X136291428Y-77015771D01*
X136291428Y-77015771D02*
X136100952Y-77015771D01*
X136100952Y-77015771D02*
X136005714Y-77063390D01*
X136005714Y-77063390D02*
X135958095Y-77111009D01*
X135958095Y-77111009D02*
X135910476Y-77206247D01*
X134577142Y-73584819D02*
X134243809Y-73108628D01*
X134005714Y-73584819D02*
X134005714Y-72584819D01*
X134005714Y-72584819D02*
X134386666Y-72584819D01*
X134386666Y-72584819D02*
X134481904Y-72632438D01*
X134481904Y-72632438D02*
X134529523Y-72680057D01*
X134529523Y-72680057D02*
X134577142Y-72775295D01*
X134577142Y-72775295D02*
X134577142Y-72918152D01*
X134577142Y-72918152D02*
X134529523Y-73013390D01*
X134529523Y-73013390D02*
X134481904Y-73061009D01*
X134481904Y-73061009D02*
X134386666Y-73108628D01*
X134386666Y-73108628D02*
X134005714Y-73108628D01*
X135529523Y-73584819D02*
X134958095Y-73584819D01*
X135243809Y-73584819D02*
X135243809Y-72584819D01*
X135243809Y-72584819D02*
X135148571Y-72727676D01*
X135148571Y-72727676D02*
X135053333Y-72822914D01*
X135053333Y-72822914D02*
X134958095Y-72870533D01*
X136434285Y-72584819D02*
X135958095Y-72584819D01*
X135958095Y-72584819D02*
X135910476Y-73061009D01*
X135910476Y-73061009D02*
X135958095Y-73013390D01*
X135958095Y-73013390D02*
X136053333Y-72965771D01*
X136053333Y-72965771D02*
X136291428Y-72965771D01*
X136291428Y-72965771D02*
X136386666Y-73013390D01*
X136386666Y-73013390D02*
X136434285Y-73061009D01*
X136434285Y-73061009D02*
X136481904Y-73156247D01*
X136481904Y-73156247D02*
X136481904Y-73394342D01*
X136481904Y-73394342D02*
X136434285Y-73489580D01*
X136434285Y-73489580D02*
X136386666Y-73537200D01*
X136386666Y-73537200D02*
X136291428Y-73584819D01*
X136291428Y-73584819D02*
X136053333Y-73584819D01*
X136053333Y-73584819D02*
X135958095Y-73537200D01*
X135958095Y-73537200D02*
X135910476Y-73489580D01*
X125897142Y-97884819D02*
X125563809Y-97408628D01*
X125325714Y-97884819D02*
X125325714Y-96884819D01*
X125325714Y-96884819D02*
X125706666Y-96884819D01*
X125706666Y-96884819D02*
X125801904Y-96932438D01*
X125801904Y-96932438D02*
X125849523Y-96980057D01*
X125849523Y-96980057D02*
X125897142Y-97075295D01*
X125897142Y-97075295D02*
X125897142Y-97218152D01*
X125897142Y-97218152D02*
X125849523Y-97313390D01*
X125849523Y-97313390D02*
X125801904Y-97361009D01*
X125801904Y-97361009D02*
X125706666Y-97408628D01*
X125706666Y-97408628D02*
X125325714Y-97408628D01*
X126849523Y-97884819D02*
X126278095Y-97884819D01*
X126563809Y-97884819D02*
X126563809Y-96884819D01*
X126563809Y-96884819D02*
X126468571Y-97027676D01*
X126468571Y-97027676D02*
X126373333Y-97122914D01*
X126373333Y-97122914D02*
X126278095Y-97170533D01*
X127706666Y-97218152D02*
X127706666Y-97884819D01*
X127468571Y-96837200D02*
X127230476Y-97551485D01*
X127230476Y-97551485D02*
X127849523Y-97551485D01*
X125897142Y-93834819D02*
X125563809Y-93358628D01*
X125325714Y-93834819D02*
X125325714Y-92834819D01*
X125325714Y-92834819D02*
X125706666Y-92834819D01*
X125706666Y-92834819D02*
X125801904Y-92882438D01*
X125801904Y-92882438D02*
X125849523Y-92930057D01*
X125849523Y-92930057D02*
X125897142Y-93025295D01*
X125897142Y-93025295D02*
X125897142Y-93168152D01*
X125897142Y-93168152D02*
X125849523Y-93263390D01*
X125849523Y-93263390D02*
X125801904Y-93311009D01*
X125801904Y-93311009D02*
X125706666Y-93358628D01*
X125706666Y-93358628D02*
X125325714Y-93358628D01*
X126849523Y-93834819D02*
X126278095Y-93834819D01*
X126563809Y-93834819D02*
X126563809Y-92834819D01*
X126563809Y-92834819D02*
X126468571Y-92977676D01*
X126468571Y-92977676D02*
X126373333Y-93072914D01*
X126373333Y-93072914D02*
X126278095Y-93120533D01*
X127182857Y-92834819D02*
X127801904Y-92834819D01*
X127801904Y-92834819D02*
X127468571Y-93215771D01*
X127468571Y-93215771D02*
X127611428Y-93215771D01*
X127611428Y-93215771D02*
X127706666Y-93263390D01*
X127706666Y-93263390D02*
X127754285Y-93311009D01*
X127754285Y-93311009D02*
X127801904Y-93406247D01*
X127801904Y-93406247D02*
X127801904Y-93644342D01*
X127801904Y-93644342D02*
X127754285Y-93739580D01*
X127754285Y-93739580D02*
X127706666Y-93787200D01*
X127706666Y-93787200D02*
X127611428Y-93834819D01*
X127611428Y-93834819D02*
X127325714Y-93834819D01*
X127325714Y-93834819D02*
X127230476Y-93787200D01*
X127230476Y-93787200D02*
X127182857Y-93739580D01*
X125897142Y-89784819D02*
X125563809Y-89308628D01*
X125325714Y-89784819D02*
X125325714Y-88784819D01*
X125325714Y-88784819D02*
X125706666Y-88784819D01*
X125706666Y-88784819D02*
X125801904Y-88832438D01*
X125801904Y-88832438D02*
X125849523Y-88880057D01*
X125849523Y-88880057D02*
X125897142Y-88975295D01*
X125897142Y-88975295D02*
X125897142Y-89118152D01*
X125897142Y-89118152D02*
X125849523Y-89213390D01*
X125849523Y-89213390D02*
X125801904Y-89261009D01*
X125801904Y-89261009D02*
X125706666Y-89308628D01*
X125706666Y-89308628D02*
X125325714Y-89308628D01*
X126849523Y-89784819D02*
X126278095Y-89784819D01*
X126563809Y-89784819D02*
X126563809Y-88784819D01*
X126563809Y-88784819D02*
X126468571Y-88927676D01*
X126468571Y-88927676D02*
X126373333Y-89022914D01*
X126373333Y-89022914D02*
X126278095Y-89070533D01*
X127230476Y-88880057D02*
X127278095Y-88832438D01*
X127278095Y-88832438D02*
X127373333Y-88784819D01*
X127373333Y-88784819D02*
X127611428Y-88784819D01*
X127611428Y-88784819D02*
X127706666Y-88832438D01*
X127706666Y-88832438D02*
X127754285Y-88880057D01*
X127754285Y-88880057D02*
X127801904Y-88975295D01*
X127801904Y-88975295D02*
X127801904Y-89070533D01*
X127801904Y-89070533D02*
X127754285Y-89213390D01*
X127754285Y-89213390D02*
X127182857Y-89784819D01*
X127182857Y-89784819D02*
X127801904Y-89784819D01*
X125897142Y-85734819D02*
X125563809Y-85258628D01*
X125325714Y-85734819D02*
X125325714Y-84734819D01*
X125325714Y-84734819D02*
X125706666Y-84734819D01*
X125706666Y-84734819D02*
X125801904Y-84782438D01*
X125801904Y-84782438D02*
X125849523Y-84830057D01*
X125849523Y-84830057D02*
X125897142Y-84925295D01*
X125897142Y-84925295D02*
X125897142Y-85068152D01*
X125897142Y-85068152D02*
X125849523Y-85163390D01*
X125849523Y-85163390D02*
X125801904Y-85211009D01*
X125801904Y-85211009D02*
X125706666Y-85258628D01*
X125706666Y-85258628D02*
X125325714Y-85258628D01*
X126849523Y-85734819D02*
X126278095Y-85734819D01*
X126563809Y-85734819D02*
X126563809Y-84734819D01*
X126563809Y-84734819D02*
X126468571Y-84877676D01*
X126468571Y-84877676D02*
X126373333Y-84972914D01*
X126373333Y-84972914D02*
X126278095Y-85020533D01*
X127801904Y-85734819D02*
X127230476Y-85734819D01*
X127516190Y-85734819D02*
X127516190Y-84734819D01*
X127516190Y-84734819D02*
X127420952Y-84877676D01*
X127420952Y-84877676D02*
X127325714Y-84972914D01*
X127325714Y-84972914D02*
X127230476Y-85020533D01*
X125897142Y-81684819D02*
X125563809Y-81208628D01*
X125325714Y-81684819D02*
X125325714Y-80684819D01*
X125325714Y-80684819D02*
X125706666Y-80684819D01*
X125706666Y-80684819D02*
X125801904Y-80732438D01*
X125801904Y-80732438D02*
X125849523Y-80780057D01*
X125849523Y-80780057D02*
X125897142Y-80875295D01*
X125897142Y-80875295D02*
X125897142Y-81018152D01*
X125897142Y-81018152D02*
X125849523Y-81113390D01*
X125849523Y-81113390D02*
X125801904Y-81161009D01*
X125801904Y-81161009D02*
X125706666Y-81208628D01*
X125706666Y-81208628D02*
X125325714Y-81208628D01*
X126849523Y-81684819D02*
X126278095Y-81684819D01*
X126563809Y-81684819D02*
X126563809Y-80684819D01*
X126563809Y-80684819D02*
X126468571Y-80827676D01*
X126468571Y-80827676D02*
X126373333Y-80922914D01*
X126373333Y-80922914D02*
X126278095Y-80970533D01*
X127468571Y-80684819D02*
X127563809Y-80684819D01*
X127563809Y-80684819D02*
X127659047Y-80732438D01*
X127659047Y-80732438D02*
X127706666Y-80780057D01*
X127706666Y-80780057D02*
X127754285Y-80875295D01*
X127754285Y-80875295D02*
X127801904Y-81065771D01*
X127801904Y-81065771D02*
X127801904Y-81303866D01*
X127801904Y-81303866D02*
X127754285Y-81494342D01*
X127754285Y-81494342D02*
X127706666Y-81589580D01*
X127706666Y-81589580D02*
X127659047Y-81637200D01*
X127659047Y-81637200D02*
X127563809Y-81684819D01*
X127563809Y-81684819D02*
X127468571Y-81684819D01*
X127468571Y-81684819D02*
X127373333Y-81637200D01*
X127373333Y-81637200D02*
X127325714Y-81589580D01*
X127325714Y-81589580D02*
X127278095Y-81494342D01*
X127278095Y-81494342D02*
X127230476Y-81303866D01*
X127230476Y-81303866D02*
X127230476Y-81065771D01*
X127230476Y-81065771D02*
X127278095Y-80875295D01*
X127278095Y-80875295D02*
X127325714Y-80780057D01*
X127325714Y-80780057D02*
X127373333Y-80732438D01*
X127373333Y-80732438D02*
X127468571Y-80684819D01*
X126373333Y-77634819D02*
X126040000Y-77158628D01*
X125801905Y-77634819D02*
X125801905Y-76634819D01*
X125801905Y-76634819D02*
X126182857Y-76634819D01*
X126182857Y-76634819D02*
X126278095Y-76682438D01*
X126278095Y-76682438D02*
X126325714Y-76730057D01*
X126325714Y-76730057D02*
X126373333Y-76825295D01*
X126373333Y-76825295D02*
X126373333Y-76968152D01*
X126373333Y-76968152D02*
X126325714Y-77063390D01*
X126325714Y-77063390D02*
X126278095Y-77111009D01*
X126278095Y-77111009D02*
X126182857Y-77158628D01*
X126182857Y-77158628D02*
X125801905Y-77158628D01*
X126849524Y-77634819D02*
X127040000Y-77634819D01*
X127040000Y-77634819D02*
X127135238Y-77587200D01*
X127135238Y-77587200D02*
X127182857Y-77539580D01*
X127182857Y-77539580D02*
X127278095Y-77396723D01*
X127278095Y-77396723D02*
X127325714Y-77206247D01*
X127325714Y-77206247D02*
X127325714Y-76825295D01*
X127325714Y-76825295D02*
X127278095Y-76730057D01*
X127278095Y-76730057D02*
X127230476Y-76682438D01*
X127230476Y-76682438D02*
X127135238Y-76634819D01*
X127135238Y-76634819D02*
X126944762Y-76634819D01*
X126944762Y-76634819D02*
X126849524Y-76682438D01*
X126849524Y-76682438D02*
X126801905Y-76730057D01*
X126801905Y-76730057D02*
X126754286Y-76825295D01*
X126754286Y-76825295D02*
X126754286Y-77063390D01*
X126754286Y-77063390D02*
X126801905Y-77158628D01*
X126801905Y-77158628D02*
X126849524Y-77206247D01*
X126849524Y-77206247D02*
X126944762Y-77253866D01*
X126944762Y-77253866D02*
X127135238Y-77253866D01*
X127135238Y-77253866D02*
X127230476Y-77206247D01*
X127230476Y-77206247D02*
X127278095Y-77158628D01*
X127278095Y-77158628D02*
X127325714Y-77063390D01*
X126373333Y-73584819D02*
X126040000Y-73108628D01*
X125801905Y-73584819D02*
X125801905Y-72584819D01*
X125801905Y-72584819D02*
X126182857Y-72584819D01*
X126182857Y-72584819D02*
X126278095Y-72632438D01*
X126278095Y-72632438D02*
X126325714Y-72680057D01*
X126325714Y-72680057D02*
X126373333Y-72775295D01*
X126373333Y-72775295D02*
X126373333Y-72918152D01*
X126373333Y-72918152D02*
X126325714Y-73013390D01*
X126325714Y-73013390D02*
X126278095Y-73061009D01*
X126278095Y-73061009D02*
X126182857Y-73108628D01*
X126182857Y-73108628D02*
X125801905Y-73108628D01*
X126944762Y-73013390D02*
X126849524Y-72965771D01*
X126849524Y-72965771D02*
X126801905Y-72918152D01*
X126801905Y-72918152D02*
X126754286Y-72822914D01*
X126754286Y-72822914D02*
X126754286Y-72775295D01*
X126754286Y-72775295D02*
X126801905Y-72680057D01*
X126801905Y-72680057D02*
X126849524Y-72632438D01*
X126849524Y-72632438D02*
X126944762Y-72584819D01*
X126944762Y-72584819D02*
X127135238Y-72584819D01*
X127135238Y-72584819D02*
X127230476Y-72632438D01*
X127230476Y-72632438D02*
X127278095Y-72680057D01*
X127278095Y-72680057D02*
X127325714Y-72775295D01*
X127325714Y-72775295D02*
X127325714Y-72822914D01*
X127325714Y-72822914D02*
X127278095Y-72918152D01*
X127278095Y-72918152D02*
X127230476Y-72965771D01*
X127230476Y-72965771D02*
X127135238Y-73013390D01*
X127135238Y-73013390D02*
X126944762Y-73013390D01*
X126944762Y-73013390D02*
X126849524Y-73061009D01*
X126849524Y-73061009D02*
X126801905Y-73108628D01*
X126801905Y-73108628D02*
X126754286Y-73203866D01*
X126754286Y-73203866D02*
X126754286Y-73394342D01*
X126754286Y-73394342D02*
X126801905Y-73489580D01*
X126801905Y-73489580D02*
X126849524Y-73537200D01*
X126849524Y-73537200D02*
X126944762Y-73584819D01*
X126944762Y-73584819D02*
X127135238Y-73584819D01*
X127135238Y-73584819D02*
X127230476Y-73537200D01*
X127230476Y-73537200D02*
X127278095Y-73489580D01*
X127278095Y-73489580D02*
X127325714Y-73394342D01*
X127325714Y-73394342D02*
X127325714Y-73203866D01*
X127325714Y-73203866D02*
X127278095Y-73108628D01*
X127278095Y-73108628D02*
X127230476Y-73061009D01*
X127230476Y-73061009D02*
X127135238Y-73013390D01*
X117693333Y-97884819D02*
X117360000Y-97408628D01*
X117121905Y-97884819D02*
X117121905Y-96884819D01*
X117121905Y-96884819D02*
X117502857Y-96884819D01*
X117502857Y-96884819D02*
X117598095Y-96932438D01*
X117598095Y-96932438D02*
X117645714Y-96980057D01*
X117645714Y-96980057D02*
X117693333Y-97075295D01*
X117693333Y-97075295D02*
X117693333Y-97218152D01*
X117693333Y-97218152D02*
X117645714Y-97313390D01*
X117645714Y-97313390D02*
X117598095Y-97361009D01*
X117598095Y-97361009D02*
X117502857Y-97408628D01*
X117502857Y-97408628D02*
X117121905Y-97408628D01*
X118026667Y-96884819D02*
X118693333Y-96884819D01*
X118693333Y-96884819D02*
X118264762Y-97884819D01*
X117693333Y-93834819D02*
X117360000Y-93358628D01*
X117121905Y-93834819D02*
X117121905Y-92834819D01*
X117121905Y-92834819D02*
X117502857Y-92834819D01*
X117502857Y-92834819D02*
X117598095Y-92882438D01*
X117598095Y-92882438D02*
X117645714Y-92930057D01*
X117645714Y-92930057D02*
X117693333Y-93025295D01*
X117693333Y-93025295D02*
X117693333Y-93168152D01*
X117693333Y-93168152D02*
X117645714Y-93263390D01*
X117645714Y-93263390D02*
X117598095Y-93311009D01*
X117598095Y-93311009D02*
X117502857Y-93358628D01*
X117502857Y-93358628D02*
X117121905Y-93358628D01*
X118550476Y-92834819D02*
X118360000Y-92834819D01*
X118360000Y-92834819D02*
X118264762Y-92882438D01*
X118264762Y-92882438D02*
X118217143Y-92930057D01*
X118217143Y-92930057D02*
X118121905Y-93072914D01*
X118121905Y-93072914D02*
X118074286Y-93263390D01*
X118074286Y-93263390D02*
X118074286Y-93644342D01*
X118074286Y-93644342D02*
X118121905Y-93739580D01*
X118121905Y-93739580D02*
X118169524Y-93787200D01*
X118169524Y-93787200D02*
X118264762Y-93834819D01*
X118264762Y-93834819D02*
X118455238Y-93834819D01*
X118455238Y-93834819D02*
X118550476Y-93787200D01*
X118550476Y-93787200D02*
X118598095Y-93739580D01*
X118598095Y-93739580D02*
X118645714Y-93644342D01*
X118645714Y-93644342D02*
X118645714Y-93406247D01*
X118645714Y-93406247D02*
X118598095Y-93311009D01*
X118598095Y-93311009D02*
X118550476Y-93263390D01*
X118550476Y-93263390D02*
X118455238Y-93215771D01*
X118455238Y-93215771D02*
X118264762Y-93215771D01*
X118264762Y-93215771D02*
X118169524Y-93263390D01*
X118169524Y-93263390D02*
X118121905Y-93311009D01*
X118121905Y-93311009D02*
X118074286Y-93406247D01*
X117693333Y-89784819D02*
X117360000Y-89308628D01*
X117121905Y-89784819D02*
X117121905Y-88784819D01*
X117121905Y-88784819D02*
X117502857Y-88784819D01*
X117502857Y-88784819D02*
X117598095Y-88832438D01*
X117598095Y-88832438D02*
X117645714Y-88880057D01*
X117645714Y-88880057D02*
X117693333Y-88975295D01*
X117693333Y-88975295D02*
X117693333Y-89118152D01*
X117693333Y-89118152D02*
X117645714Y-89213390D01*
X117645714Y-89213390D02*
X117598095Y-89261009D01*
X117598095Y-89261009D02*
X117502857Y-89308628D01*
X117502857Y-89308628D02*
X117121905Y-89308628D01*
X118598095Y-88784819D02*
X118121905Y-88784819D01*
X118121905Y-88784819D02*
X118074286Y-89261009D01*
X118074286Y-89261009D02*
X118121905Y-89213390D01*
X118121905Y-89213390D02*
X118217143Y-89165771D01*
X118217143Y-89165771D02*
X118455238Y-89165771D01*
X118455238Y-89165771D02*
X118550476Y-89213390D01*
X118550476Y-89213390D02*
X118598095Y-89261009D01*
X118598095Y-89261009D02*
X118645714Y-89356247D01*
X118645714Y-89356247D02*
X118645714Y-89594342D01*
X118645714Y-89594342D02*
X118598095Y-89689580D01*
X118598095Y-89689580D02*
X118550476Y-89737200D01*
X118550476Y-89737200D02*
X118455238Y-89784819D01*
X118455238Y-89784819D02*
X118217143Y-89784819D01*
X118217143Y-89784819D02*
X118121905Y-89737200D01*
X118121905Y-89737200D02*
X118074286Y-89689580D01*
X117693333Y-85734819D02*
X117360000Y-85258628D01*
X117121905Y-85734819D02*
X117121905Y-84734819D01*
X117121905Y-84734819D02*
X117502857Y-84734819D01*
X117502857Y-84734819D02*
X117598095Y-84782438D01*
X117598095Y-84782438D02*
X117645714Y-84830057D01*
X117645714Y-84830057D02*
X117693333Y-84925295D01*
X117693333Y-84925295D02*
X117693333Y-85068152D01*
X117693333Y-85068152D02*
X117645714Y-85163390D01*
X117645714Y-85163390D02*
X117598095Y-85211009D01*
X117598095Y-85211009D02*
X117502857Y-85258628D01*
X117502857Y-85258628D02*
X117121905Y-85258628D01*
X118550476Y-85068152D02*
X118550476Y-85734819D01*
X118312381Y-84687200D02*
X118074286Y-85401485D01*
X118074286Y-85401485D02*
X118693333Y-85401485D01*
X117693333Y-81684819D02*
X117360000Y-81208628D01*
X117121905Y-81684819D02*
X117121905Y-80684819D01*
X117121905Y-80684819D02*
X117502857Y-80684819D01*
X117502857Y-80684819D02*
X117598095Y-80732438D01*
X117598095Y-80732438D02*
X117645714Y-80780057D01*
X117645714Y-80780057D02*
X117693333Y-80875295D01*
X117693333Y-80875295D02*
X117693333Y-81018152D01*
X117693333Y-81018152D02*
X117645714Y-81113390D01*
X117645714Y-81113390D02*
X117598095Y-81161009D01*
X117598095Y-81161009D02*
X117502857Y-81208628D01*
X117502857Y-81208628D02*
X117121905Y-81208628D01*
X118026667Y-80684819D02*
X118645714Y-80684819D01*
X118645714Y-80684819D02*
X118312381Y-81065771D01*
X118312381Y-81065771D02*
X118455238Y-81065771D01*
X118455238Y-81065771D02*
X118550476Y-81113390D01*
X118550476Y-81113390D02*
X118598095Y-81161009D01*
X118598095Y-81161009D02*
X118645714Y-81256247D01*
X118645714Y-81256247D02*
X118645714Y-81494342D01*
X118645714Y-81494342D02*
X118598095Y-81589580D01*
X118598095Y-81589580D02*
X118550476Y-81637200D01*
X118550476Y-81637200D02*
X118455238Y-81684819D01*
X118455238Y-81684819D02*
X118169524Y-81684819D01*
X118169524Y-81684819D02*
X118074286Y-81637200D01*
X118074286Y-81637200D02*
X118026667Y-81589580D01*
X117693333Y-77634819D02*
X117360000Y-77158628D01*
X117121905Y-77634819D02*
X117121905Y-76634819D01*
X117121905Y-76634819D02*
X117502857Y-76634819D01*
X117502857Y-76634819D02*
X117598095Y-76682438D01*
X117598095Y-76682438D02*
X117645714Y-76730057D01*
X117645714Y-76730057D02*
X117693333Y-76825295D01*
X117693333Y-76825295D02*
X117693333Y-76968152D01*
X117693333Y-76968152D02*
X117645714Y-77063390D01*
X117645714Y-77063390D02*
X117598095Y-77111009D01*
X117598095Y-77111009D02*
X117502857Y-77158628D01*
X117502857Y-77158628D02*
X117121905Y-77158628D01*
X118074286Y-76730057D02*
X118121905Y-76682438D01*
X118121905Y-76682438D02*
X118217143Y-76634819D01*
X118217143Y-76634819D02*
X118455238Y-76634819D01*
X118455238Y-76634819D02*
X118550476Y-76682438D01*
X118550476Y-76682438D02*
X118598095Y-76730057D01*
X118598095Y-76730057D02*
X118645714Y-76825295D01*
X118645714Y-76825295D02*
X118645714Y-76920533D01*
X118645714Y-76920533D02*
X118598095Y-77063390D01*
X118598095Y-77063390D02*
X118026667Y-77634819D01*
X118026667Y-77634819D02*
X118645714Y-77634819D01*
X117693333Y-73584819D02*
X117360000Y-73108628D01*
X117121905Y-73584819D02*
X117121905Y-72584819D01*
X117121905Y-72584819D02*
X117502857Y-72584819D01*
X117502857Y-72584819D02*
X117598095Y-72632438D01*
X117598095Y-72632438D02*
X117645714Y-72680057D01*
X117645714Y-72680057D02*
X117693333Y-72775295D01*
X117693333Y-72775295D02*
X117693333Y-72918152D01*
X117693333Y-72918152D02*
X117645714Y-73013390D01*
X117645714Y-73013390D02*
X117598095Y-73061009D01*
X117598095Y-73061009D02*
X117502857Y-73108628D01*
X117502857Y-73108628D02*
X117121905Y-73108628D01*
X118645714Y-73584819D02*
X118074286Y-73584819D01*
X118360000Y-73584819D02*
X118360000Y-72584819D01*
X118360000Y-72584819D02*
X118264762Y-72727676D01*
X118264762Y-72727676D02*
X118169524Y-72822914D01*
X118169524Y-72822914D02*
X118074286Y-72870533D01*
X143334819Y-102583333D02*
X144049104Y-102583333D01*
X144049104Y-102583333D02*
X144191961Y-102630952D01*
X144191961Y-102630952D02*
X144287200Y-102726190D01*
X144287200Y-102726190D02*
X144334819Y-102869047D01*
X144334819Y-102869047D02*
X144334819Y-102964285D01*
X143334819Y-102202380D02*
X143334819Y-101583333D01*
X143334819Y-101583333D02*
X143715771Y-101916666D01*
X143715771Y-101916666D02*
X143715771Y-101773809D01*
X143715771Y-101773809D02*
X143763390Y-101678571D01*
X143763390Y-101678571D02*
X143811009Y-101630952D01*
X143811009Y-101630952D02*
X143906247Y-101583333D01*
X143906247Y-101583333D02*
X144144342Y-101583333D01*
X144144342Y-101583333D02*
X144239580Y-101630952D01*
X144239580Y-101630952D02*
X144287200Y-101678571D01*
X144287200Y-101678571D02*
X144334819Y-101773809D01*
X144334819Y-101773809D02*
X144334819Y-102059523D01*
X144334819Y-102059523D02*
X144287200Y-102154761D01*
X144287200Y-102154761D02*
X144239580Y-102202380D01*
X99954819Y-102583333D02*
X100669104Y-102583333D01*
X100669104Y-102583333D02*
X100811961Y-102630952D01*
X100811961Y-102630952D02*
X100907200Y-102726190D01*
X100907200Y-102726190D02*
X100954819Y-102869047D01*
X100954819Y-102869047D02*
X100954819Y-102964285D01*
X100050057Y-102154761D02*
X100002438Y-102107142D01*
X100002438Y-102107142D02*
X99954819Y-102011904D01*
X99954819Y-102011904D02*
X99954819Y-101773809D01*
X99954819Y-101773809D02*
X100002438Y-101678571D01*
X100002438Y-101678571D02*
X100050057Y-101630952D01*
X100050057Y-101630952D02*
X100145295Y-101583333D01*
X100145295Y-101583333D02*
X100240533Y-101583333D01*
X100240533Y-101583333D02*
X100383390Y-101630952D01*
X100383390Y-101630952D02*
X100954819Y-102202380D01*
X100954819Y-102202380D02*
X100954819Y-101583333D01*
X125916666Y-59334819D02*
X125916666Y-60049104D01*
X125916666Y-60049104D02*
X125869047Y-60191961D01*
X125869047Y-60191961D02*
X125773809Y-60287200D01*
X125773809Y-60287200D02*
X125630952Y-60334819D01*
X125630952Y-60334819D02*
X125535714Y-60334819D01*
X126916666Y-60334819D02*
X126345238Y-60334819D01*
X126630952Y-60334819D02*
X126630952Y-59334819D01*
X126630952Y-59334819D02*
X126535714Y-59477676D01*
X126535714Y-59477676D02*
X126440476Y-59572914D01*
X126440476Y-59572914D02*
X126345238Y-59620533D01*
D11*
%TO.C,U2*%
X131795000Y-105190000D02*
X131795000Y-125630000D01*
X131795000Y-125630000D02*
X137095000Y-125630000D01*
X133445000Y-105190000D02*
X131795000Y-105190000D01*
X137095000Y-105190000D02*
X135445000Y-105190000D01*
X137095000Y-125630000D02*
X137095000Y-105190000D01*
X135445000Y-105190000D02*
G75*
G02*
X133445000Y-105190000I-1000000J0D01*
G01*
%TO.C,U1*%
X116175000Y-105190000D02*
X116175000Y-125630000D01*
X116175000Y-125630000D02*
X121475000Y-125630000D01*
X117825000Y-105190000D02*
X116175000Y-105190000D01*
X121475000Y-105190000D02*
X119825000Y-105190000D01*
X121475000Y-125630000D02*
X121475000Y-105190000D01*
X119825000Y-105190000D02*
G75*
G02*
X117825000Y-105190000I-1000000J0D01*
G01*
%TO.C,R19*%
X134050000Y-91700000D02*
X136660000Y-91700000D01*
X134050000Y-91700000D02*
G75*
G02*
X131310000Y-91700000I-1370000J0D01*
G01*
X131310000Y-91700000D02*
G75*
G02*
X134050000Y-91700000I1370000J0D01*
G01*
%TO.C,R18*%
X134050000Y-87650000D02*
X136660000Y-87650000D01*
X134050000Y-87650000D02*
G75*
G02*
X131310000Y-87650000I-1370000J0D01*
G01*
X131310000Y-87650000D02*
G75*
G02*
X134050000Y-87650000I1370000J0D01*
G01*
%TO.C,R17*%
X134050000Y-83600000D02*
X136660000Y-83600000D01*
X134050000Y-83600000D02*
G75*
G02*
X131310000Y-83600000I-1370000J0D01*
G01*
X131310000Y-83600000D02*
G75*
G02*
X134050000Y-83600000I1370000J0D01*
G01*
%TO.C,R16*%
X134050000Y-79550000D02*
X136660000Y-79550000D01*
X134050000Y-79550000D02*
G75*
G02*
X131310000Y-79550000I-1370000J0D01*
G01*
X131310000Y-79550000D02*
G75*
G02*
X134050000Y-79550000I1370000J0D01*
G01*
%TO.C,R15*%
X134050000Y-75500000D02*
X136660000Y-75500000D01*
X134050000Y-75500000D02*
G75*
G02*
X131310000Y-75500000I-1370000J0D01*
G01*
X131310000Y-75500000D02*
G75*
G02*
X134050000Y-75500000I1370000J0D01*
G01*
%TO.C,R14*%
X125370000Y-99800000D02*
X127980000Y-99800000D01*
X125370000Y-99800000D02*
G75*
G02*
X122630000Y-99800000I-1370000J0D01*
G01*
X122630000Y-99800000D02*
G75*
G02*
X125370000Y-99800000I1370000J0D01*
G01*
%TO.C,R13*%
X125370000Y-95750000D02*
X127980000Y-95750000D01*
X125370000Y-95750000D02*
G75*
G02*
X122630000Y-95750000I-1370000J0D01*
G01*
X122630000Y-95750000D02*
G75*
G02*
X125370000Y-95750000I1370000J0D01*
G01*
%TO.C,R12*%
X125370000Y-91700000D02*
X127980000Y-91700000D01*
X125370000Y-91700000D02*
G75*
G02*
X122630000Y-91700000I-1370000J0D01*
G01*
X122630000Y-91700000D02*
G75*
G02*
X125370000Y-91700000I1370000J0D01*
G01*
%TO.C,R11*%
X125370000Y-87650000D02*
X127980000Y-87650000D01*
X125370000Y-87650000D02*
G75*
G02*
X122630000Y-87650000I-1370000J0D01*
G01*
X122630000Y-87650000D02*
G75*
G02*
X125370000Y-87650000I1370000J0D01*
G01*
%TO.C,R10*%
X125370000Y-83600000D02*
X127980000Y-83600000D01*
X125370000Y-83600000D02*
G75*
G02*
X122630000Y-83600000I-1370000J0D01*
G01*
X122630000Y-83600000D02*
G75*
G02*
X125370000Y-83600000I1370000J0D01*
G01*
%TO.C,R9*%
X125370000Y-79550000D02*
X127980000Y-79550000D01*
X125370000Y-79550000D02*
G75*
G02*
X122630000Y-79550000I-1370000J0D01*
G01*
X122630000Y-79550000D02*
G75*
G02*
X125370000Y-79550000I1370000J0D01*
G01*
%TO.C,R8*%
X125370000Y-75500000D02*
X127980000Y-75500000D01*
X125370000Y-75500000D02*
G75*
G02*
X122630000Y-75500000I-1370000J0D01*
G01*
X122630000Y-75500000D02*
G75*
G02*
X125370000Y-75500000I1370000J0D01*
G01*
%TO.C,R7*%
X116690000Y-99800000D02*
X119300000Y-99800000D01*
X116690000Y-99800000D02*
G75*
G02*
X113950000Y-99800000I-1370000J0D01*
G01*
X113950000Y-99800000D02*
G75*
G02*
X116690000Y-99800000I1370000J0D01*
G01*
%TO.C,R6*%
X116690000Y-95750000D02*
X119300000Y-95750000D01*
X116690000Y-95750000D02*
G75*
G02*
X113950000Y-95750000I-1370000J0D01*
G01*
X113950000Y-95750000D02*
G75*
G02*
X116690000Y-95750000I1370000J0D01*
G01*
%TO.C,R5*%
X116690000Y-91700000D02*
X119300000Y-91700000D01*
X116690000Y-91700000D02*
G75*
G02*
X113950000Y-91700000I-1370000J0D01*
G01*
X113950000Y-91700000D02*
G75*
G02*
X116690000Y-91700000I1370000J0D01*
G01*
%TO.C,R4*%
X116690000Y-87650000D02*
X119300000Y-87650000D01*
X116690000Y-87650000D02*
G75*
G02*
X113950000Y-87650000I-1370000J0D01*
G01*
X113950000Y-87650000D02*
G75*
G02*
X116690000Y-87650000I1370000J0D01*
G01*
%TO.C,R3*%
X116690000Y-83600000D02*
X119300000Y-83600000D01*
X116690000Y-83600000D02*
G75*
G02*
X113950000Y-83600000I-1370000J0D01*
G01*
X113950000Y-83600000D02*
G75*
G02*
X116690000Y-83600000I1370000J0D01*
G01*
%TO.C,R2*%
X116690000Y-79550000D02*
X119300000Y-79550000D01*
X116690000Y-79550000D02*
G75*
G02*
X113950000Y-79550000I-1370000J0D01*
G01*
X113950000Y-79550000D02*
G75*
G02*
X116690000Y-79550000I1370000J0D01*
G01*
%TO.C,R1*%
X116690000Y-75500000D02*
X119300000Y-75500000D01*
X116690000Y-75500000D02*
G75*
G02*
X113950000Y-75500000I-1370000J0D01*
G01*
X113950000Y-75500000D02*
G75*
G02*
X116690000Y-75500000I1370000J0D01*
G01*
%TO.C,J3*%
X144880000Y-132620000D02*
X152920000Y-132620000D01*
X144880000Y-132620000D02*
X144880000Y-71880000D01*
X148500000Y-132620000D02*
X148500000Y-131380000D01*
X149500000Y-132620000D02*
X149500000Y-131380000D01*
X150800000Y-132620000D02*
X150800000Y-131380000D01*
X152920000Y-132620000D02*
X152920000Y-129800000D01*
X152920000Y-129200000D02*
X152920000Y-71880000D01*
X148500000Y-127620000D02*
X148500000Y-126312000D01*
X149500000Y-127620000D02*
X149500000Y-126312000D01*
X150800000Y-127620000D02*
X150800000Y-125043000D01*
X150204000Y-125944000D02*
X150247000Y-125987000D01*
X150443000Y-125705000D02*
X150486000Y-125748000D01*
X150800000Y-123957000D02*
X150800000Y-120043000D01*
X147514000Y-123253000D02*
X147557000Y-123296000D01*
X147753000Y-123013000D02*
X147796000Y-123056000D01*
X148500000Y-122688000D02*
X148500000Y-121312000D01*
X149500000Y-122688000D02*
X149500000Y-121312000D01*
X150204000Y-120944000D02*
X150247000Y-120987000D01*
X150443000Y-120705000D02*
X150486000Y-120748000D01*
X150800000Y-118957000D02*
X150800000Y-115043000D01*
X147514000Y-118253000D02*
X147557000Y-118296000D01*
X147753000Y-118013000D02*
X147796000Y-118056000D01*
X148500000Y-117688000D02*
X148500000Y-116312000D01*
X149500000Y-117688000D02*
X149500000Y-116312000D01*
X150204000Y-115944000D02*
X150247000Y-115987000D01*
X150443000Y-115705000D02*
X150486000Y-115748000D01*
X150800000Y-113957000D02*
X150800000Y-110043000D01*
X147514000Y-113253000D02*
X147557000Y-113296000D01*
X147753000Y-113013000D02*
X147796000Y-113056000D01*
X148500000Y-112688000D02*
X148500000Y-111312000D01*
X149500000Y-112688000D02*
X149500000Y-111312000D01*
X150204000Y-110944000D02*
X150247000Y-110987000D01*
X150443000Y-110705000D02*
X150486000Y-110748000D01*
X150800000Y-108957000D02*
X150800000Y-105043000D01*
X147514000Y-108253000D02*
X147557000Y-108296000D01*
X147753000Y-108013000D02*
X147796000Y-108056000D01*
X148500000Y-107688000D02*
X148500000Y-106312000D01*
X149500000Y-107688000D02*
X149500000Y-106312000D01*
X150204000Y-105944000D02*
X150247000Y-105987000D01*
X150443000Y-105705000D02*
X150486000Y-105748000D01*
X150800000Y-103957000D02*
X150800000Y-100043000D01*
X147514000Y-103253000D02*
X147557000Y-103296000D01*
X147753000Y-103013000D02*
X147796000Y-103056000D01*
X148500000Y-102688000D02*
X148500000Y-101312000D01*
X149500000Y-102688000D02*
X149500000Y-101312000D01*
X150204000Y-100944000D02*
X150247000Y-100987000D01*
X150443000Y-100705000D02*
X150486000Y-100748000D01*
X150800000Y-98957000D02*
X150800000Y-95043000D01*
X147514000Y-98253000D02*
X147557000Y-98296000D01*
X147753000Y-98013000D02*
X147796000Y-98056000D01*
X148500000Y-97688000D02*
X148500000Y-96312000D01*
X149500000Y-97688000D02*
X149500000Y-96312000D01*
X150204000Y-95944000D02*
X150247000Y-95987000D01*
X150443000Y-95705000D02*
X150486000Y-95748000D01*
X150800000Y-93957000D02*
X150800000Y-90043000D01*
X147514000Y-93253000D02*
X147557000Y-93296000D01*
X147753000Y-93013000D02*
X147796000Y-93056000D01*
X148500000Y-92688000D02*
X148500000Y-91312000D01*
X149500000Y-92688000D02*
X149500000Y-91312000D01*
X150204000Y-90944000D02*
X150247000Y-90987000D01*
X150443000Y-90705000D02*
X150486000Y-90748000D01*
X150800000Y-88957000D02*
X150800000Y-85043000D01*
X147514000Y-88253000D02*
X147557000Y-88296000D01*
X147753000Y-88013000D02*
X147796000Y-88056000D01*
X148500000Y-87688000D02*
X148500000Y-86312000D01*
X149500000Y-87688000D02*
X149500000Y-86312000D01*
X150204000Y-85944000D02*
X150247000Y-85987000D01*
X150443000Y-85705000D02*
X150486000Y-85748000D01*
X150800000Y-83957000D02*
X150800000Y-80043000D01*
X147514000Y-83253000D02*
X147557000Y-83296000D01*
X147753000Y-83013000D02*
X147796000Y-83056000D01*
X148500000Y-82688000D02*
X148500000Y-81312000D01*
X149500000Y-82688000D02*
X149500000Y-81312000D01*
X150204000Y-80944000D02*
X150247000Y-80987000D01*
X150443000Y-80705000D02*
X150486000Y-80748000D01*
X150800000Y-78957000D02*
X150800000Y-75043000D01*
X147514000Y-78253000D02*
X147557000Y-78296000D01*
X147753000Y-78013000D02*
X147796000Y-78056000D01*
X148500000Y-77688000D02*
X148500000Y-76312000D01*
X149500000Y-77688000D02*
X149500000Y-76312000D01*
X150204000Y-75944000D02*
X150247000Y-75987000D01*
X150443000Y-75705000D02*
X150486000Y-75748000D01*
X150800000Y-73957000D02*
X150800000Y-71880000D01*
X147514000Y-73253000D02*
X147557000Y-73296000D01*
X147753000Y-73013000D02*
X147796000Y-73056000D01*
X148500000Y-72688000D02*
X148500000Y-71880000D01*
X149500000Y-72688000D02*
X149500000Y-71880000D01*
X144880000Y-71880000D02*
X152920000Y-71880000D01*
X149554000Y-131380000D02*
G75*
G02*
X148445528Y-131379861I-554000J1879990D01*
G01*
X147120000Y-130054000D02*
G75*
G02*
X147120139Y-128945528I1880000J554000D01*
G01*
X150880000Y-128946000D02*
G75*
G02*
X150879861Y-130054472I-1879990J-554000D01*
G01*
X148446000Y-127620000D02*
G75*
G02*
X149554472Y-127620139I554000J-1880000D01*
G01*
X150960000Y-124500000D02*
G75*
G02*
X147040000Y-124500000I-1960000J0D01*
G01*
X147040000Y-124500000D02*
G75*
G02*
X150960000Y-124500000I1960000J0D01*
G01*
X150960000Y-119500000D02*
G75*
G02*
X147040000Y-119500000I-1960000J0D01*
G01*
X147040000Y-119500000D02*
G75*
G02*
X150960000Y-119500000I1960000J0D01*
G01*
X150960000Y-114500000D02*
G75*
G02*
X147040000Y-114500000I-1960000J0D01*
G01*
X147040000Y-114500000D02*
G75*
G02*
X150960000Y-114500000I1960000J0D01*
G01*
X150960000Y-109500000D02*
G75*
G02*
X147040000Y-109500000I-1960000J0D01*
G01*
X147040000Y-109500000D02*
G75*
G02*
X150960000Y-109500000I1960000J0D01*
G01*
X150960000Y-104500000D02*
G75*
G02*
X147040000Y-104500000I-1960000J0D01*
G01*
X147040000Y-104500000D02*
G75*
G02*
X150960000Y-104500000I1960000J0D01*
G01*
X150960000Y-99500000D02*
G75*
G02*
X147040000Y-99500000I-1960000J0D01*
G01*
X147040000Y-99500000D02*
G75*
G02*
X150960000Y-99500000I1960000J0D01*
G01*
X150960000Y-94500000D02*
G75*
G02*
X147040000Y-94500000I-1960000J0D01*
G01*
X147040000Y-94500000D02*
G75*
G02*
X150960000Y-94500000I1960000J0D01*
G01*
X150960000Y-89500000D02*
G75*
G02*
X147040000Y-89500000I-1960000J0D01*
G01*
X147040000Y-89500000D02*
G75*
G02*
X150960000Y-89500000I1960000J0D01*
G01*
X150960000Y-84500000D02*
G75*
G02*
X147040000Y-84500000I-1960000J0D01*
G01*
X147040000Y-84500000D02*
G75*
G02*
X150960000Y-84500000I1960000J0D01*
G01*
X150960000Y-79500000D02*
G75*
G02*
X147040000Y-79500000I-1960000J0D01*
G01*
X147040000Y-79500000D02*
G75*
G02*
X150960000Y-79500000I1960000J0D01*
G01*
X150960000Y-74500000D02*
G75*
G02*
X147040000Y-74500000I-1960000J0D01*
G01*
X147040000Y-74500000D02*
G75*
G02*
X150960000Y-74500000I1960000J0D01*
G01*
X153530000Y-129940000D02*
X152920000Y-129500000D01*
X153530000Y-129060000D01*
X153530000Y-129940000D01*
G36*
X153530000Y-129940000D02*
G01*
X152920000Y-129500000D01*
X153530000Y-129060000D01*
X153530000Y-129940000D01*
G37*
%TO.C,J2*%
X99380000Y-132620000D02*
X107420000Y-132620000D01*
X99380000Y-132620000D02*
X99380000Y-71880000D01*
X103000000Y-132620000D02*
X103000000Y-131380000D01*
X104000000Y-132620000D02*
X104000000Y-131380000D01*
X105300000Y-132620000D02*
X105300000Y-131380000D01*
X107420000Y-132620000D02*
X107420000Y-129800000D01*
X107420000Y-129200000D02*
X107420000Y-71880000D01*
X103000000Y-127620000D02*
X103000000Y-126312000D01*
X104000000Y-127620000D02*
X104000000Y-126312000D01*
X105300000Y-127620000D02*
X105300000Y-125043000D01*
X104704000Y-125944000D02*
X104747000Y-125987000D01*
X104943000Y-125705000D02*
X104986000Y-125748000D01*
X105300000Y-123957000D02*
X105300000Y-120043000D01*
X102014000Y-123253000D02*
X102057000Y-123296000D01*
X102253000Y-123013000D02*
X102296000Y-123056000D01*
X103000000Y-122688000D02*
X103000000Y-121312000D01*
X104000000Y-122688000D02*
X104000000Y-121312000D01*
X104704000Y-120944000D02*
X104747000Y-120987000D01*
X104943000Y-120705000D02*
X104986000Y-120748000D01*
X105300000Y-118957000D02*
X105300000Y-115043000D01*
X102014000Y-118253000D02*
X102057000Y-118296000D01*
X102253000Y-118013000D02*
X102296000Y-118056000D01*
X103000000Y-117688000D02*
X103000000Y-116312000D01*
X104000000Y-117688000D02*
X104000000Y-116312000D01*
X104704000Y-115944000D02*
X104747000Y-115987000D01*
X104943000Y-115705000D02*
X104986000Y-115748000D01*
X105300000Y-113957000D02*
X105300000Y-110043000D01*
X102014000Y-113253000D02*
X102057000Y-113296000D01*
X102253000Y-113013000D02*
X102296000Y-113056000D01*
X103000000Y-112688000D02*
X103000000Y-111312000D01*
X104000000Y-112688000D02*
X104000000Y-111312000D01*
X104704000Y-110944000D02*
X104747000Y-110987000D01*
X104943000Y-110705000D02*
X104986000Y-110748000D01*
X105300000Y-108957000D02*
X105300000Y-105043000D01*
X102014000Y-108253000D02*
X102057000Y-108296000D01*
X102253000Y-108013000D02*
X102296000Y-108056000D01*
X103000000Y-107688000D02*
X103000000Y-106312000D01*
X104000000Y-107688000D02*
X104000000Y-106312000D01*
X104704000Y-105944000D02*
X104747000Y-105987000D01*
X104943000Y-105705000D02*
X104986000Y-105748000D01*
X105300000Y-103957000D02*
X105300000Y-100043000D01*
X102014000Y-103253000D02*
X102057000Y-103296000D01*
X102253000Y-103013000D02*
X102296000Y-103056000D01*
X103000000Y-102688000D02*
X103000000Y-101312000D01*
X104000000Y-102688000D02*
X104000000Y-101312000D01*
X104704000Y-100944000D02*
X104747000Y-100987000D01*
X104943000Y-100705000D02*
X104986000Y-100748000D01*
X105300000Y-98957000D02*
X105300000Y-95043000D01*
X102014000Y-98253000D02*
X102057000Y-98296000D01*
X102253000Y-98013000D02*
X102296000Y-98056000D01*
X103000000Y-97688000D02*
X103000000Y-96312000D01*
X104000000Y-97688000D02*
X104000000Y-96312000D01*
X104704000Y-95944000D02*
X104747000Y-95987000D01*
X104943000Y-95705000D02*
X104986000Y-95748000D01*
X105300000Y-93957000D02*
X105300000Y-90043000D01*
X102014000Y-93253000D02*
X102057000Y-93296000D01*
X102253000Y-93013000D02*
X102296000Y-93056000D01*
X103000000Y-92688000D02*
X103000000Y-91312000D01*
X104000000Y-92688000D02*
X104000000Y-91312000D01*
X104704000Y-90944000D02*
X104747000Y-90987000D01*
X104943000Y-90705000D02*
X104986000Y-90748000D01*
X105300000Y-88957000D02*
X105300000Y-85043000D01*
X102014000Y-88253000D02*
X102057000Y-88296000D01*
X102253000Y-88013000D02*
X102296000Y-88056000D01*
X103000000Y-87688000D02*
X103000000Y-86312000D01*
X104000000Y-87688000D02*
X104000000Y-86312000D01*
X104704000Y-85944000D02*
X104747000Y-85987000D01*
X104943000Y-85705000D02*
X104986000Y-85748000D01*
X105300000Y-83957000D02*
X105300000Y-80043000D01*
X102014000Y-83253000D02*
X102057000Y-83296000D01*
X102253000Y-83013000D02*
X102296000Y-83056000D01*
X103000000Y-82688000D02*
X103000000Y-81312000D01*
X104000000Y-82688000D02*
X104000000Y-81312000D01*
X104704000Y-80944000D02*
X104747000Y-80987000D01*
X104943000Y-80705000D02*
X104986000Y-80748000D01*
X105300000Y-78957000D02*
X105300000Y-75043000D01*
X102014000Y-78253000D02*
X102057000Y-78296000D01*
X102253000Y-78013000D02*
X102296000Y-78056000D01*
X103000000Y-77688000D02*
X103000000Y-76312000D01*
X104000000Y-77688000D02*
X104000000Y-76312000D01*
X104704000Y-75944000D02*
X104747000Y-75987000D01*
X104943000Y-75705000D02*
X104986000Y-75748000D01*
X105300000Y-73957000D02*
X105300000Y-71880000D01*
X102014000Y-73253000D02*
X102057000Y-73296000D01*
X102253000Y-73013000D02*
X102296000Y-73056000D01*
X103000000Y-72688000D02*
X103000000Y-71880000D01*
X104000000Y-72688000D02*
X104000000Y-71880000D01*
X99380000Y-71880000D02*
X107420000Y-71880000D01*
X104054000Y-131380000D02*
G75*
G02*
X102945528Y-131379861I-554000J1879990D01*
G01*
X101620000Y-130054000D02*
G75*
G02*
X101620139Y-128945528I1880000J554000D01*
G01*
X105380000Y-128946000D02*
G75*
G02*
X105379861Y-130054472I-1879990J-554000D01*
G01*
X102946000Y-127620000D02*
G75*
G02*
X104054472Y-127620139I554000J-1880000D01*
G01*
X105460000Y-124500000D02*
G75*
G02*
X101540000Y-124500000I-1960000J0D01*
G01*
X101540000Y-124500000D02*
G75*
G02*
X105460000Y-124500000I1960000J0D01*
G01*
X105460000Y-119500000D02*
G75*
G02*
X101540000Y-119500000I-1960000J0D01*
G01*
X101540000Y-119500000D02*
G75*
G02*
X105460000Y-119500000I1960000J0D01*
G01*
X105460000Y-114500000D02*
G75*
G02*
X101540000Y-114500000I-1960000J0D01*
G01*
X101540000Y-114500000D02*
G75*
G02*
X105460000Y-114500000I1960000J0D01*
G01*
X105460000Y-109500000D02*
G75*
G02*
X101540000Y-109500000I-1960000J0D01*
G01*
X101540000Y-109500000D02*
G75*
G02*
X105460000Y-109500000I1960000J0D01*
G01*
X105460000Y-104500000D02*
G75*
G02*
X101540000Y-104500000I-1960000J0D01*
G01*
X101540000Y-104500000D02*
G75*
G02*
X105460000Y-104500000I1960000J0D01*
G01*
X105460000Y-99500000D02*
G75*
G02*
X101540000Y-99500000I-1960000J0D01*
G01*
X101540000Y-99500000D02*
G75*
G02*
X105460000Y-99500000I1960000J0D01*
G01*
X105460000Y-94500000D02*
G75*
G02*
X101540000Y-94500000I-1960000J0D01*
G01*
X101540000Y-94500000D02*
G75*
G02*
X105460000Y-94500000I1960000J0D01*
G01*
X105460000Y-89500000D02*
G75*
G02*
X101540000Y-89500000I-1960000J0D01*
G01*
X101540000Y-89500000D02*
G75*
G02*
X105460000Y-89500000I1960000J0D01*
G01*
X105460000Y-84500000D02*
G75*
G02*
X101540000Y-84500000I-1960000J0D01*
G01*
X101540000Y-84500000D02*
G75*
G02*
X105460000Y-84500000I1960000J0D01*
G01*
X105460000Y-79500000D02*
G75*
G02*
X101540000Y-79500000I-1960000J0D01*
G01*
X101540000Y-79500000D02*
G75*
G02*
X105460000Y-79500000I1960000J0D01*
G01*
X105460000Y-74500000D02*
G75*
G02*
X101540000Y-74500000I-1960000J0D01*
G01*
X101540000Y-74500000D02*
G75*
G02*
X105460000Y-74500000I1960000J0D01*
G01*
X108030000Y-129940000D02*
X107420000Y-129500000D01*
X108030000Y-129060000D01*
X108030000Y-129940000D01*
G36*
X108030000Y-129940000D02*
G01*
X107420000Y-129500000D01*
X108030000Y-129060000D01*
X108030000Y-129940000D01*
G37*
%TO.C,J1*%
X108380000Y-60880000D02*
X108380000Y-68920000D01*
X108380000Y-60880000D02*
X144120000Y-60880000D01*
X108380000Y-64500000D02*
X109620000Y-64500000D01*
X108380000Y-65500000D02*
X109620000Y-65500000D01*
X108380000Y-66800000D02*
X109620000Y-66800000D01*
X108380000Y-68920000D02*
X111200000Y-68920000D01*
X111800000Y-68920000D02*
X144120000Y-68920000D01*
X113380000Y-64500000D02*
X114688000Y-64500000D01*
X113380000Y-65500000D02*
X114688000Y-65500000D01*
X113380000Y-66800000D02*
X115957000Y-66800000D01*
X115056000Y-66204000D02*
X115013000Y-66247000D01*
X115295000Y-66443000D02*
X115252000Y-66486000D01*
X117043000Y-66800000D02*
X120957000Y-66800000D01*
X117747000Y-63514000D02*
X117704000Y-63557000D01*
X117987000Y-63753000D02*
X117944000Y-63796000D01*
X118312000Y-64500000D02*
X119688000Y-64500000D01*
X118312000Y-65500000D02*
X119688000Y-65500000D01*
X120056000Y-66204000D02*
X120013000Y-66247000D01*
X120295000Y-66443000D02*
X120252000Y-66486000D01*
X122043000Y-66800000D02*
X125957000Y-66800000D01*
X122747000Y-63514000D02*
X122704000Y-63557000D01*
X122987000Y-63753000D02*
X122944000Y-63796000D01*
X123312000Y-64500000D02*
X124688000Y-64500000D01*
X123312000Y-65500000D02*
X124688000Y-65500000D01*
X125056000Y-66204000D02*
X125013000Y-66247000D01*
X125295000Y-66443000D02*
X125252000Y-66486000D01*
X127043000Y-66800000D02*
X130957000Y-66800000D01*
X127747000Y-63514000D02*
X127704000Y-63557000D01*
X127987000Y-63753000D02*
X127944000Y-63796000D01*
X128312000Y-64500000D02*
X129688000Y-64500000D01*
X128312000Y-65500000D02*
X129688000Y-65500000D01*
X130056000Y-66204000D02*
X130013000Y-66247000D01*
X130295000Y-66443000D02*
X130252000Y-66486000D01*
X132043000Y-66800000D02*
X135957000Y-66800000D01*
X132747000Y-63514000D02*
X132704000Y-63557000D01*
X132987000Y-63753000D02*
X132944000Y-63796000D01*
X133312000Y-64500000D02*
X134688000Y-64500000D01*
X133312000Y-65500000D02*
X134688000Y-65500000D01*
X135056000Y-66204000D02*
X135013000Y-66247000D01*
X135295000Y-66443000D02*
X135252000Y-66486000D01*
X137043000Y-66800000D02*
X140957000Y-66800000D01*
X137747000Y-63514000D02*
X137704000Y-63557000D01*
X137987000Y-63753000D02*
X137944000Y-63796000D01*
X138312000Y-64500000D02*
X139688000Y-64500000D01*
X138312000Y-65500000D02*
X139688000Y-65500000D01*
X140056000Y-66204000D02*
X140013000Y-66247000D01*
X140295000Y-66443000D02*
X140252000Y-66486000D01*
X142043000Y-66800000D02*
X144120000Y-66800000D01*
X142747000Y-63514000D02*
X142704000Y-63557000D01*
X142987000Y-63753000D02*
X142944000Y-63796000D01*
X143312000Y-64500000D02*
X144120000Y-64500000D01*
X143312000Y-65500000D02*
X144120000Y-65500000D01*
X144120000Y-60880000D02*
X144120000Y-68920000D01*
X109620000Y-65554000D02*
G75*
G02*
X109620139Y-64445528I1879990J554000D01*
G01*
X110946000Y-63120000D02*
G75*
G02*
X112054472Y-63120139I554000J-1880000D01*
G01*
X112054000Y-66880000D02*
G75*
G02*
X110945528Y-66879861I-554000J1879990D01*
G01*
X113380000Y-64446000D02*
G75*
G02*
X113379861Y-65554472I-1880000J-554000D01*
G01*
X118460000Y-65000000D02*
G75*
G02*
X114540000Y-65000000I-1960000J0D01*
G01*
X114540000Y-65000000D02*
G75*
G02*
X118460000Y-65000000I1960000J0D01*
G01*
X123460000Y-65000000D02*
G75*
G02*
X119540000Y-65000000I-1960000J0D01*
G01*
X119540000Y-65000000D02*
G75*
G02*
X123460000Y-65000000I1960000J0D01*
G01*
X128460000Y-65000000D02*
G75*
G02*
X124540000Y-65000000I-1960000J0D01*
G01*
X124540000Y-65000000D02*
G75*
G02*
X128460000Y-65000000I1960000J0D01*
G01*
X133460000Y-65000000D02*
G75*
G02*
X129540000Y-65000000I-1960000J0D01*
G01*
X129540000Y-65000000D02*
G75*
G02*
X133460000Y-65000000I1960000J0D01*
G01*
X138460000Y-65000000D02*
G75*
G02*
X134540000Y-65000000I-1960000J0D01*
G01*
X134540000Y-65000000D02*
G75*
G02*
X138460000Y-65000000I1960000J0D01*
G01*
X143460000Y-65000000D02*
G75*
G02*
X139540000Y-65000000I-1960000J0D01*
G01*
X139540000Y-65000000D02*
G75*
G02*
X143460000Y-65000000I1960000J0D01*
G01*
X111940000Y-69530000D02*
X111060000Y-69530000D01*
X111500000Y-68920000D01*
X111940000Y-69530000D01*
G36*
X111940000Y-69530000D02*
G01*
X111060000Y-69530000D01*
X111500000Y-68920000D01*
X111940000Y-69530000D01*
G37*
%TD*%
M02*
