G04 #@! TF.GenerationSoftware,KiCad,Pcbnew,9.0.0*
G04 #@! TF.CreationDate,2025-04-01T16:42:39+01:00*
G04 #@! TF.ProjectId,SNES_CONTROLLER,534e4553-5f43-44f4-9e54-524f4c4c4552,rev?*
G04 #@! TF.SameCoordinates,Original*
G04 #@! TF.FileFunction,Copper,L1,Top*
G04 #@! TF.FilePolarity,Positive*
%FSLAX46Y46*%
G04 Gerber Fmt 4.6, Leading zero omitted, Abs format (unit mm)*
G04 Created by KiCad (PCBNEW 9.0.0) date 2025-04-01 16:42:39*
%MOMM*%
%LPD*%
G01*
G04 APERTURE LIST*
G04 Aperture macros list*
%AMRoundRect*
0 Rectangle with rounded corners*
0 $1 Rounding radius*
0 $2 $3 $4 $5 $6 $7 $8 $9 X,Y pos of 4 corners*
0 Add a 4 corners polygon primitive as box body*
4,1,4,$2,$3,$4,$5,$6,$7,$8,$9,$2,$3,0*
0 Add four circle primitives for the rounded corners*
1,1,$1+$1,$2,$3*
1,1,$1+$1,$4,$5*
1,1,$1+$1,$6,$7*
1,1,$1+$1,$8,$9*
0 Add four rect primitives between the rounded corners*
20,1,$1+$1,$2,$3,$4,$5,0*
20,1,$1+$1,$4,$5,$6,$7,0*
20,1,$1+$1,$6,$7,$8,$9,0*
20,1,$1+$1,$8,$9,$2,$3,0*%
G04 Aperture macros list end*
G04 #@! TA.AperFunction,ComponentPad*
%ADD10C,1.600000*%
G04 #@! TD*
G04 #@! TA.AperFunction,ComponentPad*
%ADD11O,1.600000X1.600000*%
G04 #@! TD*
G04 #@! TA.AperFunction,ComponentPad*
%ADD12RoundRect,0.250001X1.149999X-1.149999X1.149999X1.149999X-1.149999X1.149999X-1.149999X-1.149999X0*%
G04 #@! TD*
G04 #@! TA.AperFunction,ComponentPad*
%ADD13C,2.800000*%
G04 #@! TD*
G04 #@! TA.AperFunction,ComponentPad*
%ADD14R,1.600000X1.600000*%
G04 #@! TD*
G04 #@! TA.AperFunction,ComponentPad*
%ADD15RoundRect,0.250001X-1.149999X-1.149999X1.149999X-1.149999X1.149999X1.149999X-1.149999X1.149999X0*%
G04 #@! TD*
G04 #@! TA.AperFunction,Conductor*
%ADD16C,0.200000*%
G04 #@! TD*
G04 APERTURE END LIST*
D10*
X124000000Y-75500000D03*
D11*
X129080000Y-75500000D03*
D10*
X124000000Y-83600000D03*
D11*
X129080000Y-83600000D03*
D10*
X132680000Y-87650000D03*
D11*
X137760000Y-87650000D03*
D12*
X103500000Y-129500000D03*
D13*
X103500000Y-124500000D03*
X103500000Y-119500000D03*
X103500000Y-114500000D03*
X103500000Y-109500000D03*
X103500000Y-104500000D03*
X103500000Y-99500000D03*
X103500000Y-94500000D03*
X103500000Y-89500000D03*
X103500000Y-84500000D03*
X103500000Y-79500000D03*
X103500000Y-74500000D03*
D14*
X130635000Y-106520000D03*
D11*
X130635000Y-109060000D03*
X130635000Y-111600000D03*
X130635000Y-114140000D03*
X130635000Y-116680000D03*
X130635000Y-119220000D03*
X130635000Y-121760000D03*
X130635000Y-124300000D03*
X138255000Y-124300000D03*
X138255000Y-121760000D03*
X138255000Y-119220000D03*
X138255000Y-116680000D03*
X138255000Y-114140000D03*
X138255000Y-111600000D03*
X138255000Y-109060000D03*
X138255000Y-106520000D03*
D10*
X132680000Y-91700000D03*
D11*
X137760000Y-91700000D03*
D10*
X115320000Y-95750000D03*
D11*
X120400000Y-95750000D03*
D10*
X132680000Y-75500000D03*
D11*
X137760000Y-75500000D03*
D10*
X115320000Y-79550000D03*
D11*
X120400000Y-79550000D03*
D12*
X149000000Y-129500000D03*
D13*
X149000000Y-124500000D03*
X149000000Y-119500000D03*
X149000000Y-114500000D03*
X149000000Y-109500000D03*
X149000000Y-104500000D03*
X149000000Y-99500000D03*
X149000000Y-94500000D03*
X149000000Y-89500000D03*
X149000000Y-84500000D03*
X149000000Y-79500000D03*
X149000000Y-74500000D03*
D10*
X115320000Y-75500000D03*
D11*
X120400000Y-75500000D03*
D10*
X124000000Y-79550000D03*
D11*
X129080000Y-79550000D03*
D10*
X124000000Y-95750000D03*
D11*
X129080000Y-95750000D03*
D10*
X115320000Y-99800000D03*
D11*
X120400000Y-99800000D03*
D15*
X116250000Y-64467500D03*
D13*
X121250000Y-64467500D03*
X126250000Y-64467500D03*
X131250000Y-64467500D03*
X136250000Y-64467500D03*
D10*
X124000000Y-87650000D03*
D11*
X129080000Y-87650000D03*
D10*
X115320000Y-87650000D03*
D11*
X120400000Y-87650000D03*
D14*
X115015000Y-106520000D03*
D11*
X115015000Y-109060000D03*
X115015000Y-111600000D03*
X115015000Y-114140000D03*
X115015000Y-116680000D03*
X115015000Y-119220000D03*
X115015000Y-121760000D03*
X115015000Y-124300000D03*
X122635000Y-124300000D03*
X122635000Y-121760000D03*
X122635000Y-119220000D03*
X122635000Y-116680000D03*
X122635000Y-114140000D03*
X122635000Y-111600000D03*
X122635000Y-109060000D03*
X122635000Y-106520000D03*
D10*
X124000000Y-91700000D03*
D11*
X129080000Y-91700000D03*
D10*
X115320000Y-91700000D03*
D11*
X120400000Y-91700000D03*
D10*
X115320000Y-83600000D03*
D11*
X120400000Y-83600000D03*
D10*
X132680000Y-83600000D03*
D11*
X137760000Y-83600000D03*
D10*
X124000000Y-99800000D03*
D11*
X129080000Y-99800000D03*
D10*
X132680000Y-79550000D03*
D11*
X137760000Y-79550000D03*
D16*
X132680000Y-79550000D02*
X132680000Y-83600000D01*
X115320000Y-75500000D02*
X115320000Y-71680000D01*
X124000000Y-75500000D02*
X124000000Y-79550000D01*
X132680000Y-75500000D02*
X132680000Y-79550000D01*
X132680000Y-83600000D02*
X132680000Y-87650000D01*
X115320000Y-71680000D02*
X115500000Y-71500000D01*
X132680000Y-92180000D02*
X138255000Y-97755000D01*
X116000000Y-71500000D02*
X116500000Y-71500000D01*
X115320000Y-87650000D02*
X115320000Y-91700000D01*
X124000000Y-95750000D02*
X124000000Y-99800000D01*
X115320000Y-79550000D02*
X115320000Y-83600000D01*
X124000000Y-87650000D02*
X124000000Y-91700000D01*
X124000000Y-105155000D02*
X122635000Y-106520000D01*
X124000000Y-79550000D02*
X124000000Y-83600000D01*
X115320000Y-83600000D02*
X115320000Y-87650000D01*
X116250000Y-64467500D02*
X116250000Y-71250000D01*
X124000000Y-99800000D02*
X124000000Y-105155000D01*
X115500000Y-71500000D02*
X116000000Y-71500000D01*
X116500000Y-71500000D02*
X120000000Y-71500000D01*
X124000000Y-83600000D02*
X124000000Y-87650000D01*
X132680000Y-91700000D02*
X132680000Y-92180000D01*
X132680000Y-87650000D02*
X132680000Y-91700000D01*
X124000000Y-91700000D02*
X124000000Y-95750000D01*
X116250000Y-71250000D02*
X116500000Y-71500000D01*
X115320000Y-75500000D02*
X115320000Y-79550000D01*
X138255000Y-97755000D02*
X138255000Y-106520000D01*
X115320000Y-91700000D02*
X115320000Y-95750000D01*
X124000000Y-75500000D02*
X120000000Y-71500000D01*
X115320000Y-95750000D02*
X115320000Y-99800000D01*
X126250000Y-64467500D02*
X126250000Y-69750000D01*
X130180000Y-73680000D02*
X130180000Y-82500000D01*
X126250000Y-69750000D02*
X130180000Y-73680000D01*
X130180000Y-82500000D02*
X129080000Y-83600000D01*
X126600000Y-111730635D02*
X126600000Y-82030000D01*
X121250000Y-69750000D02*
X129500000Y-78000000D01*
X123090635Y-115240000D02*
X126600000Y-111730635D01*
X129500000Y-79130000D02*
X129080000Y-79550000D01*
X129500000Y-78000000D02*
X129500000Y-79130000D01*
X120740000Y-115240000D02*
X120500000Y-115480000D01*
X120740000Y-115240000D02*
X123090635Y-115240000D01*
X122635000Y-121760000D02*
X120500000Y-119625000D01*
X126600000Y-82030000D02*
X129080000Y-79550000D01*
X121250000Y-64467500D02*
X121250000Y-69750000D01*
X120500000Y-115480000D02*
X120500000Y-119625000D01*
X131250000Y-64467500D02*
X131250000Y-68410000D01*
X130580000Y-69080000D02*
X130580000Y-86150000D01*
X131250000Y-68410000D02*
X130580000Y-69080000D01*
X130580000Y-86150000D02*
X129080000Y-87650000D01*
X103500000Y-114500000D02*
X114655000Y-114500000D01*
X114655000Y-114500000D02*
X115015000Y-114140000D01*
X120400000Y-99800000D02*
X120400000Y-110920635D01*
X123090635Y-112700000D02*
X124000000Y-111790635D01*
X122179365Y-112700000D02*
X123090635Y-112700000D01*
X120400000Y-110920635D02*
X122179365Y-112700000D01*
X124000000Y-111790635D02*
X124000000Y-110425000D01*
X124000000Y-110425000D02*
X122635000Y-109060000D01*
X115035000Y-106500000D02*
X115000000Y-106500000D01*
X115015000Y-106520000D02*
X116600000Y-104935000D01*
X116600000Y-104935000D02*
X115035000Y-106500000D01*
X120400000Y-95750000D02*
X121535000Y-96885000D01*
X121535000Y-96885000D02*
X121535000Y-110500000D01*
X121535000Y-110500000D02*
X122635000Y-111600000D01*
X107195000Y-124500000D02*
X115015000Y-116680000D01*
X103500000Y-124500000D02*
X107195000Y-124500000D01*
X119300000Y-92800000D02*
X119300000Y-110805000D01*
X119300000Y-110805000D02*
X122635000Y-114140000D01*
X120400000Y-91700000D02*
X119300000Y-92800000D01*
X117000000Y-119775000D02*
X115015000Y-121760000D01*
X117000000Y-75500000D02*
X117000000Y-119775000D01*
X120400000Y-75500000D02*
X117000000Y-75500000D01*
X135500000Y-111385000D02*
X135500000Y-127500000D01*
X146000000Y-127500000D02*
X149000000Y-124500000D01*
X129080000Y-91700000D02*
X127000000Y-93780000D01*
X130635000Y-106520000D02*
X135500000Y-111385000D01*
X127000000Y-102885000D02*
X130635000Y-106520000D01*
X135500000Y-127500000D02*
X146000000Y-127500000D01*
X127000000Y-93780000D02*
X127000000Y-102885000D01*
X149000000Y-94500000D02*
X139355000Y-104145000D01*
X137760000Y-75500000D02*
X147300000Y-85040000D01*
X147300000Y-92800000D02*
X149000000Y-94500000D01*
X139355000Y-113040000D02*
X138255000Y-114140000D01*
X139355000Y-104145000D02*
X139355000Y-113040000D01*
X147300000Y-85040000D02*
X147300000Y-92800000D01*
X120400000Y-79550000D02*
X117400000Y-82550000D01*
X117400000Y-120930635D02*
X115470635Y-122860000D01*
X113915000Y-122215635D02*
X113915000Y-120320000D01*
X114559365Y-122860000D02*
X113915000Y-122215635D01*
X115470635Y-122860000D02*
X114559365Y-122860000D01*
X117400000Y-82550000D02*
X117400000Y-120930635D01*
X113915000Y-120320000D02*
X115015000Y-119220000D01*
X137155000Y-107960000D02*
X138255000Y-109060000D01*
X137155000Y-103825000D02*
X137155000Y-107960000D01*
X129080000Y-95750000D02*
X137155000Y-103825000D01*
X129080000Y-102425000D02*
X138255000Y-111600000D01*
X129080000Y-99800000D02*
X129080000Y-102425000D01*
X130255000Y-111600000D02*
X130635000Y-111600000D01*
X122635000Y-119220000D02*
X130255000Y-111600000D01*
M02*
