%TF.GenerationSoftware,KiCad,Pcbnew,8.0.9-8.0.9-0~ubuntu24.04.1*%
%TF.CreationDate,2025-03-04T19:24:44+01:00*%
%TF.ProjectId,SNES_CONTROLLER,534e4553-5f43-44f4-9e54-524f4c4c4552,rev?*%
%TF.SameCoordinates,Original*%
%TF.FileFunction,Copper,L2,Bot*%
%TF.FilePolarity,Positive*%
%FSLAX46Y46*%
G04 Gerber Fmt 4.6, Leading zero omitted, Abs format (unit mm)*
G04 Created by KiCad (PCBNEW 8.0.9-8.0.9-0~ubuntu24.04.1) date 2025-03-04 19:24:44*
%MOMM*%
%LPD*%
G01*
G04 APERTURE LIST*
G04 Aperture macros list*
%AMRoundRect*
0 Rectangle with rounded corners*
0 $1 Rounding radius*
0 $2 $3 $4 $5 $6 $7 $8 $9 X,Y pos of 4 corners*
0 Add a 4 corners polygon primitive as box body*
4,1,4,$2,$3,$4,$5,$6,$7,$8,$9,$2,$3,0*
0 Add four circle primitives for the rounded corners*
1,1,$1+$1,$2,$3*
1,1,$1+$1,$4,$5*
1,1,$1+$1,$6,$7*
1,1,$1+$1,$8,$9*
0 Add four rect primitives between the rounded corners*
20,1,$1+$1,$2,$3,$4,$5,0*
20,1,$1+$1,$4,$5,$6,$7,0*
20,1,$1+$1,$6,$7,$8,$9,0*
20,1,$1+$1,$8,$9,$2,$3,0*%
G04 Aperture macros list end*
%TA.AperFunction,ComponentPad*%
%ADD10C,1.600000*%
%TD*%
%TA.AperFunction,ComponentPad*%
%ADD11O,1.600000X1.600000*%
%TD*%
%TA.AperFunction,ComponentPad*%
%ADD12RoundRect,0.250001X1.149999X-1.149999X1.149999X1.149999X-1.149999X1.149999X-1.149999X-1.149999X0*%
%TD*%
%TA.AperFunction,ComponentPad*%
%ADD13C,2.800000*%
%TD*%
%TA.AperFunction,ComponentPad*%
%ADD14R,1.600000X1.600000*%
%TD*%
%TA.AperFunction,ComponentPad*%
%ADD15RoundRect,0.250001X-1.149999X-1.149999X1.149999X-1.149999X1.149999X1.149999X-1.149999X1.149999X0*%
%TD*%
%TA.AperFunction,Conductor*%
%ADD16C,0.200000*%
%TD*%
G04 APERTURE END LIST*
D10*
%TO.P,R8,1*%
%TO.N,/Vcc*%
X124000000Y-75500000D03*
D11*
%TO.P,R8,2*%
%TO.N,Net-(J2-Pin_12)*%
X129080000Y-75500000D03*
%TD*%
D10*
%TO.P,R10,1*%
%TO.N,/Vcc*%
X124000000Y-83600000D03*
D11*
%TO.P,R10,2*%
%TO.N,/Latch*%
X129080000Y-83600000D03*
%TD*%
D10*
%TO.P,R18,1*%
%TO.N,/Vcc*%
X132680000Y-87650000D03*
D11*
%TO.P,R18,2*%
%TO.N,Net-(U2-D1)*%
X137760000Y-87650000D03*
%TD*%
D12*
%TO.P,J2,1,Pin_1*%
%TO.N,/Gnd*%
X103500000Y-129500000D03*
D13*
%TO.P,J2,2,Pin_2*%
%TO.N,Net-(J2-Pin_2)*%
X103500000Y-124500000D03*
%TO.P,J2,3,Pin_3*%
%TO.N,/Gnd*%
X103500000Y-119500000D03*
%TO.P,J2,4,Pin_4*%
%TO.N,Net-(J2-Pin_4)*%
X103500000Y-114500000D03*
%TO.P,J2,5,Pin_5*%
%TO.N,/Gnd*%
X103500000Y-109500000D03*
%TO.P,J2,6,Pin_6*%
%TO.N,Net-(J2-Pin_6)*%
X103500000Y-104500000D03*
%TO.P,J2,7,Pin_7*%
%TO.N,/Gnd*%
X103500000Y-99500000D03*
%TO.P,J2,8,Pin_8*%
%TO.N,Net-(J2-Pin_8)*%
X103500000Y-94500000D03*
%TO.P,J2,9,Pin_9*%
%TO.N,/Gnd*%
X103500000Y-89500000D03*
%TO.P,J2,10,Pin_10*%
%TO.N,Net-(J2-Pin_10)*%
X103500000Y-84500000D03*
%TO.P,J2,11,Pin_11*%
%TO.N,/Gnd*%
X103500000Y-79500000D03*
%TO.P,J2,12,Pin_12*%
%TO.N,Net-(J2-Pin_12)*%
X103500000Y-74500000D03*
%TD*%
D14*
%TO.P,U2,1,D7*%
%TO.N,Net-(J3-Pin_2)*%
X130635000Y-106520000D03*
D11*
%TO.P,U2,2,Q5*%
%TO.N,unconnected-(U2-Q5-Pad2)*%
X130635000Y-109060000D03*
%TO.P,U2,3,Q7*%
%TO.N,Net-(U1-DS)*%
X130635000Y-111600000D03*
%TO.P,U2,4,D3*%
%TO.N,Net-(U2-D3)*%
X130635000Y-114140000D03*
%TO.P,U2,5,D2*%
%TO.N,Net-(U2-D2)*%
X130635000Y-116680000D03*
%TO.P,U2,6,D1*%
%TO.N,Net-(U2-D1)*%
X130635000Y-119220000D03*
%TO.P,U2,7,D0*%
%TO.N,Net-(U2-D0)*%
X130635000Y-121760000D03*
%TO.P,U2,8,VSS*%
%TO.N,/Gnd*%
X130635000Y-124300000D03*
%TO.P,U2,9,PL*%
%TO.N,/Latch*%
X138255000Y-124300000D03*
%TO.P,U2,10,CP*%
%TO.N,/Clk*%
X138255000Y-121760000D03*
%TO.P,U2,11,DS*%
%TO.N,/Gnd*%
X138255000Y-119220000D03*
%TO.P,U2,12,Q6*%
%TO.N,unconnected-(U2-Q6-Pad12)*%
X138255000Y-116680000D03*
%TO.P,U2,13,D4*%
%TO.N,Net-(J3-Pin_8)*%
X138255000Y-114140000D03*
%TO.P,U2,14,D5*%
%TO.N,Net-(J3-Pin_6)*%
X138255000Y-111600000D03*
%TO.P,U2,15,D6*%
%TO.N,Net-(J3-Pin_4)*%
X138255000Y-109060000D03*
%TO.P,U2,16,VDD*%
%TO.N,/Vcc*%
X138255000Y-106520000D03*
%TD*%
D10*
%TO.P,R19,1*%
%TO.N,/Vcc*%
X132680000Y-91700000D03*
D11*
%TO.P,R19,2*%
%TO.N,Net-(U2-D0)*%
X137760000Y-91700000D03*
%TD*%
D10*
%TO.P,R6,1*%
%TO.N,/Vcc*%
X115320000Y-95750000D03*
D11*
%TO.P,R6,2*%
%TO.N,Net-(J2-Pin_8)*%
X120400000Y-95750000D03*
%TD*%
D10*
%TO.P,R15,1*%
%TO.N,/Vcc*%
X132680000Y-75500000D03*
D11*
%TO.P,R15,2*%
%TO.N,Net-(J3-Pin_8)*%
X137760000Y-75500000D03*
%TD*%
D10*
%TO.P,R2,1*%
%TO.N,/Vcc*%
X115320000Y-79550000D03*
D11*
%TO.P,R2,2*%
%TO.N,Net-(J3-Pin_12)*%
X120400000Y-79550000D03*
%TD*%
D12*
%TO.P,J3,1,Pin_1*%
%TO.N,/Gnd*%
X149000000Y-129500000D03*
D13*
%TO.P,J3,2,Pin_2*%
%TO.N,Net-(J3-Pin_2)*%
X149000000Y-124500000D03*
%TO.P,J3,3,Pin_3*%
%TO.N,/Gnd*%
X149000000Y-119500000D03*
%TO.P,J3,4,Pin_4*%
%TO.N,Net-(J3-Pin_4)*%
X149000000Y-114500000D03*
%TO.P,J3,5,Pin_5*%
%TO.N,/Gnd*%
X149000000Y-109500000D03*
%TO.P,J3,6,Pin_6*%
%TO.N,Net-(J3-Pin_6)*%
X149000000Y-104500000D03*
%TO.P,J3,7,Pin_7*%
%TO.N,/Gnd*%
X149000000Y-99500000D03*
%TO.P,J3,8,Pin_8*%
%TO.N,Net-(J3-Pin_8)*%
X149000000Y-94500000D03*
%TO.P,J3,9,Pin_9*%
%TO.N,/Gnd*%
X149000000Y-89500000D03*
%TO.P,J3,10,Pin_10*%
%TO.N,Net-(J3-Pin_10)*%
X149000000Y-84500000D03*
%TO.P,J3,11,Pin_11*%
%TO.N,/Gnd*%
X149000000Y-79500000D03*
%TO.P,J3,12,Pin_12*%
%TO.N,Net-(J3-Pin_12)*%
X149000000Y-74500000D03*
%TD*%
D10*
%TO.P,R1,1*%
%TO.N,/Vcc*%
X115320000Y-75500000D03*
D11*
%TO.P,R1,2*%
%TO.N,Net-(J3-Pin_10)*%
X120400000Y-75500000D03*
%TD*%
D10*
%TO.P,R9,1*%
%TO.N,/Vcc*%
X124000000Y-79550000D03*
D11*
%TO.P,R9,2*%
%TO.N,/Clk*%
X129080000Y-79550000D03*
%TD*%
D10*
%TO.P,R13,1*%
%TO.N,/Vcc*%
X124000000Y-95750000D03*
D11*
%TO.P,R13,2*%
%TO.N,Net-(J3-Pin_4)*%
X129080000Y-95750000D03*
%TD*%
D10*
%TO.P,R7,1*%
%TO.N,/Vcc*%
X115320000Y-99800000D03*
D11*
%TO.P,R7,2*%
%TO.N,Net-(J2-Pin_6)*%
X120400000Y-99800000D03*
%TD*%
D15*
%TO.P,J4,1,Pin_1*%
%TO.N,/Vcc*%
X116250000Y-64467500D03*
D13*
%TO.P,J4,2,Pin_2*%
%TO.N,/Clk*%
X121250000Y-64467500D03*
%TO.P,J4,3,Pin_3*%
%TO.N,/Latch*%
X126250000Y-64467500D03*
%TO.P,J4,4,Pin_4*%
%TO.N,/Data1*%
X131250000Y-64467500D03*
%TO.P,J4,5,Pin_5*%
%TO.N,/Gnd*%
X136250000Y-64467500D03*
%TD*%
D10*
%TO.P,R11,1*%
%TO.N,/Vcc*%
X124000000Y-87650000D03*
D11*
%TO.P,R11,2*%
%TO.N,/Data1*%
X129080000Y-87650000D03*
%TD*%
D10*
%TO.P,R4,1*%
%TO.N,/Vcc*%
X115320000Y-87650000D03*
D11*
%TO.P,R4,2*%
%TO.N,Net-(J2-Pin_4)*%
X120400000Y-87650000D03*
%TD*%
D14*
%TO.P,U1,1,D7*%
%TO.N,Net-(J2-Pin_12)*%
X115015000Y-106520000D03*
D11*
%TO.P,U1,2,Q5*%
%TO.N,unconnected-(U1-Q5-Pad2)*%
X115015000Y-109060000D03*
%TO.P,U1,3,Q7*%
%TO.N,/Data1*%
X115015000Y-111600000D03*
%TO.P,U1,4,D3*%
%TO.N,Net-(J2-Pin_4)*%
X115015000Y-114140000D03*
%TO.P,U1,5,D2*%
%TO.N,Net-(J2-Pin_2)*%
X115015000Y-116680000D03*
%TO.P,U1,6,D1*%
%TO.N,Net-(J3-Pin_12)*%
X115015000Y-119220000D03*
%TO.P,U1,7,D0*%
%TO.N,Net-(J3-Pin_10)*%
X115015000Y-121760000D03*
%TO.P,U1,8,VSS*%
%TO.N,/Gnd*%
X115015000Y-124300000D03*
%TO.P,U1,9,PL*%
%TO.N,/Latch*%
X122635000Y-124300000D03*
%TO.P,U1,10,CP*%
%TO.N,/Clk*%
X122635000Y-121760000D03*
%TO.P,U1,11,DS*%
%TO.N,Net-(U1-DS)*%
X122635000Y-119220000D03*
%TO.P,U1,12,Q6*%
%TO.N,unconnected-(U1-Q6-Pad12)*%
X122635000Y-116680000D03*
%TO.P,U1,13,D4*%
%TO.N,Net-(J2-Pin_10)*%
X122635000Y-114140000D03*
%TO.P,U1,14,D5*%
%TO.N,Net-(J2-Pin_8)*%
X122635000Y-111600000D03*
%TO.P,U1,15,D6*%
%TO.N,Net-(J2-Pin_6)*%
X122635000Y-109060000D03*
%TO.P,U1,16,VDD*%
%TO.N,/Vcc*%
X122635000Y-106520000D03*
%TD*%
D10*
%TO.P,R12,1*%
%TO.N,/Vcc*%
X124000000Y-91700000D03*
D11*
%TO.P,R12,2*%
%TO.N,Net-(J3-Pin_2)*%
X129080000Y-91700000D03*
%TD*%
D10*
%TO.P,R5,1*%
%TO.N,/Vcc*%
X115320000Y-91700000D03*
D11*
%TO.P,R5,2*%
%TO.N,Net-(J2-Pin_10)*%
X120400000Y-91700000D03*
%TD*%
D10*
%TO.P,R3,1*%
%TO.N,/Vcc*%
X115320000Y-83600000D03*
D11*
%TO.P,R3,2*%
%TO.N,Net-(J2-Pin_2)*%
X120400000Y-83600000D03*
%TD*%
D10*
%TO.P,R17,1*%
%TO.N,/Vcc*%
X132680000Y-83600000D03*
D11*
%TO.P,R17,2*%
%TO.N,Net-(U2-D2)*%
X137760000Y-83600000D03*
%TD*%
D10*
%TO.P,R14,1*%
%TO.N,/Vcc*%
X124000000Y-99800000D03*
D11*
%TO.P,R14,2*%
%TO.N,Net-(J3-Pin_6)*%
X129080000Y-99800000D03*
%TD*%
D10*
%TO.P,R16,1*%
%TO.N,/Vcc*%
X132680000Y-79550000D03*
D11*
%TO.P,R16,2*%
%TO.N,Net-(U2-D3)*%
X137760000Y-79550000D03*
%TD*%
D16*
%TO.N,/Vcc*%
X131580000Y-74400000D02*
X132680000Y-75500000D01*
X124000000Y-75500000D02*
X125100000Y-74400000D01*
X125100000Y-74400000D02*
X131580000Y-74400000D01*
%TO.N,/Latch*%
X123735000Y-125400000D02*
X137155000Y-125400000D01*
X122635000Y-124300000D02*
X123735000Y-125400000D01*
X127100000Y-85580000D02*
X127100000Y-119835000D01*
X127100000Y-119835000D02*
X122635000Y-124300000D01*
X137155000Y-125400000D02*
X138255000Y-124300000D01*
X129080000Y-83600000D02*
X127100000Y-85580000D01*
%TO.N,/Clk*%
X138310635Y-125800000D02*
X122579365Y-125800000D01*
X139355000Y-122860000D02*
X139355000Y-124755635D01*
X121500000Y-122895000D02*
X122635000Y-121760000D01*
X139355000Y-124755635D02*
X138310635Y-125800000D01*
X138255000Y-121760000D02*
X139355000Y-122860000D01*
X122579365Y-125800000D02*
X121500000Y-124720635D01*
X121500000Y-124720635D02*
X121500000Y-122895000D01*
%TO.N,/Data1*%
X115015000Y-111600000D02*
X113515000Y-113100000D01*
X126500000Y-82500000D02*
X129535635Y-82500000D01*
X113515000Y-119275635D02*
X114559365Y-120320000D01*
X126500000Y-109290635D02*
X126500000Y-82500000D01*
X123090635Y-112700000D02*
X126500000Y-109290635D01*
X129535635Y-82500000D02*
X130180000Y-83144365D01*
X113515000Y-113100000D02*
X113515000Y-119275635D01*
X121535000Y-114255635D02*
X121535000Y-113344365D01*
X114559365Y-120320000D02*
X115470635Y-120320000D01*
X130180000Y-83144365D02*
X130180000Y-86550000D01*
X115470635Y-120320000D02*
X121535000Y-114255635D01*
X130180000Y-86550000D02*
X129080000Y-87650000D01*
X122179365Y-112700000D02*
X123090635Y-112700000D01*
X121535000Y-113344365D02*
X122179365Y-112700000D01*
%TO.N,Net-(J2-Pin_4)*%
X115470635Y-117780000D02*
X114559365Y-117780000D01*
X121900000Y-83544365D02*
X121900000Y-103000000D01*
X120400000Y-87650000D02*
X119300000Y-86550000D01*
X119300000Y-86550000D02*
X119300000Y-83144365D01*
X119300000Y-83144365D02*
X119944365Y-82500000D01*
X121900000Y-103000000D02*
X123735000Y-104835000D01*
X114559365Y-117780000D02*
X113915000Y-117135635D01*
X113915000Y-117135635D02*
X113915000Y-115240000D01*
X119944365Y-82500000D02*
X120855635Y-82500000D01*
X120855635Y-82500000D02*
X121900000Y-83544365D01*
X123735000Y-104835000D02*
X123735000Y-109515635D01*
X122179365Y-110160000D02*
X116115000Y-116224365D01*
X116115000Y-117135635D02*
X115470635Y-117780000D01*
X116115000Y-116224365D02*
X116115000Y-117135635D01*
X113915000Y-115240000D02*
X115015000Y-114140000D01*
X123735000Y-109515635D02*
X123090635Y-110160000D01*
X123090635Y-110160000D02*
X122179365Y-110160000D01*
%TO.N,Net-(J2-Pin_6)*%
X115700000Y-104500000D02*
X120400000Y-99800000D01*
X103500000Y-104500000D02*
X115700000Y-104500000D01*
%TO.N,Net-(J2-Pin_12)*%
X105600000Y-76600000D02*
X127980000Y-76600000D01*
X101800000Y-76200000D02*
X103500000Y-74500000D01*
X127980000Y-76600000D02*
X129080000Y-75500000D01*
X101800000Y-105204164D02*
X101800000Y-76200000D01*
X103115836Y-106520000D02*
X101800000Y-105204164D01*
X103500000Y-74500000D02*
X105600000Y-76600000D01*
X115015000Y-106520000D02*
X103115836Y-106520000D01*
%TO.N,Net-(J2-Pin_8)*%
X103500000Y-94500000D02*
X119150000Y-94500000D01*
X119150000Y-94500000D02*
X120400000Y-95750000D01*
%TO.N,Net-(J2-Pin_2)*%
X121500000Y-110195000D02*
X115015000Y-116680000D01*
X120400000Y-83600000D02*
X121500000Y-84700000D01*
X121500000Y-84700000D02*
X121500000Y-110195000D01*
%TO.N,Net-(J2-Pin_10)*%
X120400000Y-91174365D02*
X120400000Y-91700000D01*
X113725635Y-84500000D02*
X120400000Y-91174365D01*
X103500000Y-84500000D02*
X113725635Y-84500000D01*
%TO.N,Net-(J3-Pin_10)*%
X152000000Y-71000000D02*
X124900000Y-71000000D01*
X149000000Y-84500000D02*
X152000000Y-81500000D01*
X152000000Y-81500000D02*
X152000000Y-71000000D01*
X124900000Y-71000000D02*
X120400000Y-75500000D01*
%TO.N,Net-(J3-Pin_12)*%
X146000000Y-77500000D02*
X122450000Y-77500000D01*
X149000000Y-74500000D02*
X146000000Y-77500000D01*
X122450000Y-77500000D02*
X120400000Y-79550000D01*
%TO.N,Net-(J3-Pin_4)*%
X137700000Y-112700000D02*
X137155000Y-112155000D01*
X137155000Y-110160000D02*
X138255000Y-109060000D01*
X147200000Y-112700000D02*
X137700000Y-112700000D01*
X137155000Y-112155000D02*
X137155000Y-110160000D01*
X149000000Y-114500000D02*
X147200000Y-112700000D01*
%TO.N,Net-(J3-Pin_6)*%
X149000000Y-104500000D02*
X145355000Y-104500000D01*
X145355000Y-104500000D02*
X138255000Y-111600000D01*
%TO.N,Net-(U2-D3)*%
X137760000Y-79550000D02*
X137760000Y-81014365D01*
X127500000Y-91274365D02*
X127500000Y-111005000D01*
X137760000Y-81014365D02*
X127500000Y-91274365D01*
X127500000Y-111005000D02*
X130635000Y-114140000D01*
%TO.N,Net-(U2-D2)*%
X130179365Y-120660000D02*
X131169314Y-120660000D01*
X131735000Y-120094314D02*
X131735000Y-117780000D01*
X131735000Y-117780000D02*
X130635000Y-116680000D01*
X133900000Y-109319365D02*
X133900000Y-120050635D01*
X129535000Y-122215635D02*
X129535000Y-121304365D01*
X130179365Y-122860000D02*
X129535000Y-122215635D01*
X131090635Y-122860000D02*
X130179365Y-122860000D01*
X129535000Y-121304365D02*
X130179365Y-120660000D01*
X137760000Y-83600000D02*
X138860000Y-84700000D01*
X138860000Y-104359365D02*
X133900000Y-109319365D01*
X131169314Y-120660000D02*
X131735000Y-120094314D01*
X133900000Y-120050635D02*
X131090635Y-122860000D01*
X138860000Y-84700000D02*
X138860000Y-104359365D01*
%TO.N,Net-(U2-D1)*%
X130180000Y-104820000D02*
X129000000Y-106000000D01*
X130179365Y-115580000D02*
X129535000Y-116224365D01*
X131090635Y-115580000D02*
X130179365Y-115580000D01*
X131090635Y-110500000D02*
X131735000Y-111144365D01*
X137760000Y-88781370D02*
X130180000Y-96361370D01*
X129000000Y-106000000D02*
X129000000Y-110000000D01*
X137760000Y-87650000D02*
X137760000Y-88781370D01*
X129000000Y-110000000D02*
X129500000Y-110500000D01*
X131735000Y-111144365D02*
X131735000Y-114935635D01*
X131735000Y-114935635D02*
X131090635Y-115580000D01*
X130180000Y-96361370D02*
X130180000Y-104820000D01*
X129500000Y-110500000D02*
X131090635Y-110500000D01*
X129535000Y-118120000D02*
X130635000Y-119220000D01*
X129535000Y-116224365D02*
X129535000Y-118120000D01*
%TO.N,Net-(U2-D0)*%
X133500000Y-118895000D02*
X130635000Y-121760000D01*
X133500000Y-95960000D02*
X133500000Y-118895000D01*
X137760000Y-91700000D02*
X133500000Y-95960000D01*
%TD*%
M02*
