%TF.GenerationSoftware,KiCad,Pcbnew,8.0.8-8.0.8-0~ubuntu24.04.1*%
%TF.CreationDate,2025-02-09T12:29:41+01:00*%
%TF.ProjectId,SNES_CONTROLLER,534e4553-5f43-44f4-9e54-524f4c4c4552,rev?*%
%TF.SameCoordinates,Original*%
%TF.FileFunction,Copper,L1,Top*%
%TF.FilePolarity,Positive*%
%FSLAX46Y46*%
G04 Gerber Fmt 4.6, Leading zero omitted, Abs format (unit mm)*
G04 Created by KiCad (PCBNEW 8.0.8-8.0.8-0~ubuntu24.04.1) date 2025-02-09 12:29:41*
%MOMM*%
%LPD*%
G01*
G04 APERTURE LIST*
G04 Aperture macros list*
%AMRoundRect*
0 Rectangle with rounded corners*
0 $1 Rounding radius*
0 $2 $3 $4 $5 $6 $7 $8 $9 X,Y pos of 4 corners*
0 Add a 4 corners polygon primitive as box body*
4,1,4,$2,$3,$4,$5,$6,$7,$8,$9,$2,$3,0*
0 Add four circle primitives for the rounded corners*
1,1,$1+$1,$2,$3*
1,1,$1+$1,$4,$5*
1,1,$1+$1,$6,$7*
1,1,$1+$1,$8,$9*
0 Add four rect primitives between the rounded corners*
20,1,$1+$1,$2,$3,$4,$5,0*
20,1,$1+$1,$4,$5,$6,$7,0*
20,1,$1+$1,$6,$7,$8,$9,0*
20,1,$1+$1,$8,$9,$2,$3,0*%
G04 Aperture macros list end*
%TA.AperFunction,ComponentPad*%
%ADD10C,1.600000*%
%TD*%
%TA.AperFunction,ComponentPad*%
%ADD11O,1.600000X1.600000*%
%TD*%
%TA.AperFunction,ComponentPad*%
%ADD12RoundRect,0.250001X1.149999X-1.149999X1.149999X1.149999X-1.149999X1.149999X-1.149999X-1.149999X0*%
%TD*%
%TA.AperFunction,ComponentPad*%
%ADD13C,2.800000*%
%TD*%
%TA.AperFunction,ComponentPad*%
%ADD14R,1.600000X1.600000*%
%TD*%
%TA.AperFunction,ComponentPad*%
%ADD15RoundRect,0.250001X-1.149999X-1.149999X1.149999X-1.149999X1.149999X1.149999X-1.149999X1.149999X0*%
%TD*%
%TA.AperFunction,Conductor*%
%ADD16C,0.200000*%
%TD*%
G04 APERTURE END LIST*
D10*
%TO.P,R8,1*%
%TO.N,/Vcc*%
X124000000Y-75500000D03*
D11*
%TO.P,R8,2*%
%TO.N,Net-(J2-Pin_12)*%
X129080000Y-75500000D03*
%TD*%
D10*
%TO.P,R10,1*%
%TO.N,/Vcc*%
X124000000Y-83600000D03*
D11*
%TO.P,R10,2*%
%TO.N,/Latch*%
X129080000Y-83600000D03*
%TD*%
D10*
%TO.P,R18,1*%
%TO.N,/Vcc*%
X132680000Y-87650000D03*
D11*
%TO.P,R18,2*%
%TO.N,Net-(U2-D1)*%
X137760000Y-87650000D03*
%TD*%
D12*
%TO.P,J2,1,Pin_1*%
%TO.N,/Gnd*%
X103500000Y-129500000D03*
D13*
%TO.P,J2,2,Pin_2*%
%TO.N,Net-(J2-Pin_2)*%
X103500000Y-124500000D03*
%TO.P,J2,3,Pin_3*%
%TO.N,/Gnd*%
X103500000Y-119500000D03*
%TO.P,J2,4,Pin_4*%
%TO.N,Net-(J2-Pin_4)*%
X103500000Y-114500000D03*
%TO.P,J2,5,Pin_5*%
%TO.N,/Gnd*%
X103500000Y-109500000D03*
%TO.P,J2,6,Pin_6*%
%TO.N,Net-(J2-Pin_6)*%
X103500000Y-104500000D03*
%TO.P,J2,7,Pin_7*%
%TO.N,/Gnd*%
X103500000Y-99500000D03*
%TO.P,J2,8,Pin_8*%
%TO.N,Net-(J2-Pin_8)*%
X103500000Y-94500000D03*
%TO.P,J2,9,Pin_9*%
%TO.N,/Gnd*%
X103500000Y-89500000D03*
%TO.P,J2,10,Pin_10*%
%TO.N,Net-(J2-Pin_10)*%
X103500000Y-84500000D03*
%TO.P,J2,11,Pin_11*%
%TO.N,/Gnd*%
X103500000Y-79500000D03*
%TO.P,J2,12,Pin_12*%
%TO.N,Net-(J2-Pin_12)*%
X103500000Y-74500000D03*
%TD*%
D14*
%TO.P,U2,1,D7*%
%TO.N,Net-(J3-Pin_2)*%
X130635000Y-106520000D03*
D11*
%TO.P,U2,2,Q5*%
%TO.N,unconnected-(U2-Q5-Pad2)*%
X130635000Y-109060000D03*
%TO.P,U2,3,Q7*%
%TO.N,Net-(U1-DS)*%
X130635000Y-111600000D03*
%TO.P,U2,4,D3*%
%TO.N,Net-(U2-D3)*%
X130635000Y-114140000D03*
%TO.P,U2,5,D2*%
%TO.N,Net-(U2-D2)*%
X130635000Y-116680000D03*
%TO.P,U2,6,D1*%
%TO.N,Net-(U2-D1)*%
X130635000Y-119220000D03*
%TO.P,U2,7,D0*%
%TO.N,Net-(U2-D0)*%
X130635000Y-121760000D03*
%TO.P,U2,8,VSS*%
%TO.N,/Gnd*%
X130635000Y-124300000D03*
%TO.P,U2,9,PL*%
%TO.N,/Latch*%
X138255000Y-124300000D03*
%TO.P,U2,10,CP*%
%TO.N,/Clk*%
X138255000Y-121760000D03*
%TO.P,U2,11,DS*%
%TO.N,unconnected-(U2-DS-Pad11)*%
X138255000Y-119220000D03*
%TO.P,U2,12,Q6*%
%TO.N,unconnected-(U2-Q6-Pad12)*%
X138255000Y-116680000D03*
%TO.P,U2,13,D4*%
%TO.N,Net-(J3-Pin_8)*%
X138255000Y-114140000D03*
%TO.P,U2,14,D5*%
%TO.N,Net-(J3-Pin_6)*%
X138255000Y-111600000D03*
%TO.P,U2,15,D6*%
%TO.N,Net-(J3-Pin_4)*%
X138255000Y-109060000D03*
%TO.P,U2,16,VDD*%
%TO.N,/Vcc*%
X138255000Y-106520000D03*
%TD*%
D10*
%TO.P,R19,1*%
%TO.N,/Vcc*%
X132680000Y-91700000D03*
D11*
%TO.P,R19,2*%
%TO.N,Net-(U2-D0)*%
X137760000Y-91700000D03*
%TD*%
D10*
%TO.P,R6,1*%
%TO.N,/Vcc*%
X115320000Y-95750000D03*
D11*
%TO.P,R6,2*%
%TO.N,Net-(J2-Pin_8)*%
X120400000Y-95750000D03*
%TD*%
D10*
%TO.P,R15,1*%
%TO.N,/Vcc*%
X132680000Y-75500000D03*
D11*
%TO.P,R15,2*%
%TO.N,Net-(J3-Pin_8)*%
X137760000Y-75500000D03*
%TD*%
D10*
%TO.P,R2,1*%
%TO.N,/Vcc*%
X115320000Y-79550000D03*
D11*
%TO.P,R2,2*%
%TO.N,Net-(J3-Pin_12)*%
X120400000Y-79550000D03*
%TD*%
D12*
%TO.P,J3,1,Pin_1*%
%TO.N,/Gnd*%
X149000000Y-129500000D03*
D13*
%TO.P,J3,2,Pin_2*%
%TO.N,Net-(J3-Pin_2)*%
X149000000Y-124500000D03*
%TO.P,J3,3,Pin_3*%
%TO.N,/Gnd*%
X149000000Y-119500000D03*
%TO.P,J3,4,Pin_4*%
%TO.N,Net-(J3-Pin_4)*%
X149000000Y-114500000D03*
%TO.P,J3,5,Pin_5*%
%TO.N,/Gnd*%
X149000000Y-109500000D03*
%TO.P,J3,6,Pin_6*%
%TO.N,Net-(J3-Pin_6)*%
X149000000Y-104500000D03*
%TO.P,J3,7,Pin_7*%
%TO.N,/Gnd*%
X149000000Y-99500000D03*
%TO.P,J3,8,Pin_8*%
%TO.N,Net-(J3-Pin_8)*%
X149000000Y-94500000D03*
%TO.P,J3,9,Pin_9*%
%TO.N,/Gnd*%
X149000000Y-89500000D03*
%TO.P,J3,10,Pin_10*%
%TO.N,Net-(J3-Pin_10)*%
X149000000Y-84500000D03*
%TO.P,J3,11,Pin_11*%
%TO.N,/Gnd*%
X149000000Y-79500000D03*
%TO.P,J3,12,Pin_12*%
%TO.N,Net-(J3-Pin_12)*%
X149000000Y-74500000D03*
%TD*%
D10*
%TO.P,R1,1*%
%TO.N,/Vcc*%
X115320000Y-75500000D03*
D11*
%TO.P,R1,2*%
%TO.N,Net-(J3-Pin_10)*%
X120400000Y-75500000D03*
%TD*%
D10*
%TO.P,R9,1*%
%TO.N,/Vcc*%
X124000000Y-79550000D03*
D11*
%TO.P,R9,2*%
%TO.N,/Clk*%
X129080000Y-79550000D03*
%TD*%
D10*
%TO.P,R13,1*%
%TO.N,/Vcc*%
X124000000Y-95750000D03*
D11*
%TO.P,R13,2*%
%TO.N,Net-(J3-Pin_4)*%
X129080000Y-95750000D03*
%TD*%
D10*
%TO.P,R7,1*%
%TO.N,/Vcc*%
X115320000Y-99800000D03*
D11*
%TO.P,R7,2*%
%TO.N,Net-(J2-Pin_6)*%
X120400000Y-99800000D03*
%TD*%
D15*
%TO.P,J4,1,Pin_1*%
%TO.N,/Vcc*%
X116250000Y-64467500D03*
D13*
%TO.P,J4,2,Pin_2*%
%TO.N,/Clk*%
X121250000Y-64467500D03*
%TO.P,J4,3,Pin_3*%
%TO.N,/Latch*%
X126250000Y-64467500D03*
%TO.P,J4,4,Pin_4*%
%TO.N,/Data1*%
X131250000Y-64467500D03*
%TO.P,J4,5,Pin_5*%
%TO.N,/Gnd*%
X136250000Y-64467500D03*
%TD*%
D10*
%TO.P,R11,1*%
%TO.N,/Vcc*%
X124000000Y-87650000D03*
D11*
%TO.P,R11,2*%
%TO.N,/Data1*%
X129080000Y-87650000D03*
%TD*%
D10*
%TO.P,R4,1*%
%TO.N,/Vcc*%
X115320000Y-87650000D03*
D11*
%TO.P,R4,2*%
%TO.N,Net-(J2-Pin_4)*%
X120400000Y-87650000D03*
%TD*%
D14*
%TO.P,U1,1,D7*%
%TO.N,Net-(J2-Pin_12)*%
X115015000Y-106520000D03*
D11*
%TO.P,U1,2,Q5*%
%TO.N,unconnected-(U1-Q5-Pad2)*%
X115015000Y-109060000D03*
%TO.P,U1,3,Q7*%
%TO.N,/Data1*%
X115015000Y-111600000D03*
%TO.P,U1,4,D3*%
%TO.N,Net-(J2-Pin_4)*%
X115015000Y-114140000D03*
%TO.P,U1,5,D2*%
%TO.N,Net-(J2-Pin_2)*%
X115015000Y-116680000D03*
%TO.P,U1,6,D1*%
%TO.N,Net-(J3-Pin_12)*%
X115015000Y-119220000D03*
%TO.P,U1,7,D0*%
%TO.N,Net-(J3-Pin_10)*%
X115015000Y-121760000D03*
%TO.P,U1,8,VSS*%
%TO.N,/Gnd*%
X115015000Y-124300000D03*
%TO.P,U1,9,PL*%
%TO.N,/Latch*%
X122635000Y-124300000D03*
%TO.P,U1,10,CP*%
%TO.N,/Clk*%
X122635000Y-121760000D03*
%TO.P,U1,11,DS*%
%TO.N,Net-(U1-DS)*%
X122635000Y-119220000D03*
%TO.P,U1,12,Q6*%
%TO.N,unconnected-(U1-Q6-Pad12)*%
X122635000Y-116680000D03*
%TO.P,U1,13,D4*%
%TO.N,Net-(J2-Pin_10)*%
X122635000Y-114140000D03*
%TO.P,U1,14,D5*%
%TO.N,Net-(J2-Pin_8)*%
X122635000Y-111600000D03*
%TO.P,U1,15,D6*%
%TO.N,Net-(J2-Pin_6)*%
X122635000Y-109060000D03*
%TO.P,U1,16,VDD*%
%TO.N,/Vcc*%
X122635000Y-106520000D03*
%TD*%
D10*
%TO.P,R12,1*%
%TO.N,/Vcc*%
X124000000Y-91700000D03*
D11*
%TO.P,R12,2*%
%TO.N,Net-(J3-Pin_2)*%
X129080000Y-91700000D03*
%TD*%
D10*
%TO.P,R5,1*%
%TO.N,/Vcc*%
X115320000Y-91700000D03*
D11*
%TO.P,R5,2*%
%TO.N,Net-(J2-Pin_10)*%
X120400000Y-91700000D03*
%TD*%
D10*
%TO.P,R3,1*%
%TO.N,/Vcc*%
X115320000Y-83600000D03*
D11*
%TO.P,R3,2*%
%TO.N,Net-(J2-Pin_2)*%
X120400000Y-83600000D03*
%TD*%
D10*
%TO.P,R17,1*%
%TO.N,/Vcc*%
X132680000Y-83600000D03*
D11*
%TO.P,R17,2*%
%TO.N,Net-(U2-D2)*%
X137760000Y-83600000D03*
%TD*%
D10*
%TO.P,R14,1*%
%TO.N,/Vcc*%
X124000000Y-99800000D03*
D11*
%TO.P,R14,2*%
%TO.N,Net-(J3-Pin_6)*%
X129080000Y-99800000D03*
%TD*%
D10*
%TO.P,R16,1*%
%TO.N,/Vcc*%
X132680000Y-79550000D03*
D11*
%TO.P,R16,2*%
%TO.N,Net-(U2-D3)*%
X137760000Y-79550000D03*
%TD*%
D16*
%TO.N,/Vcc*%
X132680000Y-79550000D02*
X132680000Y-83600000D01*
X115320000Y-75500000D02*
X115320000Y-71680000D01*
X124000000Y-75500000D02*
X124000000Y-79550000D01*
X132680000Y-75500000D02*
X132680000Y-79550000D01*
X132680000Y-83600000D02*
X132680000Y-87650000D01*
X115320000Y-71680000D02*
X115500000Y-71500000D01*
X132680000Y-92180000D02*
X138255000Y-97755000D01*
X116000000Y-71500000D02*
X116500000Y-71500000D01*
X115320000Y-87650000D02*
X115320000Y-91700000D01*
X124000000Y-95750000D02*
X124000000Y-99800000D01*
X115320000Y-79550000D02*
X115320000Y-83600000D01*
X124000000Y-87650000D02*
X124000000Y-91700000D01*
X124000000Y-105155000D02*
X122635000Y-106520000D01*
X124000000Y-79550000D02*
X124000000Y-83600000D01*
X115320000Y-83600000D02*
X115320000Y-87650000D01*
X116250000Y-64467500D02*
X116250000Y-71250000D01*
X124000000Y-99800000D02*
X124000000Y-105155000D01*
X115500000Y-71500000D02*
X116000000Y-71500000D01*
X116500000Y-71500000D02*
X120000000Y-71500000D01*
X124000000Y-83600000D02*
X124000000Y-87650000D01*
X132680000Y-91700000D02*
X132680000Y-92180000D01*
X132680000Y-87650000D02*
X132680000Y-91700000D01*
X124000000Y-91700000D02*
X124000000Y-95750000D01*
X116250000Y-71250000D02*
X116500000Y-71500000D01*
X115320000Y-75500000D02*
X115320000Y-79550000D01*
X138255000Y-97755000D02*
X138255000Y-106520000D01*
X115320000Y-91700000D02*
X115320000Y-95750000D01*
X124000000Y-75500000D02*
X120000000Y-71500000D01*
X115320000Y-95750000D02*
X115320000Y-99800000D01*
%TO.N,/Latch*%
X126250000Y-64467500D02*
X126250000Y-69750000D01*
X130180000Y-73680000D02*
X130180000Y-82500000D01*
X126250000Y-69750000D02*
X130180000Y-73680000D01*
X130180000Y-82500000D02*
X129080000Y-83600000D01*
%TO.N,/Clk*%
X126600000Y-111730635D02*
X126600000Y-82030000D01*
X121250000Y-69750000D02*
X129500000Y-78000000D01*
X123090635Y-115240000D02*
X126600000Y-111730635D01*
X129500000Y-79130000D02*
X129080000Y-79550000D01*
X129500000Y-78000000D02*
X129500000Y-79130000D01*
X120740000Y-115240000D02*
X120500000Y-115480000D01*
X120740000Y-115240000D02*
X123090635Y-115240000D01*
X122635000Y-121760000D02*
X120500000Y-119625000D01*
X126600000Y-82030000D02*
X129080000Y-79550000D01*
X121250000Y-64467500D02*
X121250000Y-69750000D01*
X120500000Y-115480000D02*
X120500000Y-119625000D01*
%TO.N,/Data1*%
X131250000Y-64467500D02*
X131250000Y-68410000D01*
X130580000Y-69080000D02*
X130580000Y-86150000D01*
X131250000Y-68410000D02*
X130580000Y-69080000D01*
X130580000Y-86150000D02*
X129080000Y-87650000D01*
%TO.N,Net-(J2-Pin_4)*%
X103500000Y-114500000D02*
X114655000Y-114500000D01*
X114655000Y-114500000D02*
X115015000Y-114140000D01*
%TO.N,Net-(J2-Pin_6)*%
X120400000Y-99800000D02*
X120400000Y-110920635D01*
X123090635Y-112700000D02*
X124000000Y-111790635D01*
X122179365Y-112700000D02*
X123090635Y-112700000D01*
X120400000Y-110920635D02*
X122179365Y-112700000D01*
X124000000Y-111790635D02*
X124000000Y-110425000D01*
X124000000Y-110425000D02*
X122635000Y-109060000D01*
%TO.N,Net-(J2-Pin_12)*%
X115035000Y-106500000D02*
X115000000Y-106500000D01*
X115015000Y-106520000D02*
X116600000Y-104935000D01*
X116600000Y-104935000D02*
X115035000Y-106500000D01*
%TO.N,Net-(J2-Pin_8)*%
X120400000Y-95750000D02*
X121535000Y-96885000D01*
X121535000Y-96885000D02*
X121535000Y-110500000D01*
X121535000Y-110500000D02*
X122635000Y-111600000D01*
%TO.N,Net-(J2-Pin_2)*%
X107195000Y-124500000D02*
X115015000Y-116680000D01*
X103500000Y-124500000D02*
X107195000Y-124500000D01*
%TO.N,Net-(J2-Pin_10)*%
X119300000Y-92800000D02*
X119300000Y-110805000D01*
X119300000Y-110805000D02*
X122635000Y-114140000D01*
X120400000Y-91700000D02*
X119300000Y-92800000D01*
%TO.N,Net-(J3-Pin_10)*%
X117000000Y-119775000D02*
X115015000Y-121760000D01*
X117000000Y-75500000D02*
X117000000Y-119775000D01*
X120400000Y-75500000D02*
X117000000Y-75500000D01*
%TO.N,Net-(J3-Pin_2)*%
X135500000Y-111385000D02*
X135500000Y-127500000D01*
X146000000Y-127500000D02*
X149000000Y-124500000D01*
X129080000Y-91700000D02*
X127000000Y-93780000D01*
X130635000Y-106520000D02*
X135500000Y-111385000D01*
X127000000Y-102885000D02*
X130635000Y-106520000D01*
X135500000Y-127500000D02*
X146000000Y-127500000D01*
X127000000Y-93780000D02*
X127000000Y-102885000D01*
%TO.N,Net-(J3-Pin_8)*%
X149000000Y-94500000D02*
X139355000Y-104145000D01*
X137760000Y-75500000D02*
X147300000Y-85040000D01*
X147300000Y-92800000D02*
X149000000Y-94500000D01*
X139355000Y-113040000D02*
X138255000Y-114140000D01*
X139355000Y-104145000D02*
X139355000Y-113040000D01*
X147300000Y-85040000D02*
X147300000Y-92800000D01*
%TO.N,Net-(J3-Pin_12)*%
X120400000Y-79550000D02*
X117400000Y-82550000D01*
X117400000Y-120930635D02*
X115470635Y-122860000D01*
X113915000Y-122215635D02*
X113915000Y-120320000D01*
X114559365Y-122860000D02*
X113915000Y-122215635D01*
X115470635Y-122860000D02*
X114559365Y-122860000D01*
X117400000Y-82550000D02*
X117400000Y-120930635D01*
X113915000Y-120320000D02*
X115015000Y-119220000D01*
%TO.N,Net-(J3-Pin_4)*%
X137155000Y-107960000D02*
X138255000Y-109060000D01*
X137155000Y-103825000D02*
X137155000Y-107960000D01*
X129080000Y-95750000D02*
X137155000Y-103825000D01*
%TO.N,Net-(J3-Pin_6)*%
X129080000Y-102425000D02*
X138255000Y-111600000D01*
X129080000Y-99800000D02*
X129080000Y-102425000D01*
%TO.N,Net-(U1-DS)*%
X130255000Y-111600000D02*
X130635000Y-111600000D01*
X122635000Y-119220000D02*
X130255000Y-111600000D01*
%TD*%
%TA.AperFunction,Conductor*%
%TO.N,/Gnd*%
G36*
X153943039Y-60519685D02*
G01*
X153988794Y-60572489D01*
X154000000Y-60624000D01*
X154000000Y-132876000D01*
X153980315Y-132943039D01*
X153927511Y-132988794D01*
X153876000Y-133000000D01*
X99124000Y-133000000D01*
X99056961Y-132980315D01*
X99011206Y-132927511D01*
X99000000Y-132876000D01*
X99000000Y-128300014D01*
X101600000Y-128300014D01*
X101600000Y-129250000D01*
X102899999Y-129250000D01*
X102874979Y-129310402D01*
X102850000Y-129435981D01*
X102850000Y-129564019D01*
X102874979Y-129689598D01*
X102899999Y-129750000D01*
X101600000Y-129750000D01*
X101600000Y-130699985D01*
X101610493Y-130802689D01*
X101610494Y-130802696D01*
X101665641Y-130969118D01*
X101665643Y-130969123D01*
X101757684Y-131118344D01*
X101881655Y-131242315D01*
X102030876Y-131334356D01*
X102030881Y-131334358D01*
X102197303Y-131389505D01*
X102197310Y-131389506D01*
X102300014Y-131399999D01*
X102300027Y-131400000D01*
X103250000Y-131400000D01*
X103250000Y-130100001D01*
X103310402Y-130125021D01*
X103435981Y-130150000D01*
X103564019Y-130150000D01*
X103689598Y-130125021D01*
X103750000Y-130100001D01*
X103750000Y-131400000D01*
X104699973Y-131400000D01*
X104699985Y-131399999D01*
X104802689Y-131389506D01*
X104802696Y-131389505D01*
X104969118Y-131334358D01*
X104969123Y-131334356D01*
X105118344Y-131242315D01*
X105242315Y-131118344D01*
X105334356Y-130969123D01*
X105334358Y-130969118D01*
X105389505Y-130802696D01*
X105389506Y-130802689D01*
X105399999Y-130699985D01*
X105400000Y-130699972D01*
X105400000Y-129750000D01*
X104100001Y-129750000D01*
X104125021Y-129689598D01*
X104150000Y-129564019D01*
X104150000Y-129435981D01*
X104125021Y-129310402D01*
X104100001Y-129250000D01*
X105400000Y-129250000D01*
X105400000Y-128300027D01*
X105399999Y-128300014D01*
X147100000Y-128300014D01*
X147100000Y-129250000D01*
X148399999Y-129250000D01*
X148374979Y-129310402D01*
X148350000Y-129435981D01*
X148350000Y-129564019D01*
X148374979Y-129689598D01*
X148399999Y-129750000D01*
X147100000Y-129750000D01*
X147100000Y-130699985D01*
X147110493Y-130802689D01*
X147110494Y-130802696D01*
X147165641Y-130969118D01*
X147165643Y-130969123D01*
X147257684Y-131118344D01*
X147381655Y-131242315D01*
X147530876Y-131334356D01*
X147530881Y-131334358D01*
X147697303Y-131389505D01*
X147697310Y-131389506D01*
X147800014Y-131399999D01*
X147800027Y-131400000D01*
X148750000Y-131400000D01*
X148750000Y-130100001D01*
X148810402Y-130125021D01*
X148935981Y-130150000D01*
X149064019Y-130150000D01*
X149189598Y-130125021D01*
X149250000Y-130100001D01*
X149250000Y-131400000D01*
X150199973Y-131400000D01*
X150199985Y-131399999D01*
X150302689Y-131389506D01*
X150302696Y-131389505D01*
X150469118Y-131334358D01*
X150469123Y-131334356D01*
X150618344Y-131242315D01*
X150742315Y-131118344D01*
X150834356Y-130969123D01*
X150834358Y-130969118D01*
X150889505Y-130802696D01*
X150889506Y-130802689D01*
X150899999Y-130699985D01*
X150900000Y-130699972D01*
X150900000Y-129750000D01*
X149600001Y-129750000D01*
X149625021Y-129689598D01*
X149650000Y-129564019D01*
X149650000Y-129435981D01*
X149625021Y-129310402D01*
X149600001Y-129250000D01*
X150900000Y-129250000D01*
X150900000Y-128300027D01*
X150899999Y-128300014D01*
X150889506Y-128197310D01*
X150889505Y-128197303D01*
X150834358Y-128030881D01*
X150834356Y-128030876D01*
X150742315Y-127881655D01*
X150618344Y-127757684D01*
X150469123Y-127665643D01*
X150469118Y-127665641D01*
X150302696Y-127610494D01*
X150302689Y-127610493D01*
X150199985Y-127600000D01*
X149250000Y-127600000D01*
X149250000Y-128899998D01*
X149189598Y-128874979D01*
X149064019Y-128850000D01*
X148935981Y-128850000D01*
X148810402Y-128874979D01*
X148750000Y-128899998D01*
X148750000Y-127600000D01*
X147800014Y-127600000D01*
X147697310Y-127610493D01*
X147697303Y-127610494D01*
X147530881Y-127665641D01*
X147530876Y-127665643D01*
X147381655Y-127757684D01*
X147257684Y-127881655D01*
X147165643Y-128030876D01*
X147165641Y-128030881D01*
X147110494Y-128197303D01*
X147110493Y-128197310D01*
X147100000Y-128300014D01*
X105399999Y-128300014D01*
X105389506Y-128197310D01*
X105389505Y-128197303D01*
X105334358Y-128030881D01*
X105334356Y-128030876D01*
X105242315Y-127881655D01*
X105118344Y-127757684D01*
X104969123Y-127665643D01*
X104969118Y-127665641D01*
X104802696Y-127610494D01*
X104802689Y-127610493D01*
X104699985Y-127600000D01*
X103750000Y-127600000D01*
X103750000Y-128899998D01*
X103689598Y-128874979D01*
X103564019Y-128850000D01*
X103435981Y-128850000D01*
X103310402Y-128874979D01*
X103250000Y-128899998D01*
X103250000Y-127600000D01*
X102300014Y-127600000D01*
X102197310Y-127610493D01*
X102197303Y-127610494D01*
X102030881Y-127665641D01*
X102030876Y-127665643D01*
X101881655Y-127757684D01*
X101757684Y-127881655D01*
X101665643Y-128030876D01*
X101665641Y-128030881D01*
X101610494Y-128197303D01*
X101610493Y-128197310D01*
X101600000Y-128300014D01*
X99000000Y-128300014D01*
X99000000Y-119499998D01*
X101595147Y-119499998D01*
X101595147Y-119500001D01*
X101614536Y-119771090D01*
X101614537Y-119771097D01*
X101672305Y-120036654D01*
X101767285Y-120291306D01*
X101767287Y-120291310D01*
X101897532Y-120529835D01*
X101897537Y-120529843D01*
X101991321Y-120655123D01*
X101991322Y-120655124D01*
X102898958Y-119747488D01*
X102923978Y-119807890D01*
X102995112Y-119914351D01*
X103085649Y-120004888D01*
X103192110Y-120076022D01*
X103252511Y-120101041D01*
X102344874Y-121008676D01*
X102470163Y-121102466D01*
X102470164Y-121102467D01*
X102708689Y-121232712D01*
X102708693Y-121232714D01*
X102963345Y-121327694D01*
X103228902Y-121385462D01*
X103228909Y-121385463D01*
X103499999Y-121404853D01*
X103500001Y-121404853D01*
X103771090Y-121385463D01*
X103771097Y-121385462D01*
X104036654Y-121327694D01*
X104291306Y-121232714D01*
X104291310Y-121232712D01*
X104529844Y-121102462D01*
X104655123Y-121008677D01*
X104655124Y-121008676D01*
X103747488Y-120101041D01*
X103807890Y-120076022D01*
X103914351Y-120004888D01*
X104004888Y-119914351D01*
X104076022Y-119807890D01*
X104101041Y-119747488D01*
X105008676Y-120655124D01*
X105008677Y-120655123D01*
X105102462Y-120529844D01*
X105232712Y-120291310D01*
X105232714Y-120291306D01*
X105327694Y-120036654D01*
X105385462Y-119771097D01*
X105385463Y-119771090D01*
X105404853Y-119500001D01*
X105404853Y-119499998D01*
X105385463Y-119228909D01*
X105385462Y-119228902D01*
X105327694Y-118963345D01*
X105232714Y-118708693D01*
X105232712Y-118708689D01*
X105102467Y-118470164D01*
X105102466Y-118470163D01*
X105008676Y-118344874D01*
X104101041Y-119252510D01*
X104076022Y-119192110D01*
X104004888Y-119085649D01*
X103914351Y-118995112D01*
X103807890Y-118923978D01*
X103747487Y-118898957D01*
X104655124Y-117991322D01*
X104655123Y-117991321D01*
X104529843Y-117897537D01*
X104529835Y-117897532D01*
X104291310Y-117767287D01*
X104291306Y-117767285D01*
X104036654Y-117672305D01*
X103771097Y-117614537D01*
X103771090Y-117614536D01*
X103500001Y-117595147D01*
X103499999Y-117595147D01*
X103228909Y-117614536D01*
X103228902Y-117614537D01*
X102963345Y-117672305D01*
X102708693Y-117767285D01*
X102708689Y-117767287D01*
X102470164Y-117897532D01*
X102470156Y-117897537D01*
X102344875Y-117991321D01*
X102344874Y-117991322D01*
X103252511Y-118898958D01*
X103192110Y-118923978D01*
X103085649Y-118995112D01*
X102995112Y-119085649D01*
X102923978Y-119192110D01*
X102898958Y-119252511D01*
X101991322Y-118344874D01*
X101991321Y-118344875D01*
X101897537Y-118470156D01*
X101897532Y-118470164D01*
X101767287Y-118708689D01*
X101767285Y-118708693D01*
X101672305Y-118963345D01*
X101614537Y-119228902D01*
X101614536Y-119228909D01*
X101595147Y-119499998D01*
X99000000Y-119499998D01*
X99000000Y-114499998D01*
X101594645Y-114499998D01*
X101594645Y-114500001D01*
X101614039Y-114771160D01*
X101614040Y-114771167D01*
X101659282Y-114979141D01*
X101671825Y-115036801D01*
X101725671Y-115181166D01*
X101766830Y-115291519D01*
X101897109Y-115530107D01*
X101897110Y-115530108D01*
X101897113Y-115530113D01*
X102060029Y-115747742D01*
X102060033Y-115747746D01*
X102060038Y-115747752D01*
X102252247Y-115939961D01*
X102252253Y-115939966D01*
X102252258Y-115939971D01*
X102469887Y-116102887D01*
X102469891Y-116102889D01*
X102469892Y-116102890D01*
X102708481Y-116233169D01*
X102708480Y-116233169D01*
X102708484Y-116233170D01*
X102708487Y-116233172D01*
X102963199Y-116328175D01*
X103228840Y-116385961D01*
X103480605Y-116403967D01*
X103499999Y-116405355D01*
X103500000Y-116405355D01*
X103500001Y-116405355D01*
X103518100Y-116404060D01*
X103771160Y-116385961D01*
X104036801Y-116328175D01*
X104291513Y-116233172D01*
X104291517Y-116233169D01*
X104291519Y-116233169D01*
X104524027Y-116106210D01*
X104530113Y-116102887D01*
X104747742Y-115939971D01*
X104939971Y-115747742D01*
X105102887Y-115530113D01*
X105204626Y-115343791D01*
X105233169Y-115291519D01*
X105233169Y-115291517D01*
X105233172Y-115291513D01*
X105274329Y-115181165D01*
X105316201Y-115125233D01*
X105381665Y-115100816D01*
X105390511Y-115100500D01*
X114084951Y-115100500D01*
X114151990Y-115120185D01*
X114172632Y-115136819D01*
X114175858Y-115140045D01*
X114175861Y-115140047D01*
X114362266Y-115270568D01*
X114420275Y-115297618D01*
X114472714Y-115343791D01*
X114491866Y-115410984D01*
X114471650Y-115477865D01*
X114420275Y-115522382D01*
X114362267Y-115549431D01*
X114362265Y-115549432D01*
X114175858Y-115679954D01*
X114014954Y-115840858D01*
X113884432Y-116027265D01*
X113884431Y-116027267D01*
X113788261Y-116233502D01*
X113788258Y-116233511D01*
X113729366Y-116453302D01*
X113729364Y-116453313D01*
X113709532Y-116679998D01*
X113709532Y-116680001D01*
X113729364Y-116906686D01*
X113729366Y-116906697D01*
X113755152Y-117002931D01*
X113753489Y-117072781D01*
X113723058Y-117122705D01*
X106982584Y-123863181D01*
X106921261Y-123896666D01*
X106894903Y-123899500D01*
X105390511Y-123899500D01*
X105323472Y-123879815D01*
X105277717Y-123827011D01*
X105274329Y-123818834D01*
X105233169Y-123708480D01*
X105102890Y-123469892D01*
X105102889Y-123469891D01*
X105102887Y-123469887D01*
X104939971Y-123252258D01*
X104939966Y-123252253D01*
X104939961Y-123252247D01*
X104747752Y-123060038D01*
X104747746Y-123060033D01*
X104747742Y-123060029D01*
X104530113Y-122897113D01*
X104530108Y-122897110D01*
X104530107Y-122897109D01*
X104291518Y-122766830D01*
X104291519Y-122766830D01*
X104241920Y-122748330D01*
X104036801Y-122671825D01*
X104036794Y-122671823D01*
X104036793Y-122671823D01*
X103771167Y-122614040D01*
X103771160Y-122614039D01*
X103500001Y-122594645D01*
X103499999Y-122594645D01*
X103228839Y-122614039D01*
X103228832Y-122614040D01*
X102963206Y-122671823D01*
X102963202Y-122671824D01*
X102963199Y-122671825D01*
X102879013Y-122703225D01*
X102708480Y-122766830D01*
X102469892Y-122897109D01*
X102469891Y-122897110D01*
X102252259Y-123060028D01*
X102252247Y-123060038D01*
X102060038Y-123252247D01*
X102060028Y-123252259D01*
X101897110Y-123469891D01*
X101897109Y-123469892D01*
X101766830Y-123708480D01*
X101722621Y-123827011D01*
X101671825Y-123963199D01*
X101671824Y-123963202D01*
X101671823Y-123963206D01*
X101614040Y-124228832D01*
X101614039Y-124228839D01*
X101594645Y-124499998D01*
X101594645Y-124500001D01*
X101614039Y-124771160D01*
X101614040Y-124771167D01*
X101670485Y-125030642D01*
X101671825Y-125036801D01*
X101709996Y-125139141D01*
X101766830Y-125291519D01*
X101897109Y-125530107D01*
X101897110Y-125530108D01*
X101897113Y-125530113D01*
X102060029Y-125747742D01*
X102060033Y-125747746D01*
X102060038Y-125747752D01*
X102252247Y-125939961D01*
X102252253Y-125939966D01*
X102252258Y-125939971D01*
X102469887Y-126102887D01*
X102469891Y-126102889D01*
X102469892Y-126102890D01*
X102708481Y-126233169D01*
X102708480Y-126233169D01*
X102708484Y-126233170D01*
X102708487Y-126233172D01*
X102963199Y-126328175D01*
X103228840Y-126385961D01*
X103480605Y-126403967D01*
X103499999Y-126405355D01*
X103500000Y-126405355D01*
X103500001Y-126405355D01*
X103518100Y-126404060D01*
X103771160Y-126385961D01*
X104036801Y-126328175D01*
X104291513Y-126233172D01*
X104291517Y-126233169D01*
X104291519Y-126233169D01*
X104410813Y-126168029D01*
X104530113Y-126102887D01*
X104747742Y-125939971D01*
X104939971Y-125747742D01*
X105102887Y-125530113D01*
X105233172Y-125291513D01*
X105274329Y-125181165D01*
X105316201Y-125125233D01*
X105381665Y-125100816D01*
X105390511Y-125100500D01*
X107108331Y-125100500D01*
X107108347Y-125100501D01*
X107115943Y-125100501D01*
X107274054Y-125100501D01*
X107274057Y-125100501D01*
X107426785Y-125059577D01*
X107476904Y-125030639D01*
X107563716Y-124980520D01*
X107675520Y-124868716D01*
X107675520Y-124868714D01*
X107685728Y-124858507D01*
X107685730Y-124858504D01*
X113505573Y-119038660D01*
X113566894Y-119005177D01*
X113636586Y-119010161D01*
X113692519Y-119052033D01*
X113716936Y-119117497D01*
X113716780Y-119137150D01*
X113709532Y-119219997D01*
X113709532Y-119220001D01*
X113729364Y-119446686D01*
X113729366Y-119446697D01*
X113755152Y-119542931D01*
X113753489Y-119612781D01*
X113723058Y-119662705D01*
X113546286Y-119839478D01*
X113434481Y-119951282D01*
X113434479Y-119951285D01*
X113384361Y-120038094D01*
X113384359Y-120038096D01*
X113355425Y-120088209D01*
X113355424Y-120088210D01*
X113345561Y-120125021D01*
X113314499Y-120240943D01*
X113314499Y-120240945D01*
X113314499Y-120409046D01*
X113314500Y-120409059D01*
X113314500Y-122128965D01*
X113314499Y-122128983D01*
X113314499Y-122294689D01*
X113314498Y-122294689D01*
X113355423Y-122447422D01*
X113362376Y-122459464D01*
X113362378Y-122459466D01*
X113434477Y-122584347D01*
X113434481Y-122584352D01*
X113553349Y-122703220D01*
X113553355Y-122703225D01*
X114075643Y-123225514D01*
X114109128Y-123286837D01*
X114104144Y-123356529D01*
X114075645Y-123400875D01*
X114015339Y-123461182D01*
X113884866Y-123647517D01*
X113788734Y-123853673D01*
X113788730Y-123853682D01*
X113736127Y-124049999D01*
X113736128Y-124050000D01*
X114699314Y-124050000D01*
X114694920Y-124054394D01*
X114642259Y-124145606D01*
X114615000Y-124247339D01*
X114615000Y-124352661D01*
X114642259Y-124454394D01*
X114694920Y-124545606D01*
X114699314Y-124550000D01*
X113736128Y-124550000D01*
X113788730Y-124746317D01*
X113788734Y-124746326D01*
X113884865Y-124952482D01*
X114015342Y-125138820D01*
X114176179Y-125299657D01*
X114362517Y-125430134D01*
X114568673Y-125526265D01*
X114568682Y-125526269D01*
X114764999Y-125578872D01*
X114765000Y-125578871D01*
X114765000Y-124615686D01*
X114769394Y-124620080D01*
X114860606Y-124672741D01*
X114962339Y-124700000D01*
X115067661Y-124700000D01*
X115169394Y-124672741D01*
X115260606Y-124620080D01*
X115265000Y-124615686D01*
X115265000Y-125578872D01*
X115461317Y-125526269D01*
X115461326Y-125526265D01*
X115667482Y-125430134D01*
X115853820Y-125299657D01*
X116014657Y-125138820D01*
X116145134Y-124952482D01*
X116241265Y-124746326D01*
X116241269Y-124746317D01*
X116293872Y-124550000D01*
X115330686Y-124550000D01*
X115335080Y-124545606D01*
X115387741Y-124454394D01*
X115415000Y-124352661D01*
X115415000Y-124247339D01*
X115387741Y-124145606D01*
X115335080Y-124054394D01*
X115330686Y-124050000D01*
X116293872Y-124050000D01*
X116293872Y-124049999D01*
X116241269Y-123853682D01*
X116241265Y-123853673D01*
X116145134Y-123647517D01*
X116014657Y-123461179D01*
X115954355Y-123400877D01*
X115920870Y-123339554D01*
X115925854Y-123269862D01*
X115938145Y-123250739D01*
X115938136Y-123250735D01*
X115938140Y-123250727D01*
X115938262Y-123250556D01*
X115954367Y-123225502D01*
X115961360Y-123218510D01*
X115961364Y-123218505D01*
X117758506Y-121421363D01*
X117758511Y-121421359D01*
X117768714Y-121411155D01*
X117768716Y-121411155D01*
X117880520Y-121299351D01*
X117945983Y-121185965D01*
X117959577Y-121162420D01*
X118000500Y-121009692D01*
X118000500Y-120851578D01*
X118000500Y-87649998D01*
X119094532Y-87649998D01*
X119094532Y-87650001D01*
X119114364Y-87876686D01*
X119114366Y-87876697D01*
X119173258Y-88096488D01*
X119173261Y-88096497D01*
X119269431Y-88302732D01*
X119269432Y-88302734D01*
X119399954Y-88489141D01*
X119560858Y-88650045D01*
X119560861Y-88650047D01*
X119747266Y-88780568D01*
X119953504Y-88876739D01*
X120173308Y-88935635D01*
X120335230Y-88949801D01*
X120399998Y-88955468D01*
X120400000Y-88955468D01*
X120400002Y-88955468D01*
X120456673Y-88950509D01*
X120626692Y-88935635D01*
X120846496Y-88876739D01*
X121052734Y-88780568D01*
X121239139Y-88650047D01*
X121400047Y-88489139D01*
X121530568Y-88302734D01*
X121626739Y-88096496D01*
X121685635Y-87876692D01*
X121705468Y-87650000D01*
X121685635Y-87423308D01*
X121626739Y-87203504D01*
X121530568Y-86997266D01*
X121400047Y-86810861D01*
X121400045Y-86810858D01*
X121239141Y-86649954D01*
X121052734Y-86519432D01*
X121052732Y-86519431D01*
X120846497Y-86423261D01*
X120846488Y-86423258D01*
X120626697Y-86364366D01*
X120626693Y-86364365D01*
X120626692Y-86364365D01*
X120626691Y-86364364D01*
X120626686Y-86364364D01*
X120400002Y-86344532D01*
X120399998Y-86344532D01*
X120173313Y-86364364D01*
X120173302Y-86364366D01*
X119953511Y-86423258D01*
X119953502Y-86423261D01*
X119747267Y-86519431D01*
X119747265Y-86519432D01*
X119560858Y-86649954D01*
X119399954Y-86810858D01*
X119269432Y-86997265D01*
X119269431Y-86997267D01*
X119173261Y-87203502D01*
X119173258Y-87203511D01*
X119114366Y-87423302D01*
X119114364Y-87423313D01*
X119094532Y-87649998D01*
X118000500Y-87649998D01*
X118000500Y-83599998D01*
X119094532Y-83599998D01*
X119094532Y-83600001D01*
X119114364Y-83826686D01*
X119114366Y-83826697D01*
X119173258Y-84046488D01*
X119173261Y-84046497D01*
X119269431Y-84252732D01*
X119269432Y-84252734D01*
X119399954Y-84439141D01*
X119560858Y-84600045D01*
X119560861Y-84600047D01*
X119747266Y-84730568D01*
X119953504Y-84826739D01*
X120173308Y-84885635D01*
X120335230Y-84899801D01*
X120399998Y-84905468D01*
X120400000Y-84905468D01*
X120400002Y-84905468D01*
X120456673Y-84900509D01*
X120626692Y-84885635D01*
X120846496Y-84826739D01*
X121052734Y-84730568D01*
X121239139Y-84600047D01*
X121400047Y-84439139D01*
X121530568Y-84252734D01*
X121626739Y-84046496D01*
X121685635Y-83826692D01*
X121705468Y-83600000D01*
X121685635Y-83373308D01*
X121626739Y-83153504D01*
X121530568Y-82947266D01*
X121400047Y-82760861D01*
X121400045Y-82760858D01*
X121239141Y-82599954D01*
X121052734Y-82469432D01*
X121052732Y-82469431D01*
X120846497Y-82373261D01*
X120846488Y-82373258D01*
X120626697Y-82314366D01*
X120626693Y-82314365D01*
X120626692Y-82314365D01*
X120626691Y-82314364D01*
X120626686Y-82314364D01*
X120400002Y-82294532D01*
X120399998Y-82294532D01*
X120173313Y-82314364D01*
X120173302Y-82314366D01*
X119953511Y-82373258D01*
X119953502Y-82373261D01*
X119747267Y-82469431D01*
X119747265Y-82469432D01*
X119560858Y-82599954D01*
X119399954Y-82760858D01*
X119269432Y-82947265D01*
X119269431Y-82947267D01*
X119173261Y-83153502D01*
X119173258Y-83153511D01*
X119114366Y-83373302D01*
X119114364Y-83373313D01*
X119094532Y-83599998D01*
X118000500Y-83599998D01*
X118000500Y-82850096D01*
X118020185Y-82783057D01*
X118036814Y-82762420D01*
X119957294Y-80841939D01*
X120018615Y-80808456D01*
X120077066Y-80809847D01*
X120096604Y-80815082D01*
X120173308Y-80835635D01*
X120335230Y-80849801D01*
X120399998Y-80855468D01*
X120400000Y-80855468D01*
X120400002Y-80855468D01*
X120456673Y-80850509D01*
X120626692Y-80835635D01*
X120846496Y-80776739D01*
X121052734Y-80680568D01*
X121239139Y-80550047D01*
X121400047Y-80389139D01*
X121530568Y-80202734D01*
X121626739Y-79996496D01*
X121685635Y-79776692D01*
X121702634Y-79582384D01*
X121705468Y-79550001D01*
X121705468Y-79549998D01*
X121699801Y-79485230D01*
X121685635Y-79323308D01*
X121626739Y-79103504D01*
X121530568Y-78897266D01*
X121400047Y-78710861D01*
X121400045Y-78710858D01*
X121239141Y-78549954D01*
X121052734Y-78419432D01*
X121052732Y-78419431D01*
X120846497Y-78323261D01*
X120846488Y-78323258D01*
X120626697Y-78264366D01*
X120626693Y-78264365D01*
X120626692Y-78264365D01*
X120626691Y-78264364D01*
X120626686Y-78264364D01*
X120400002Y-78244532D01*
X120399998Y-78244532D01*
X120173313Y-78264364D01*
X120173302Y-78264366D01*
X119953511Y-78323258D01*
X119953502Y-78323261D01*
X119747267Y-78419431D01*
X119747265Y-78419432D01*
X119560858Y-78549954D01*
X119399954Y-78710858D01*
X119269432Y-78897265D01*
X119269431Y-78897267D01*
X119173261Y-79103502D01*
X119173258Y-79103511D01*
X119114366Y-79323302D01*
X119114364Y-79323313D01*
X119094532Y-79549998D01*
X119094532Y-79550001D01*
X119114364Y-79776686D01*
X119114366Y-79776697D01*
X119140152Y-79872931D01*
X119138489Y-79942781D01*
X119108058Y-79992705D01*
X117812181Y-81288583D01*
X117750858Y-81322068D01*
X117681166Y-81317084D01*
X117625233Y-81275212D01*
X117600816Y-81209748D01*
X117600500Y-81200902D01*
X117600500Y-76224500D01*
X117620185Y-76157461D01*
X117672989Y-76111706D01*
X117724500Y-76100500D01*
X119168308Y-76100500D01*
X119235347Y-76120185D01*
X119269880Y-76153374D01*
X119319683Y-76224500D01*
X119399954Y-76339141D01*
X119560858Y-76500045D01*
X119560861Y-76500047D01*
X119747266Y-76630568D01*
X119953504Y-76726739D01*
X120173308Y-76785635D01*
X120335230Y-76799801D01*
X120399998Y-76805468D01*
X120400000Y-76805468D01*
X120400002Y-76805468D01*
X120456673Y-76800509D01*
X120626692Y-76785635D01*
X120846496Y-76726739D01*
X121052734Y-76630568D01*
X121239139Y-76500047D01*
X121400047Y-76339139D01*
X121530568Y-76152734D01*
X121626739Y-75946496D01*
X121685635Y-75726692D01*
X121705468Y-75500000D01*
X121685635Y-75273308D01*
X121626739Y-75053504D01*
X121530568Y-74847266D01*
X121400047Y-74660861D01*
X121400045Y-74660858D01*
X121239141Y-74499954D01*
X121052734Y-74369432D01*
X121052732Y-74369431D01*
X120846497Y-74273261D01*
X120846488Y-74273258D01*
X120626697Y-74214366D01*
X120626693Y-74214365D01*
X120626692Y-74214365D01*
X120626691Y-74214364D01*
X120626686Y-74214364D01*
X120400002Y-74194532D01*
X120399998Y-74194532D01*
X120173313Y-74214364D01*
X120173302Y-74214366D01*
X119953511Y-74273258D01*
X119953502Y-74273261D01*
X119747267Y-74369431D01*
X119747265Y-74369432D01*
X119560858Y-74499954D01*
X119399954Y-74660858D01*
X119361107Y-74716339D01*
X119269881Y-74846624D01*
X119215307Y-74890248D01*
X119168308Y-74899500D01*
X116920943Y-74899500D01*
X116768216Y-74940423D01*
X116768215Y-74940423D01*
X116669363Y-74997495D01*
X116601463Y-75013967D01*
X116535436Y-74991114D01*
X116494982Y-74942512D01*
X116450568Y-74847267D01*
X116450567Y-74847265D01*
X116450117Y-74846623D01*
X116320047Y-74660861D01*
X116320045Y-74660858D01*
X116159140Y-74499953D01*
X115973377Y-74369881D01*
X115929752Y-74315304D01*
X115920500Y-74268306D01*
X115920500Y-72224500D01*
X115940185Y-72157461D01*
X115992989Y-72111706D01*
X116044500Y-72100500D01*
X116420942Y-72100500D01*
X116420943Y-72100500D01*
X119699903Y-72100500D01*
X119766942Y-72120185D01*
X119787584Y-72136819D01*
X122708058Y-75057293D01*
X122741543Y-75118616D01*
X122740152Y-75177067D01*
X122714366Y-75273302D01*
X122714364Y-75273313D01*
X122694532Y-75499998D01*
X122694532Y-75500001D01*
X122714364Y-75726686D01*
X122714366Y-75726697D01*
X122773258Y-75946488D01*
X122773261Y-75946497D01*
X122869431Y-76152732D01*
X122869432Y-76152734D01*
X122999954Y-76339141D01*
X123160858Y-76500045D01*
X123160861Y-76500047D01*
X123346624Y-76630118D01*
X123390248Y-76684693D01*
X123399500Y-76731692D01*
X123399500Y-78318306D01*
X123379815Y-78385345D01*
X123346623Y-78419881D01*
X123160859Y-78549953D01*
X122999954Y-78710858D01*
X122869432Y-78897265D01*
X122869431Y-78897267D01*
X122773261Y-79103502D01*
X122773258Y-79103511D01*
X122714366Y-79323302D01*
X122714364Y-79323313D01*
X122694532Y-79549998D01*
X122694532Y-79550001D01*
X122714364Y-79776686D01*
X122714366Y-79776697D01*
X122773258Y-79996488D01*
X122773261Y-79996497D01*
X122869431Y-80202732D01*
X122869432Y-80202734D01*
X122999954Y-80389141D01*
X123160858Y-80550045D01*
X123160861Y-80550047D01*
X123346624Y-80680118D01*
X123390248Y-80734693D01*
X123399500Y-80781692D01*
X123399500Y-82368306D01*
X123379815Y-82435345D01*
X123346623Y-82469881D01*
X123160859Y-82599953D01*
X122999954Y-82760858D01*
X122869432Y-82947265D01*
X122869431Y-82947267D01*
X122773261Y-83153502D01*
X122773258Y-83153511D01*
X122714366Y-83373302D01*
X122714364Y-83373313D01*
X122694532Y-83599998D01*
X122694532Y-83600001D01*
X122714364Y-83826686D01*
X122714366Y-83826697D01*
X122773258Y-84046488D01*
X122773261Y-84046497D01*
X122869431Y-84252732D01*
X122869432Y-84252734D01*
X122999954Y-84439141D01*
X123160858Y-84600045D01*
X123160861Y-84600047D01*
X123346624Y-84730118D01*
X123390248Y-84784693D01*
X123399500Y-84831692D01*
X123399500Y-86418306D01*
X123379815Y-86485345D01*
X123346623Y-86519881D01*
X123160859Y-86649953D01*
X122999954Y-86810858D01*
X122869432Y-86997265D01*
X122869431Y-86997267D01*
X122773261Y-87203502D01*
X122773258Y-87203511D01*
X122714366Y-87423302D01*
X122714364Y-87423313D01*
X122694532Y-87649998D01*
X122694532Y-87650001D01*
X122714364Y-87876686D01*
X122714366Y-87876697D01*
X122773258Y-88096488D01*
X122773261Y-88096497D01*
X122869431Y-88302732D01*
X122869432Y-88302734D01*
X122999954Y-88489141D01*
X123160858Y-88650045D01*
X123160861Y-88650047D01*
X123346624Y-88780118D01*
X123390248Y-88834693D01*
X123399500Y-88881692D01*
X123399500Y-90468306D01*
X123379815Y-90535345D01*
X123346623Y-90569881D01*
X123160859Y-90699953D01*
X122999954Y-90860858D01*
X122869432Y-91047265D01*
X122869431Y-91047267D01*
X122773261Y-91253502D01*
X122773258Y-91253511D01*
X122714366Y-91473302D01*
X122714364Y-91473313D01*
X122694532Y-91699998D01*
X122694532Y-91700001D01*
X122714364Y-91926686D01*
X122714366Y-91926697D01*
X122773258Y-92146488D01*
X122773261Y-92146497D01*
X122869431Y-92352732D01*
X122869432Y-92352734D01*
X122999954Y-92539141D01*
X123160858Y-92700045D01*
X123160861Y-92700047D01*
X123346624Y-92830118D01*
X123390248Y-92884693D01*
X123399500Y-92931692D01*
X123399500Y-94518306D01*
X123379815Y-94585345D01*
X123346623Y-94619881D01*
X123160859Y-94749953D01*
X122999954Y-94910858D01*
X122869432Y-95097265D01*
X122869431Y-95097267D01*
X122773261Y-95303502D01*
X122773258Y-95303511D01*
X122714366Y-95523302D01*
X122714364Y-95523313D01*
X122694532Y-95749998D01*
X122694532Y-95750001D01*
X122714364Y-95976686D01*
X122714366Y-95976697D01*
X122773258Y-96196488D01*
X122773261Y-96196497D01*
X122869431Y-96402732D01*
X122869432Y-96402734D01*
X122999954Y-96589141D01*
X123160858Y-96750045D01*
X123160861Y-96750047D01*
X123346624Y-96880118D01*
X123390248Y-96934693D01*
X123399500Y-96981692D01*
X123399500Y-98568306D01*
X123379815Y-98635345D01*
X123346623Y-98669881D01*
X123160859Y-98799953D01*
X122999954Y-98960858D01*
X122869432Y-99147265D01*
X122869431Y-99147267D01*
X122773261Y-99353502D01*
X122773258Y-99353511D01*
X122714366Y-99573302D01*
X122714364Y-99573313D01*
X122694532Y-99799998D01*
X122694532Y-99800001D01*
X122714364Y-100026686D01*
X122714366Y-100026697D01*
X122773258Y-100246488D01*
X122773261Y-100246497D01*
X122869431Y-100452732D01*
X122869432Y-100452734D01*
X122999954Y-100639141D01*
X123160858Y-100800045D01*
X123160861Y-100800047D01*
X123346624Y-100930118D01*
X123390248Y-100984693D01*
X123399500Y-101031692D01*
X123399500Y-104854902D01*
X123379815Y-104921941D01*
X123363181Y-104942583D01*
X123077705Y-105228058D01*
X123016382Y-105261543D01*
X122957931Y-105260152D01*
X122861697Y-105234366D01*
X122861693Y-105234365D01*
X122861692Y-105234365D01*
X122861691Y-105234364D01*
X122861686Y-105234364D01*
X122635002Y-105214532D01*
X122634998Y-105214532D01*
X122408313Y-105234364D01*
X122408302Y-105234366D01*
X122291593Y-105265638D01*
X122221743Y-105263975D01*
X122163881Y-105224812D01*
X122136377Y-105160583D01*
X122135500Y-105145863D01*
X122135500Y-96805945D01*
X122135500Y-96805943D01*
X122094577Y-96653216D01*
X122057584Y-96589141D01*
X122015524Y-96516290D01*
X122015521Y-96516286D01*
X122015520Y-96516284D01*
X121903716Y-96404480D01*
X121903715Y-96404479D01*
X121899385Y-96400149D01*
X121899374Y-96400139D01*
X121691941Y-96192706D01*
X121658456Y-96131383D01*
X121659847Y-96072931D01*
X121685635Y-95976692D01*
X121705468Y-95750000D01*
X121705270Y-95747742D01*
X121686230Y-95530108D01*
X121685635Y-95523308D01*
X121627916Y-95307897D01*
X121626741Y-95303511D01*
X121626738Y-95303502D01*
X121530568Y-95097267D01*
X121530567Y-95097265D01*
X121479499Y-95024332D01*
X121400047Y-94910861D01*
X121400045Y-94910858D01*
X121239141Y-94749954D01*
X121052734Y-94619432D01*
X121052732Y-94619431D01*
X120846497Y-94523261D01*
X120846488Y-94523258D01*
X120626697Y-94464366D01*
X120626693Y-94464365D01*
X120626692Y-94464365D01*
X120626691Y-94464364D01*
X120626686Y-94464364D01*
X120400002Y-94444532D01*
X120399998Y-94444532D01*
X120173313Y-94464364D01*
X120173302Y-94464366D01*
X120056593Y-94495638D01*
X119986743Y-94493975D01*
X119928881Y-94454812D01*
X119901377Y-94390583D01*
X119900500Y-94375863D01*
X119900500Y-93100097D01*
X119920185Y-93033058D01*
X119936817Y-93012418D01*
X119946046Y-93003189D01*
X119957292Y-92991942D01*
X120018613Y-92958456D01*
X120077066Y-92959846D01*
X120173308Y-92985635D01*
X120328985Y-92999255D01*
X120399998Y-93005468D01*
X120400000Y-93005468D01*
X120400002Y-93005468D01*
X120456673Y-93000509D01*
X120626692Y-92985635D01*
X120846496Y-92926739D01*
X121052734Y-92830568D01*
X121239139Y-92700047D01*
X121400047Y-92539139D01*
X121530568Y-92352734D01*
X121626739Y-92146496D01*
X121685635Y-91926692D01*
X121705468Y-91700000D01*
X121685635Y-91473308D01*
X121626739Y-91253504D01*
X121530568Y-91047266D01*
X121400047Y-90860861D01*
X121400045Y-90860858D01*
X121239141Y-90699954D01*
X121052734Y-90569432D01*
X121052732Y-90569431D01*
X120846497Y-90473261D01*
X120846488Y-90473258D01*
X120626697Y-90414366D01*
X120626693Y-90414365D01*
X120626692Y-90414365D01*
X120626691Y-90414364D01*
X120626686Y-90414364D01*
X120400002Y-90394532D01*
X120399998Y-90394532D01*
X120173313Y-90414364D01*
X120173302Y-90414366D01*
X119953511Y-90473258D01*
X119953502Y-90473261D01*
X119747267Y-90569431D01*
X119747265Y-90569432D01*
X119560858Y-90699954D01*
X119399954Y-90860858D01*
X119269432Y-91047265D01*
X119269431Y-91047267D01*
X119173261Y-91253502D01*
X119173258Y-91253511D01*
X119114366Y-91473302D01*
X119114364Y-91473313D01*
X119094532Y-91699998D01*
X119094532Y-91700001D01*
X119114364Y-91926686D01*
X119114366Y-91926697D01*
X119140152Y-92022931D01*
X119138489Y-92092781D01*
X119108058Y-92142705D01*
X118931286Y-92319478D01*
X118819481Y-92431282D01*
X118819480Y-92431284D01*
X118776798Y-92505213D01*
X118769361Y-92518094D01*
X118769359Y-92518096D01*
X118740425Y-92568209D01*
X118740424Y-92568210D01*
X118740423Y-92568215D01*
X118699499Y-92720943D01*
X118699499Y-92720945D01*
X118699499Y-92889046D01*
X118699500Y-92889059D01*
X118699500Y-110718330D01*
X118699499Y-110718348D01*
X118699499Y-110884054D01*
X118699498Y-110884054D01*
X118699499Y-110884057D01*
X118737589Y-111026210D01*
X118740424Y-111036787D01*
X118753581Y-111059575D01*
X118753582Y-111059577D01*
X118819477Y-111173712D01*
X118819481Y-111173717D01*
X118938349Y-111292585D01*
X118938355Y-111292590D01*
X121343058Y-113697293D01*
X121376543Y-113758616D01*
X121375152Y-113817067D01*
X121349366Y-113913302D01*
X121349364Y-113913313D01*
X121329532Y-114139998D01*
X121329532Y-114140001D01*
X121349364Y-114366686D01*
X121349366Y-114366697D01*
X121380638Y-114483407D01*
X121378975Y-114553257D01*
X121339812Y-114611119D01*
X121275583Y-114638623D01*
X121260863Y-114639500D01*
X120819057Y-114639500D01*
X120660942Y-114639500D01*
X120508215Y-114680423D01*
X120482050Y-114695529D01*
X120475038Y-114699578D01*
X120475037Y-114699577D01*
X120371287Y-114759477D01*
X120371282Y-114759481D01*
X120019481Y-115111282D01*
X120019477Y-115111287D01*
X120002875Y-115140045D01*
X120002874Y-115140047D01*
X119940423Y-115248215D01*
X119899499Y-115400943D01*
X119899499Y-115400945D01*
X119899499Y-115569046D01*
X119899500Y-115569059D01*
X119899500Y-119538330D01*
X119899499Y-119538348D01*
X119899499Y-119704054D01*
X119899498Y-119704054D01*
X119927321Y-119807890D01*
X119940423Y-119856785D01*
X119949631Y-119872734D01*
X119969358Y-119906900D01*
X119969359Y-119906904D01*
X119969360Y-119906904D01*
X120019479Y-119993714D01*
X120019481Y-119993717D01*
X120138349Y-120112585D01*
X120138355Y-120112590D01*
X121343058Y-121317293D01*
X121376543Y-121378616D01*
X121375152Y-121437067D01*
X121349366Y-121533302D01*
X121349364Y-121533313D01*
X121329532Y-121759998D01*
X121329532Y-121760001D01*
X121349364Y-121986686D01*
X121349366Y-121986697D01*
X121408258Y-122206488D01*
X121408261Y-122206497D01*
X121504431Y-122412732D01*
X121504432Y-122412734D01*
X121634954Y-122599141D01*
X121795858Y-122760045D01*
X121795861Y-122760047D01*
X121982266Y-122890568D01*
X122040275Y-122917618D01*
X122092714Y-122963791D01*
X122111866Y-123030984D01*
X122091650Y-123097865D01*
X122040275Y-123142382D01*
X121982267Y-123169431D01*
X121982265Y-123169432D01*
X121795858Y-123299954D01*
X121634954Y-123460858D01*
X121504432Y-123647265D01*
X121504431Y-123647267D01*
X121408261Y-123853502D01*
X121408258Y-123853511D01*
X121349366Y-124073302D01*
X121349364Y-124073313D01*
X121329532Y-124299998D01*
X121329532Y-124300001D01*
X121349364Y-124526686D01*
X121349366Y-124526697D01*
X121408258Y-124746488D01*
X121408261Y-124746497D01*
X121504431Y-124952732D01*
X121504432Y-124952734D01*
X121634954Y-125139141D01*
X121795858Y-125300045D01*
X121795861Y-125300047D01*
X121982266Y-125430568D01*
X122188504Y-125526739D01*
X122188509Y-125526740D01*
X122188511Y-125526741D01*
X122201077Y-125530108D01*
X122408308Y-125585635D01*
X122570230Y-125599801D01*
X122634998Y-125605468D01*
X122635000Y-125605468D01*
X122635002Y-125605468D01*
X122691673Y-125600509D01*
X122861692Y-125585635D01*
X123081496Y-125526739D01*
X123287734Y-125430568D01*
X123474139Y-125300047D01*
X123635047Y-125139139D01*
X123765568Y-124952734D01*
X123861739Y-124746496D01*
X123920635Y-124526692D01*
X123940468Y-124300000D01*
X123920635Y-124073308D01*
X123861739Y-123853504D01*
X123765568Y-123647266D01*
X123635047Y-123460861D01*
X123635045Y-123460858D01*
X123474141Y-123299954D01*
X123287734Y-123169432D01*
X123287728Y-123169429D01*
X123229725Y-123142382D01*
X123177285Y-123096210D01*
X123158133Y-123029017D01*
X123178348Y-122962135D01*
X123229725Y-122917618D01*
X123287734Y-122890568D01*
X123474139Y-122760047D01*
X123635047Y-122599139D01*
X123765568Y-122412734D01*
X123861739Y-122206496D01*
X123920635Y-121986692D01*
X123940468Y-121760000D01*
X123920635Y-121533308D01*
X123861739Y-121313504D01*
X123765568Y-121107266D01*
X123635047Y-120920861D01*
X123635045Y-120920858D01*
X123474141Y-120759954D01*
X123287734Y-120629432D01*
X123287728Y-120629429D01*
X123229725Y-120602382D01*
X123177285Y-120556210D01*
X123158133Y-120489017D01*
X123178348Y-120422135D01*
X123229725Y-120377618D01*
X123287734Y-120350568D01*
X123474139Y-120220047D01*
X123635047Y-120059139D01*
X123765568Y-119872734D01*
X123861739Y-119666496D01*
X123920635Y-119446692D01*
X123940468Y-119220000D01*
X123920635Y-118993308D01*
X123894847Y-118897066D01*
X123896510Y-118827217D01*
X123926939Y-118777294D01*
X129258337Y-113445896D01*
X129319658Y-113412413D01*
X129389350Y-113417397D01*
X129445283Y-113459269D01*
X129469700Y-113524733D01*
X129458398Y-113585983D01*
X129408263Y-113693497D01*
X129408258Y-113693511D01*
X129349366Y-113913302D01*
X129349364Y-113913313D01*
X129329532Y-114139998D01*
X129329532Y-114140001D01*
X129349364Y-114366686D01*
X129349366Y-114366697D01*
X129408258Y-114586488D01*
X129408261Y-114586497D01*
X129504431Y-114792732D01*
X129504432Y-114792734D01*
X129634954Y-114979141D01*
X129795858Y-115140045D01*
X129795861Y-115140047D01*
X129982266Y-115270568D01*
X130040275Y-115297618D01*
X130092714Y-115343791D01*
X130111866Y-115410984D01*
X130091650Y-115477865D01*
X130040275Y-115522382D01*
X129982267Y-115549431D01*
X129982265Y-115549432D01*
X129795858Y-115679954D01*
X129634954Y-115840858D01*
X129504432Y-116027265D01*
X129504431Y-116027267D01*
X129408261Y-116233502D01*
X129408258Y-116233511D01*
X129349366Y-116453302D01*
X129349364Y-116453313D01*
X129329532Y-116679998D01*
X129329532Y-116680001D01*
X129349364Y-116906686D01*
X129349366Y-116906697D01*
X129408258Y-117126488D01*
X129408261Y-117126497D01*
X129504431Y-117332732D01*
X129504432Y-117332734D01*
X129634954Y-117519141D01*
X129795858Y-117680045D01*
X129795861Y-117680047D01*
X129982266Y-117810568D01*
X130040275Y-117837618D01*
X130092714Y-117883791D01*
X130111866Y-117950984D01*
X130091650Y-118017865D01*
X130040275Y-118062382D01*
X129982267Y-118089431D01*
X129982265Y-118089432D01*
X129795858Y-118219954D01*
X129634954Y-118380858D01*
X129504432Y-118567265D01*
X129504431Y-118567267D01*
X129408261Y-118773502D01*
X129408258Y-118773511D01*
X129349366Y-118993302D01*
X129349364Y-118993313D01*
X129329532Y-119219998D01*
X129329532Y-119220001D01*
X129349364Y-119446686D01*
X129349366Y-119446697D01*
X129408258Y-119666488D01*
X129408261Y-119666497D01*
X129504431Y-119872732D01*
X129504432Y-119872734D01*
X129634954Y-120059141D01*
X129795858Y-120220045D01*
X129795861Y-120220047D01*
X129982266Y-120350568D01*
X130040275Y-120377618D01*
X130092714Y-120423791D01*
X130111866Y-120490984D01*
X130091650Y-120557865D01*
X130040275Y-120602382D01*
X129982267Y-120629431D01*
X129982265Y-120629432D01*
X129795858Y-120759954D01*
X129634954Y-120920858D01*
X129504432Y-121107265D01*
X129504431Y-121107267D01*
X129408261Y-121313502D01*
X129408258Y-121313511D01*
X129349366Y-121533302D01*
X129349364Y-121533313D01*
X129329532Y-121759998D01*
X129329532Y-121760001D01*
X129349364Y-121986686D01*
X129349366Y-121986697D01*
X129408258Y-122206488D01*
X129408261Y-122206497D01*
X129504431Y-122412732D01*
X129504432Y-122412734D01*
X129634954Y-122599141D01*
X129795858Y-122760045D01*
X129795861Y-122760047D01*
X129982266Y-122890568D01*
X130040865Y-122917893D01*
X130093305Y-122964065D01*
X130112457Y-123031258D01*
X130092242Y-123098139D01*
X130040867Y-123142657D01*
X129982515Y-123169867D01*
X129796179Y-123300342D01*
X129635342Y-123461179D01*
X129504865Y-123647517D01*
X129408734Y-123853673D01*
X129408730Y-123853682D01*
X129356127Y-124049999D01*
X129356128Y-124050000D01*
X130319314Y-124050000D01*
X130314920Y-124054394D01*
X130262259Y-124145606D01*
X130235000Y-124247339D01*
X130235000Y-124352661D01*
X130262259Y-124454394D01*
X130314920Y-124545606D01*
X130319314Y-124550000D01*
X129356128Y-124550000D01*
X129408730Y-124746317D01*
X129408734Y-124746326D01*
X129504865Y-124952482D01*
X129635342Y-125138820D01*
X129796179Y-125299657D01*
X129982517Y-125430134D01*
X130188673Y-125526265D01*
X130188682Y-125526269D01*
X130384999Y-125578872D01*
X130385000Y-125578871D01*
X130385000Y-124615686D01*
X130389394Y-124620080D01*
X130480606Y-124672741D01*
X130582339Y-124700000D01*
X130687661Y-124700000D01*
X130789394Y-124672741D01*
X130880606Y-124620080D01*
X130885000Y-124615686D01*
X130885000Y-125578872D01*
X131081317Y-125526269D01*
X131081326Y-125526265D01*
X131287482Y-125430134D01*
X131473820Y-125299657D01*
X131634657Y-125138820D01*
X131765134Y-124952482D01*
X131861265Y-124746326D01*
X131861269Y-124746317D01*
X131913872Y-124550000D01*
X130950686Y-124550000D01*
X130955080Y-124545606D01*
X131007741Y-124454394D01*
X131035000Y-124352661D01*
X131035000Y-124247339D01*
X131007741Y-124145606D01*
X130955080Y-124054394D01*
X130950686Y-124050000D01*
X131913872Y-124050000D01*
X131913872Y-124049999D01*
X131861269Y-123853682D01*
X131861265Y-123853673D01*
X131765134Y-123647517D01*
X131634657Y-123461179D01*
X131473820Y-123300342D01*
X131287482Y-123169865D01*
X131229133Y-123142657D01*
X131176694Y-123096484D01*
X131157542Y-123029291D01*
X131177758Y-122962410D01*
X131229129Y-122917895D01*
X131287734Y-122890568D01*
X131474139Y-122760047D01*
X131635047Y-122599139D01*
X131765568Y-122412734D01*
X131861739Y-122206496D01*
X131920635Y-121986692D01*
X131940468Y-121760000D01*
X131920635Y-121533308D01*
X131861739Y-121313504D01*
X131765568Y-121107266D01*
X131635047Y-120920861D01*
X131635045Y-120920858D01*
X131474141Y-120759954D01*
X131287734Y-120629432D01*
X131287728Y-120629429D01*
X131229725Y-120602382D01*
X131177285Y-120556210D01*
X131158133Y-120489017D01*
X131178348Y-120422135D01*
X131229725Y-120377618D01*
X131287734Y-120350568D01*
X131474139Y-120220047D01*
X131635047Y-120059139D01*
X131765568Y-119872734D01*
X131861739Y-119666496D01*
X131920635Y-119446692D01*
X131940468Y-119220000D01*
X131920635Y-118993308D01*
X131861739Y-118773504D01*
X131765568Y-118567266D01*
X131635047Y-118380861D01*
X131635045Y-118380858D01*
X131474141Y-118219954D01*
X131287734Y-118089432D01*
X131287728Y-118089429D01*
X131229725Y-118062382D01*
X131177285Y-118016210D01*
X131158133Y-117949017D01*
X131178348Y-117882135D01*
X131229725Y-117837618D01*
X131287734Y-117810568D01*
X131474139Y-117680047D01*
X131635047Y-117519139D01*
X131765568Y-117332734D01*
X131861739Y-117126496D01*
X131920635Y-116906692D01*
X131940468Y-116680000D01*
X131920635Y-116453308D01*
X131861739Y-116233504D01*
X131765568Y-116027266D01*
X131635047Y-115840861D01*
X131635045Y-115840858D01*
X131474141Y-115679954D01*
X131287734Y-115549432D01*
X131287728Y-115549429D01*
X131260038Y-115536517D01*
X131229724Y-115522381D01*
X131177285Y-115476210D01*
X131158133Y-115409017D01*
X131178348Y-115342135D01*
X131229725Y-115297618D01*
X131287734Y-115270568D01*
X131474139Y-115140047D01*
X131635047Y-114979139D01*
X131765568Y-114792734D01*
X131861739Y-114586496D01*
X131920635Y-114366692D01*
X131940468Y-114140000D01*
X131920635Y-113913308D01*
X131861739Y-113693504D01*
X131765568Y-113487266D01*
X131635047Y-113300861D01*
X131635046Y-113300860D01*
X131635045Y-113300858D01*
X131474141Y-113139954D01*
X131287734Y-113009432D01*
X131287728Y-113009429D01*
X131229725Y-112982382D01*
X131177285Y-112936210D01*
X131158133Y-112869017D01*
X131178348Y-112802135D01*
X131229725Y-112757618D01*
X131287734Y-112730568D01*
X131474139Y-112600047D01*
X131635047Y-112439139D01*
X131765568Y-112252734D01*
X131861739Y-112046496D01*
X131920635Y-111826692D01*
X131940468Y-111600000D01*
X131920635Y-111373308D01*
X131861739Y-111153504D01*
X131765568Y-110947266D01*
X131635047Y-110760861D01*
X131635045Y-110760858D01*
X131474141Y-110599954D01*
X131287734Y-110469432D01*
X131287728Y-110469429D01*
X131229725Y-110442382D01*
X131177285Y-110396210D01*
X131158133Y-110329017D01*
X131178348Y-110262135D01*
X131229725Y-110217618D01*
X131287734Y-110190568D01*
X131474139Y-110060047D01*
X131635047Y-109899139D01*
X131765568Y-109712734D01*
X131861739Y-109506496D01*
X131920635Y-109286692D01*
X131940468Y-109060000D01*
X131933219Y-108977149D01*
X131946985Y-108908652D01*
X131995600Y-108858469D01*
X132063628Y-108842535D01*
X132129472Y-108865910D01*
X132144428Y-108878663D01*
X134863181Y-111597416D01*
X134896666Y-111658739D01*
X134899500Y-111685097D01*
X134899500Y-127420943D01*
X134899500Y-127579057D01*
X134907924Y-127610493D01*
X134940423Y-127731783D01*
X134940426Y-127731790D01*
X135019475Y-127868709D01*
X135019478Y-127868713D01*
X135019480Y-127868716D01*
X135131284Y-127980520D01*
X135131286Y-127980521D01*
X135131290Y-127980524D01*
X135268209Y-128059573D01*
X135268216Y-128059577D01*
X135420943Y-128100500D01*
X145913331Y-128100500D01*
X145913347Y-128100501D01*
X145920943Y-128100501D01*
X146079054Y-128100501D01*
X146079057Y-128100501D01*
X146231785Y-128059577D01*
X146281904Y-128030639D01*
X146368716Y-127980520D01*
X146480520Y-127868716D01*
X146480520Y-127868714D01*
X146490728Y-127858507D01*
X146490729Y-127858504D01*
X148084823Y-126264411D01*
X148146144Y-126230928D01*
X148215832Y-126235911D01*
X148463199Y-126328175D01*
X148728840Y-126385961D01*
X148980605Y-126403967D01*
X148999999Y-126405355D01*
X149000000Y-126405355D01*
X149000001Y-126405355D01*
X149018100Y-126404060D01*
X149271160Y-126385961D01*
X149536801Y-126328175D01*
X149791513Y-126233172D01*
X149791517Y-126233169D01*
X149791519Y-126233169D01*
X149910813Y-126168029D01*
X150030113Y-126102887D01*
X150247742Y-125939971D01*
X150439971Y-125747742D01*
X150602887Y-125530113D01*
X150733172Y-125291513D01*
X150828175Y-125036801D01*
X150885961Y-124771160D01*
X150905355Y-124500000D01*
X150885961Y-124228840D01*
X150828175Y-123963199D01*
X150733172Y-123708487D01*
X150733170Y-123708484D01*
X150733169Y-123708480D01*
X150602890Y-123469892D01*
X150602889Y-123469891D01*
X150602887Y-123469887D01*
X150439971Y-123252258D01*
X150439966Y-123252253D01*
X150439961Y-123252247D01*
X150247752Y-123060038D01*
X150247746Y-123060033D01*
X150247742Y-123060029D01*
X150030113Y-122897113D01*
X150030108Y-122897110D01*
X150030107Y-122897109D01*
X149791518Y-122766830D01*
X149791519Y-122766830D01*
X149741920Y-122748330D01*
X149536801Y-122671825D01*
X149536794Y-122671823D01*
X149536793Y-122671823D01*
X149271167Y-122614040D01*
X149271160Y-122614039D01*
X149000001Y-122594645D01*
X148999999Y-122594645D01*
X148728839Y-122614039D01*
X148728832Y-122614040D01*
X148463206Y-122671823D01*
X148463202Y-122671824D01*
X148463199Y-122671825D01*
X148379013Y-122703225D01*
X148208480Y-122766830D01*
X147969892Y-122897109D01*
X147969891Y-122897110D01*
X147752259Y-123060028D01*
X147752247Y-123060038D01*
X147560038Y-123252247D01*
X147560028Y-123252259D01*
X147397110Y-123469891D01*
X147397109Y-123469892D01*
X147266830Y-123708480D01*
X147222621Y-123827011D01*
X147171825Y-123963199D01*
X147171824Y-123963202D01*
X147171823Y-123963206D01*
X147114040Y-124228832D01*
X147114039Y-124228839D01*
X147094645Y-124499998D01*
X147094645Y-124500001D01*
X147114039Y-124771160D01*
X147114040Y-124771167D01*
X147171823Y-125036796D01*
X147264086Y-125284163D01*
X147269070Y-125353854D01*
X147235585Y-125415177D01*
X145787584Y-126863181D01*
X145726261Y-126896666D01*
X145699903Y-126899500D01*
X136224500Y-126899500D01*
X136157461Y-126879815D01*
X136111706Y-126827011D01*
X136100500Y-126775500D01*
X136100500Y-111474059D01*
X136100501Y-111474046D01*
X136100501Y-111305945D01*
X136100501Y-111305943D01*
X136059577Y-111153215D01*
X136029142Y-111100500D01*
X135997267Y-111045291D01*
X135980522Y-111016287D01*
X135980521Y-111016286D01*
X135980520Y-111016284D01*
X135868716Y-110904480D01*
X135868715Y-110904479D01*
X135864385Y-110900149D01*
X135864374Y-110900139D01*
X131971818Y-107007583D01*
X131938333Y-106946260D01*
X131935499Y-106919902D01*
X131935499Y-106429096D01*
X131955184Y-106362057D01*
X132007988Y-106316302D01*
X132077146Y-106306358D01*
X132140702Y-106335383D01*
X132147180Y-106341415D01*
X136963058Y-111157293D01*
X136996543Y-111218616D01*
X136995152Y-111277067D01*
X136969366Y-111373302D01*
X136969364Y-111373313D01*
X136949532Y-111599998D01*
X136949532Y-111600001D01*
X136969364Y-111826686D01*
X136969366Y-111826697D01*
X137028258Y-112046488D01*
X137028261Y-112046497D01*
X137124431Y-112252732D01*
X137124432Y-112252734D01*
X137254954Y-112439141D01*
X137415858Y-112600045D01*
X137415861Y-112600047D01*
X137602266Y-112730568D01*
X137660275Y-112757618D01*
X137712714Y-112803791D01*
X137731866Y-112870984D01*
X137711650Y-112937865D01*
X137660275Y-112982382D01*
X137602267Y-113009431D01*
X137602265Y-113009432D01*
X137415858Y-113139954D01*
X137254954Y-113300858D01*
X137124432Y-113487265D01*
X137124431Y-113487267D01*
X137028261Y-113693502D01*
X137028258Y-113693511D01*
X136969366Y-113913302D01*
X136969364Y-113913313D01*
X136949532Y-114139998D01*
X136949532Y-114140001D01*
X136969364Y-114366686D01*
X136969366Y-114366697D01*
X137028258Y-114586488D01*
X137028261Y-114586497D01*
X137124431Y-114792732D01*
X137124432Y-114792734D01*
X137254954Y-114979141D01*
X137415858Y-115140045D01*
X137415861Y-115140047D01*
X137602266Y-115270568D01*
X137660275Y-115297618D01*
X137712714Y-115343791D01*
X137731866Y-115410984D01*
X137711650Y-115477865D01*
X137660275Y-115522382D01*
X137602267Y-115549431D01*
X137602265Y-115549432D01*
X137415858Y-115679954D01*
X137254954Y-115840858D01*
X137124432Y-116027265D01*
X137124431Y-116027267D01*
X137028261Y-116233502D01*
X137028258Y-116233511D01*
X136969366Y-116453302D01*
X136969364Y-116453313D01*
X136949532Y-116679998D01*
X136949532Y-116680001D01*
X136969364Y-116906686D01*
X136969366Y-116906697D01*
X137028258Y-117126488D01*
X137028261Y-117126497D01*
X137124431Y-117332732D01*
X137124432Y-117332734D01*
X137254954Y-117519141D01*
X137415858Y-117680045D01*
X137415861Y-117680047D01*
X137602266Y-117810568D01*
X137660275Y-117837618D01*
X137712714Y-117883791D01*
X137731866Y-117950984D01*
X137711650Y-118017865D01*
X137660275Y-118062382D01*
X137602267Y-118089431D01*
X137602265Y-118089432D01*
X137415858Y-118219954D01*
X137254954Y-118380858D01*
X137124432Y-118567265D01*
X137124431Y-118567267D01*
X137028261Y-118773502D01*
X137028258Y-118773511D01*
X136969366Y-118993302D01*
X136969364Y-118993313D01*
X136949532Y-119219998D01*
X136949532Y-119220001D01*
X136969364Y-119446686D01*
X136969366Y-119446697D01*
X137028258Y-119666488D01*
X137028261Y-119666497D01*
X137124431Y-119872732D01*
X137124432Y-119872734D01*
X137254954Y-120059141D01*
X137415858Y-120220045D01*
X137415861Y-120220047D01*
X137602266Y-120350568D01*
X137660275Y-120377618D01*
X137712714Y-120423791D01*
X137731866Y-120490984D01*
X137711650Y-120557865D01*
X137660275Y-120602382D01*
X137602267Y-120629431D01*
X137602265Y-120629432D01*
X137415858Y-120759954D01*
X137254954Y-120920858D01*
X137124432Y-121107265D01*
X137124431Y-121107267D01*
X137028261Y-121313502D01*
X137028258Y-121313511D01*
X136969366Y-121533302D01*
X136969364Y-121533313D01*
X136949532Y-121759998D01*
X136949532Y-121760001D01*
X136969364Y-121986686D01*
X136969366Y-121986697D01*
X137028258Y-122206488D01*
X137028261Y-122206497D01*
X137124431Y-122412732D01*
X137124432Y-122412734D01*
X137254954Y-122599141D01*
X137415858Y-122760045D01*
X137415861Y-122760047D01*
X137602266Y-122890568D01*
X137660275Y-122917618D01*
X137712714Y-122963791D01*
X137731866Y-123030984D01*
X137711650Y-123097865D01*
X137660275Y-123142382D01*
X137602267Y-123169431D01*
X137602265Y-123169432D01*
X137415858Y-123299954D01*
X137254954Y-123460858D01*
X137124432Y-123647265D01*
X137124431Y-123647267D01*
X137028261Y-123853502D01*
X137028258Y-123853511D01*
X136969366Y-124073302D01*
X136969364Y-124073313D01*
X136949532Y-124299998D01*
X136949532Y-124300001D01*
X136969364Y-124526686D01*
X136969366Y-124526697D01*
X137028258Y-124746488D01*
X137028261Y-124746497D01*
X137124431Y-124952732D01*
X137124432Y-124952734D01*
X137254954Y-125139141D01*
X137415858Y-125300045D01*
X137415861Y-125300047D01*
X137602266Y-125430568D01*
X137808504Y-125526739D01*
X137808509Y-125526740D01*
X137808511Y-125526741D01*
X137821077Y-125530108D01*
X138028308Y-125585635D01*
X138190230Y-125599801D01*
X138254998Y-125605468D01*
X138255000Y-125605468D01*
X138255002Y-125605468D01*
X138311673Y-125600509D01*
X138481692Y-125585635D01*
X138701496Y-125526739D01*
X138907734Y-125430568D01*
X139094139Y-125300047D01*
X139255047Y-125139139D01*
X139385568Y-124952734D01*
X139481739Y-124746496D01*
X139540635Y-124526692D01*
X139560468Y-124300000D01*
X139540635Y-124073308D01*
X139481739Y-123853504D01*
X139385568Y-123647266D01*
X139255047Y-123460861D01*
X139255045Y-123460858D01*
X139094141Y-123299954D01*
X138907734Y-123169432D01*
X138907728Y-123169429D01*
X138849725Y-123142382D01*
X138797285Y-123096210D01*
X138778133Y-123029017D01*
X138798348Y-122962135D01*
X138849725Y-122917618D01*
X138907734Y-122890568D01*
X139094139Y-122760047D01*
X139255047Y-122599139D01*
X139385568Y-122412734D01*
X139481739Y-122206496D01*
X139540635Y-121986692D01*
X139560468Y-121760000D01*
X139540635Y-121533308D01*
X139481739Y-121313504D01*
X139385568Y-121107266D01*
X139255047Y-120920861D01*
X139255045Y-120920858D01*
X139094141Y-120759954D01*
X138907734Y-120629432D01*
X138907728Y-120629429D01*
X138849725Y-120602382D01*
X138797285Y-120556210D01*
X138778133Y-120489017D01*
X138798348Y-120422135D01*
X138849725Y-120377618D01*
X138907734Y-120350568D01*
X139094139Y-120220047D01*
X139255047Y-120059139D01*
X139385568Y-119872734D01*
X139481739Y-119666496D01*
X139526352Y-119499998D01*
X147095147Y-119499998D01*
X147095147Y-119500001D01*
X147114536Y-119771090D01*
X147114537Y-119771097D01*
X147172305Y-120036654D01*
X147267285Y-120291306D01*
X147267287Y-120291310D01*
X147397532Y-120529835D01*
X147397537Y-120529843D01*
X147491321Y-120655123D01*
X147491322Y-120655124D01*
X148398958Y-119747488D01*
X148423978Y-119807890D01*
X148495112Y-119914351D01*
X148585649Y-120004888D01*
X148692110Y-120076022D01*
X148752511Y-120101041D01*
X147844874Y-121008676D01*
X147970163Y-121102466D01*
X147970164Y-121102467D01*
X148208689Y-121232712D01*
X148208693Y-121232714D01*
X148463345Y-121327694D01*
X148728902Y-121385462D01*
X148728909Y-121385463D01*
X148999999Y-121404853D01*
X149000001Y-121404853D01*
X149271090Y-121385463D01*
X149271097Y-121385462D01*
X149536654Y-121327694D01*
X149791306Y-121232714D01*
X149791310Y-121232712D01*
X150029844Y-121102462D01*
X150155123Y-121008677D01*
X150155124Y-121008676D01*
X149247488Y-120101041D01*
X149307890Y-120076022D01*
X149414351Y-120004888D01*
X149504888Y-119914351D01*
X149576022Y-119807890D01*
X149601041Y-119747489D01*
X150508676Y-120655124D01*
X150508677Y-120655123D01*
X150602462Y-120529844D01*
X150732712Y-120291310D01*
X150732714Y-120291306D01*
X150827694Y-120036654D01*
X150885462Y-119771097D01*
X150885463Y-119771090D01*
X150904853Y-119500001D01*
X150904853Y-119499998D01*
X150885463Y-119228909D01*
X150885462Y-119228902D01*
X150827694Y-118963345D01*
X150732714Y-118708693D01*
X150732712Y-118708689D01*
X150602467Y-118470164D01*
X150602466Y-118470163D01*
X150508676Y-118344874D01*
X149601041Y-119252510D01*
X149576022Y-119192110D01*
X149504888Y-119085649D01*
X149414351Y-118995112D01*
X149307890Y-118923978D01*
X149247487Y-118898957D01*
X150155124Y-117991322D01*
X150155123Y-117991321D01*
X150029843Y-117897537D01*
X150029835Y-117897532D01*
X149791310Y-117767287D01*
X149791306Y-117767285D01*
X149536654Y-117672305D01*
X149271097Y-117614537D01*
X149271090Y-117614536D01*
X149000001Y-117595147D01*
X148999999Y-117595147D01*
X148728909Y-117614536D01*
X148728902Y-117614537D01*
X148463345Y-117672305D01*
X148208693Y-117767285D01*
X148208689Y-117767287D01*
X147970164Y-117897532D01*
X147970156Y-117897537D01*
X147844875Y-117991321D01*
X147844874Y-117991322D01*
X148752511Y-118898958D01*
X148692110Y-118923978D01*
X148585649Y-118995112D01*
X148495112Y-119085649D01*
X148423978Y-119192110D01*
X148398958Y-119252511D01*
X147491322Y-118344874D01*
X147491321Y-118344875D01*
X147397537Y-118470156D01*
X147397532Y-118470164D01*
X147267287Y-118708689D01*
X147267285Y-118708693D01*
X147172305Y-118963345D01*
X147114537Y-119228902D01*
X147114536Y-119228909D01*
X147095147Y-119499998D01*
X139526352Y-119499998D01*
X139540635Y-119446692D01*
X139560468Y-119220000D01*
X139540635Y-118993308D01*
X139481739Y-118773504D01*
X139385568Y-118567266D01*
X139255047Y-118380861D01*
X139255045Y-118380858D01*
X139094141Y-118219954D01*
X138907734Y-118089432D01*
X138907728Y-118089429D01*
X138849725Y-118062382D01*
X138797285Y-118016210D01*
X138778133Y-117949017D01*
X138798348Y-117882135D01*
X138849725Y-117837618D01*
X138907734Y-117810568D01*
X139094139Y-117680047D01*
X139255047Y-117519139D01*
X139385568Y-117332734D01*
X139481739Y-117126496D01*
X139540635Y-116906692D01*
X139560468Y-116680000D01*
X139540635Y-116453308D01*
X139481739Y-116233504D01*
X139385568Y-116027266D01*
X139255047Y-115840861D01*
X139255045Y-115840858D01*
X139094141Y-115679954D01*
X138907734Y-115549432D01*
X138907728Y-115549429D01*
X138880038Y-115536517D01*
X138849724Y-115522381D01*
X138797285Y-115476210D01*
X138778133Y-115409017D01*
X138798348Y-115342135D01*
X138849725Y-115297618D01*
X138907734Y-115270568D01*
X139094139Y-115140047D01*
X139255047Y-114979139D01*
X139385568Y-114792734D01*
X139481739Y-114586496D01*
X139504916Y-114499998D01*
X147094645Y-114499998D01*
X147094645Y-114500001D01*
X147114039Y-114771160D01*
X147114040Y-114771167D01*
X147159282Y-114979141D01*
X147171825Y-115036801D01*
X147225671Y-115181166D01*
X147266830Y-115291519D01*
X147397109Y-115530107D01*
X147397110Y-115530108D01*
X147397113Y-115530113D01*
X147560029Y-115747742D01*
X147560033Y-115747746D01*
X147560038Y-115747752D01*
X147752247Y-115939961D01*
X147752253Y-115939966D01*
X147752258Y-115939971D01*
X147969887Y-116102887D01*
X147969891Y-116102889D01*
X147969892Y-116102890D01*
X148208481Y-116233169D01*
X148208480Y-116233169D01*
X148208484Y-116233170D01*
X148208487Y-116233172D01*
X148463199Y-116328175D01*
X148728840Y-116385961D01*
X148980605Y-116403967D01*
X148999999Y-116405355D01*
X149000000Y-116405355D01*
X149000001Y-116405355D01*
X149018100Y-116404060D01*
X149271160Y-116385961D01*
X149536801Y-116328175D01*
X149791513Y-116233172D01*
X149791517Y-116233169D01*
X149791519Y-116233169D01*
X150024027Y-116106210D01*
X150030113Y-116102887D01*
X150247742Y-115939971D01*
X150439971Y-115747742D01*
X150602887Y-115530113D01*
X150704626Y-115343791D01*
X150733169Y-115291519D01*
X150733169Y-115291517D01*
X150733172Y-115291513D01*
X150828175Y-115036801D01*
X150885961Y-114771160D01*
X150905355Y-114500000D01*
X150885961Y-114228840D01*
X150828175Y-113963199D01*
X150733172Y-113708487D01*
X150733170Y-113708484D01*
X150733169Y-113708480D01*
X150602890Y-113469892D01*
X150602889Y-113469891D01*
X150602887Y-113469887D01*
X150439971Y-113252258D01*
X150439966Y-113252253D01*
X150439961Y-113252247D01*
X150247752Y-113060038D01*
X150247746Y-113060033D01*
X150247742Y-113060029D01*
X150030113Y-112897113D01*
X150030108Y-112897110D01*
X150030107Y-112897109D01*
X149791518Y-112766830D01*
X149791519Y-112766830D01*
X149741920Y-112748330D01*
X149536801Y-112671825D01*
X149536794Y-112671823D01*
X149536793Y-112671823D01*
X149271167Y-112614040D01*
X149271160Y-112614039D01*
X149000001Y-112594645D01*
X148999999Y-112594645D01*
X148728839Y-112614039D01*
X148728832Y-112614040D01*
X148463206Y-112671823D01*
X148463202Y-112671824D01*
X148463199Y-112671825D01*
X148335843Y-112719326D01*
X148208480Y-112766830D01*
X147969892Y-112897109D01*
X147969891Y-112897110D01*
X147752259Y-113060028D01*
X147752247Y-113060038D01*
X147560038Y-113252247D01*
X147560028Y-113252259D01*
X147397110Y-113469891D01*
X147397109Y-113469892D01*
X147266830Y-113708480D01*
X147222621Y-113827011D01*
X147171825Y-113963199D01*
X147171824Y-113963202D01*
X147171823Y-113963206D01*
X147114040Y-114228832D01*
X147114039Y-114228839D01*
X147094645Y-114499998D01*
X139504916Y-114499998D01*
X139540635Y-114366692D01*
X139560468Y-114140000D01*
X139540635Y-113913308D01*
X139514847Y-113817066D01*
X139516510Y-113747217D01*
X139546939Y-113697294D01*
X139713506Y-113530728D01*
X139713511Y-113530724D01*
X139723714Y-113520520D01*
X139723716Y-113520520D01*
X139835520Y-113408716D01*
X139897790Y-113300861D01*
X139914577Y-113271785D01*
X139955501Y-113119057D01*
X139955501Y-112960943D01*
X139955501Y-112953348D01*
X139955500Y-112953330D01*
X139955500Y-109499998D01*
X147095147Y-109499998D01*
X147095147Y-109500001D01*
X147114536Y-109771090D01*
X147114537Y-109771097D01*
X147172305Y-110036654D01*
X147267285Y-110291306D01*
X147267287Y-110291310D01*
X147397532Y-110529835D01*
X147397537Y-110529843D01*
X147491321Y-110655123D01*
X147491322Y-110655124D01*
X148398958Y-109747488D01*
X148423978Y-109807890D01*
X148495112Y-109914351D01*
X148585649Y-110004888D01*
X148692110Y-110076022D01*
X148752511Y-110101041D01*
X147844874Y-111008676D01*
X147970163Y-111102466D01*
X147970164Y-111102467D01*
X148208689Y-111232712D01*
X148208693Y-111232714D01*
X148463345Y-111327694D01*
X148728902Y-111385462D01*
X148728909Y-111385463D01*
X148999999Y-111404853D01*
X149000001Y-111404853D01*
X149271090Y-111385463D01*
X149271097Y-111385462D01*
X149536654Y-111327694D01*
X149791306Y-111232714D01*
X149791310Y-111232712D01*
X150029844Y-111102462D01*
X150155123Y-111008677D01*
X150155124Y-111008676D01*
X149247488Y-110101041D01*
X149307890Y-110076022D01*
X149414351Y-110004888D01*
X149504888Y-109914351D01*
X149576022Y-109807890D01*
X149601041Y-109747489D01*
X150508676Y-110655124D01*
X150508677Y-110655123D01*
X150602462Y-110529844D01*
X150732712Y-110291310D01*
X150732714Y-110291306D01*
X150827694Y-110036654D01*
X150885462Y-109771097D01*
X150885463Y-109771090D01*
X150904853Y-109500001D01*
X150904853Y-109499998D01*
X150885463Y-109228909D01*
X150885462Y-109228902D01*
X150827694Y-108963345D01*
X150732714Y-108708693D01*
X150732712Y-108708689D01*
X150602467Y-108470164D01*
X150602466Y-108470163D01*
X150508676Y-108344874D01*
X149601041Y-109252510D01*
X149576022Y-109192110D01*
X149504888Y-109085649D01*
X149414351Y-108995112D01*
X149307890Y-108923978D01*
X149247487Y-108898957D01*
X150155124Y-107991322D01*
X150155123Y-107991321D01*
X150029843Y-107897537D01*
X150029835Y-107897532D01*
X149791310Y-107767287D01*
X149791306Y-107767285D01*
X149536654Y-107672305D01*
X149271097Y-107614537D01*
X149271090Y-107614536D01*
X149000001Y-107595147D01*
X148999999Y-107595147D01*
X148728909Y-107614536D01*
X148728902Y-107614537D01*
X148463345Y-107672305D01*
X148208693Y-107767285D01*
X148208689Y-107767287D01*
X147970164Y-107897532D01*
X147970156Y-107897537D01*
X147844875Y-107991321D01*
X147844874Y-107991322D01*
X148752511Y-108898958D01*
X148692110Y-108923978D01*
X148585649Y-108995112D01*
X148495112Y-109085649D01*
X148423978Y-109192110D01*
X148398958Y-109252511D01*
X147491322Y-108344874D01*
X147491321Y-108344875D01*
X147397537Y-108470156D01*
X147397532Y-108470164D01*
X147267287Y-108708689D01*
X147267285Y-108708693D01*
X147172305Y-108963345D01*
X147114537Y-109228902D01*
X147114536Y-109228909D01*
X147095147Y-109499998D01*
X139955500Y-109499998D01*
X139955500Y-104499998D01*
X147094645Y-104499998D01*
X147094645Y-104500001D01*
X147114039Y-104771160D01*
X147114040Y-104771167D01*
X147146839Y-104921941D01*
X147171825Y-105036801D01*
X147239969Y-105219501D01*
X147266830Y-105291519D01*
X147397109Y-105530107D01*
X147397110Y-105530108D01*
X147397113Y-105530113D01*
X147560029Y-105747742D01*
X147560033Y-105747746D01*
X147560038Y-105747752D01*
X147752247Y-105939961D01*
X147752253Y-105939966D01*
X147752258Y-105939971D01*
X147969887Y-106102887D01*
X147969891Y-106102889D01*
X147969892Y-106102890D01*
X148208481Y-106233169D01*
X148208480Y-106233169D01*
X148208484Y-106233170D01*
X148208487Y-106233172D01*
X148463199Y-106328175D01*
X148728840Y-106385961D01*
X148980605Y-106403967D01*
X148999999Y-106405355D01*
X149000000Y-106405355D01*
X149000001Y-106405355D01*
X149018100Y-106404060D01*
X149271160Y-106385961D01*
X149536801Y-106328175D01*
X149791513Y-106233172D01*
X149791517Y-106233169D01*
X149791519Y-106233169D01*
X149980946Y-106129734D01*
X150030113Y-106102887D01*
X150247742Y-105939971D01*
X150439971Y-105747742D01*
X150602887Y-105530113D01*
X150694435Y-105362455D01*
X150733169Y-105291519D01*
X150733169Y-105291517D01*
X150733172Y-105291513D01*
X150828175Y-105036801D01*
X150885961Y-104771160D01*
X150905355Y-104500000D01*
X150885961Y-104228840D01*
X150828175Y-103963199D01*
X150733172Y-103708487D01*
X150733170Y-103708484D01*
X150733169Y-103708480D01*
X150602890Y-103469892D01*
X150602889Y-103469891D01*
X150602887Y-103469887D01*
X150439971Y-103252258D01*
X150439966Y-103252253D01*
X150439961Y-103252247D01*
X150247752Y-103060038D01*
X150247746Y-103060033D01*
X150247742Y-103060029D01*
X150030113Y-102897113D01*
X150030108Y-102897110D01*
X150030107Y-102897109D01*
X149791518Y-102766830D01*
X149791519Y-102766830D01*
X149741920Y-102748330D01*
X149536801Y-102671825D01*
X149536794Y-102671823D01*
X149536793Y-102671823D01*
X149271167Y-102614040D01*
X149271160Y-102614039D01*
X149000001Y-102594645D01*
X148999999Y-102594645D01*
X148728839Y-102614039D01*
X148728832Y-102614040D01*
X148463206Y-102671823D01*
X148463202Y-102671824D01*
X148463199Y-102671825D01*
X148369160Y-102706900D01*
X148208480Y-102766830D01*
X147969892Y-102897109D01*
X147969891Y-102897110D01*
X147752259Y-103060028D01*
X147752247Y-103060038D01*
X147560038Y-103252247D01*
X147560028Y-103252259D01*
X147397110Y-103469891D01*
X147397109Y-103469892D01*
X147266830Y-103708480D01*
X147219326Y-103835843D01*
X147171825Y-103963199D01*
X147171824Y-103963202D01*
X147171823Y-103963206D01*
X147114040Y-104228832D01*
X147114039Y-104228839D01*
X147094645Y-104499998D01*
X139955500Y-104499998D01*
X139955500Y-104445096D01*
X139975185Y-104378057D01*
X139991814Y-104357420D01*
X144849235Y-99499998D01*
X147095147Y-99499998D01*
X147095147Y-99500001D01*
X147114536Y-99771090D01*
X147114537Y-99771097D01*
X147172305Y-100036654D01*
X147267285Y-100291306D01*
X147267287Y-100291310D01*
X147397532Y-100529835D01*
X147397537Y-100529843D01*
X147491321Y-100655123D01*
X147491322Y-100655124D01*
X148398958Y-99747488D01*
X148423978Y-99807890D01*
X148495112Y-99914351D01*
X148585649Y-100004888D01*
X148692110Y-100076022D01*
X148752511Y-100101041D01*
X147844874Y-101008676D01*
X147970163Y-101102466D01*
X147970164Y-101102467D01*
X148208689Y-101232712D01*
X148208693Y-101232714D01*
X148463345Y-101327694D01*
X148728902Y-101385462D01*
X148728909Y-101385463D01*
X148999999Y-101404853D01*
X149000001Y-101404853D01*
X149271090Y-101385463D01*
X149271097Y-101385462D01*
X149536654Y-101327694D01*
X149791306Y-101232714D01*
X149791310Y-101232712D01*
X150029844Y-101102462D01*
X150155123Y-101008677D01*
X150155124Y-101008676D01*
X149247488Y-100101041D01*
X149307890Y-100076022D01*
X149414351Y-100004888D01*
X149504888Y-99914351D01*
X149576022Y-99807890D01*
X149601041Y-99747489D01*
X150508676Y-100655124D01*
X150508677Y-100655123D01*
X150602462Y-100529844D01*
X150732712Y-100291310D01*
X150732714Y-100291306D01*
X150827694Y-100036654D01*
X150885462Y-99771097D01*
X150885463Y-99771090D01*
X150904853Y-99500001D01*
X150904853Y-99499998D01*
X150885463Y-99228909D01*
X150885462Y-99228902D01*
X150827694Y-98963345D01*
X150732714Y-98708693D01*
X150732712Y-98708689D01*
X150602467Y-98470164D01*
X150602466Y-98470163D01*
X150508676Y-98344874D01*
X149601041Y-99252510D01*
X149576022Y-99192110D01*
X149504888Y-99085649D01*
X149414351Y-98995112D01*
X149307890Y-98923978D01*
X149247487Y-98898957D01*
X150155124Y-97991322D01*
X150155123Y-97991321D01*
X150029843Y-97897537D01*
X150029835Y-97897532D01*
X149791310Y-97767287D01*
X149791306Y-97767285D01*
X149536654Y-97672305D01*
X149271097Y-97614537D01*
X149271090Y-97614536D01*
X149000001Y-97595147D01*
X148999999Y-97595147D01*
X148728909Y-97614536D01*
X148728902Y-97614537D01*
X148463345Y-97672305D01*
X148208693Y-97767285D01*
X148208689Y-97767287D01*
X147970164Y-97897532D01*
X147970156Y-97897537D01*
X147844875Y-97991321D01*
X147844874Y-97991322D01*
X148752511Y-98898958D01*
X148692110Y-98923978D01*
X148585649Y-98995112D01*
X148495112Y-99085649D01*
X148423978Y-99192110D01*
X148398958Y-99252511D01*
X147491322Y-98344874D01*
X147491321Y-98344875D01*
X147397537Y-98470156D01*
X147397532Y-98470164D01*
X147267287Y-98708689D01*
X147267285Y-98708693D01*
X147172305Y-98963345D01*
X147114537Y-99228902D01*
X147114536Y-99228909D01*
X147095147Y-99499998D01*
X144849235Y-99499998D01*
X148084822Y-96264411D01*
X148146143Y-96230928D01*
X148215832Y-96235911D01*
X148463199Y-96328175D01*
X148728840Y-96385961D01*
X148980605Y-96403967D01*
X148999999Y-96405355D01*
X149000000Y-96405355D01*
X149000001Y-96405355D01*
X149018100Y-96404060D01*
X149271160Y-96385961D01*
X149536801Y-96328175D01*
X149791513Y-96233172D01*
X149791517Y-96233169D01*
X149791519Y-96233169D01*
X149925302Y-96160118D01*
X150030113Y-96102887D01*
X150247742Y-95939971D01*
X150439971Y-95747742D01*
X150602887Y-95530113D01*
X150726621Y-95303511D01*
X150733169Y-95291519D01*
X150733169Y-95291517D01*
X150733172Y-95291513D01*
X150828175Y-95036801D01*
X150885961Y-94771160D01*
X150905355Y-94500000D01*
X150885961Y-94228840D01*
X150828175Y-93963199D01*
X150733172Y-93708487D01*
X150733170Y-93708484D01*
X150733169Y-93708480D01*
X150602890Y-93469892D01*
X150602889Y-93469891D01*
X150602887Y-93469887D01*
X150439971Y-93252258D01*
X150439966Y-93252253D01*
X150439961Y-93252247D01*
X150247752Y-93060038D01*
X150247746Y-93060033D01*
X150247742Y-93060029D01*
X150030113Y-92897113D01*
X150030108Y-92897110D01*
X150030107Y-92897109D01*
X149791518Y-92766830D01*
X149791519Y-92766830D01*
X149693484Y-92730265D01*
X149536801Y-92671825D01*
X149536794Y-92671823D01*
X149536793Y-92671823D01*
X149271167Y-92614040D01*
X149271160Y-92614039D01*
X149000001Y-92594645D01*
X148999999Y-92594645D01*
X148728839Y-92614039D01*
X148728832Y-92614040D01*
X148463203Y-92671823D01*
X148215835Y-92764087D01*
X148146144Y-92769071D01*
X148084821Y-92735586D01*
X147936819Y-92587584D01*
X147903334Y-92526261D01*
X147900500Y-92499903D01*
X147900500Y-91273418D01*
X147920185Y-91206379D01*
X147972989Y-91160624D01*
X148042147Y-91150680D01*
X148083928Y-91164586D01*
X148208694Y-91232714D01*
X148463345Y-91327694D01*
X148728902Y-91385462D01*
X148728909Y-91385463D01*
X148999999Y-91404853D01*
X149000001Y-91404853D01*
X149271090Y-91385463D01*
X149271097Y-91385462D01*
X149536654Y-91327694D01*
X149791306Y-91232714D01*
X149791310Y-91232712D01*
X150029844Y-91102462D01*
X150155123Y-91008677D01*
X150155124Y-91008676D01*
X149247488Y-90101041D01*
X149307890Y-90076022D01*
X149414351Y-90004888D01*
X149504888Y-89914351D01*
X149576022Y-89807890D01*
X149601041Y-89747489D01*
X150508676Y-90655124D01*
X150508677Y-90655123D01*
X150602462Y-90529844D01*
X150732713Y-90291309D01*
X150732714Y-90291306D01*
X150827694Y-90036654D01*
X150885462Y-89771097D01*
X150885463Y-89771090D01*
X150904853Y-89500001D01*
X150904853Y-89499998D01*
X150885463Y-89228909D01*
X150885462Y-89228902D01*
X150827694Y-88963345D01*
X150732714Y-88708693D01*
X150732712Y-88708689D01*
X150602467Y-88470164D01*
X150602466Y-88470163D01*
X150508676Y-88344874D01*
X149601041Y-89252510D01*
X149576022Y-89192110D01*
X149504888Y-89085649D01*
X149414351Y-88995112D01*
X149307890Y-88923978D01*
X149247487Y-88898958D01*
X150155124Y-87991322D01*
X150155123Y-87991321D01*
X150029843Y-87897537D01*
X150029835Y-87897532D01*
X149791310Y-87767287D01*
X149791306Y-87767285D01*
X149536654Y-87672305D01*
X149271097Y-87614537D01*
X149271090Y-87614536D01*
X149000001Y-87595147D01*
X148999999Y-87595147D01*
X148728909Y-87614536D01*
X148728902Y-87614537D01*
X148463345Y-87672305D01*
X148208693Y-87767285D01*
X148208689Y-87767287D01*
X148083927Y-87835413D01*
X148015654Y-87850265D01*
X147950190Y-87825848D01*
X147908318Y-87769915D01*
X147900500Y-87726581D01*
X147900500Y-86273989D01*
X147920185Y-86206950D01*
X147972989Y-86161195D01*
X148042147Y-86151251D01*
X148083925Y-86165156D01*
X148151985Y-86202319D01*
X148208481Y-86233169D01*
X148208480Y-86233169D01*
X148208484Y-86233170D01*
X148208487Y-86233172D01*
X148463199Y-86328175D01*
X148728840Y-86385961D01*
X148980605Y-86403967D01*
X148999999Y-86405355D01*
X149000000Y-86405355D01*
X149000001Y-86405355D01*
X149018100Y-86404060D01*
X149271160Y-86385961D01*
X149536801Y-86328175D01*
X149791513Y-86233172D01*
X149791517Y-86233169D01*
X149791519Y-86233169D01*
X149941541Y-86151251D01*
X150030113Y-86102887D01*
X150247742Y-85939971D01*
X150439971Y-85747742D01*
X150602887Y-85530113D01*
X150733172Y-85291513D01*
X150828175Y-85036801D01*
X150885961Y-84771160D01*
X150905355Y-84500000D01*
X150885961Y-84228840D01*
X150828175Y-83963199D01*
X150733172Y-83708487D01*
X150733169Y-83708481D01*
X150733169Y-83708480D01*
X150602890Y-83469892D01*
X150602889Y-83469891D01*
X150602887Y-83469887D01*
X150439971Y-83252258D01*
X150439966Y-83252253D01*
X150439961Y-83252247D01*
X150247752Y-83060038D01*
X150247746Y-83060033D01*
X150247742Y-83060029D01*
X150030113Y-82897113D01*
X150030108Y-82897110D01*
X150030107Y-82897109D01*
X149791518Y-82766830D01*
X149791519Y-82766830D01*
X149741920Y-82748330D01*
X149536801Y-82671825D01*
X149536794Y-82671823D01*
X149536793Y-82671823D01*
X149271167Y-82614040D01*
X149271160Y-82614039D01*
X149000001Y-82594645D01*
X148999999Y-82594645D01*
X148728839Y-82614039D01*
X148728832Y-82614040D01*
X148463206Y-82671823D01*
X148463202Y-82671824D01*
X148463199Y-82671825D01*
X148335843Y-82719326D01*
X148208480Y-82766830D01*
X147969892Y-82897109D01*
X147969891Y-82897110D01*
X147752259Y-83060028D01*
X147752247Y-83060038D01*
X147560038Y-83252247D01*
X147560028Y-83252259D01*
X147397110Y-83469891D01*
X147397109Y-83469892D01*
X147266830Y-83708481D01*
X147212253Y-83854808D01*
X147170381Y-83910741D01*
X147104917Y-83935158D01*
X147036644Y-83920306D01*
X147008390Y-83899155D01*
X142609233Y-79499998D01*
X147095147Y-79499998D01*
X147095147Y-79500001D01*
X147114536Y-79771090D01*
X147114537Y-79771097D01*
X147172305Y-80036654D01*
X147267285Y-80291306D01*
X147267287Y-80291310D01*
X147397532Y-80529835D01*
X147397537Y-80529843D01*
X147491321Y-80655123D01*
X147491322Y-80655124D01*
X148398958Y-79747488D01*
X148423978Y-79807890D01*
X148495112Y-79914351D01*
X148585649Y-80004888D01*
X148692110Y-80076022D01*
X148752511Y-80101041D01*
X147844874Y-81008676D01*
X147970163Y-81102466D01*
X147970164Y-81102467D01*
X148208689Y-81232712D01*
X148208693Y-81232714D01*
X148463345Y-81327694D01*
X148728902Y-81385462D01*
X148728909Y-81385463D01*
X148999999Y-81404853D01*
X149000001Y-81404853D01*
X149271090Y-81385463D01*
X149271097Y-81385462D01*
X149536654Y-81327694D01*
X149791306Y-81232714D01*
X149791310Y-81232712D01*
X150029844Y-81102462D01*
X150155123Y-81008677D01*
X150155124Y-81008676D01*
X149247488Y-80101041D01*
X149307890Y-80076022D01*
X149414351Y-80004888D01*
X149504888Y-79914351D01*
X149576022Y-79807890D01*
X149601041Y-79747489D01*
X150508676Y-80655124D01*
X150508677Y-80655123D01*
X150602462Y-80529844D01*
X150732712Y-80291310D01*
X150732714Y-80291306D01*
X150827694Y-80036654D01*
X150885462Y-79771097D01*
X150885463Y-79771090D01*
X150904853Y-79500001D01*
X150904853Y-79499998D01*
X150885463Y-79228909D01*
X150885462Y-79228902D01*
X150827694Y-78963345D01*
X150732714Y-78708693D01*
X150732712Y-78708689D01*
X150602467Y-78470164D01*
X150602466Y-78470163D01*
X150508676Y-78344874D01*
X149601041Y-79252510D01*
X149576022Y-79192110D01*
X149504888Y-79085649D01*
X149414351Y-78995112D01*
X149307890Y-78923978D01*
X149247487Y-78898957D01*
X150155124Y-77991322D01*
X150155123Y-77991321D01*
X150029843Y-77897537D01*
X150029835Y-77897532D01*
X149791310Y-77767287D01*
X149791306Y-77767285D01*
X149536654Y-77672305D01*
X149271097Y-77614537D01*
X149271090Y-77614536D01*
X149000001Y-77595147D01*
X148999999Y-77595147D01*
X148728909Y-77614536D01*
X148728902Y-77614537D01*
X148463345Y-77672305D01*
X148208693Y-77767285D01*
X148208689Y-77767287D01*
X147970164Y-77897532D01*
X147970156Y-77897537D01*
X147844875Y-77991321D01*
X147844874Y-77991322D01*
X148752511Y-78898958D01*
X148692110Y-78923978D01*
X148585649Y-78995112D01*
X148495112Y-79085649D01*
X148423978Y-79192110D01*
X148398958Y-79252511D01*
X147491322Y-78344874D01*
X147491321Y-78344875D01*
X147397537Y-78470156D01*
X147397532Y-78470164D01*
X147267287Y-78708689D01*
X147267285Y-78708693D01*
X147172305Y-78963345D01*
X147114537Y-79228902D01*
X147114536Y-79228909D01*
X147095147Y-79499998D01*
X142609233Y-79499998D01*
X139051941Y-75942706D01*
X139018456Y-75881383D01*
X139019847Y-75822931D01*
X139025088Y-75803372D01*
X139045635Y-75726692D01*
X139065468Y-75500000D01*
X139045635Y-75273308D01*
X138986739Y-75053504D01*
X138890568Y-74847266D01*
X138760047Y-74660861D01*
X138760045Y-74660858D01*
X138599185Y-74499998D01*
X147094645Y-74499998D01*
X147094645Y-74500001D01*
X147114039Y-74771160D01*
X147114040Y-74771167D01*
X147166858Y-75013967D01*
X147171825Y-75036801D01*
X147248330Y-75241920D01*
X147266830Y-75291519D01*
X147397109Y-75530107D01*
X147397110Y-75530108D01*
X147397113Y-75530113D01*
X147560029Y-75747742D01*
X147560033Y-75747746D01*
X147560038Y-75747752D01*
X147752247Y-75939961D01*
X147752253Y-75939966D01*
X147752258Y-75939971D01*
X147969887Y-76102887D01*
X147969891Y-76102889D01*
X147969892Y-76102890D01*
X148208481Y-76233169D01*
X148208480Y-76233169D01*
X148208484Y-76233170D01*
X148208487Y-76233172D01*
X148463199Y-76328175D01*
X148728840Y-76385961D01*
X148980605Y-76403967D01*
X148999999Y-76405355D01*
X149000000Y-76405355D01*
X149000001Y-76405355D01*
X149018100Y-76404060D01*
X149271160Y-76385961D01*
X149536801Y-76328175D01*
X149791513Y-76233172D01*
X149791517Y-76233169D01*
X149791519Y-76233169D01*
X150013962Y-76111706D01*
X150030113Y-76102887D01*
X150247742Y-75939971D01*
X150439971Y-75747742D01*
X150602887Y-75530113D01*
X150733172Y-75291513D01*
X150828175Y-75036801D01*
X150885961Y-74771160D01*
X150905355Y-74500000D01*
X150885961Y-74228840D01*
X150828175Y-73963199D01*
X150733172Y-73708487D01*
X150733170Y-73708484D01*
X150733169Y-73708480D01*
X150602890Y-73469892D01*
X150602889Y-73469891D01*
X150602887Y-73469887D01*
X150439971Y-73252258D01*
X150439966Y-73252253D01*
X150439961Y-73252247D01*
X150247752Y-73060038D01*
X150247746Y-73060033D01*
X150247742Y-73060029D01*
X150030113Y-72897113D01*
X150030108Y-72897110D01*
X150030107Y-72897109D01*
X149791518Y-72766830D01*
X149791519Y-72766830D01*
X149741920Y-72748330D01*
X149536801Y-72671825D01*
X149536794Y-72671823D01*
X149536793Y-72671823D01*
X149271167Y-72614040D01*
X149271160Y-72614039D01*
X149000001Y-72594645D01*
X148999999Y-72594645D01*
X148728839Y-72614039D01*
X148728832Y-72614040D01*
X148463206Y-72671823D01*
X148463202Y-72671824D01*
X148463199Y-72671825D01*
X148335843Y-72719326D01*
X148208480Y-72766830D01*
X147969892Y-72897109D01*
X147969891Y-72897110D01*
X147752259Y-73060028D01*
X147752247Y-73060038D01*
X147560038Y-73252247D01*
X147560028Y-73252259D01*
X147397110Y-73469891D01*
X147397109Y-73469892D01*
X147266830Y-73708480D01*
X147219326Y-73835843D01*
X147171825Y-73963199D01*
X147171824Y-73963202D01*
X147171823Y-73963206D01*
X147114040Y-74228832D01*
X147114039Y-74228839D01*
X147094645Y-74499998D01*
X138599185Y-74499998D01*
X138599141Y-74499954D01*
X138412734Y-74369432D01*
X138412732Y-74369431D01*
X138206497Y-74273261D01*
X138206488Y-74273258D01*
X137986697Y-74214366D01*
X137986693Y-74214365D01*
X137986692Y-74214365D01*
X137986691Y-74214364D01*
X137986686Y-74214364D01*
X137760002Y-74194532D01*
X137759998Y-74194532D01*
X137533313Y-74214364D01*
X137533302Y-74214366D01*
X137313511Y-74273258D01*
X137313502Y-74273261D01*
X137107267Y-74369431D01*
X137107265Y-74369432D01*
X136920858Y-74499954D01*
X136759954Y-74660858D01*
X136629432Y-74847265D01*
X136629431Y-74847267D01*
X136533261Y-75053502D01*
X136533258Y-75053511D01*
X136474366Y-75273302D01*
X136474364Y-75273313D01*
X136454532Y-75499998D01*
X136454532Y-75500001D01*
X136474364Y-75726686D01*
X136474366Y-75726697D01*
X136533258Y-75946488D01*
X136533261Y-75946497D01*
X136629431Y-76152732D01*
X136629432Y-76152734D01*
X136759954Y-76339141D01*
X136920858Y-76500045D01*
X136920861Y-76500047D01*
X137107266Y-76630568D01*
X137313504Y-76726739D01*
X137533308Y-76785635D01*
X137695230Y-76799801D01*
X137759998Y-76805468D01*
X137760000Y-76805468D01*
X137760002Y-76805468D01*
X137816673Y-76800509D01*
X137986692Y-76785635D01*
X138082932Y-76759847D01*
X138152781Y-76761510D01*
X138202706Y-76791941D01*
X146663181Y-85252416D01*
X146696666Y-85313739D01*
X146699500Y-85340097D01*
X146699500Y-92713330D01*
X146699499Y-92713348D01*
X146699499Y-92879054D01*
X146699498Y-92879054D01*
X146740422Y-93031783D01*
X146756730Y-93060030D01*
X146819475Y-93168709D01*
X146819481Y-93168717D01*
X146938349Y-93287585D01*
X146938355Y-93287590D01*
X147235586Y-93584821D01*
X147269071Y-93646144D01*
X147264087Y-93715835D01*
X147171823Y-93963203D01*
X147114040Y-94228832D01*
X147114039Y-94228839D01*
X147094645Y-94499998D01*
X147094645Y-94500001D01*
X147114039Y-94771160D01*
X147114040Y-94771167D01*
X147171823Y-95036793D01*
X147171825Y-95036801D01*
X147264087Y-95284164D01*
X147269071Y-95353854D01*
X147235586Y-95415177D01*
X139067181Y-103583583D01*
X139005858Y-103617068D01*
X138936166Y-103612084D01*
X138880233Y-103570212D01*
X138855816Y-103504748D01*
X138855500Y-103495902D01*
X138855500Y-97844060D01*
X138855501Y-97844047D01*
X138855501Y-97675944D01*
X138839047Y-97614537D01*
X138814577Y-97523216D01*
X138814573Y-97523209D01*
X138735524Y-97386290D01*
X138735518Y-97386282D01*
X136373568Y-95024332D01*
X133837426Y-92488191D01*
X133803942Y-92426869D01*
X133808926Y-92357177D01*
X133812726Y-92348106D01*
X133906739Y-92146496D01*
X133965635Y-91926692D01*
X133985468Y-91700000D01*
X133985468Y-91699998D01*
X136454532Y-91699998D01*
X136454532Y-91700001D01*
X136474364Y-91926686D01*
X136474366Y-91926697D01*
X136533258Y-92146488D01*
X136533261Y-92146497D01*
X136629431Y-92352732D01*
X136629432Y-92352734D01*
X136759954Y-92539141D01*
X136920858Y-92700045D01*
X136920861Y-92700047D01*
X137107266Y-92830568D01*
X137313504Y-92926739D01*
X137533308Y-92985635D01*
X137688985Y-92999255D01*
X137759998Y-93005468D01*
X137760000Y-93005468D01*
X137760002Y-93005468D01*
X137816673Y-93000509D01*
X137986692Y-92985635D01*
X138206496Y-92926739D01*
X138412734Y-92830568D01*
X138599139Y-92700047D01*
X138760047Y-92539139D01*
X138890568Y-92352734D01*
X138986739Y-92146496D01*
X139045635Y-91926692D01*
X139065468Y-91700000D01*
X139045635Y-91473308D01*
X138986739Y-91253504D01*
X138890568Y-91047266D01*
X138760047Y-90860861D01*
X138760045Y-90860858D01*
X138599141Y-90699954D01*
X138412734Y-90569432D01*
X138412732Y-90569431D01*
X138206497Y-90473261D01*
X138206488Y-90473258D01*
X137986697Y-90414366D01*
X137986693Y-90414365D01*
X137986692Y-90414365D01*
X137986691Y-90414364D01*
X137986686Y-90414364D01*
X137760002Y-90394532D01*
X137759998Y-90394532D01*
X137533313Y-90414364D01*
X137533302Y-90414366D01*
X137313511Y-90473258D01*
X137313502Y-90473261D01*
X137107267Y-90569431D01*
X137107265Y-90569432D01*
X136920858Y-90699954D01*
X136759954Y-90860858D01*
X136629432Y-91047265D01*
X136629431Y-91047267D01*
X136533261Y-91253502D01*
X136533258Y-91253511D01*
X136474366Y-91473302D01*
X136474364Y-91473313D01*
X136454532Y-91699998D01*
X133985468Y-91699998D01*
X133965635Y-91473308D01*
X133906739Y-91253504D01*
X133810568Y-91047266D01*
X133680047Y-90860861D01*
X133680045Y-90860858D01*
X133519140Y-90699953D01*
X133333377Y-90569881D01*
X133289752Y-90515304D01*
X133280500Y-90468306D01*
X133280500Y-88881692D01*
X133300185Y-88814653D01*
X133333374Y-88780119D01*
X133519139Y-88650047D01*
X133680047Y-88489139D01*
X133810568Y-88302734D01*
X133906739Y-88096496D01*
X133965635Y-87876692D01*
X133985468Y-87650000D01*
X133985468Y-87649998D01*
X136454532Y-87649998D01*
X136454532Y-87650001D01*
X136474364Y-87876686D01*
X136474366Y-87876697D01*
X136533258Y-88096488D01*
X136533261Y-88096497D01*
X136629431Y-88302732D01*
X136629432Y-88302734D01*
X136759954Y-88489141D01*
X136920858Y-88650045D01*
X136920861Y-88650047D01*
X137107266Y-88780568D01*
X137313504Y-88876739D01*
X137533308Y-88935635D01*
X137695230Y-88949801D01*
X137759998Y-88955468D01*
X137760000Y-88955468D01*
X137760002Y-88955468D01*
X137816673Y-88950509D01*
X137986692Y-88935635D01*
X138206496Y-88876739D01*
X138412734Y-88780568D01*
X138599139Y-88650047D01*
X138760047Y-88489139D01*
X138890568Y-88302734D01*
X138986739Y-88096496D01*
X139045635Y-87876692D01*
X139065468Y-87650000D01*
X139045635Y-87423308D01*
X138986739Y-87203504D01*
X138890568Y-86997266D01*
X138760047Y-86810861D01*
X138760045Y-86810858D01*
X138599141Y-86649954D01*
X138412734Y-86519432D01*
X138412732Y-86519431D01*
X138206497Y-86423261D01*
X138206488Y-86423258D01*
X137986697Y-86364366D01*
X137986693Y-86364365D01*
X137986692Y-86364365D01*
X137986691Y-86364364D01*
X137986686Y-86364364D01*
X137760002Y-86344532D01*
X137759998Y-86344532D01*
X137533313Y-86364364D01*
X137533302Y-86364366D01*
X137313511Y-86423258D01*
X137313502Y-86423261D01*
X137107267Y-86519431D01*
X137107265Y-86519432D01*
X136920858Y-86649954D01*
X136759954Y-86810858D01*
X136629432Y-86997265D01*
X136629431Y-86997267D01*
X136533261Y-87203502D01*
X136533258Y-87203511D01*
X136474366Y-87423302D01*
X136474364Y-87423313D01*
X136454532Y-87649998D01*
X133985468Y-87649998D01*
X133965635Y-87423308D01*
X133906739Y-87203504D01*
X133810568Y-86997266D01*
X133680047Y-86810861D01*
X133680045Y-86810858D01*
X133519140Y-86649953D01*
X133333377Y-86519881D01*
X133289752Y-86465304D01*
X133280500Y-86418306D01*
X133280500Y-84831692D01*
X133300185Y-84764653D01*
X133333374Y-84730119D01*
X133519139Y-84600047D01*
X133680047Y-84439139D01*
X133810568Y-84252734D01*
X133906739Y-84046496D01*
X133965635Y-83826692D01*
X133985468Y-83600000D01*
X133985468Y-83599998D01*
X136454532Y-83599998D01*
X136454532Y-83600001D01*
X136474364Y-83826686D01*
X136474366Y-83826697D01*
X136533258Y-84046488D01*
X136533261Y-84046497D01*
X136629431Y-84252732D01*
X136629432Y-84252734D01*
X136759954Y-84439141D01*
X136920858Y-84600045D01*
X136920861Y-84600047D01*
X137107266Y-84730568D01*
X137313504Y-84826739D01*
X137533308Y-84885635D01*
X137695230Y-84899801D01*
X137759998Y-84905468D01*
X137760000Y-84905468D01*
X137760002Y-84905468D01*
X137816673Y-84900509D01*
X137986692Y-84885635D01*
X138206496Y-84826739D01*
X138412734Y-84730568D01*
X138599139Y-84600047D01*
X138760047Y-84439139D01*
X138890568Y-84252734D01*
X138986739Y-84046496D01*
X139045635Y-83826692D01*
X139065468Y-83600000D01*
X139045635Y-83373308D01*
X138986739Y-83153504D01*
X138890568Y-82947266D01*
X138760047Y-82760861D01*
X138760045Y-82760858D01*
X138599141Y-82599954D01*
X138412734Y-82469432D01*
X138412732Y-82469431D01*
X138206497Y-82373261D01*
X138206488Y-82373258D01*
X137986697Y-82314366D01*
X137986693Y-82314365D01*
X137986692Y-82314365D01*
X137986691Y-82314364D01*
X137986686Y-82314364D01*
X137760002Y-82294532D01*
X137759998Y-82294532D01*
X137533313Y-82314364D01*
X137533302Y-82314366D01*
X137313511Y-82373258D01*
X137313502Y-82373261D01*
X137107267Y-82469431D01*
X137107265Y-82469432D01*
X136920858Y-82599954D01*
X136759954Y-82760858D01*
X136629432Y-82947265D01*
X136629431Y-82947267D01*
X136533261Y-83153502D01*
X136533258Y-83153511D01*
X136474366Y-83373302D01*
X136474364Y-83373313D01*
X136454532Y-83599998D01*
X133985468Y-83599998D01*
X133965635Y-83373308D01*
X133906739Y-83153504D01*
X133810568Y-82947266D01*
X133680047Y-82760861D01*
X133680045Y-82760858D01*
X133519140Y-82599953D01*
X133333377Y-82469881D01*
X133289752Y-82415304D01*
X133280500Y-82368306D01*
X133280500Y-80781692D01*
X133300185Y-80714653D01*
X133333374Y-80680119D01*
X133519139Y-80550047D01*
X133680047Y-80389139D01*
X133810568Y-80202734D01*
X133906739Y-79996496D01*
X133965635Y-79776692D01*
X133982634Y-79582384D01*
X133985468Y-79550001D01*
X133985468Y-79549998D01*
X136454532Y-79549998D01*
X136454532Y-79550001D01*
X136474364Y-79776686D01*
X136474366Y-79776697D01*
X136533258Y-79996488D01*
X136533261Y-79996497D01*
X136629431Y-80202732D01*
X136629432Y-80202734D01*
X136759954Y-80389141D01*
X136920858Y-80550045D01*
X136920861Y-80550047D01*
X137107266Y-80680568D01*
X137313504Y-80776739D01*
X137533308Y-80835635D01*
X137695230Y-80849801D01*
X137759998Y-80855468D01*
X137760000Y-80855468D01*
X137760002Y-80855468D01*
X137816673Y-80850509D01*
X137986692Y-80835635D01*
X138206496Y-80776739D01*
X138412734Y-80680568D01*
X138599139Y-80550047D01*
X138760047Y-80389139D01*
X138890568Y-80202734D01*
X138986739Y-79996496D01*
X139045635Y-79776692D01*
X139062634Y-79582384D01*
X139065468Y-79550001D01*
X139065468Y-79549998D01*
X139059801Y-79485230D01*
X139045635Y-79323308D01*
X138986739Y-79103504D01*
X138890568Y-78897266D01*
X138760047Y-78710861D01*
X138760045Y-78710858D01*
X138599141Y-78549954D01*
X138412734Y-78419432D01*
X138412732Y-78419431D01*
X138206497Y-78323261D01*
X138206488Y-78323258D01*
X137986697Y-78264366D01*
X137986693Y-78264365D01*
X137986692Y-78264365D01*
X137986691Y-78264364D01*
X137986686Y-78264364D01*
X137760002Y-78244532D01*
X137759998Y-78244532D01*
X137533313Y-78264364D01*
X137533302Y-78264366D01*
X137313511Y-78323258D01*
X137313502Y-78323261D01*
X137107267Y-78419431D01*
X137107265Y-78419432D01*
X136920858Y-78549954D01*
X136759954Y-78710858D01*
X136629432Y-78897265D01*
X136629431Y-78897267D01*
X136533261Y-79103502D01*
X136533258Y-79103511D01*
X136474366Y-79323302D01*
X136474364Y-79323313D01*
X136454532Y-79549998D01*
X133985468Y-79549998D01*
X133979801Y-79485230D01*
X133965635Y-79323308D01*
X133906739Y-79103504D01*
X133810568Y-78897266D01*
X133680047Y-78710861D01*
X133680045Y-78710858D01*
X133519140Y-78549953D01*
X133333377Y-78419881D01*
X133289752Y-78365304D01*
X133280500Y-78318306D01*
X133280500Y-76731692D01*
X133300185Y-76664653D01*
X133333374Y-76630119D01*
X133519139Y-76500047D01*
X133680047Y-76339139D01*
X133810568Y-76152734D01*
X133906739Y-75946496D01*
X133965635Y-75726692D01*
X133985468Y-75500000D01*
X133965635Y-75273308D01*
X133906739Y-75053504D01*
X133810568Y-74847266D01*
X133680047Y-74660861D01*
X133680045Y-74660858D01*
X133519141Y-74499954D01*
X133332734Y-74369432D01*
X133332732Y-74369431D01*
X133126497Y-74273261D01*
X133126488Y-74273258D01*
X132906697Y-74214366D01*
X132906693Y-74214365D01*
X132906692Y-74214365D01*
X132906691Y-74214364D01*
X132906686Y-74214364D01*
X132680002Y-74194532D01*
X132679998Y-74194532D01*
X132453313Y-74214364D01*
X132453302Y-74214366D01*
X132233511Y-74273258D01*
X132233502Y-74273261D01*
X132027267Y-74369431D01*
X132027265Y-74369432D01*
X131840858Y-74499954D01*
X131679954Y-74660858D01*
X131549432Y-74847265D01*
X131549431Y-74847267D01*
X131453261Y-75053502D01*
X131453258Y-75053511D01*
X131424275Y-75161681D01*
X131387910Y-75221342D01*
X131325063Y-75251871D01*
X131255688Y-75243576D01*
X131201810Y-75199091D01*
X131180535Y-75132539D01*
X131180500Y-75129588D01*
X131180500Y-69380096D01*
X131200185Y-69313057D01*
X131216815Y-69292419D01*
X131618713Y-68890521D01*
X131618716Y-68890520D01*
X131730520Y-68778716D01*
X131780639Y-68691904D01*
X131809577Y-68641785D01*
X131850500Y-68489057D01*
X131850500Y-68330943D01*
X131850500Y-66358010D01*
X131870185Y-66290971D01*
X131922989Y-66245216D01*
X131931146Y-66241836D01*
X132041513Y-66200672D01*
X132280113Y-66070387D01*
X132497742Y-65907471D01*
X132689971Y-65715242D01*
X132852887Y-65497613D01*
X132983172Y-65259013D01*
X133078175Y-65004301D01*
X133135961Y-64738660D01*
X133155355Y-64467500D01*
X133155355Y-64467498D01*
X134345147Y-64467498D01*
X134345147Y-64467501D01*
X134364536Y-64738590D01*
X134364537Y-64738597D01*
X134422305Y-65004154D01*
X134517285Y-65258806D01*
X134517287Y-65258810D01*
X134647532Y-65497335D01*
X134647537Y-65497343D01*
X134741321Y-65622623D01*
X134741322Y-65622624D01*
X135648958Y-64714988D01*
X135673978Y-64775390D01*
X135745112Y-64881851D01*
X135835649Y-64972388D01*
X135942110Y-65043522D01*
X136002511Y-65068541D01*
X135094874Y-65976176D01*
X135220163Y-66069966D01*
X135220164Y-66069967D01*
X135458689Y-66200212D01*
X135458693Y-66200214D01*
X135713345Y-66295194D01*
X135978902Y-66352962D01*
X135978909Y-66352963D01*
X136249999Y-66372353D01*
X136250001Y-66372353D01*
X136521090Y-66352963D01*
X136521097Y-66352962D01*
X136786654Y-66295194D01*
X137041306Y-66200214D01*
X137041310Y-66200212D01*
X137279844Y-66069962D01*
X137405123Y-65976177D01*
X137405124Y-65976176D01*
X136497488Y-65068541D01*
X136557890Y-65043522D01*
X136664351Y-64972388D01*
X136754888Y-64881851D01*
X136826022Y-64775390D01*
X136851041Y-64714988D01*
X137758676Y-65622624D01*
X137758677Y-65622623D01*
X137852462Y-65497344D01*
X137982712Y-65258810D01*
X137982714Y-65258806D01*
X138077694Y-65004154D01*
X138135462Y-64738597D01*
X138135463Y-64738590D01*
X138154853Y-64467501D01*
X138154853Y-64467498D01*
X138135463Y-64196409D01*
X138135462Y-64196402D01*
X138077694Y-63930845D01*
X137982714Y-63676193D01*
X137982712Y-63676189D01*
X137852467Y-63437664D01*
X137852466Y-63437663D01*
X137758676Y-63312374D01*
X136851041Y-64220010D01*
X136826022Y-64159610D01*
X136754888Y-64053149D01*
X136664351Y-63962612D01*
X136557890Y-63891478D01*
X136497487Y-63866457D01*
X137405124Y-62958822D01*
X137405123Y-62958821D01*
X137279843Y-62865037D01*
X137279835Y-62865032D01*
X137041310Y-62734787D01*
X137041306Y-62734785D01*
X136786654Y-62639805D01*
X136521097Y-62582037D01*
X136521090Y-62582036D01*
X136250001Y-62562647D01*
X136249999Y-62562647D01*
X135978909Y-62582036D01*
X135978902Y-62582037D01*
X135713345Y-62639805D01*
X135458693Y-62734785D01*
X135458689Y-62734787D01*
X135220164Y-62865032D01*
X135220156Y-62865037D01*
X135094875Y-62958821D01*
X135094874Y-62958822D01*
X136002511Y-63866458D01*
X135942110Y-63891478D01*
X135835649Y-63962612D01*
X135745112Y-64053149D01*
X135673978Y-64159610D01*
X135648958Y-64220011D01*
X134741322Y-63312374D01*
X134741321Y-63312375D01*
X134647537Y-63437656D01*
X134647532Y-63437664D01*
X134517287Y-63676189D01*
X134517285Y-63676193D01*
X134422305Y-63930845D01*
X134364537Y-64196402D01*
X134364536Y-64196409D01*
X134345147Y-64467498D01*
X133155355Y-64467498D01*
X133135961Y-64196340D01*
X133078175Y-63930699D01*
X132983172Y-63675987D01*
X132983170Y-63675984D01*
X132983169Y-63675980D01*
X132852890Y-63437392D01*
X132852889Y-63437391D01*
X132852887Y-63437387D01*
X132689971Y-63219758D01*
X132689966Y-63219753D01*
X132689961Y-63219747D01*
X132497752Y-63027538D01*
X132497746Y-63027533D01*
X132497742Y-63027529D01*
X132280113Y-62864613D01*
X132280108Y-62864610D01*
X132280107Y-62864609D01*
X132041518Y-62734330D01*
X132041519Y-62734330D01*
X131991920Y-62715830D01*
X131786801Y-62639325D01*
X131786794Y-62639323D01*
X131786793Y-62639323D01*
X131521167Y-62581540D01*
X131521160Y-62581539D01*
X131250001Y-62562145D01*
X131249999Y-62562145D01*
X130978839Y-62581539D01*
X130978832Y-62581540D01*
X130713206Y-62639323D01*
X130713202Y-62639324D01*
X130713199Y-62639325D01*
X130585843Y-62686826D01*
X130458480Y-62734330D01*
X130219892Y-62864609D01*
X130219891Y-62864610D01*
X130002259Y-63027528D01*
X130002247Y-63027538D01*
X129810038Y-63219747D01*
X129810028Y-63219759D01*
X129647110Y-63437391D01*
X129647109Y-63437392D01*
X129516830Y-63675980D01*
X129516751Y-63676193D01*
X129421825Y-63930699D01*
X129421824Y-63930702D01*
X129421823Y-63930706D01*
X129364040Y-64196332D01*
X129364039Y-64196339D01*
X129344645Y-64467498D01*
X129344645Y-64467501D01*
X129364039Y-64738660D01*
X129364040Y-64738667D01*
X129372029Y-64775390D01*
X129421825Y-65004301D01*
X129498330Y-65209420D01*
X129516830Y-65259019D01*
X129647109Y-65497607D01*
X129647110Y-65497608D01*
X129647113Y-65497613D01*
X129810029Y-65715242D01*
X129810033Y-65715246D01*
X129810038Y-65715252D01*
X130002247Y-65907461D01*
X130002253Y-65907466D01*
X130002258Y-65907471D01*
X130219887Y-66070387D01*
X130219891Y-66070389D01*
X130219892Y-66070390D01*
X130458481Y-66200669D01*
X130458484Y-66200671D01*
X130458487Y-66200672D01*
X130568835Y-66241829D01*
X130624767Y-66283699D01*
X130649184Y-66349163D01*
X130649500Y-66358010D01*
X130649500Y-68109902D01*
X130629815Y-68176941D01*
X130613181Y-68197583D01*
X130099481Y-68711282D01*
X130099480Y-68711284D01*
X130060549Y-68778716D01*
X130049361Y-68798094D01*
X130049359Y-68798096D01*
X130020425Y-68848209D01*
X130020424Y-68848210D01*
X130020423Y-68848215D01*
X129979499Y-69000943D01*
X129979499Y-69000945D01*
X129979499Y-69169046D01*
X129979500Y-69169059D01*
X129979500Y-72330903D01*
X129959815Y-72397942D01*
X129907011Y-72443697D01*
X129837853Y-72453641D01*
X129774297Y-72424616D01*
X129767819Y-72418584D01*
X126886819Y-69537584D01*
X126853334Y-69476261D01*
X126850500Y-69449903D01*
X126850500Y-66358010D01*
X126870185Y-66290971D01*
X126922989Y-66245216D01*
X126931146Y-66241836D01*
X127041513Y-66200672D01*
X127280113Y-66070387D01*
X127497742Y-65907471D01*
X127689971Y-65715242D01*
X127852887Y-65497613D01*
X127983172Y-65259013D01*
X128078175Y-65004301D01*
X128135961Y-64738660D01*
X128155355Y-64467500D01*
X128135961Y-64196340D01*
X128078175Y-63930699D01*
X127983172Y-63675987D01*
X127983170Y-63675984D01*
X127983169Y-63675980D01*
X127852890Y-63437392D01*
X127852889Y-63437391D01*
X127852887Y-63437387D01*
X127689971Y-63219758D01*
X127689966Y-63219753D01*
X127689961Y-63219747D01*
X127497752Y-63027538D01*
X127497746Y-63027533D01*
X127497742Y-63027529D01*
X127280113Y-62864613D01*
X127280108Y-62864610D01*
X127280107Y-62864609D01*
X127041518Y-62734330D01*
X127041519Y-62734330D01*
X126991920Y-62715830D01*
X126786801Y-62639325D01*
X126786794Y-62639323D01*
X126786793Y-62639323D01*
X126521167Y-62581540D01*
X126521160Y-62581539D01*
X126250001Y-62562145D01*
X126249999Y-62562145D01*
X125978839Y-62581539D01*
X125978832Y-62581540D01*
X125713206Y-62639323D01*
X125713202Y-62639324D01*
X125713199Y-62639325D01*
X125585843Y-62686826D01*
X125458480Y-62734330D01*
X125219892Y-62864609D01*
X125219891Y-62864610D01*
X125002259Y-63027528D01*
X125002247Y-63027538D01*
X124810038Y-63219747D01*
X124810028Y-63219759D01*
X124647110Y-63437391D01*
X124647109Y-63437392D01*
X124516830Y-63675980D01*
X124516751Y-63676193D01*
X124421825Y-63930699D01*
X124421824Y-63930702D01*
X124421823Y-63930706D01*
X124364040Y-64196332D01*
X124364039Y-64196339D01*
X124344645Y-64467498D01*
X124344645Y-64467501D01*
X124364039Y-64738660D01*
X124364040Y-64738667D01*
X124372029Y-64775390D01*
X124421825Y-65004301D01*
X124498330Y-65209420D01*
X124516830Y-65259019D01*
X124647109Y-65497607D01*
X124647110Y-65497608D01*
X124647113Y-65497613D01*
X124810029Y-65715242D01*
X124810033Y-65715246D01*
X124810038Y-65715252D01*
X125002247Y-65907461D01*
X125002253Y-65907466D01*
X125002258Y-65907471D01*
X125219887Y-66070387D01*
X125219891Y-66070389D01*
X125219892Y-66070390D01*
X125458481Y-66200669D01*
X125458484Y-66200671D01*
X125458487Y-66200672D01*
X125568835Y-66241829D01*
X125624767Y-66283699D01*
X125649184Y-66349163D01*
X125649500Y-66358010D01*
X125649500Y-69663330D01*
X125649499Y-69663348D01*
X125649499Y-69829054D01*
X125649498Y-69829054D01*
X125690423Y-69981785D01*
X125719358Y-70031900D01*
X125719359Y-70031904D01*
X125719360Y-70031904D01*
X125769479Y-70118714D01*
X125769481Y-70118717D01*
X125888349Y-70237585D01*
X125888355Y-70237590D01*
X129543181Y-73892416D01*
X129576666Y-73953739D01*
X129579500Y-73980097D01*
X129579500Y-74125863D01*
X129559815Y-74192902D01*
X129507011Y-74238657D01*
X129437853Y-74248601D01*
X129423407Y-74245638D01*
X129306697Y-74214366D01*
X129306693Y-74214365D01*
X129306692Y-74214365D01*
X129306691Y-74214364D01*
X129306686Y-74214364D01*
X129080002Y-74194532D01*
X129079998Y-74194532D01*
X128853313Y-74214364D01*
X128853302Y-74214366D01*
X128633511Y-74273258D01*
X128633502Y-74273261D01*
X128427267Y-74369431D01*
X128427265Y-74369432D01*
X128240858Y-74499954D01*
X128079954Y-74660858D01*
X127949432Y-74847265D01*
X127949431Y-74847267D01*
X127853261Y-75053502D01*
X127853259Y-75053508D01*
X127813642Y-75201364D01*
X127777277Y-75261024D01*
X127714430Y-75291553D01*
X127645054Y-75283258D01*
X127606186Y-75256951D01*
X121886819Y-69537584D01*
X121853334Y-69476261D01*
X121850500Y-69449903D01*
X121850500Y-66358010D01*
X121870185Y-66290971D01*
X121922989Y-66245216D01*
X121931146Y-66241836D01*
X122041513Y-66200672D01*
X122280113Y-66070387D01*
X122497742Y-65907471D01*
X122689971Y-65715242D01*
X122852887Y-65497613D01*
X122983172Y-65259013D01*
X123078175Y-65004301D01*
X123135961Y-64738660D01*
X123155355Y-64467500D01*
X123135961Y-64196340D01*
X123078175Y-63930699D01*
X122983172Y-63675987D01*
X122983170Y-63675984D01*
X122983169Y-63675980D01*
X122852890Y-63437392D01*
X122852889Y-63437391D01*
X122852887Y-63437387D01*
X122689971Y-63219758D01*
X122689966Y-63219753D01*
X122689961Y-63219747D01*
X122497752Y-63027538D01*
X122497746Y-63027533D01*
X122497742Y-63027529D01*
X122280113Y-62864613D01*
X122280108Y-62864610D01*
X122280107Y-62864609D01*
X122041518Y-62734330D01*
X122041519Y-62734330D01*
X121991920Y-62715830D01*
X121786801Y-62639325D01*
X121786794Y-62639323D01*
X121786793Y-62639323D01*
X121521167Y-62581540D01*
X121521160Y-62581539D01*
X121250001Y-62562145D01*
X121249999Y-62562145D01*
X120978839Y-62581539D01*
X120978832Y-62581540D01*
X120713206Y-62639323D01*
X120713202Y-62639324D01*
X120713199Y-62639325D01*
X120585843Y-62686826D01*
X120458480Y-62734330D01*
X120219892Y-62864609D01*
X120219891Y-62864610D01*
X120002259Y-63027528D01*
X120002247Y-63027538D01*
X119810038Y-63219747D01*
X119810028Y-63219759D01*
X119647110Y-63437391D01*
X119647109Y-63437392D01*
X119516830Y-63675980D01*
X119516751Y-63676193D01*
X119421825Y-63930699D01*
X119421824Y-63930702D01*
X119421823Y-63930706D01*
X119364040Y-64196332D01*
X119364039Y-64196339D01*
X119344645Y-64467498D01*
X119344645Y-64467501D01*
X119364039Y-64738660D01*
X119364040Y-64738667D01*
X119372029Y-64775390D01*
X119421825Y-65004301D01*
X119498330Y-65209420D01*
X119516830Y-65259019D01*
X119647109Y-65497607D01*
X119647110Y-65497608D01*
X119647113Y-65497613D01*
X119810029Y-65715242D01*
X119810033Y-65715246D01*
X119810038Y-65715252D01*
X120002247Y-65907461D01*
X120002253Y-65907466D01*
X120002258Y-65907471D01*
X120219887Y-66070387D01*
X120219891Y-66070389D01*
X120219892Y-66070390D01*
X120458481Y-66200669D01*
X120458484Y-66200671D01*
X120458487Y-66200672D01*
X120568835Y-66241829D01*
X120624767Y-66283699D01*
X120649184Y-66349163D01*
X120649500Y-66358010D01*
X120649500Y-69663330D01*
X120649499Y-69663348D01*
X120649499Y-69829054D01*
X120649498Y-69829054D01*
X120690423Y-69981785D01*
X120719358Y-70031900D01*
X120719359Y-70031904D01*
X120719360Y-70031904D01*
X120769479Y-70118714D01*
X120769481Y-70118717D01*
X120888349Y-70237585D01*
X120888355Y-70237590D01*
X124876258Y-74225493D01*
X124909743Y-74286816D01*
X124904759Y-74356508D01*
X124862887Y-74412441D01*
X124797423Y-74436858D01*
X124729150Y-74422006D01*
X124717454Y-74414749D01*
X124652734Y-74369432D01*
X124652732Y-74369431D01*
X124446497Y-74273261D01*
X124446488Y-74273258D01*
X124226697Y-74214366D01*
X124226693Y-74214365D01*
X124226692Y-74214365D01*
X124226691Y-74214364D01*
X124226686Y-74214364D01*
X124000002Y-74194532D01*
X123999998Y-74194532D01*
X123773313Y-74214364D01*
X123773302Y-74214366D01*
X123677067Y-74240152D01*
X123607217Y-74238489D01*
X123557293Y-74208058D01*
X120487590Y-71138355D01*
X120487588Y-71138352D01*
X120368717Y-71019481D01*
X120368716Y-71019480D01*
X120281904Y-70969360D01*
X120281904Y-70969359D01*
X120281900Y-70969358D01*
X120231785Y-70940423D01*
X120079057Y-70899499D01*
X119920943Y-70899499D01*
X119913347Y-70899499D01*
X119913331Y-70899500D01*
X116974500Y-70899500D01*
X116907461Y-70879815D01*
X116861706Y-70827011D01*
X116850500Y-70775500D01*
X116850500Y-66492000D01*
X116870185Y-66424961D01*
X116922989Y-66379206D01*
X116974500Y-66368000D01*
X117450003Y-66368000D01*
X117450008Y-66368000D01*
X117552797Y-66357499D01*
X117719334Y-66302314D01*
X117868655Y-66210211D01*
X117992711Y-66086155D01*
X118084814Y-65936834D01*
X118139999Y-65770297D01*
X118150500Y-65667508D01*
X118150500Y-63267492D01*
X118139999Y-63164703D01*
X118084814Y-62998166D01*
X118060546Y-62958822D01*
X117992713Y-62848848D01*
X117992710Y-62848844D01*
X117868655Y-62724789D01*
X117868651Y-62724786D01*
X117719337Y-62632687D01*
X117719335Y-62632686D01*
X117636065Y-62605093D01*
X117552797Y-62577501D01*
X117552795Y-62577500D01*
X117450015Y-62567000D01*
X117450008Y-62567000D01*
X115049992Y-62567000D01*
X115049984Y-62567000D01*
X114947204Y-62577500D01*
X114947203Y-62577501D01*
X114780664Y-62632686D01*
X114780662Y-62632687D01*
X114631348Y-62724786D01*
X114631344Y-62724789D01*
X114507289Y-62848844D01*
X114507286Y-62848848D01*
X114415187Y-62998162D01*
X114415186Y-62998164D01*
X114360001Y-63164703D01*
X114360000Y-63164704D01*
X114349500Y-63267484D01*
X114349500Y-65667515D01*
X114360000Y-65770295D01*
X114360001Y-65770296D01*
X114415186Y-65936835D01*
X114415187Y-65936837D01*
X114507286Y-66086151D01*
X114507289Y-66086155D01*
X114631344Y-66210210D01*
X114631348Y-66210213D01*
X114780662Y-66302312D01*
X114780664Y-66302313D01*
X114780666Y-66302314D01*
X114947203Y-66357499D01*
X115049992Y-66368000D01*
X115525500Y-66368000D01*
X115592539Y-66387685D01*
X115638294Y-66440489D01*
X115649500Y-66492000D01*
X115649500Y-70775500D01*
X115629815Y-70842539D01*
X115577011Y-70888294D01*
X115525500Y-70899500D01*
X115420940Y-70899500D01*
X115380019Y-70910464D01*
X115380019Y-70910465D01*
X115342751Y-70920451D01*
X115268214Y-70940423D01*
X115268209Y-70940426D01*
X115131290Y-71019475D01*
X115131282Y-71019481D01*
X114839481Y-71311282D01*
X114839479Y-71311285D01*
X114789361Y-71398094D01*
X114789359Y-71398096D01*
X114760425Y-71448209D01*
X114760424Y-71448210D01*
X114760423Y-71448215D01*
X114719499Y-71600943D01*
X114719499Y-71600945D01*
X114719499Y-71769046D01*
X114719500Y-71769059D01*
X114719500Y-74268306D01*
X114699815Y-74335345D01*
X114666623Y-74369881D01*
X114480859Y-74499953D01*
X114319954Y-74660858D01*
X114189432Y-74847265D01*
X114189431Y-74847267D01*
X114093261Y-75053502D01*
X114093258Y-75053511D01*
X114034366Y-75273302D01*
X114034364Y-75273313D01*
X114014532Y-75499998D01*
X114014532Y-75500001D01*
X114034364Y-75726686D01*
X114034366Y-75726697D01*
X114093258Y-75946488D01*
X114093261Y-75946497D01*
X114189431Y-76152732D01*
X114189432Y-76152734D01*
X114319954Y-76339141D01*
X114480858Y-76500045D01*
X114480861Y-76500047D01*
X114666624Y-76630118D01*
X114710248Y-76684693D01*
X114719500Y-76731692D01*
X114719500Y-78318306D01*
X114699815Y-78385345D01*
X114666623Y-78419881D01*
X114480859Y-78549953D01*
X114319954Y-78710858D01*
X114189432Y-78897265D01*
X114189431Y-78897267D01*
X114093261Y-79103502D01*
X114093258Y-79103511D01*
X114034366Y-79323302D01*
X114034364Y-79323313D01*
X114014532Y-79549998D01*
X114014532Y-79550001D01*
X114034364Y-79776686D01*
X114034366Y-79776697D01*
X114093258Y-79996488D01*
X114093261Y-79996497D01*
X114189431Y-80202732D01*
X114189432Y-80202734D01*
X114319954Y-80389141D01*
X114480858Y-80550045D01*
X114480861Y-80550047D01*
X114666624Y-80680118D01*
X114710248Y-80734693D01*
X114719500Y-80781692D01*
X114719500Y-82368306D01*
X114699815Y-82435345D01*
X114666623Y-82469881D01*
X114480859Y-82599953D01*
X114319954Y-82760858D01*
X114189432Y-82947265D01*
X114189431Y-82947267D01*
X114093261Y-83153502D01*
X114093258Y-83153511D01*
X114034366Y-83373302D01*
X114034364Y-83373313D01*
X114014532Y-83599998D01*
X114014532Y-83600001D01*
X114034364Y-83826686D01*
X114034366Y-83826697D01*
X114093258Y-84046488D01*
X114093261Y-84046497D01*
X114189431Y-84252732D01*
X114189432Y-84252734D01*
X114319954Y-84439141D01*
X114480858Y-84600045D01*
X114480861Y-84600047D01*
X114666624Y-84730118D01*
X114710248Y-84784693D01*
X114719500Y-84831692D01*
X114719500Y-86418306D01*
X114699815Y-86485345D01*
X114666623Y-86519881D01*
X114480859Y-86649953D01*
X114319954Y-86810858D01*
X114189432Y-86997265D01*
X114189431Y-86997267D01*
X114093261Y-87203502D01*
X114093258Y-87203511D01*
X114034366Y-87423302D01*
X114034364Y-87423313D01*
X114014532Y-87649998D01*
X114014532Y-87650001D01*
X114034364Y-87876686D01*
X114034366Y-87876697D01*
X114093258Y-88096488D01*
X114093261Y-88096497D01*
X114189431Y-88302732D01*
X114189432Y-88302734D01*
X114319954Y-88489141D01*
X114480858Y-88650045D01*
X114480861Y-88650047D01*
X114666624Y-88780118D01*
X114710248Y-88834693D01*
X114719500Y-88881692D01*
X114719500Y-90468306D01*
X114699815Y-90535345D01*
X114666623Y-90569881D01*
X114480859Y-90699953D01*
X114319954Y-90860858D01*
X114189432Y-91047265D01*
X114189431Y-91047267D01*
X114093261Y-91253502D01*
X114093258Y-91253511D01*
X114034366Y-91473302D01*
X114034364Y-91473313D01*
X114014532Y-91699998D01*
X114014532Y-91700001D01*
X114034364Y-91926686D01*
X114034366Y-91926697D01*
X114093258Y-92146488D01*
X114093261Y-92146497D01*
X114189431Y-92352732D01*
X114189432Y-92352734D01*
X114319954Y-92539141D01*
X114480858Y-92700045D01*
X114480861Y-92700047D01*
X114666624Y-92830118D01*
X114710248Y-92884693D01*
X114719500Y-92931692D01*
X114719500Y-94518306D01*
X114699815Y-94585345D01*
X114666623Y-94619881D01*
X114480859Y-94749953D01*
X114319954Y-94910858D01*
X114189432Y-95097265D01*
X114189431Y-95097267D01*
X114093261Y-95303502D01*
X114093258Y-95303511D01*
X114034366Y-95523302D01*
X114034364Y-95523313D01*
X114014532Y-95749998D01*
X114014532Y-95750001D01*
X114034364Y-95976686D01*
X114034366Y-95976697D01*
X114093258Y-96196488D01*
X114093261Y-96196497D01*
X114189431Y-96402732D01*
X114189432Y-96402734D01*
X114319954Y-96589141D01*
X114480858Y-96750045D01*
X114480861Y-96750047D01*
X114666624Y-96880118D01*
X114710248Y-96934693D01*
X114719500Y-96981692D01*
X114719500Y-98568306D01*
X114699815Y-98635345D01*
X114666623Y-98669881D01*
X114480859Y-98799953D01*
X114319954Y-98960858D01*
X114189432Y-99147265D01*
X114189431Y-99147267D01*
X114093261Y-99353502D01*
X114093258Y-99353511D01*
X114034366Y-99573302D01*
X114034364Y-99573313D01*
X114014532Y-99799998D01*
X114014532Y-99800001D01*
X114034364Y-100026686D01*
X114034366Y-100026697D01*
X114093258Y-100246488D01*
X114093261Y-100246497D01*
X114189431Y-100452732D01*
X114189432Y-100452734D01*
X114319954Y-100639141D01*
X114480858Y-100800045D01*
X114480861Y-100800047D01*
X114667266Y-100930568D01*
X114873504Y-101026739D01*
X115093308Y-101085635D01*
X115255230Y-101099801D01*
X115319998Y-101105468D01*
X115320000Y-101105468D01*
X115320002Y-101105468D01*
X115376673Y-101100509D01*
X115546692Y-101085635D01*
X115766496Y-101026739D01*
X115972734Y-100930568D01*
X116159139Y-100800047D01*
X116159141Y-100800045D01*
X116187819Y-100771368D01*
X116249142Y-100737883D01*
X116318834Y-100742867D01*
X116374767Y-100784739D01*
X116399184Y-100850203D01*
X116399500Y-100859049D01*
X116399500Y-104285769D01*
X116379815Y-104352808D01*
X116337501Y-104393156D01*
X116231284Y-104454481D01*
X116231281Y-104454483D01*
X115502583Y-105183181D01*
X115441260Y-105216666D01*
X115414902Y-105219500D01*
X114167129Y-105219500D01*
X114167123Y-105219501D01*
X114107516Y-105225908D01*
X113972671Y-105276202D01*
X113972664Y-105276206D01*
X113857455Y-105362452D01*
X113857452Y-105362455D01*
X113771206Y-105477664D01*
X113771202Y-105477671D01*
X113720908Y-105612517D01*
X113714501Y-105672116D01*
X113714500Y-105672135D01*
X113714500Y-107367870D01*
X113714501Y-107367876D01*
X113720908Y-107427483D01*
X113771202Y-107562328D01*
X113771206Y-107562335D01*
X113857452Y-107677544D01*
X113857455Y-107677547D01*
X113972664Y-107763793D01*
X113972671Y-107763797D01*
X114017618Y-107780561D01*
X114107517Y-107814091D01*
X114142596Y-107817862D01*
X114207144Y-107844599D01*
X114246993Y-107901991D01*
X114249488Y-107971816D01*
X114213836Y-108031905D01*
X114200464Y-108042725D01*
X114175858Y-108059954D01*
X114014954Y-108220858D01*
X113884432Y-108407265D01*
X113884431Y-108407267D01*
X113788261Y-108613502D01*
X113788258Y-108613511D01*
X113729366Y-108833302D01*
X113729364Y-108833313D01*
X113709532Y-109059998D01*
X113709532Y-109060001D01*
X113729364Y-109286686D01*
X113729366Y-109286697D01*
X113788258Y-109506488D01*
X113788261Y-109506497D01*
X113884431Y-109712732D01*
X113884432Y-109712734D01*
X114014954Y-109899141D01*
X114175858Y-110060045D01*
X114175861Y-110060047D01*
X114362266Y-110190568D01*
X114420275Y-110217618D01*
X114472714Y-110263791D01*
X114491866Y-110330984D01*
X114471650Y-110397865D01*
X114420275Y-110442382D01*
X114362267Y-110469431D01*
X114362265Y-110469432D01*
X114175858Y-110599954D01*
X114014954Y-110760858D01*
X113884432Y-110947265D01*
X113884431Y-110947267D01*
X113788261Y-111153502D01*
X113788258Y-111153511D01*
X113729366Y-111373302D01*
X113729364Y-111373313D01*
X113709532Y-111599998D01*
X113709532Y-111600001D01*
X113729364Y-111826686D01*
X113729366Y-111826697D01*
X113788258Y-112046488D01*
X113788261Y-112046497D01*
X113884431Y-112252732D01*
X113884432Y-112252734D01*
X114014954Y-112439141D01*
X114175858Y-112600045D01*
X114175861Y-112600047D01*
X114362266Y-112730568D01*
X114420275Y-112757618D01*
X114472714Y-112803791D01*
X114491866Y-112870984D01*
X114471650Y-112937865D01*
X114420275Y-112982382D01*
X114362267Y-113009431D01*
X114362265Y-113009432D01*
X114175858Y-113139954D01*
X114014954Y-113300858D01*
X113884432Y-113487265D01*
X113884431Y-113487267D01*
X113788261Y-113693502D01*
X113788258Y-113693511D01*
X113757691Y-113807593D01*
X113721326Y-113867254D01*
X113658479Y-113897783D01*
X113637916Y-113899500D01*
X105390511Y-113899500D01*
X105323472Y-113879815D01*
X105277717Y-113827011D01*
X105274329Y-113818834D01*
X105273670Y-113817066D01*
X105233172Y-113708487D01*
X105233170Y-113708484D01*
X105233169Y-113708480D01*
X105102890Y-113469892D01*
X105102889Y-113469891D01*
X105102887Y-113469887D01*
X104939971Y-113252258D01*
X104939966Y-113252253D01*
X104939961Y-113252247D01*
X104747752Y-113060038D01*
X104747746Y-113060033D01*
X104747742Y-113060029D01*
X104530113Y-112897113D01*
X104530108Y-112897110D01*
X104530107Y-112897109D01*
X104291518Y-112766830D01*
X104291519Y-112766830D01*
X104241920Y-112748330D01*
X104036801Y-112671825D01*
X104036794Y-112671823D01*
X104036793Y-112671823D01*
X103771167Y-112614040D01*
X103771160Y-112614039D01*
X103500001Y-112594645D01*
X103499999Y-112594645D01*
X103228839Y-112614039D01*
X103228832Y-112614040D01*
X102963206Y-112671823D01*
X102963202Y-112671824D01*
X102963199Y-112671825D01*
X102835843Y-112719326D01*
X102708480Y-112766830D01*
X102469892Y-112897109D01*
X102469891Y-112897110D01*
X102252259Y-113060028D01*
X102252247Y-113060038D01*
X102060038Y-113252247D01*
X102060028Y-113252259D01*
X101897110Y-113469891D01*
X101897109Y-113469892D01*
X101766830Y-113708480D01*
X101722621Y-113827011D01*
X101671825Y-113963199D01*
X101671824Y-113963202D01*
X101671823Y-113963206D01*
X101614040Y-114228832D01*
X101614039Y-114228839D01*
X101594645Y-114499998D01*
X99000000Y-114499998D01*
X99000000Y-109499998D01*
X101595147Y-109499998D01*
X101595147Y-109500001D01*
X101614536Y-109771090D01*
X101614537Y-109771097D01*
X101672305Y-110036654D01*
X101767285Y-110291306D01*
X101767287Y-110291310D01*
X101897532Y-110529835D01*
X101897537Y-110529843D01*
X101991321Y-110655123D01*
X101991322Y-110655124D01*
X102898958Y-109747488D01*
X102923978Y-109807890D01*
X102995112Y-109914351D01*
X103085649Y-110004888D01*
X103192110Y-110076022D01*
X103252511Y-110101041D01*
X102344874Y-111008676D01*
X102470163Y-111102466D01*
X102470164Y-111102467D01*
X102708689Y-111232712D01*
X102708693Y-111232714D01*
X102963345Y-111327694D01*
X103228902Y-111385462D01*
X103228909Y-111385463D01*
X103499999Y-111404853D01*
X103500001Y-111404853D01*
X103771090Y-111385463D01*
X103771097Y-111385462D01*
X104036654Y-111327694D01*
X104291306Y-111232714D01*
X104291310Y-111232712D01*
X104529844Y-111102462D01*
X104655123Y-111008677D01*
X104655124Y-111008676D01*
X103747488Y-110101041D01*
X103807890Y-110076022D01*
X103914351Y-110004888D01*
X104004888Y-109914351D01*
X104076022Y-109807890D01*
X104101041Y-109747488D01*
X105008676Y-110655124D01*
X105008677Y-110655123D01*
X105102462Y-110529844D01*
X105232712Y-110291310D01*
X105232714Y-110291306D01*
X105327694Y-110036654D01*
X105385462Y-109771097D01*
X105385463Y-109771090D01*
X105404853Y-109500001D01*
X105404853Y-109499998D01*
X105385463Y-109228909D01*
X105385462Y-109228902D01*
X105327694Y-108963345D01*
X105232714Y-108708693D01*
X105232712Y-108708689D01*
X105102467Y-108470164D01*
X105102466Y-108470163D01*
X105008676Y-108344874D01*
X104101041Y-109252510D01*
X104076022Y-109192110D01*
X104004888Y-109085649D01*
X103914351Y-108995112D01*
X103807890Y-108923978D01*
X103747487Y-108898957D01*
X104655124Y-107991322D01*
X104655123Y-107991321D01*
X104529843Y-107897537D01*
X104529835Y-107897532D01*
X104291310Y-107767287D01*
X104291306Y-107767285D01*
X104036654Y-107672305D01*
X103771097Y-107614537D01*
X103771090Y-107614536D01*
X103500001Y-107595147D01*
X103499999Y-107595147D01*
X103228909Y-107614536D01*
X103228902Y-107614537D01*
X102963345Y-107672305D01*
X102708693Y-107767285D01*
X102708689Y-107767287D01*
X102470164Y-107897532D01*
X102470156Y-107897537D01*
X102344875Y-107991321D01*
X102344874Y-107991322D01*
X103252511Y-108898958D01*
X103192110Y-108923978D01*
X103085649Y-108995112D01*
X102995112Y-109085649D01*
X102923978Y-109192110D01*
X102898958Y-109252511D01*
X101991322Y-108344874D01*
X101991321Y-108344875D01*
X101897537Y-108470156D01*
X101897532Y-108470164D01*
X101767287Y-108708689D01*
X101767285Y-108708693D01*
X101672305Y-108963345D01*
X101614537Y-109228902D01*
X101614536Y-109228909D01*
X101595147Y-109499998D01*
X99000000Y-109499998D01*
X99000000Y-104499998D01*
X101594645Y-104499998D01*
X101594645Y-104500001D01*
X101614039Y-104771160D01*
X101614040Y-104771167D01*
X101646839Y-104921941D01*
X101671825Y-105036801D01*
X101739969Y-105219501D01*
X101766830Y-105291519D01*
X101897109Y-105530107D01*
X101897110Y-105530108D01*
X101897113Y-105530113D01*
X102060029Y-105747742D01*
X102060033Y-105747746D01*
X102060038Y-105747752D01*
X102252247Y-105939961D01*
X102252253Y-105939966D01*
X102252258Y-105939971D01*
X102469887Y-106102887D01*
X102469891Y-106102889D01*
X102469892Y-106102890D01*
X102708481Y-106233169D01*
X102708480Y-106233169D01*
X102708484Y-106233170D01*
X102708487Y-106233172D01*
X102963199Y-106328175D01*
X103228840Y-106385961D01*
X103480605Y-106403967D01*
X103499999Y-106405355D01*
X103500000Y-106405355D01*
X103500001Y-106405355D01*
X103518100Y-106404060D01*
X103771160Y-106385961D01*
X104036801Y-106328175D01*
X104291513Y-106233172D01*
X104291517Y-106233169D01*
X104291519Y-106233169D01*
X104480946Y-106129734D01*
X104530113Y-106102887D01*
X104747742Y-105939971D01*
X104939971Y-105747742D01*
X105102887Y-105530113D01*
X105194435Y-105362455D01*
X105233169Y-105291519D01*
X105233169Y-105291517D01*
X105233172Y-105291513D01*
X105328175Y-105036801D01*
X105385961Y-104771160D01*
X105405355Y-104500000D01*
X105385961Y-104228840D01*
X105328175Y-103963199D01*
X105233172Y-103708487D01*
X105233170Y-103708484D01*
X105233169Y-103708480D01*
X105102890Y-103469892D01*
X105102889Y-103469891D01*
X105102887Y-103469887D01*
X104939971Y-103252258D01*
X104939966Y-103252253D01*
X104939961Y-103252247D01*
X104747752Y-103060038D01*
X104747746Y-103060033D01*
X104747742Y-103060029D01*
X104530113Y-102897113D01*
X104530108Y-102897110D01*
X104530107Y-102897109D01*
X104291518Y-102766830D01*
X104291519Y-102766830D01*
X104241920Y-102748330D01*
X104036801Y-102671825D01*
X104036794Y-102671823D01*
X104036793Y-102671823D01*
X103771167Y-102614040D01*
X103771160Y-102614039D01*
X103500001Y-102594645D01*
X103499999Y-102594645D01*
X103228839Y-102614039D01*
X103228832Y-102614040D01*
X102963206Y-102671823D01*
X102963202Y-102671824D01*
X102963199Y-102671825D01*
X102869160Y-102706900D01*
X102708480Y-102766830D01*
X102469892Y-102897109D01*
X102469891Y-102897110D01*
X102252259Y-103060028D01*
X102252247Y-103060038D01*
X102060038Y-103252247D01*
X102060028Y-103252259D01*
X101897110Y-103469891D01*
X101897109Y-103469892D01*
X101766830Y-103708480D01*
X101719326Y-103835843D01*
X101671825Y-103963199D01*
X101671824Y-103963202D01*
X101671823Y-103963206D01*
X101614040Y-104228832D01*
X101614039Y-104228839D01*
X101594645Y-104499998D01*
X99000000Y-104499998D01*
X99000000Y-99499998D01*
X101595147Y-99499998D01*
X101595147Y-99500001D01*
X101614536Y-99771090D01*
X101614537Y-99771097D01*
X101672305Y-100036654D01*
X101767285Y-100291306D01*
X101767287Y-100291310D01*
X101897532Y-100529835D01*
X101897537Y-100529843D01*
X101991321Y-100655123D01*
X101991322Y-100655124D01*
X102898958Y-99747488D01*
X102923978Y-99807890D01*
X102995112Y-99914351D01*
X103085649Y-100004888D01*
X103192110Y-100076022D01*
X103252511Y-100101041D01*
X102344874Y-101008676D01*
X102470163Y-101102466D01*
X102470164Y-101102467D01*
X102708689Y-101232712D01*
X102708693Y-101232714D01*
X102963345Y-101327694D01*
X103228902Y-101385462D01*
X103228909Y-101385463D01*
X103499999Y-101404853D01*
X103500001Y-101404853D01*
X103771090Y-101385463D01*
X103771097Y-101385462D01*
X104036654Y-101327694D01*
X104291306Y-101232714D01*
X104291310Y-101232712D01*
X104529844Y-101102462D01*
X104655123Y-101008677D01*
X104655124Y-101008676D01*
X103747488Y-100101041D01*
X103807890Y-100076022D01*
X103914351Y-100004888D01*
X104004888Y-99914351D01*
X104076022Y-99807890D01*
X104101041Y-99747488D01*
X105008676Y-100655124D01*
X105008677Y-100655123D01*
X105102462Y-100529844D01*
X105232712Y-100291310D01*
X105232714Y-100291306D01*
X105327694Y-100036654D01*
X105385462Y-99771097D01*
X105385463Y-99771090D01*
X105404853Y-99500001D01*
X105404853Y-99499998D01*
X105385463Y-99228909D01*
X105385462Y-99228902D01*
X105327694Y-98963345D01*
X105232714Y-98708693D01*
X105232712Y-98708689D01*
X105102467Y-98470164D01*
X105102466Y-98470163D01*
X105008676Y-98344874D01*
X104101041Y-99252510D01*
X104076022Y-99192110D01*
X104004888Y-99085649D01*
X103914351Y-98995112D01*
X103807890Y-98923978D01*
X103747487Y-98898957D01*
X104655124Y-97991322D01*
X104655123Y-97991321D01*
X104529843Y-97897537D01*
X104529835Y-97897532D01*
X104291310Y-97767287D01*
X104291306Y-97767285D01*
X104036654Y-97672305D01*
X103771097Y-97614537D01*
X103771090Y-97614536D01*
X103500001Y-97595147D01*
X103499999Y-97595147D01*
X103228909Y-97614536D01*
X103228902Y-97614537D01*
X102963345Y-97672305D01*
X102708693Y-97767285D01*
X102708689Y-97767287D01*
X102470164Y-97897532D01*
X102470156Y-97897537D01*
X102344875Y-97991321D01*
X102344874Y-97991322D01*
X103252511Y-98898958D01*
X103192110Y-98923978D01*
X103085649Y-98995112D01*
X102995112Y-99085649D01*
X102923978Y-99192110D01*
X102898958Y-99252511D01*
X101991322Y-98344874D01*
X101991321Y-98344875D01*
X101897537Y-98470156D01*
X101897532Y-98470164D01*
X101767287Y-98708689D01*
X101767285Y-98708693D01*
X101672305Y-98963345D01*
X101614537Y-99228902D01*
X101614536Y-99228909D01*
X101595147Y-99499998D01*
X99000000Y-99499998D01*
X99000000Y-94499998D01*
X101594645Y-94499998D01*
X101594645Y-94500001D01*
X101614039Y-94771160D01*
X101614040Y-94771167D01*
X101671823Y-95036793D01*
X101671825Y-95036801D01*
X101694378Y-95097267D01*
X101766830Y-95291519D01*
X101897109Y-95530107D01*
X101897110Y-95530108D01*
X101897113Y-95530113D01*
X102060029Y-95747742D01*
X102060033Y-95747746D01*
X102060038Y-95747752D01*
X102252247Y-95939961D01*
X102252253Y-95939966D01*
X102252258Y-95939971D01*
X102469887Y-96102887D01*
X102469891Y-96102889D01*
X102469892Y-96102890D01*
X102708481Y-96233169D01*
X102708480Y-96233169D01*
X102708484Y-96233170D01*
X102708487Y-96233172D01*
X102963199Y-96328175D01*
X103228840Y-96385961D01*
X103480605Y-96403967D01*
X103499999Y-96405355D01*
X103500000Y-96405355D01*
X103500001Y-96405355D01*
X103518100Y-96404060D01*
X103771160Y-96385961D01*
X104036801Y-96328175D01*
X104291513Y-96233172D01*
X104291517Y-96233169D01*
X104291519Y-96233169D01*
X104425302Y-96160118D01*
X104530113Y-96102887D01*
X104747742Y-95939971D01*
X104939971Y-95747742D01*
X105102887Y-95530113D01*
X105226621Y-95303511D01*
X105233169Y-95291519D01*
X105233169Y-95291517D01*
X105233172Y-95291513D01*
X105328175Y-95036801D01*
X105385961Y-94771160D01*
X105405355Y-94500000D01*
X105385961Y-94228840D01*
X105328175Y-93963199D01*
X105233172Y-93708487D01*
X105233170Y-93708484D01*
X105233169Y-93708480D01*
X105102890Y-93469892D01*
X105102889Y-93469891D01*
X105102887Y-93469887D01*
X104939971Y-93252258D01*
X104939966Y-93252253D01*
X104939961Y-93252247D01*
X104747752Y-93060038D01*
X104747746Y-93060033D01*
X104747742Y-93060029D01*
X104530113Y-92897113D01*
X104530108Y-92897110D01*
X104530107Y-92897109D01*
X104291518Y-92766830D01*
X104291519Y-92766830D01*
X104193484Y-92730265D01*
X104036801Y-92671825D01*
X104036794Y-92671823D01*
X104036793Y-92671823D01*
X103771167Y-92614040D01*
X103771160Y-92614039D01*
X103500001Y-92594645D01*
X103499999Y-92594645D01*
X103228839Y-92614039D01*
X103228832Y-92614040D01*
X102963206Y-92671823D01*
X102963202Y-92671824D01*
X102963199Y-92671825D01*
X102851920Y-92713330D01*
X102708480Y-92766830D01*
X102469892Y-92897109D01*
X102469891Y-92897110D01*
X102252259Y-93060028D01*
X102252247Y-93060038D01*
X102060038Y-93252247D01*
X102060028Y-93252259D01*
X101897110Y-93469891D01*
X101897109Y-93469892D01*
X101766830Y-93708480D01*
X101764087Y-93715835D01*
X101671825Y-93963199D01*
X101671824Y-93963202D01*
X101671823Y-93963206D01*
X101614040Y-94228832D01*
X101614039Y-94228839D01*
X101594645Y-94499998D01*
X99000000Y-94499998D01*
X99000000Y-89499998D01*
X101595147Y-89499998D01*
X101595147Y-89500001D01*
X101614536Y-89771090D01*
X101614537Y-89771097D01*
X101672305Y-90036654D01*
X101767285Y-90291306D01*
X101767287Y-90291309D01*
X101897532Y-90529835D01*
X101897537Y-90529843D01*
X101991321Y-90655123D01*
X101991322Y-90655124D01*
X102898958Y-89747488D01*
X102923978Y-89807890D01*
X102995112Y-89914351D01*
X103085649Y-90004888D01*
X103192110Y-90076022D01*
X103252511Y-90101041D01*
X102344874Y-91008676D01*
X102470163Y-91102466D01*
X102470164Y-91102467D01*
X102708689Y-91232712D01*
X102708693Y-91232714D01*
X102963345Y-91327694D01*
X103228902Y-91385462D01*
X103228909Y-91385463D01*
X103499999Y-91404853D01*
X103500001Y-91404853D01*
X103771090Y-91385463D01*
X103771097Y-91385462D01*
X104036654Y-91327694D01*
X104291306Y-91232714D01*
X104291310Y-91232712D01*
X104529844Y-91102462D01*
X104655123Y-91008677D01*
X104655124Y-91008676D01*
X103747488Y-90101041D01*
X103807890Y-90076022D01*
X103914351Y-90004888D01*
X104004888Y-89914351D01*
X104076022Y-89807890D01*
X104101041Y-89747488D01*
X105008676Y-90655124D01*
X105008677Y-90655123D01*
X105102462Y-90529844D01*
X105232713Y-90291309D01*
X105232714Y-90291306D01*
X105327694Y-90036654D01*
X105385462Y-89771097D01*
X105385463Y-89771090D01*
X105404853Y-89500001D01*
X105404853Y-89499998D01*
X105385463Y-89228909D01*
X105385462Y-89228902D01*
X105327694Y-88963345D01*
X105232714Y-88708693D01*
X105232712Y-88708689D01*
X105102467Y-88470164D01*
X105102466Y-88470163D01*
X105008676Y-88344874D01*
X104101041Y-89252510D01*
X104076022Y-89192110D01*
X104004888Y-89085649D01*
X103914351Y-88995112D01*
X103807890Y-88923978D01*
X103747487Y-88898957D01*
X104655124Y-87991322D01*
X104655123Y-87991321D01*
X104529843Y-87897537D01*
X104529835Y-87897532D01*
X104291310Y-87767287D01*
X104291306Y-87767285D01*
X104036654Y-87672305D01*
X103771097Y-87614537D01*
X103771090Y-87614536D01*
X103500001Y-87595147D01*
X103499999Y-87595147D01*
X103228909Y-87614536D01*
X103228902Y-87614537D01*
X102963345Y-87672305D01*
X102708693Y-87767285D01*
X102708689Y-87767287D01*
X102470164Y-87897532D01*
X102470156Y-87897537D01*
X102344875Y-87991321D01*
X102344874Y-87991322D01*
X103252511Y-88898958D01*
X103192110Y-88923978D01*
X103085649Y-88995112D01*
X102995112Y-89085649D01*
X102923978Y-89192110D01*
X102898958Y-89252511D01*
X101991322Y-88344874D01*
X101991321Y-88344875D01*
X101897537Y-88470156D01*
X101897532Y-88470164D01*
X101767287Y-88708689D01*
X101767285Y-88708693D01*
X101672305Y-88963345D01*
X101614537Y-89228902D01*
X101614536Y-89228909D01*
X101595147Y-89499998D01*
X99000000Y-89499998D01*
X99000000Y-84499998D01*
X101594645Y-84499998D01*
X101594645Y-84500001D01*
X101614039Y-84771160D01*
X101614040Y-84771167D01*
X101671823Y-85036793D01*
X101671825Y-85036801D01*
X101748330Y-85241920D01*
X101766830Y-85291519D01*
X101897109Y-85530107D01*
X101897110Y-85530108D01*
X101897113Y-85530113D01*
X102060029Y-85747742D01*
X102060033Y-85747746D01*
X102060038Y-85747752D01*
X102252247Y-85939961D01*
X102252253Y-85939966D01*
X102252258Y-85939971D01*
X102469887Y-86102887D01*
X102469891Y-86102889D01*
X102469892Y-86102890D01*
X102708481Y-86233169D01*
X102708480Y-86233169D01*
X102708484Y-86233170D01*
X102708487Y-86233172D01*
X102963199Y-86328175D01*
X103228840Y-86385961D01*
X103480605Y-86403967D01*
X103499999Y-86405355D01*
X103500000Y-86405355D01*
X103500001Y-86405355D01*
X103518100Y-86404060D01*
X103771160Y-86385961D01*
X104036801Y-86328175D01*
X104291513Y-86233172D01*
X104291517Y-86233169D01*
X104291519Y-86233169D01*
X104441541Y-86151251D01*
X104530113Y-86102887D01*
X104747742Y-85939971D01*
X104939971Y-85747742D01*
X105102887Y-85530113D01*
X105233172Y-85291513D01*
X105328175Y-85036801D01*
X105385961Y-84771160D01*
X105405355Y-84500000D01*
X105385961Y-84228840D01*
X105328175Y-83963199D01*
X105233172Y-83708487D01*
X105233169Y-83708481D01*
X105233169Y-83708480D01*
X105102890Y-83469892D01*
X105102889Y-83469891D01*
X105102887Y-83469887D01*
X104939971Y-83252258D01*
X104939966Y-83252253D01*
X104939961Y-83252247D01*
X104747752Y-83060038D01*
X104747746Y-83060033D01*
X104747742Y-83060029D01*
X104530113Y-82897113D01*
X104530108Y-82897110D01*
X104530107Y-82897109D01*
X104291518Y-82766830D01*
X104291519Y-82766830D01*
X104241920Y-82748330D01*
X104036801Y-82671825D01*
X104036794Y-82671823D01*
X104036793Y-82671823D01*
X103771167Y-82614040D01*
X103771160Y-82614039D01*
X103500001Y-82594645D01*
X103499999Y-82594645D01*
X103228839Y-82614039D01*
X103228832Y-82614040D01*
X102963206Y-82671823D01*
X102963202Y-82671824D01*
X102963199Y-82671825D01*
X102835843Y-82719326D01*
X102708480Y-82766830D01*
X102469892Y-82897109D01*
X102469891Y-82897110D01*
X102252259Y-83060028D01*
X102252247Y-83060038D01*
X102060038Y-83252247D01*
X102060028Y-83252259D01*
X101897110Y-83469891D01*
X101897109Y-83469892D01*
X101766830Y-83708480D01*
X101722742Y-83826686D01*
X101671825Y-83963199D01*
X101671824Y-83963202D01*
X101671823Y-83963206D01*
X101614040Y-84228832D01*
X101614039Y-84228839D01*
X101594645Y-84499998D01*
X99000000Y-84499998D01*
X99000000Y-79499998D01*
X101595147Y-79499998D01*
X101595147Y-79500001D01*
X101614536Y-79771090D01*
X101614537Y-79771097D01*
X101672305Y-80036654D01*
X101767285Y-80291306D01*
X101767287Y-80291310D01*
X101897532Y-80529835D01*
X101897537Y-80529843D01*
X101991321Y-80655123D01*
X101991322Y-80655124D01*
X102898958Y-79747488D01*
X102923978Y-79807890D01*
X102995112Y-79914351D01*
X103085649Y-80004888D01*
X103192110Y-80076022D01*
X103252511Y-80101041D01*
X102344874Y-81008676D01*
X102470163Y-81102466D01*
X102470164Y-81102467D01*
X102708689Y-81232712D01*
X102708693Y-81232714D01*
X102963345Y-81327694D01*
X103228902Y-81385462D01*
X103228909Y-81385463D01*
X103499999Y-81404853D01*
X103500001Y-81404853D01*
X103771090Y-81385463D01*
X103771097Y-81385462D01*
X104036654Y-81327694D01*
X104291306Y-81232714D01*
X104291310Y-81232712D01*
X104529844Y-81102462D01*
X104655123Y-81008677D01*
X104655124Y-81008676D01*
X103747488Y-80101041D01*
X103807890Y-80076022D01*
X103914351Y-80004888D01*
X104004888Y-79914351D01*
X104076022Y-79807890D01*
X104101041Y-79747488D01*
X105008676Y-80655124D01*
X105008677Y-80655123D01*
X105102462Y-80529844D01*
X105232712Y-80291310D01*
X105232714Y-80291306D01*
X105327694Y-80036654D01*
X105385462Y-79771097D01*
X105385463Y-79771090D01*
X105404853Y-79500001D01*
X105404853Y-79499998D01*
X105385463Y-79228909D01*
X105385462Y-79228902D01*
X105327694Y-78963345D01*
X105232714Y-78708693D01*
X105232712Y-78708689D01*
X105102467Y-78470164D01*
X105102466Y-78470163D01*
X105008676Y-78344874D01*
X104101041Y-79252510D01*
X104076022Y-79192110D01*
X104004888Y-79085649D01*
X103914351Y-78995112D01*
X103807890Y-78923978D01*
X103747487Y-78898957D01*
X104655124Y-77991322D01*
X104655123Y-77991321D01*
X104529843Y-77897537D01*
X104529835Y-77897532D01*
X104291310Y-77767287D01*
X104291306Y-77767285D01*
X104036654Y-77672305D01*
X103771097Y-77614537D01*
X103771090Y-77614536D01*
X103500001Y-77595147D01*
X103499999Y-77595147D01*
X103228909Y-77614536D01*
X103228902Y-77614537D01*
X102963345Y-77672305D01*
X102708693Y-77767285D01*
X102708689Y-77767287D01*
X102470164Y-77897532D01*
X102470156Y-77897537D01*
X102344875Y-77991321D01*
X102344874Y-77991322D01*
X103252511Y-78898958D01*
X103192110Y-78923978D01*
X103085649Y-78995112D01*
X102995112Y-79085649D01*
X102923978Y-79192110D01*
X102898958Y-79252511D01*
X101991322Y-78344874D01*
X101991321Y-78344875D01*
X101897537Y-78470156D01*
X101897532Y-78470164D01*
X101767287Y-78708689D01*
X101767285Y-78708693D01*
X101672305Y-78963345D01*
X101614537Y-79228902D01*
X101614536Y-79228909D01*
X101595147Y-79499998D01*
X99000000Y-79499998D01*
X99000000Y-74499998D01*
X101594645Y-74499998D01*
X101594645Y-74500001D01*
X101614039Y-74771160D01*
X101614040Y-74771167D01*
X101666858Y-75013967D01*
X101671825Y-75036801D01*
X101748330Y-75241920D01*
X101766830Y-75291519D01*
X101897109Y-75530107D01*
X101897110Y-75530108D01*
X101897113Y-75530113D01*
X102060029Y-75747742D01*
X102060033Y-75747746D01*
X102060038Y-75747752D01*
X102252247Y-75939961D01*
X102252253Y-75939966D01*
X102252258Y-75939971D01*
X102469887Y-76102887D01*
X102469891Y-76102889D01*
X102469892Y-76102890D01*
X102708481Y-76233169D01*
X102708480Y-76233169D01*
X102708484Y-76233170D01*
X102708487Y-76233172D01*
X102963199Y-76328175D01*
X103228840Y-76385961D01*
X103480605Y-76403967D01*
X103499999Y-76405355D01*
X103500000Y-76405355D01*
X103500001Y-76405355D01*
X103518100Y-76404060D01*
X103771160Y-76385961D01*
X104036801Y-76328175D01*
X104291513Y-76233172D01*
X104291517Y-76233169D01*
X104291519Y-76233169D01*
X104513962Y-76111706D01*
X104530113Y-76102887D01*
X104747742Y-75939971D01*
X104939971Y-75747742D01*
X105102887Y-75530113D01*
X105233172Y-75291513D01*
X105328175Y-75036801D01*
X105385961Y-74771160D01*
X105405355Y-74500000D01*
X105385961Y-74228840D01*
X105328175Y-73963199D01*
X105233172Y-73708487D01*
X105233170Y-73708484D01*
X105233169Y-73708480D01*
X105102890Y-73469892D01*
X105102889Y-73469891D01*
X105102887Y-73469887D01*
X104939971Y-73252258D01*
X104939966Y-73252253D01*
X104939961Y-73252247D01*
X104747752Y-73060038D01*
X104747746Y-73060033D01*
X104747742Y-73060029D01*
X104530113Y-72897113D01*
X104530108Y-72897110D01*
X104530107Y-72897109D01*
X104291518Y-72766830D01*
X104291519Y-72766830D01*
X104241920Y-72748330D01*
X104036801Y-72671825D01*
X104036794Y-72671823D01*
X104036793Y-72671823D01*
X103771167Y-72614040D01*
X103771160Y-72614039D01*
X103500001Y-72594645D01*
X103499999Y-72594645D01*
X103228839Y-72614039D01*
X103228832Y-72614040D01*
X102963206Y-72671823D01*
X102963202Y-72671824D01*
X102963199Y-72671825D01*
X102835843Y-72719326D01*
X102708480Y-72766830D01*
X102469892Y-72897109D01*
X102469891Y-72897110D01*
X102252259Y-73060028D01*
X102252247Y-73060038D01*
X102060038Y-73252247D01*
X102060028Y-73252259D01*
X101897110Y-73469891D01*
X101897109Y-73469892D01*
X101766830Y-73708480D01*
X101719326Y-73835843D01*
X101671825Y-73963199D01*
X101671824Y-73963202D01*
X101671823Y-73963206D01*
X101614040Y-74228832D01*
X101614039Y-74228839D01*
X101594645Y-74499998D01*
X99000000Y-74499998D01*
X99000000Y-60624000D01*
X99019685Y-60556961D01*
X99072489Y-60511206D01*
X99124000Y-60500000D01*
X153876000Y-60500000D01*
X153943039Y-60519685D01*
G37*
%TD.AperFunction*%
%TD*%
M02*
