G04 #@! TF.GenerationSoftware,KiCad,Pcbnew,9.0.0*
G04 #@! TF.CreationDate,2025-04-02T21:03:38+01:00*
G04 #@! TF.ProjectId,SNES_CONTROLLER,534e4553-5f43-44f4-9e54-524f4c4c4552,rev?*
G04 #@! TF.SameCoordinates,Original*
G04 #@! TF.FileFunction,Legend,Top*
G04 #@! TF.FilePolarity,Positive*
%FSLAX46Y46*%
G04 Gerber Fmt 4.6, Leading zero omitted, Abs format (unit mm)*
G04 Created by KiCad (PCBNEW 9.0.0) date 2025-04-02 21:03:38*
%MOMM*%
%LPD*%
G01*
G04 APERTURE LIST*
G04 Aperture macros list*
%AMRoundRect*
0 Rectangle with rounded corners*
0 $1 Rounding radius*
0 $2 $3 $4 $5 $6 $7 $8 $9 X,Y pos of 4 corners*
0 Add a 4 corners polygon primitive as box body*
4,1,4,$2,$3,$4,$5,$6,$7,$8,$9,$2,$3,0*
0 Add four circle primitives for the rounded corners*
1,1,$1+$1,$2,$3*
1,1,$1+$1,$4,$5*
1,1,$1+$1,$6,$7*
1,1,$1+$1,$8,$9*
0 Add four rect primitives between the rounded corners*
20,1,$1+$1,$2,$3,$4,$5,0*
20,1,$1+$1,$4,$5,$6,$7,0*
20,1,$1+$1,$6,$7,$8,$9,0*
20,1,$1+$1,$8,$9,$2,$3,0*%
G04 Aperture macros list end*
%ADD10C,0.100000*%
%ADD11C,0.150000*%
%ADD12C,0.120000*%
%ADD13C,4.300000*%
%ADD14C,1.600000*%
%ADD15O,1.600000X1.600000*%
%ADD16RoundRect,0.250001X1.149999X-1.149999X1.149999X1.149999X-1.149999X1.149999X-1.149999X-1.149999X0*%
%ADD17C,2.800000*%
%ADD18R,1.600000X1.600000*%
%ADD19RoundRect,0.250001X-1.149999X-1.149999X1.149999X-1.149999X1.149999X1.149999X-1.149999X1.149999X0*%
G04 APERTURE END LIST*
D10*
X141684836Y-87750038D02*
X141018169Y-86797657D01*
X140541979Y-87750038D02*
X140541979Y-85750038D01*
X140541979Y-85750038D02*
X141303884Y-85750038D01*
X141303884Y-85750038D02*
X141494360Y-85845276D01*
X141494360Y-85845276D02*
X141589598Y-85940514D01*
X141589598Y-85940514D02*
X141684836Y-86130990D01*
X141684836Y-86130990D02*
X141684836Y-86416704D01*
X141684836Y-86416704D02*
X141589598Y-86607180D01*
X141589598Y-86607180D02*
X141494360Y-86702419D01*
X141494360Y-86702419D02*
X141303884Y-86797657D01*
X141303884Y-86797657D02*
X140541979Y-86797657D01*
X142541979Y-87750038D02*
X142541979Y-85750038D01*
X144541979Y-85845276D02*
X144351503Y-85750038D01*
X144351503Y-85750038D02*
X144065789Y-85750038D01*
X144065789Y-85750038D02*
X143780074Y-85845276D01*
X143780074Y-85845276D02*
X143589598Y-86035752D01*
X143589598Y-86035752D02*
X143494360Y-86226228D01*
X143494360Y-86226228D02*
X143399122Y-86607180D01*
X143399122Y-86607180D02*
X143399122Y-86892895D01*
X143399122Y-86892895D02*
X143494360Y-87273847D01*
X143494360Y-87273847D02*
X143589598Y-87464323D01*
X143589598Y-87464323D02*
X143780074Y-87654800D01*
X143780074Y-87654800D02*
X144065789Y-87750038D01*
X144065789Y-87750038D02*
X144256265Y-87750038D01*
X144256265Y-87750038D02*
X144541979Y-87654800D01*
X144541979Y-87654800D02*
X144637217Y-87559561D01*
X144637217Y-87559561D02*
X144637217Y-86892895D01*
X144637217Y-86892895D02*
X144256265Y-86892895D01*
X145494360Y-87750038D02*
X145494360Y-85750038D01*
X145494360Y-86702419D02*
X146637217Y-86702419D01*
X146637217Y-87750038D02*
X146637217Y-85750038D01*
X147303884Y-85750038D02*
X148446741Y-85750038D01*
X147875312Y-87750038D02*
X147875312Y-85750038D01*
X130875312Y-70872419D02*
X130541979Y-70396228D01*
X130303884Y-70872419D02*
X130303884Y-69872419D01*
X130303884Y-69872419D02*
X130684836Y-69872419D01*
X130684836Y-69872419D02*
X130780074Y-69920038D01*
X130780074Y-69920038D02*
X130827693Y-69967657D01*
X130827693Y-69967657D02*
X130875312Y-70062895D01*
X130875312Y-70062895D02*
X130875312Y-70205752D01*
X130875312Y-70205752D02*
X130827693Y-70300990D01*
X130827693Y-70300990D02*
X130780074Y-70348609D01*
X130780074Y-70348609D02*
X130684836Y-70396228D01*
X130684836Y-70396228D02*
X130303884Y-70396228D01*
X131303884Y-70348609D02*
X131637217Y-70348609D01*
X131780074Y-70872419D02*
X131303884Y-70872419D01*
X131303884Y-70872419D02*
X131303884Y-69872419D01*
X131303884Y-69872419D02*
X131780074Y-69872419D01*
X132208646Y-70872419D02*
X132208646Y-69872419D01*
X132208646Y-69872419D02*
X132446741Y-69872419D01*
X132446741Y-69872419D02*
X132589598Y-69920038D01*
X132589598Y-69920038D02*
X132684836Y-70015276D01*
X132684836Y-70015276D02*
X132732455Y-70110514D01*
X132732455Y-70110514D02*
X132780074Y-70300990D01*
X132780074Y-70300990D02*
X132780074Y-70443847D01*
X132780074Y-70443847D02*
X132732455Y-70634323D01*
X132732455Y-70634323D02*
X132684836Y-70729561D01*
X132684836Y-70729561D02*
X132589598Y-70824800D01*
X132589598Y-70824800D02*
X132446741Y-70872419D01*
X132446741Y-70872419D02*
X132208646Y-70872419D01*
X109541979Y-115250038D02*
X109541979Y-116869085D01*
X109541979Y-116869085D02*
X109637217Y-117059561D01*
X109637217Y-117059561D02*
X109732455Y-117154800D01*
X109732455Y-117154800D02*
X109922931Y-117250038D01*
X109922931Y-117250038D02*
X110303884Y-117250038D01*
X110303884Y-117250038D02*
X110494360Y-117154800D01*
X110494360Y-117154800D02*
X110589598Y-117059561D01*
X110589598Y-117059561D02*
X110684836Y-116869085D01*
X110684836Y-116869085D02*
X110684836Y-115250038D01*
X111637217Y-117250038D02*
X111637217Y-115250038D01*
X111637217Y-115250038D02*
X112399122Y-115250038D01*
X112399122Y-115250038D02*
X112589598Y-115345276D01*
X112589598Y-115345276D02*
X112684836Y-115440514D01*
X112684836Y-115440514D02*
X112780074Y-115630990D01*
X112780074Y-115630990D02*
X112780074Y-115916704D01*
X112780074Y-115916704D02*
X112684836Y-116107180D01*
X112684836Y-116107180D02*
X112589598Y-116202419D01*
X112589598Y-116202419D02*
X112399122Y-116297657D01*
X112399122Y-116297657D02*
X111637217Y-116297657D01*
X105841979Y-127370038D02*
X105841979Y-125370038D01*
X105841979Y-125370038D02*
X106318169Y-125370038D01*
X106318169Y-125370038D02*
X106603884Y-125465276D01*
X106603884Y-125465276D02*
X106794360Y-125655752D01*
X106794360Y-125655752D02*
X106889598Y-125846228D01*
X106889598Y-125846228D02*
X106984836Y-126227180D01*
X106984836Y-126227180D02*
X106984836Y-126512895D01*
X106984836Y-126512895D02*
X106889598Y-126893847D01*
X106889598Y-126893847D02*
X106794360Y-127084323D01*
X106794360Y-127084323D02*
X106603884Y-127274800D01*
X106603884Y-127274800D02*
X106318169Y-127370038D01*
X106318169Y-127370038D02*
X105841979Y-127370038D01*
X108222931Y-125370038D02*
X108603884Y-125370038D01*
X108603884Y-125370038D02*
X108794360Y-125465276D01*
X108794360Y-125465276D02*
X108984836Y-125655752D01*
X108984836Y-125655752D02*
X109080074Y-126036704D01*
X109080074Y-126036704D02*
X109080074Y-126703371D01*
X109080074Y-126703371D02*
X108984836Y-127084323D01*
X108984836Y-127084323D02*
X108794360Y-127274800D01*
X108794360Y-127274800D02*
X108603884Y-127370038D01*
X108603884Y-127370038D02*
X108222931Y-127370038D01*
X108222931Y-127370038D02*
X108032455Y-127274800D01*
X108032455Y-127274800D02*
X107841979Y-127084323D01*
X107841979Y-127084323D02*
X107746741Y-126703371D01*
X107746741Y-126703371D02*
X107746741Y-126036704D01*
X107746741Y-126036704D02*
X107841979Y-125655752D01*
X107841979Y-125655752D02*
X108032455Y-125465276D01*
X108032455Y-125465276D02*
X108222931Y-125370038D01*
X109746741Y-125370038D02*
X110222931Y-127370038D01*
X110222931Y-127370038D02*
X110603884Y-125941466D01*
X110603884Y-125941466D02*
X110984836Y-127370038D01*
X110984836Y-127370038D02*
X111461027Y-125370038D01*
X112222931Y-127370038D02*
X112222931Y-125370038D01*
X112222931Y-125370038D02*
X113365788Y-127370038D01*
X113365788Y-127370038D02*
X113365788Y-125370038D01*
X111922931Y-106797657D02*
X111922931Y-107750038D01*
X111256265Y-105750038D02*
X111922931Y-106797657D01*
X111922931Y-106797657D02*
X112589598Y-105750038D01*
X125780074Y-61872419D02*
X125303884Y-61872419D01*
X125303884Y-61872419D02*
X125303884Y-60872419D01*
X126065789Y-61586704D02*
X126541979Y-61586704D01*
X125970551Y-61872419D02*
X126303884Y-60872419D01*
X126303884Y-60872419D02*
X126637217Y-61872419D01*
X126827694Y-60872419D02*
X127399122Y-60872419D01*
X127113408Y-61872419D02*
X127113408Y-60872419D01*
X103946741Y-97154800D02*
X104232455Y-97250038D01*
X104232455Y-97250038D02*
X104708646Y-97250038D01*
X104708646Y-97250038D02*
X104899122Y-97154800D01*
X104899122Y-97154800D02*
X104994360Y-97059561D01*
X104994360Y-97059561D02*
X105089598Y-96869085D01*
X105089598Y-96869085D02*
X105089598Y-96678609D01*
X105089598Y-96678609D02*
X104994360Y-96488133D01*
X104994360Y-96488133D02*
X104899122Y-96392895D01*
X104899122Y-96392895D02*
X104708646Y-96297657D01*
X104708646Y-96297657D02*
X104327693Y-96202419D01*
X104327693Y-96202419D02*
X104137217Y-96107180D01*
X104137217Y-96107180D02*
X104041979Y-96011942D01*
X104041979Y-96011942D02*
X103946741Y-95821466D01*
X103946741Y-95821466D02*
X103946741Y-95630990D01*
X103946741Y-95630990D02*
X104041979Y-95440514D01*
X104041979Y-95440514D02*
X104137217Y-95345276D01*
X104137217Y-95345276D02*
X104327693Y-95250038D01*
X104327693Y-95250038D02*
X104803884Y-95250038D01*
X104803884Y-95250038D02*
X105089598Y-95345276D01*
X105946741Y-96202419D02*
X106613408Y-96202419D01*
X106899122Y-97250038D02*
X105946741Y-97250038D01*
X105946741Y-97250038D02*
X105946741Y-95250038D01*
X105946741Y-95250038D02*
X106899122Y-95250038D01*
X108708646Y-97250038D02*
X107756265Y-97250038D01*
X107756265Y-97250038D02*
X107756265Y-95250038D01*
X109375313Y-96202419D02*
X110041980Y-96202419D01*
X110327694Y-97250038D02*
X109375313Y-97250038D01*
X109375313Y-97250038D02*
X109375313Y-95250038D01*
X109375313Y-95250038D02*
X110327694Y-95250038D01*
X112327694Y-97059561D02*
X112232456Y-97154800D01*
X112232456Y-97154800D02*
X111946742Y-97250038D01*
X111946742Y-97250038D02*
X111756266Y-97250038D01*
X111756266Y-97250038D02*
X111470551Y-97154800D01*
X111470551Y-97154800D02*
X111280075Y-96964323D01*
X111280075Y-96964323D02*
X111184837Y-96773847D01*
X111184837Y-96773847D02*
X111089599Y-96392895D01*
X111089599Y-96392895D02*
X111089599Y-96107180D01*
X111089599Y-96107180D02*
X111184837Y-95726228D01*
X111184837Y-95726228D02*
X111280075Y-95535752D01*
X111280075Y-95535752D02*
X111470551Y-95345276D01*
X111470551Y-95345276D02*
X111756266Y-95250038D01*
X111756266Y-95250038D02*
X111946742Y-95250038D01*
X111946742Y-95250038D02*
X112232456Y-95345276D01*
X112232456Y-95345276D02*
X112327694Y-95440514D01*
X112899123Y-95250038D02*
X114041980Y-95250038D01*
X113470551Y-97250038D02*
X113470551Y-95250038D01*
X120137217Y-70348609D02*
X120280074Y-70396228D01*
X120280074Y-70396228D02*
X120327693Y-70443847D01*
X120327693Y-70443847D02*
X120375312Y-70539085D01*
X120375312Y-70539085D02*
X120375312Y-70681942D01*
X120375312Y-70681942D02*
X120327693Y-70777180D01*
X120327693Y-70777180D02*
X120280074Y-70824800D01*
X120280074Y-70824800D02*
X120184836Y-70872419D01*
X120184836Y-70872419D02*
X119803884Y-70872419D01*
X119803884Y-70872419D02*
X119803884Y-69872419D01*
X119803884Y-69872419D02*
X120137217Y-69872419D01*
X120137217Y-69872419D02*
X120232455Y-69920038D01*
X120232455Y-69920038D02*
X120280074Y-69967657D01*
X120280074Y-69967657D02*
X120327693Y-70062895D01*
X120327693Y-70062895D02*
X120327693Y-70158133D01*
X120327693Y-70158133D02*
X120280074Y-70253371D01*
X120280074Y-70253371D02*
X120232455Y-70300990D01*
X120232455Y-70300990D02*
X120137217Y-70348609D01*
X120137217Y-70348609D02*
X119803884Y-70348609D01*
X121280074Y-70872419D02*
X120803884Y-70872419D01*
X120803884Y-70872419D02*
X120803884Y-69872419D01*
X121613408Y-69872419D02*
X121613408Y-70681942D01*
X121613408Y-70681942D02*
X121661027Y-70777180D01*
X121661027Y-70777180D02*
X121708646Y-70824800D01*
X121708646Y-70824800D02*
X121803884Y-70872419D01*
X121803884Y-70872419D02*
X121994360Y-70872419D01*
X121994360Y-70872419D02*
X122089598Y-70824800D01*
X122089598Y-70824800D02*
X122137217Y-70777180D01*
X122137217Y-70777180D02*
X122184836Y-70681942D01*
X122184836Y-70681942D02*
X122184836Y-69872419D01*
X130303884Y-61872419D02*
X130303884Y-60872419D01*
X130303884Y-60872419D02*
X130541979Y-60872419D01*
X130541979Y-60872419D02*
X130684836Y-60920038D01*
X130684836Y-60920038D02*
X130780074Y-61015276D01*
X130780074Y-61015276D02*
X130827693Y-61110514D01*
X130827693Y-61110514D02*
X130875312Y-61300990D01*
X130875312Y-61300990D02*
X130875312Y-61443847D01*
X130875312Y-61443847D02*
X130827693Y-61634323D01*
X130827693Y-61634323D02*
X130780074Y-61729561D01*
X130780074Y-61729561D02*
X130684836Y-61824800D01*
X130684836Y-61824800D02*
X130541979Y-61872419D01*
X130541979Y-61872419D02*
X130303884Y-61872419D01*
X131256265Y-61586704D02*
X131732455Y-61586704D01*
X131161027Y-61872419D02*
X131494360Y-60872419D01*
X131494360Y-60872419D02*
X131827693Y-61872419D01*
X132018170Y-60872419D02*
X132589598Y-60872419D01*
X132303884Y-61872419D02*
X132303884Y-60872419D01*
X141494360Y-77750038D02*
X140541979Y-77750038D01*
X140541979Y-77750038D02*
X140541979Y-75750038D01*
X142161027Y-76702419D02*
X142827694Y-76702419D01*
X143113408Y-77750038D02*
X142161027Y-77750038D01*
X142161027Y-77750038D02*
X142161027Y-75750038D01*
X142161027Y-75750038D02*
X143113408Y-75750038D01*
X144637218Y-76702419D02*
X143970551Y-76702419D01*
X143970551Y-77750038D02*
X143970551Y-75750038D01*
X143970551Y-75750038D02*
X144922932Y-75750038D01*
X145399123Y-75750038D02*
X146541980Y-75750038D01*
X145970551Y-77750038D02*
X145970551Y-75750038D01*
X114748646Y-69872419D02*
X114986741Y-70872419D01*
X114986741Y-70872419D02*
X115177217Y-70158133D01*
X115177217Y-70158133D02*
X115367693Y-70872419D01*
X115367693Y-70872419D02*
X115605789Y-69872419D01*
X115986741Y-70872419D02*
X115986741Y-69872419D01*
X115986741Y-70348609D02*
X116558169Y-70348609D01*
X116558169Y-70872419D02*
X116558169Y-69872419D01*
X116891503Y-69872419D02*
X117462931Y-69872419D01*
X117177217Y-70872419D02*
X117177217Y-69872419D01*
X140351503Y-116250038D02*
X141684836Y-118250038D01*
X141684836Y-116250038D02*
X140351503Y-118250038D01*
X105746741Y-87654800D02*
X106032455Y-87750038D01*
X106032455Y-87750038D02*
X106508646Y-87750038D01*
X106508646Y-87750038D02*
X106699122Y-87654800D01*
X106699122Y-87654800D02*
X106794360Y-87559561D01*
X106794360Y-87559561D02*
X106889598Y-87369085D01*
X106889598Y-87369085D02*
X106889598Y-87178609D01*
X106889598Y-87178609D02*
X106794360Y-86988133D01*
X106794360Y-86988133D02*
X106699122Y-86892895D01*
X106699122Y-86892895D02*
X106508646Y-86797657D01*
X106508646Y-86797657D02*
X106127693Y-86702419D01*
X106127693Y-86702419D02*
X105937217Y-86607180D01*
X105937217Y-86607180D02*
X105841979Y-86511942D01*
X105841979Y-86511942D02*
X105746741Y-86321466D01*
X105746741Y-86321466D02*
X105746741Y-86130990D01*
X105746741Y-86130990D02*
X105841979Y-85940514D01*
X105841979Y-85940514D02*
X105937217Y-85845276D01*
X105937217Y-85845276D02*
X106127693Y-85750038D01*
X106127693Y-85750038D02*
X106603884Y-85750038D01*
X106603884Y-85750038D02*
X106889598Y-85845276D01*
X107461027Y-85750038D02*
X108603884Y-85750038D01*
X108032455Y-87750038D02*
X108032455Y-85750038D01*
X109175313Y-87178609D02*
X110127694Y-87178609D01*
X108984837Y-87750038D02*
X109651503Y-85750038D01*
X109651503Y-85750038D02*
X110318170Y-87750038D01*
X112127694Y-87750038D02*
X111461027Y-86797657D01*
X110984837Y-87750038D02*
X110984837Y-85750038D01*
X110984837Y-85750038D02*
X111746742Y-85750038D01*
X111746742Y-85750038D02*
X111937218Y-85845276D01*
X111937218Y-85845276D02*
X112032456Y-85940514D01*
X112032456Y-85940514D02*
X112127694Y-86130990D01*
X112127694Y-86130990D02*
X112127694Y-86416704D01*
X112127694Y-86416704D02*
X112032456Y-86607180D01*
X112032456Y-86607180D02*
X111937218Y-86702419D01*
X111937218Y-86702419D02*
X111746742Y-86797657D01*
X111746742Y-86797657D02*
X110984837Y-86797657D01*
X112699123Y-85750038D02*
X113841980Y-85750038D01*
X113270551Y-87750038D02*
X113270551Y-85750038D01*
X140446741Y-127178609D02*
X141399122Y-127178609D01*
X140256265Y-127750038D02*
X140922931Y-125750038D01*
X140922931Y-125750038D02*
X141589598Y-127750038D01*
X125494360Y-70396228D02*
X125494360Y-70872419D01*
X125161027Y-69872419D02*
X125494360Y-70396228D01*
X125494360Y-70396228D02*
X125827693Y-69872419D01*
X126161027Y-70348609D02*
X126494360Y-70348609D01*
X126637217Y-70872419D02*
X126161027Y-70872419D01*
X126161027Y-70872419D02*
X126161027Y-69872419D01*
X126161027Y-69872419D02*
X126637217Y-69872419D01*
X127541979Y-70872419D02*
X127065789Y-70872419D01*
X127065789Y-70872419D02*
X127065789Y-69872419D01*
X135327693Y-60920038D02*
X135232455Y-60872419D01*
X135232455Y-60872419D02*
X135089598Y-60872419D01*
X135089598Y-60872419D02*
X134946741Y-60920038D01*
X134946741Y-60920038D02*
X134851503Y-61015276D01*
X134851503Y-61015276D02*
X134803884Y-61110514D01*
X134803884Y-61110514D02*
X134756265Y-61300990D01*
X134756265Y-61300990D02*
X134756265Y-61443847D01*
X134756265Y-61443847D02*
X134803884Y-61634323D01*
X134803884Y-61634323D02*
X134851503Y-61729561D01*
X134851503Y-61729561D02*
X134946741Y-61824800D01*
X134946741Y-61824800D02*
X135089598Y-61872419D01*
X135089598Y-61872419D02*
X135184836Y-61872419D01*
X135184836Y-61872419D02*
X135327693Y-61824800D01*
X135327693Y-61824800D02*
X135375312Y-61777180D01*
X135375312Y-61777180D02*
X135375312Y-61443847D01*
X135375312Y-61443847D02*
X135184836Y-61443847D01*
X135803884Y-61872419D02*
X135803884Y-60872419D01*
X135803884Y-60872419D02*
X136375312Y-61872419D01*
X136375312Y-61872419D02*
X136375312Y-60872419D01*
X136851503Y-61872419D02*
X136851503Y-60872419D01*
X136851503Y-60872419D02*
X137089598Y-60872419D01*
X137089598Y-60872419D02*
X137232455Y-60920038D01*
X137232455Y-60920038D02*
X137327693Y-61015276D01*
X137327693Y-61015276D02*
X137375312Y-61110514D01*
X137375312Y-61110514D02*
X137422931Y-61300990D01*
X137422931Y-61300990D02*
X137422931Y-61443847D01*
X137422931Y-61443847D02*
X137375312Y-61634323D01*
X137375312Y-61634323D02*
X137327693Y-61729561D01*
X137327693Y-61729561D02*
X137232455Y-61824800D01*
X137232455Y-61824800D02*
X137089598Y-61872419D01*
X137089598Y-61872419D02*
X136851503Y-61872419D01*
X114661027Y-60872419D02*
X114994360Y-61872419D01*
X114994360Y-61872419D02*
X115327693Y-60872419D01*
X116232455Y-61777180D02*
X116184836Y-61824800D01*
X116184836Y-61824800D02*
X116041979Y-61872419D01*
X116041979Y-61872419D02*
X115946741Y-61872419D01*
X115946741Y-61872419D02*
X115803884Y-61824800D01*
X115803884Y-61824800D02*
X115708646Y-61729561D01*
X115708646Y-61729561D02*
X115661027Y-61634323D01*
X115661027Y-61634323D02*
X115613408Y-61443847D01*
X115613408Y-61443847D02*
X115613408Y-61300990D01*
X115613408Y-61300990D02*
X115661027Y-61110514D01*
X115661027Y-61110514D02*
X115708646Y-61015276D01*
X115708646Y-61015276D02*
X115803884Y-60920038D01*
X115803884Y-60920038D02*
X115946741Y-60872419D01*
X115946741Y-60872419D02*
X116041979Y-60872419D01*
X116041979Y-60872419D02*
X116184836Y-60920038D01*
X116184836Y-60920038D02*
X116232455Y-60967657D01*
X117232455Y-61777180D02*
X117184836Y-61824800D01*
X117184836Y-61824800D02*
X117041979Y-61872419D01*
X117041979Y-61872419D02*
X116946741Y-61872419D01*
X116946741Y-61872419D02*
X116803884Y-61824800D01*
X116803884Y-61824800D02*
X116708646Y-61729561D01*
X116708646Y-61729561D02*
X116661027Y-61634323D01*
X116661027Y-61634323D02*
X116613408Y-61443847D01*
X116613408Y-61443847D02*
X116613408Y-61300990D01*
X116613408Y-61300990D02*
X116661027Y-61110514D01*
X116661027Y-61110514D02*
X116708646Y-61015276D01*
X116708646Y-61015276D02*
X116803884Y-60920038D01*
X116803884Y-60920038D02*
X116946741Y-60872419D01*
X116946741Y-60872419D02*
X117041979Y-60872419D01*
X117041979Y-60872419D02*
X117184836Y-60920038D01*
X117184836Y-60920038D02*
X117232455Y-60967657D01*
X113256265Y-133824800D02*
X113399122Y-133872419D01*
X113399122Y-133872419D02*
X113637217Y-133872419D01*
X113637217Y-133872419D02*
X113732455Y-133824800D01*
X113732455Y-133824800D02*
X113780074Y-133777180D01*
X113780074Y-133777180D02*
X113827693Y-133681942D01*
X113827693Y-133681942D02*
X113827693Y-133586704D01*
X113827693Y-133586704D02*
X113780074Y-133491466D01*
X113780074Y-133491466D02*
X113732455Y-133443847D01*
X113732455Y-133443847D02*
X113637217Y-133396228D01*
X113637217Y-133396228D02*
X113446741Y-133348609D01*
X113446741Y-133348609D02*
X113351503Y-133300990D01*
X113351503Y-133300990D02*
X113303884Y-133253371D01*
X113303884Y-133253371D02*
X113256265Y-133158133D01*
X113256265Y-133158133D02*
X113256265Y-133062895D01*
X113256265Y-133062895D02*
X113303884Y-132967657D01*
X113303884Y-132967657D02*
X113351503Y-132920038D01*
X113351503Y-132920038D02*
X113446741Y-132872419D01*
X113446741Y-132872419D02*
X113684836Y-132872419D01*
X113684836Y-132872419D02*
X113827693Y-132920038D01*
X114256265Y-133872419D02*
X114256265Y-132872419D01*
X114256265Y-132872419D02*
X114827693Y-133872419D01*
X114827693Y-133872419D02*
X114827693Y-132872419D01*
X115303884Y-133348609D02*
X115637217Y-133348609D01*
X115780074Y-133872419D02*
X115303884Y-133872419D01*
X115303884Y-133872419D02*
X115303884Y-132872419D01*
X115303884Y-132872419D02*
X115780074Y-132872419D01*
X116161027Y-133824800D02*
X116303884Y-133872419D01*
X116303884Y-133872419D02*
X116541979Y-133872419D01*
X116541979Y-133872419D02*
X116637217Y-133824800D01*
X116637217Y-133824800D02*
X116684836Y-133777180D01*
X116684836Y-133777180D02*
X116732455Y-133681942D01*
X116732455Y-133681942D02*
X116732455Y-133586704D01*
X116732455Y-133586704D02*
X116684836Y-133491466D01*
X116684836Y-133491466D02*
X116637217Y-133443847D01*
X116637217Y-133443847D02*
X116541979Y-133396228D01*
X116541979Y-133396228D02*
X116351503Y-133348609D01*
X116351503Y-133348609D02*
X116256265Y-133300990D01*
X116256265Y-133300990D02*
X116208646Y-133253371D01*
X116208646Y-133253371D02*
X116161027Y-133158133D01*
X116161027Y-133158133D02*
X116161027Y-133062895D01*
X116161027Y-133062895D02*
X116208646Y-132967657D01*
X116208646Y-132967657D02*
X116256265Y-132920038D01*
X116256265Y-132920038D02*
X116351503Y-132872419D01*
X116351503Y-132872419D02*
X116589598Y-132872419D01*
X116589598Y-132872419D02*
X116732455Y-132920038D01*
X118732456Y-133872419D02*
X118684837Y-133872419D01*
X118684837Y-133872419D02*
X118589598Y-133824800D01*
X118589598Y-133824800D02*
X118446741Y-133681942D01*
X118446741Y-133681942D02*
X118208646Y-133396228D01*
X118208646Y-133396228D02*
X118113408Y-133253371D01*
X118113408Y-133253371D02*
X118065789Y-133110514D01*
X118065789Y-133110514D02*
X118065789Y-133015276D01*
X118065789Y-133015276D02*
X118113408Y-132920038D01*
X118113408Y-132920038D02*
X118208646Y-132872419D01*
X118208646Y-132872419D02*
X118256265Y-132872419D01*
X118256265Y-132872419D02*
X118351503Y-132920038D01*
X118351503Y-132920038D02*
X118399122Y-133015276D01*
X118399122Y-133015276D02*
X118399122Y-133062895D01*
X118399122Y-133062895D02*
X118351503Y-133158133D01*
X118351503Y-133158133D02*
X118303884Y-133205752D01*
X118303884Y-133205752D02*
X118018170Y-133396228D01*
X118018170Y-133396228D02*
X117970551Y-133443847D01*
X117970551Y-133443847D02*
X117922932Y-133539085D01*
X117922932Y-133539085D02*
X117922932Y-133681942D01*
X117922932Y-133681942D02*
X117970551Y-133777180D01*
X117970551Y-133777180D02*
X118018170Y-133824800D01*
X118018170Y-133824800D02*
X118113408Y-133872419D01*
X118113408Y-133872419D02*
X118256265Y-133872419D01*
X118256265Y-133872419D02*
X118351503Y-133824800D01*
X118351503Y-133824800D02*
X118399122Y-133777180D01*
X118399122Y-133777180D02*
X118541979Y-133586704D01*
X118541979Y-133586704D02*
X118589598Y-133443847D01*
X118589598Y-133443847D02*
X118589598Y-133348609D01*
X119922932Y-132872419D02*
X119922932Y-133681942D01*
X119922932Y-133681942D02*
X119970551Y-133777180D01*
X119970551Y-133777180D02*
X120018170Y-133824800D01*
X120018170Y-133824800D02*
X120113408Y-133872419D01*
X120113408Y-133872419D02*
X120303884Y-133872419D01*
X120303884Y-133872419D02*
X120399122Y-133824800D01*
X120399122Y-133824800D02*
X120446741Y-133777180D01*
X120446741Y-133777180D02*
X120494360Y-133681942D01*
X120494360Y-133681942D02*
X120494360Y-132872419D01*
X120875313Y-133205752D02*
X121399122Y-133205752D01*
X121399122Y-133205752D02*
X120875313Y-133872419D01*
X120875313Y-133872419D02*
X121399122Y-133872419D01*
X122161027Y-133824800D02*
X122065789Y-133872419D01*
X122065789Y-133872419D02*
X121875313Y-133872419D01*
X121875313Y-133872419D02*
X121780075Y-133824800D01*
X121780075Y-133824800D02*
X121732456Y-133729561D01*
X121732456Y-133729561D02*
X121732456Y-133348609D01*
X121732456Y-133348609D02*
X121780075Y-133253371D01*
X121780075Y-133253371D02*
X121875313Y-133205752D01*
X121875313Y-133205752D02*
X122065789Y-133205752D01*
X122065789Y-133205752D02*
X122161027Y-133253371D01*
X122161027Y-133253371D02*
X122208646Y-133348609D01*
X122208646Y-133348609D02*
X122208646Y-133443847D01*
X122208646Y-133443847D02*
X121732456Y-133539085D01*
X122637218Y-133872419D02*
X122637218Y-132872419D01*
X122637218Y-133253371D02*
X122732456Y-133205752D01*
X122732456Y-133205752D02*
X122922932Y-133205752D01*
X122922932Y-133205752D02*
X123018170Y-133253371D01*
X123018170Y-133253371D02*
X123065789Y-133300990D01*
X123065789Y-133300990D02*
X123113408Y-133396228D01*
X123113408Y-133396228D02*
X123113408Y-133681942D01*
X123113408Y-133681942D02*
X123065789Y-133777180D01*
X123065789Y-133777180D02*
X123018170Y-133824800D01*
X123018170Y-133824800D02*
X122922932Y-133872419D01*
X122922932Y-133872419D02*
X122732456Y-133872419D01*
X122732456Y-133872419D02*
X122637218Y-133824800D01*
X123684837Y-133872419D02*
X123589599Y-133824800D01*
X123589599Y-133824800D02*
X123541980Y-133777180D01*
X123541980Y-133777180D02*
X123494361Y-133681942D01*
X123494361Y-133681942D02*
X123494361Y-133396228D01*
X123494361Y-133396228D02*
X123541980Y-133300990D01*
X123541980Y-133300990D02*
X123589599Y-133253371D01*
X123589599Y-133253371D02*
X123684837Y-133205752D01*
X123684837Y-133205752D02*
X123827694Y-133205752D01*
X123827694Y-133205752D02*
X123922932Y-133253371D01*
X123922932Y-133253371D02*
X123970551Y-133300990D01*
X123970551Y-133300990D02*
X124018170Y-133396228D01*
X124018170Y-133396228D02*
X124018170Y-133681942D01*
X124018170Y-133681942D02*
X123970551Y-133777180D01*
X123970551Y-133777180D02*
X123922932Y-133824800D01*
X123922932Y-133824800D02*
X123827694Y-133872419D01*
X123827694Y-133872419D02*
X123684837Y-133872419D01*
X124351504Y-133872419D02*
X124875313Y-133205752D01*
X124351504Y-133205752D02*
X124875313Y-133872419D01*
X126446742Y-133824800D02*
X126351504Y-133872419D01*
X126351504Y-133872419D02*
X126161028Y-133872419D01*
X126161028Y-133872419D02*
X126065790Y-133824800D01*
X126065790Y-133824800D02*
X126018171Y-133777180D01*
X126018171Y-133777180D02*
X125970552Y-133681942D01*
X125970552Y-133681942D02*
X125970552Y-133396228D01*
X125970552Y-133396228D02*
X126018171Y-133300990D01*
X126018171Y-133300990D02*
X126065790Y-133253371D01*
X126065790Y-133253371D02*
X126161028Y-133205752D01*
X126161028Y-133205752D02*
X126351504Y-133205752D01*
X126351504Y-133205752D02*
X126446742Y-133253371D01*
X127018171Y-133872419D02*
X126922933Y-133824800D01*
X126922933Y-133824800D02*
X126875314Y-133777180D01*
X126875314Y-133777180D02*
X126827695Y-133681942D01*
X126827695Y-133681942D02*
X126827695Y-133396228D01*
X126827695Y-133396228D02*
X126875314Y-133300990D01*
X126875314Y-133300990D02*
X126922933Y-133253371D01*
X126922933Y-133253371D02*
X127018171Y-133205752D01*
X127018171Y-133205752D02*
X127161028Y-133205752D01*
X127161028Y-133205752D02*
X127256266Y-133253371D01*
X127256266Y-133253371D02*
X127303885Y-133300990D01*
X127303885Y-133300990D02*
X127351504Y-133396228D01*
X127351504Y-133396228D02*
X127351504Y-133681942D01*
X127351504Y-133681942D02*
X127303885Y-133777180D01*
X127303885Y-133777180D02*
X127256266Y-133824800D01*
X127256266Y-133824800D02*
X127161028Y-133872419D01*
X127161028Y-133872419D02*
X127018171Y-133872419D01*
X127780076Y-133205752D02*
X127780076Y-133872419D01*
X127780076Y-133300990D02*
X127827695Y-133253371D01*
X127827695Y-133253371D02*
X127922933Y-133205752D01*
X127922933Y-133205752D02*
X128065790Y-133205752D01*
X128065790Y-133205752D02*
X128161028Y-133253371D01*
X128161028Y-133253371D02*
X128208647Y-133348609D01*
X128208647Y-133348609D02*
X128208647Y-133872419D01*
X128541981Y-133205752D02*
X128922933Y-133205752D01*
X128684838Y-132872419D02*
X128684838Y-133729561D01*
X128684838Y-133729561D02*
X128732457Y-133824800D01*
X128732457Y-133824800D02*
X128827695Y-133872419D01*
X128827695Y-133872419D02*
X128922933Y-133872419D01*
X129256267Y-133872419D02*
X129256267Y-133205752D01*
X129256267Y-133396228D02*
X129303886Y-133300990D01*
X129303886Y-133300990D02*
X129351505Y-133253371D01*
X129351505Y-133253371D02*
X129446743Y-133205752D01*
X129446743Y-133205752D02*
X129541981Y-133205752D01*
X130018172Y-133872419D02*
X129922934Y-133824800D01*
X129922934Y-133824800D02*
X129875315Y-133777180D01*
X129875315Y-133777180D02*
X129827696Y-133681942D01*
X129827696Y-133681942D02*
X129827696Y-133396228D01*
X129827696Y-133396228D02*
X129875315Y-133300990D01*
X129875315Y-133300990D02*
X129922934Y-133253371D01*
X129922934Y-133253371D02*
X130018172Y-133205752D01*
X130018172Y-133205752D02*
X130161029Y-133205752D01*
X130161029Y-133205752D02*
X130256267Y-133253371D01*
X130256267Y-133253371D02*
X130303886Y-133300990D01*
X130303886Y-133300990D02*
X130351505Y-133396228D01*
X130351505Y-133396228D02*
X130351505Y-133681942D01*
X130351505Y-133681942D02*
X130303886Y-133777180D01*
X130303886Y-133777180D02*
X130256267Y-133824800D01*
X130256267Y-133824800D02*
X130161029Y-133872419D01*
X130161029Y-133872419D02*
X130018172Y-133872419D01*
X130922934Y-133872419D02*
X130827696Y-133824800D01*
X130827696Y-133824800D02*
X130780077Y-133729561D01*
X130780077Y-133729561D02*
X130780077Y-132872419D01*
X131446744Y-133872419D02*
X131351506Y-133824800D01*
X131351506Y-133824800D02*
X131303887Y-133729561D01*
X131303887Y-133729561D02*
X131303887Y-132872419D01*
X132208649Y-133824800D02*
X132113411Y-133872419D01*
X132113411Y-133872419D02*
X131922935Y-133872419D01*
X131922935Y-133872419D02*
X131827697Y-133824800D01*
X131827697Y-133824800D02*
X131780078Y-133729561D01*
X131780078Y-133729561D02*
X131780078Y-133348609D01*
X131780078Y-133348609D02*
X131827697Y-133253371D01*
X131827697Y-133253371D02*
X131922935Y-133205752D01*
X131922935Y-133205752D02*
X132113411Y-133205752D01*
X132113411Y-133205752D02*
X132208649Y-133253371D01*
X132208649Y-133253371D02*
X132256268Y-133348609D01*
X132256268Y-133348609D02*
X132256268Y-133443847D01*
X132256268Y-133443847D02*
X131780078Y-133539085D01*
X132684840Y-133872419D02*
X132684840Y-133205752D01*
X132684840Y-133396228D02*
X132732459Y-133300990D01*
X132732459Y-133300990D02*
X132780078Y-133253371D01*
X132780078Y-133253371D02*
X132875316Y-133205752D01*
X132875316Y-133205752D02*
X132970554Y-133205752D01*
X134065793Y-133872419D02*
X134065793Y-132872419D01*
X134065793Y-132872419D02*
X134446745Y-132872419D01*
X134446745Y-132872419D02*
X134541983Y-132920038D01*
X134541983Y-132920038D02*
X134589602Y-132967657D01*
X134589602Y-132967657D02*
X134637221Y-133062895D01*
X134637221Y-133062895D02*
X134637221Y-133205752D01*
X134637221Y-133205752D02*
X134589602Y-133300990D01*
X134589602Y-133300990D02*
X134541983Y-133348609D01*
X134541983Y-133348609D02*
X134446745Y-133396228D01*
X134446745Y-133396228D02*
X134065793Y-133396228D01*
X135637221Y-133777180D02*
X135589602Y-133824800D01*
X135589602Y-133824800D02*
X135446745Y-133872419D01*
X135446745Y-133872419D02*
X135351507Y-133872419D01*
X135351507Y-133872419D02*
X135208650Y-133824800D01*
X135208650Y-133824800D02*
X135113412Y-133729561D01*
X135113412Y-133729561D02*
X135065793Y-133634323D01*
X135065793Y-133634323D02*
X135018174Y-133443847D01*
X135018174Y-133443847D02*
X135018174Y-133300990D01*
X135018174Y-133300990D02*
X135065793Y-133110514D01*
X135065793Y-133110514D02*
X135113412Y-133015276D01*
X135113412Y-133015276D02*
X135208650Y-132920038D01*
X135208650Y-132920038D02*
X135351507Y-132872419D01*
X135351507Y-132872419D02*
X135446745Y-132872419D01*
X135446745Y-132872419D02*
X135589602Y-132920038D01*
X135589602Y-132920038D02*
X135637221Y-132967657D01*
X136399126Y-133348609D02*
X136541983Y-133396228D01*
X136541983Y-133396228D02*
X136589602Y-133443847D01*
X136589602Y-133443847D02*
X136637221Y-133539085D01*
X136637221Y-133539085D02*
X136637221Y-133681942D01*
X136637221Y-133681942D02*
X136589602Y-133777180D01*
X136589602Y-133777180D02*
X136541983Y-133824800D01*
X136541983Y-133824800D02*
X136446745Y-133872419D01*
X136446745Y-133872419D02*
X136065793Y-133872419D01*
X136065793Y-133872419D02*
X136065793Y-132872419D01*
X136065793Y-132872419D02*
X136399126Y-132872419D01*
X136399126Y-132872419D02*
X136494364Y-132920038D01*
X136494364Y-132920038D02*
X136541983Y-132967657D01*
X136541983Y-132967657D02*
X136589602Y-133062895D01*
X136589602Y-133062895D02*
X136589602Y-133158133D01*
X136589602Y-133158133D02*
X136541983Y-133253371D01*
X136541983Y-133253371D02*
X136494364Y-133300990D01*
X136494364Y-133300990D02*
X136399126Y-133348609D01*
X136399126Y-133348609D02*
X136065793Y-133348609D01*
X137732460Y-133205752D02*
X137970555Y-133872419D01*
X137970555Y-133872419D02*
X138208650Y-133205752D01*
X139113412Y-133872419D02*
X138541984Y-133872419D01*
X138827698Y-133872419D02*
X138827698Y-132872419D01*
X138827698Y-132872419D02*
X138732460Y-133015276D01*
X138732460Y-133015276D02*
X138637222Y-133110514D01*
X138637222Y-133110514D02*
X138541984Y-133158133D01*
X139541984Y-133777180D02*
X139589603Y-133824800D01*
X139589603Y-133824800D02*
X139541984Y-133872419D01*
X139541984Y-133872419D02*
X139494365Y-133824800D01*
X139494365Y-133824800D02*
X139541984Y-133777180D01*
X139541984Y-133777180D02*
X139541984Y-133872419D01*
X139922936Y-132872419D02*
X140541983Y-132872419D01*
X140541983Y-132872419D02*
X140208650Y-133253371D01*
X140208650Y-133253371D02*
X140351507Y-133253371D01*
X140351507Y-133253371D02*
X140446745Y-133300990D01*
X140446745Y-133300990D02*
X140494364Y-133348609D01*
X140494364Y-133348609D02*
X140541983Y-133443847D01*
X140541983Y-133443847D02*
X140541983Y-133681942D01*
X140541983Y-133681942D02*
X140494364Y-133777180D01*
X140494364Y-133777180D02*
X140446745Y-133824800D01*
X140446745Y-133824800D02*
X140351507Y-133872419D01*
X140351507Y-133872419D02*
X140065793Y-133872419D01*
X140065793Y-133872419D02*
X139970555Y-133824800D01*
X139970555Y-133824800D02*
X139922936Y-133777180D01*
X112208646Y-76702419D02*
X112494360Y-76797657D01*
X112494360Y-76797657D02*
X112589598Y-76892895D01*
X112589598Y-76892895D02*
X112684836Y-77083371D01*
X112684836Y-77083371D02*
X112684836Y-77369085D01*
X112684836Y-77369085D02*
X112589598Y-77559561D01*
X112589598Y-77559561D02*
X112494360Y-77654800D01*
X112494360Y-77654800D02*
X112303884Y-77750038D01*
X112303884Y-77750038D02*
X111541979Y-77750038D01*
X111541979Y-77750038D02*
X111541979Y-75750038D01*
X111541979Y-75750038D02*
X112208646Y-75750038D01*
X112208646Y-75750038D02*
X112399122Y-75845276D01*
X112399122Y-75845276D02*
X112494360Y-75940514D01*
X112494360Y-75940514D02*
X112589598Y-76130990D01*
X112589598Y-76130990D02*
X112589598Y-76321466D01*
X112589598Y-76321466D02*
X112494360Y-76511942D01*
X112494360Y-76511942D02*
X112399122Y-76607180D01*
X112399122Y-76607180D02*
X112208646Y-76702419D01*
X112208646Y-76702419D02*
X111541979Y-76702419D01*
X135637217Y-70348609D02*
X135780074Y-70396228D01*
X135780074Y-70396228D02*
X135827693Y-70443847D01*
X135827693Y-70443847D02*
X135875312Y-70539085D01*
X135875312Y-70539085D02*
X135875312Y-70681942D01*
X135875312Y-70681942D02*
X135827693Y-70777180D01*
X135827693Y-70777180D02*
X135780074Y-70824800D01*
X135780074Y-70824800D02*
X135684836Y-70872419D01*
X135684836Y-70872419D02*
X135303884Y-70872419D01*
X135303884Y-70872419D02*
X135303884Y-69872419D01*
X135303884Y-69872419D02*
X135637217Y-69872419D01*
X135637217Y-69872419D02*
X135732455Y-69920038D01*
X135732455Y-69920038D02*
X135780074Y-69967657D01*
X135780074Y-69967657D02*
X135827693Y-70062895D01*
X135827693Y-70062895D02*
X135827693Y-70158133D01*
X135827693Y-70158133D02*
X135780074Y-70253371D01*
X135780074Y-70253371D02*
X135732455Y-70300990D01*
X135732455Y-70300990D02*
X135637217Y-70348609D01*
X135637217Y-70348609D02*
X135303884Y-70348609D01*
X136875312Y-70872419D02*
X136541979Y-70396228D01*
X136303884Y-70872419D02*
X136303884Y-69872419D01*
X136303884Y-69872419D02*
X136684836Y-69872419D01*
X136684836Y-69872419D02*
X136780074Y-69920038D01*
X136780074Y-69920038D02*
X136827693Y-69967657D01*
X136827693Y-69967657D02*
X136875312Y-70062895D01*
X136875312Y-70062895D02*
X136875312Y-70205752D01*
X136875312Y-70205752D02*
X136827693Y-70300990D01*
X136827693Y-70300990D02*
X136780074Y-70348609D01*
X136780074Y-70348609D02*
X136684836Y-70396228D01*
X136684836Y-70396228D02*
X136303884Y-70396228D01*
X137303884Y-70872419D02*
X137303884Y-69872419D01*
X137303884Y-69872419D02*
X137875312Y-70872419D01*
X137875312Y-70872419D02*
X137875312Y-69872419D01*
X141684836Y-97750038D02*
X141018169Y-96797657D01*
X140541979Y-97750038D02*
X140541979Y-95750038D01*
X140541979Y-95750038D02*
X141303884Y-95750038D01*
X141303884Y-95750038D02*
X141494360Y-95845276D01*
X141494360Y-95845276D02*
X141589598Y-95940514D01*
X141589598Y-95940514D02*
X141684836Y-96130990D01*
X141684836Y-96130990D02*
X141684836Y-96416704D01*
X141684836Y-96416704D02*
X141589598Y-96607180D01*
X141589598Y-96607180D02*
X141494360Y-96702419D01*
X141494360Y-96702419D02*
X141303884Y-96797657D01*
X141303884Y-96797657D02*
X140541979Y-96797657D01*
X141494360Y-107750038D02*
X140541979Y-107750038D01*
X140541979Y-107750038D02*
X140541979Y-105750038D01*
X120875312Y-61777180D02*
X120827693Y-61824800D01*
X120827693Y-61824800D02*
X120684836Y-61872419D01*
X120684836Y-61872419D02*
X120589598Y-61872419D01*
X120589598Y-61872419D02*
X120446741Y-61824800D01*
X120446741Y-61824800D02*
X120351503Y-61729561D01*
X120351503Y-61729561D02*
X120303884Y-61634323D01*
X120303884Y-61634323D02*
X120256265Y-61443847D01*
X120256265Y-61443847D02*
X120256265Y-61300990D01*
X120256265Y-61300990D02*
X120303884Y-61110514D01*
X120303884Y-61110514D02*
X120351503Y-61015276D01*
X120351503Y-61015276D02*
X120446741Y-60920038D01*
X120446741Y-60920038D02*
X120589598Y-60872419D01*
X120589598Y-60872419D02*
X120684836Y-60872419D01*
X120684836Y-60872419D02*
X120827693Y-60920038D01*
X120827693Y-60920038D02*
X120875312Y-60967657D01*
X121780074Y-61872419D02*
X121303884Y-61872419D01*
X121303884Y-61872419D02*
X121303884Y-60872419D01*
X122113408Y-61872419D02*
X122113408Y-60872419D01*
X122684836Y-61872419D02*
X122256265Y-61300990D01*
X122684836Y-60872419D02*
X122113408Y-61443847D01*
D11*
X126373333Y-73584819D02*
X126040000Y-73108628D01*
X125801905Y-73584819D02*
X125801905Y-72584819D01*
X125801905Y-72584819D02*
X126182857Y-72584819D01*
X126182857Y-72584819D02*
X126278095Y-72632438D01*
X126278095Y-72632438D02*
X126325714Y-72680057D01*
X126325714Y-72680057D02*
X126373333Y-72775295D01*
X126373333Y-72775295D02*
X126373333Y-72918152D01*
X126373333Y-72918152D02*
X126325714Y-73013390D01*
X126325714Y-73013390D02*
X126278095Y-73061009D01*
X126278095Y-73061009D02*
X126182857Y-73108628D01*
X126182857Y-73108628D02*
X125801905Y-73108628D01*
X126944762Y-73013390D02*
X126849524Y-72965771D01*
X126849524Y-72965771D02*
X126801905Y-72918152D01*
X126801905Y-72918152D02*
X126754286Y-72822914D01*
X126754286Y-72822914D02*
X126754286Y-72775295D01*
X126754286Y-72775295D02*
X126801905Y-72680057D01*
X126801905Y-72680057D02*
X126849524Y-72632438D01*
X126849524Y-72632438D02*
X126944762Y-72584819D01*
X126944762Y-72584819D02*
X127135238Y-72584819D01*
X127135238Y-72584819D02*
X127230476Y-72632438D01*
X127230476Y-72632438D02*
X127278095Y-72680057D01*
X127278095Y-72680057D02*
X127325714Y-72775295D01*
X127325714Y-72775295D02*
X127325714Y-72822914D01*
X127325714Y-72822914D02*
X127278095Y-72918152D01*
X127278095Y-72918152D02*
X127230476Y-72965771D01*
X127230476Y-72965771D02*
X127135238Y-73013390D01*
X127135238Y-73013390D02*
X126944762Y-73013390D01*
X126944762Y-73013390D02*
X126849524Y-73061009D01*
X126849524Y-73061009D02*
X126801905Y-73108628D01*
X126801905Y-73108628D02*
X126754286Y-73203866D01*
X126754286Y-73203866D02*
X126754286Y-73394342D01*
X126754286Y-73394342D02*
X126801905Y-73489580D01*
X126801905Y-73489580D02*
X126849524Y-73537200D01*
X126849524Y-73537200D02*
X126944762Y-73584819D01*
X126944762Y-73584819D02*
X127135238Y-73584819D01*
X127135238Y-73584819D02*
X127230476Y-73537200D01*
X127230476Y-73537200D02*
X127278095Y-73489580D01*
X127278095Y-73489580D02*
X127325714Y-73394342D01*
X127325714Y-73394342D02*
X127325714Y-73203866D01*
X127325714Y-73203866D02*
X127278095Y-73108628D01*
X127278095Y-73108628D02*
X127230476Y-73061009D01*
X127230476Y-73061009D02*
X127135238Y-73013390D01*
X125897142Y-81684819D02*
X125563809Y-81208628D01*
X125325714Y-81684819D02*
X125325714Y-80684819D01*
X125325714Y-80684819D02*
X125706666Y-80684819D01*
X125706666Y-80684819D02*
X125801904Y-80732438D01*
X125801904Y-80732438D02*
X125849523Y-80780057D01*
X125849523Y-80780057D02*
X125897142Y-80875295D01*
X125897142Y-80875295D02*
X125897142Y-81018152D01*
X125897142Y-81018152D02*
X125849523Y-81113390D01*
X125849523Y-81113390D02*
X125801904Y-81161009D01*
X125801904Y-81161009D02*
X125706666Y-81208628D01*
X125706666Y-81208628D02*
X125325714Y-81208628D01*
X126849523Y-81684819D02*
X126278095Y-81684819D01*
X126563809Y-81684819D02*
X126563809Y-80684819D01*
X126563809Y-80684819D02*
X126468571Y-80827676D01*
X126468571Y-80827676D02*
X126373333Y-80922914D01*
X126373333Y-80922914D02*
X126278095Y-80970533D01*
X127468571Y-80684819D02*
X127563809Y-80684819D01*
X127563809Y-80684819D02*
X127659047Y-80732438D01*
X127659047Y-80732438D02*
X127706666Y-80780057D01*
X127706666Y-80780057D02*
X127754285Y-80875295D01*
X127754285Y-80875295D02*
X127801904Y-81065771D01*
X127801904Y-81065771D02*
X127801904Y-81303866D01*
X127801904Y-81303866D02*
X127754285Y-81494342D01*
X127754285Y-81494342D02*
X127706666Y-81589580D01*
X127706666Y-81589580D02*
X127659047Y-81637200D01*
X127659047Y-81637200D02*
X127563809Y-81684819D01*
X127563809Y-81684819D02*
X127468571Y-81684819D01*
X127468571Y-81684819D02*
X127373333Y-81637200D01*
X127373333Y-81637200D02*
X127325714Y-81589580D01*
X127325714Y-81589580D02*
X127278095Y-81494342D01*
X127278095Y-81494342D02*
X127230476Y-81303866D01*
X127230476Y-81303866D02*
X127230476Y-81065771D01*
X127230476Y-81065771D02*
X127278095Y-80875295D01*
X127278095Y-80875295D02*
X127325714Y-80780057D01*
X127325714Y-80780057D02*
X127373333Y-80732438D01*
X127373333Y-80732438D02*
X127468571Y-80684819D01*
X134577142Y-85734819D02*
X134243809Y-85258628D01*
X134005714Y-85734819D02*
X134005714Y-84734819D01*
X134005714Y-84734819D02*
X134386666Y-84734819D01*
X134386666Y-84734819D02*
X134481904Y-84782438D01*
X134481904Y-84782438D02*
X134529523Y-84830057D01*
X134529523Y-84830057D02*
X134577142Y-84925295D01*
X134577142Y-84925295D02*
X134577142Y-85068152D01*
X134577142Y-85068152D02*
X134529523Y-85163390D01*
X134529523Y-85163390D02*
X134481904Y-85211009D01*
X134481904Y-85211009D02*
X134386666Y-85258628D01*
X134386666Y-85258628D02*
X134005714Y-85258628D01*
X135529523Y-85734819D02*
X134958095Y-85734819D01*
X135243809Y-85734819D02*
X135243809Y-84734819D01*
X135243809Y-84734819D02*
X135148571Y-84877676D01*
X135148571Y-84877676D02*
X135053333Y-84972914D01*
X135053333Y-84972914D02*
X134958095Y-85020533D01*
X136100952Y-85163390D02*
X136005714Y-85115771D01*
X136005714Y-85115771D02*
X135958095Y-85068152D01*
X135958095Y-85068152D02*
X135910476Y-84972914D01*
X135910476Y-84972914D02*
X135910476Y-84925295D01*
X135910476Y-84925295D02*
X135958095Y-84830057D01*
X135958095Y-84830057D02*
X136005714Y-84782438D01*
X136005714Y-84782438D02*
X136100952Y-84734819D01*
X136100952Y-84734819D02*
X136291428Y-84734819D01*
X136291428Y-84734819D02*
X136386666Y-84782438D01*
X136386666Y-84782438D02*
X136434285Y-84830057D01*
X136434285Y-84830057D02*
X136481904Y-84925295D01*
X136481904Y-84925295D02*
X136481904Y-84972914D01*
X136481904Y-84972914D02*
X136434285Y-85068152D01*
X136434285Y-85068152D02*
X136386666Y-85115771D01*
X136386666Y-85115771D02*
X136291428Y-85163390D01*
X136291428Y-85163390D02*
X136100952Y-85163390D01*
X136100952Y-85163390D02*
X136005714Y-85211009D01*
X136005714Y-85211009D02*
X135958095Y-85258628D01*
X135958095Y-85258628D02*
X135910476Y-85353866D01*
X135910476Y-85353866D02*
X135910476Y-85544342D01*
X135910476Y-85544342D02*
X135958095Y-85639580D01*
X135958095Y-85639580D02*
X136005714Y-85687200D01*
X136005714Y-85687200D02*
X136100952Y-85734819D01*
X136100952Y-85734819D02*
X136291428Y-85734819D01*
X136291428Y-85734819D02*
X136386666Y-85687200D01*
X136386666Y-85687200D02*
X136434285Y-85639580D01*
X136434285Y-85639580D02*
X136481904Y-85544342D01*
X136481904Y-85544342D02*
X136481904Y-85353866D01*
X136481904Y-85353866D02*
X136434285Y-85258628D01*
X136434285Y-85258628D02*
X136386666Y-85211009D01*
X136386666Y-85211009D02*
X136291428Y-85163390D01*
X99954819Y-102583333D02*
X100669104Y-102583333D01*
X100669104Y-102583333D02*
X100811961Y-102630952D01*
X100811961Y-102630952D02*
X100907200Y-102726190D01*
X100907200Y-102726190D02*
X100954819Y-102869047D01*
X100954819Y-102869047D02*
X100954819Y-102964285D01*
X100050057Y-102154761D02*
X100002438Y-102107142D01*
X100002438Y-102107142D02*
X99954819Y-102011904D01*
X99954819Y-102011904D02*
X99954819Y-101773809D01*
X99954819Y-101773809D02*
X100002438Y-101678571D01*
X100002438Y-101678571D02*
X100050057Y-101630952D01*
X100050057Y-101630952D02*
X100145295Y-101583333D01*
X100145295Y-101583333D02*
X100240533Y-101583333D01*
X100240533Y-101583333D02*
X100383390Y-101630952D01*
X100383390Y-101630952D02*
X100954819Y-102202380D01*
X100954819Y-102202380D02*
X100954819Y-101583333D01*
X133683095Y-103644819D02*
X133683095Y-104454342D01*
X133683095Y-104454342D02*
X133730714Y-104549580D01*
X133730714Y-104549580D02*
X133778333Y-104597200D01*
X133778333Y-104597200D02*
X133873571Y-104644819D01*
X133873571Y-104644819D02*
X134064047Y-104644819D01*
X134064047Y-104644819D02*
X134159285Y-104597200D01*
X134159285Y-104597200D02*
X134206904Y-104549580D01*
X134206904Y-104549580D02*
X134254523Y-104454342D01*
X134254523Y-104454342D02*
X134254523Y-103644819D01*
X134683095Y-103740057D02*
X134730714Y-103692438D01*
X134730714Y-103692438D02*
X134825952Y-103644819D01*
X134825952Y-103644819D02*
X135064047Y-103644819D01*
X135064047Y-103644819D02*
X135159285Y-103692438D01*
X135159285Y-103692438D02*
X135206904Y-103740057D01*
X135206904Y-103740057D02*
X135254523Y-103835295D01*
X135254523Y-103835295D02*
X135254523Y-103930533D01*
X135254523Y-103930533D02*
X135206904Y-104073390D01*
X135206904Y-104073390D02*
X134635476Y-104644819D01*
X134635476Y-104644819D02*
X135254523Y-104644819D01*
X134577142Y-89784819D02*
X134243809Y-89308628D01*
X134005714Y-89784819D02*
X134005714Y-88784819D01*
X134005714Y-88784819D02*
X134386666Y-88784819D01*
X134386666Y-88784819D02*
X134481904Y-88832438D01*
X134481904Y-88832438D02*
X134529523Y-88880057D01*
X134529523Y-88880057D02*
X134577142Y-88975295D01*
X134577142Y-88975295D02*
X134577142Y-89118152D01*
X134577142Y-89118152D02*
X134529523Y-89213390D01*
X134529523Y-89213390D02*
X134481904Y-89261009D01*
X134481904Y-89261009D02*
X134386666Y-89308628D01*
X134386666Y-89308628D02*
X134005714Y-89308628D01*
X135529523Y-89784819D02*
X134958095Y-89784819D01*
X135243809Y-89784819D02*
X135243809Y-88784819D01*
X135243809Y-88784819D02*
X135148571Y-88927676D01*
X135148571Y-88927676D02*
X135053333Y-89022914D01*
X135053333Y-89022914D02*
X134958095Y-89070533D01*
X136005714Y-89784819D02*
X136196190Y-89784819D01*
X136196190Y-89784819D02*
X136291428Y-89737200D01*
X136291428Y-89737200D02*
X136339047Y-89689580D01*
X136339047Y-89689580D02*
X136434285Y-89546723D01*
X136434285Y-89546723D02*
X136481904Y-89356247D01*
X136481904Y-89356247D02*
X136481904Y-88975295D01*
X136481904Y-88975295D02*
X136434285Y-88880057D01*
X136434285Y-88880057D02*
X136386666Y-88832438D01*
X136386666Y-88832438D02*
X136291428Y-88784819D01*
X136291428Y-88784819D02*
X136100952Y-88784819D01*
X136100952Y-88784819D02*
X136005714Y-88832438D01*
X136005714Y-88832438D02*
X135958095Y-88880057D01*
X135958095Y-88880057D02*
X135910476Y-88975295D01*
X135910476Y-88975295D02*
X135910476Y-89213390D01*
X135910476Y-89213390D02*
X135958095Y-89308628D01*
X135958095Y-89308628D02*
X136005714Y-89356247D01*
X136005714Y-89356247D02*
X136100952Y-89403866D01*
X136100952Y-89403866D02*
X136291428Y-89403866D01*
X136291428Y-89403866D02*
X136386666Y-89356247D01*
X136386666Y-89356247D02*
X136434285Y-89308628D01*
X136434285Y-89308628D02*
X136481904Y-89213390D01*
X117693333Y-93834819D02*
X117360000Y-93358628D01*
X117121905Y-93834819D02*
X117121905Y-92834819D01*
X117121905Y-92834819D02*
X117502857Y-92834819D01*
X117502857Y-92834819D02*
X117598095Y-92882438D01*
X117598095Y-92882438D02*
X117645714Y-92930057D01*
X117645714Y-92930057D02*
X117693333Y-93025295D01*
X117693333Y-93025295D02*
X117693333Y-93168152D01*
X117693333Y-93168152D02*
X117645714Y-93263390D01*
X117645714Y-93263390D02*
X117598095Y-93311009D01*
X117598095Y-93311009D02*
X117502857Y-93358628D01*
X117502857Y-93358628D02*
X117121905Y-93358628D01*
X118550476Y-92834819D02*
X118360000Y-92834819D01*
X118360000Y-92834819D02*
X118264762Y-92882438D01*
X118264762Y-92882438D02*
X118217143Y-92930057D01*
X118217143Y-92930057D02*
X118121905Y-93072914D01*
X118121905Y-93072914D02*
X118074286Y-93263390D01*
X118074286Y-93263390D02*
X118074286Y-93644342D01*
X118074286Y-93644342D02*
X118121905Y-93739580D01*
X118121905Y-93739580D02*
X118169524Y-93787200D01*
X118169524Y-93787200D02*
X118264762Y-93834819D01*
X118264762Y-93834819D02*
X118455238Y-93834819D01*
X118455238Y-93834819D02*
X118550476Y-93787200D01*
X118550476Y-93787200D02*
X118598095Y-93739580D01*
X118598095Y-93739580D02*
X118645714Y-93644342D01*
X118645714Y-93644342D02*
X118645714Y-93406247D01*
X118645714Y-93406247D02*
X118598095Y-93311009D01*
X118598095Y-93311009D02*
X118550476Y-93263390D01*
X118550476Y-93263390D02*
X118455238Y-93215771D01*
X118455238Y-93215771D02*
X118264762Y-93215771D01*
X118264762Y-93215771D02*
X118169524Y-93263390D01*
X118169524Y-93263390D02*
X118121905Y-93311009D01*
X118121905Y-93311009D02*
X118074286Y-93406247D01*
X134577142Y-73584819D02*
X134243809Y-73108628D01*
X134005714Y-73584819D02*
X134005714Y-72584819D01*
X134005714Y-72584819D02*
X134386666Y-72584819D01*
X134386666Y-72584819D02*
X134481904Y-72632438D01*
X134481904Y-72632438D02*
X134529523Y-72680057D01*
X134529523Y-72680057D02*
X134577142Y-72775295D01*
X134577142Y-72775295D02*
X134577142Y-72918152D01*
X134577142Y-72918152D02*
X134529523Y-73013390D01*
X134529523Y-73013390D02*
X134481904Y-73061009D01*
X134481904Y-73061009D02*
X134386666Y-73108628D01*
X134386666Y-73108628D02*
X134005714Y-73108628D01*
X135529523Y-73584819D02*
X134958095Y-73584819D01*
X135243809Y-73584819D02*
X135243809Y-72584819D01*
X135243809Y-72584819D02*
X135148571Y-72727676D01*
X135148571Y-72727676D02*
X135053333Y-72822914D01*
X135053333Y-72822914D02*
X134958095Y-72870533D01*
X136434285Y-72584819D02*
X135958095Y-72584819D01*
X135958095Y-72584819D02*
X135910476Y-73061009D01*
X135910476Y-73061009D02*
X135958095Y-73013390D01*
X135958095Y-73013390D02*
X136053333Y-72965771D01*
X136053333Y-72965771D02*
X136291428Y-72965771D01*
X136291428Y-72965771D02*
X136386666Y-73013390D01*
X136386666Y-73013390D02*
X136434285Y-73061009D01*
X136434285Y-73061009D02*
X136481904Y-73156247D01*
X136481904Y-73156247D02*
X136481904Y-73394342D01*
X136481904Y-73394342D02*
X136434285Y-73489580D01*
X136434285Y-73489580D02*
X136386666Y-73537200D01*
X136386666Y-73537200D02*
X136291428Y-73584819D01*
X136291428Y-73584819D02*
X136053333Y-73584819D01*
X136053333Y-73584819D02*
X135958095Y-73537200D01*
X135958095Y-73537200D02*
X135910476Y-73489580D01*
X117693333Y-77634819D02*
X117360000Y-77158628D01*
X117121905Y-77634819D02*
X117121905Y-76634819D01*
X117121905Y-76634819D02*
X117502857Y-76634819D01*
X117502857Y-76634819D02*
X117598095Y-76682438D01*
X117598095Y-76682438D02*
X117645714Y-76730057D01*
X117645714Y-76730057D02*
X117693333Y-76825295D01*
X117693333Y-76825295D02*
X117693333Y-76968152D01*
X117693333Y-76968152D02*
X117645714Y-77063390D01*
X117645714Y-77063390D02*
X117598095Y-77111009D01*
X117598095Y-77111009D02*
X117502857Y-77158628D01*
X117502857Y-77158628D02*
X117121905Y-77158628D01*
X118074286Y-76730057D02*
X118121905Y-76682438D01*
X118121905Y-76682438D02*
X118217143Y-76634819D01*
X118217143Y-76634819D02*
X118455238Y-76634819D01*
X118455238Y-76634819D02*
X118550476Y-76682438D01*
X118550476Y-76682438D02*
X118598095Y-76730057D01*
X118598095Y-76730057D02*
X118645714Y-76825295D01*
X118645714Y-76825295D02*
X118645714Y-76920533D01*
X118645714Y-76920533D02*
X118598095Y-77063390D01*
X118598095Y-77063390D02*
X118026667Y-77634819D01*
X118026667Y-77634819D02*
X118645714Y-77634819D01*
X143334819Y-102583333D02*
X144049104Y-102583333D01*
X144049104Y-102583333D02*
X144191961Y-102630952D01*
X144191961Y-102630952D02*
X144287200Y-102726190D01*
X144287200Y-102726190D02*
X144334819Y-102869047D01*
X144334819Y-102869047D02*
X144334819Y-102964285D01*
X143334819Y-102202380D02*
X143334819Y-101583333D01*
X143334819Y-101583333D02*
X143715771Y-101916666D01*
X143715771Y-101916666D02*
X143715771Y-101773809D01*
X143715771Y-101773809D02*
X143763390Y-101678571D01*
X143763390Y-101678571D02*
X143811009Y-101630952D01*
X143811009Y-101630952D02*
X143906247Y-101583333D01*
X143906247Y-101583333D02*
X144144342Y-101583333D01*
X144144342Y-101583333D02*
X144239580Y-101630952D01*
X144239580Y-101630952D02*
X144287200Y-101678571D01*
X144287200Y-101678571D02*
X144334819Y-101773809D01*
X144334819Y-101773809D02*
X144334819Y-102059523D01*
X144334819Y-102059523D02*
X144287200Y-102154761D01*
X144287200Y-102154761D02*
X144239580Y-102202380D01*
X117693333Y-73584819D02*
X117360000Y-73108628D01*
X117121905Y-73584819D02*
X117121905Y-72584819D01*
X117121905Y-72584819D02*
X117502857Y-72584819D01*
X117502857Y-72584819D02*
X117598095Y-72632438D01*
X117598095Y-72632438D02*
X117645714Y-72680057D01*
X117645714Y-72680057D02*
X117693333Y-72775295D01*
X117693333Y-72775295D02*
X117693333Y-72918152D01*
X117693333Y-72918152D02*
X117645714Y-73013390D01*
X117645714Y-73013390D02*
X117598095Y-73061009D01*
X117598095Y-73061009D02*
X117502857Y-73108628D01*
X117502857Y-73108628D02*
X117121905Y-73108628D01*
X118645714Y-73584819D02*
X118074286Y-73584819D01*
X118360000Y-73584819D02*
X118360000Y-72584819D01*
X118360000Y-72584819D02*
X118264762Y-72727676D01*
X118264762Y-72727676D02*
X118169524Y-72822914D01*
X118169524Y-72822914D02*
X118074286Y-72870533D01*
X126373333Y-77634819D02*
X126040000Y-77158628D01*
X125801905Y-77634819D02*
X125801905Y-76634819D01*
X125801905Y-76634819D02*
X126182857Y-76634819D01*
X126182857Y-76634819D02*
X126278095Y-76682438D01*
X126278095Y-76682438D02*
X126325714Y-76730057D01*
X126325714Y-76730057D02*
X126373333Y-76825295D01*
X126373333Y-76825295D02*
X126373333Y-76968152D01*
X126373333Y-76968152D02*
X126325714Y-77063390D01*
X126325714Y-77063390D02*
X126278095Y-77111009D01*
X126278095Y-77111009D02*
X126182857Y-77158628D01*
X126182857Y-77158628D02*
X125801905Y-77158628D01*
X126849524Y-77634819D02*
X127040000Y-77634819D01*
X127040000Y-77634819D02*
X127135238Y-77587200D01*
X127135238Y-77587200D02*
X127182857Y-77539580D01*
X127182857Y-77539580D02*
X127278095Y-77396723D01*
X127278095Y-77396723D02*
X127325714Y-77206247D01*
X127325714Y-77206247D02*
X127325714Y-76825295D01*
X127325714Y-76825295D02*
X127278095Y-76730057D01*
X127278095Y-76730057D02*
X127230476Y-76682438D01*
X127230476Y-76682438D02*
X127135238Y-76634819D01*
X127135238Y-76634819D02*
X126944762Y-76634819D01*
X126944762Y-76634819D02*
X126849524Y-76682438D01*
X126849524Y-76682438D02*
X126801905Y-76730057D01*
X126801905Y-76730057D02*
X126754286Y-76825295D01*
X126754286Y-76825295D02*
X126754286Y-77063390D01*
X126754286Y-77063390D02*
X126801905Y-77158628D01*
X126801905Y-77158628D02*
X126849524Y-77206247D01*
X126849524Y-77206247D02*
X126944762Y-77253866D01*
X126944762Y-77253866D02*
X127135238Y-77253866D01*
X127135238Y-77253866D02*
X127230476Y-77206247D01*
X127230476Y-77206247D02*
X127278095Y-77158628D01*
X127278095Y-77158628D02*
X127325714Y-77063390D01*
X125897142Y-93834819D02*
X125563809Y-93358628D01*
X125325714Y-93834819D02*
X125325714Y-92834819D01*
X125325714Y-92834819D02*
X125706666Y-92834819D01*
X125706666Y-92834819D02*
X125801904Y-92882438D01*
X125801904Y-92882438D02*
X125849523Y-92930057D01*
X125849523Y-92930057D02*
X125897142Y-93025295D01*
X125897142Y-93025295D02*
X125897142Y-93168152D01*
X125897142Y-93168152D02*
X125849523Y-93263390D01*
X125849523Y-93263390D02*
X125801904Y-93311009D01*
X125801904Y-93311009D02*
X125706666Y-93358628D01*
X125706666Y-93358628D02*
X125325714Y-93358628D01*
X126849523Y-93834819D02*
X126278095Y-93834819D01*
X126563809Y-93834819D02*
X126563809Y-92834819D01*
X126563809Y-92834819D02*
X126468571Y-92977676D01*
X126468571Y-92977676D02*
X126373333Y-93072914D01*
X126373333Y-93072914D02*
X126278095Y-93120533D01*
X127182857Y-92834819D02*
X127801904Y-92834819D01*
X127801904Y-92834819D02*
X127468571Y-93215771D01*
X127468571Y-93215771D02*
X127611428Y-93215771D01*
X127611428Y-93215771D02*
X127706666Y-93263390D01*
X127706666Y-93263390D02*
X127754285Y-93311009D01*
X127754285Y-93311009D02*
X127801904Y-93406247D01*
X127801904Y-93406247D02*
X127801904Y-93644342D01*
X127801904Y-93644342D02*
X127754285Y-93739580D01*
X127754285Y-93739580D02*
X127706666Y-93787200D01*
X127706666Y-93787200D02*
X127611428Y-93834819D01*
X127611428Y-93834819D02*
X127325714Y-93834819D01*
X127325714Y-93834819D02*
X127230476Y-93787200D01*
X127230476Y-93787200D02*
X127182857Y-93739580D01*
X117693333Y-97884819D02*
X117360000Y-97408628D01*
X117121905Y-97884819D02*
X117121905Y-96884819D01*
X117121905Y-96884819D02*
X117502857Y-96884819D01*
X117502857Y-96884819D02*
X117598095Y-96932438D01*
X117598095Y-96932438D02*
X117645714Y-96980057D01*
X117645714Y-96980057D02*
X117693333Y-97075295D01*
X117693333Y-97075295D02*
X117693333Y-97218152D01*
X117693333Y-97218152D02*
X117645714Y-97313390D01*
X117645714Y-97313390D02*
X117598095Y-97361009D01*
X117598095Y-97361009D02*
X117502857Y-97408628D01*
X117502857Y-97408628D02*
X117121905Y-97408628D01*
X118026667Y-96884819D02*
X118693333Y-96884819D01*
X118693333Y-96884819D02*
X118264762Y-97884819D01*
X125666666Y-58802319D02*
X125666666Y-59516604D01*
X125666666Y-59516604D02*
X125619047Y-59659461D01*
X125619047Y-59659461D02*
X125523809Y-59754700D01*
X125523809Y-59754700D02*
X125380952Y-59802319D01*
X125380952Y-59802319D02*
X125285714Y-59802319D01*
X126571428Y-59135652D02*
X126571428Y-59802319D01*
X126333333Y-58754700D02*
X126095238Y-59468985D01*
X126095238Y-59468985D02*
X126714285Y-59468985D01*
X125897142Y-85734819D02*
X125563809Y-85258628D01*
X125325714Y-85734819D02*
X125325714Y-84734819D01*
X125325714Y-84734819D02*
X125706666Y-84734819D01*
X125706666Y-84734819D02*
X125801904Y-84782438D01*
X125801904Y-84782438D02*
X125849523Y-84830057D01*
X125849523Y-84830057D02*
X125897142Y-84925295D01*
X125897142Y-84925295D02*
X125897142Y-85068152D01*
X125897142Y-85068152D02*
X125849523Y-85163390D01*
X125849523Y-85163390D02*
X125801904Y-85211009D01*
X125801904Y-85211009D02*
X125706666Y-85258628D01*
X125706666Y-85258628D02*
X125325714Y-85258628D01*
X126849523Y-85734819D02*
X126278095Y-85734819D01*
X126563809Y-85734819D02*
X126563809Y-84734819D01*
X126563809Y-84734819D02*
X126468571Y-84877676D01*
X126468571Y-84877676D02*
X126373333Y-84972914D01*
X126373333Y-84972914D02*
X126278095Y-85020533D01*
X127801904Y-85734819D02*
X127230476Y-85734819D01*
X127516190Y-85734819D02*
X127516190Y-84734819D01*
X127516190Y-84734819D02*
X127420952Y-84877676D01*
X127420952Y-84877676D02*
X127325714Y-84972914D01*
X127325714Y-84972914D02*
X127230476Y-85020533D01*
X117693333Y-85734819D02*
X117360000Y-85258628D01*
X117121905Y-85734819D02*
X117121905Y-84734819D01*
X117121905Y-84734819D02*
X117502857Y-84734819D01*
X117502857Y-84734819D02*
X117598095Y-84782438D01*
X117598095Y-84782438D02*
X117645714Y-84830057D01*
X117645714Y-84830057D02*
X117693333Y-84925295D01*
X117693333Y-84925295D02*
X117693333Y-85068152D01*
X117693333Y-85068152D02*
X117645714Y-85163390D01*
X117645714Y-85163390D02*
X117598095Y-85211009D01*
X117598095Y-85211009D02*
X117502857Y-85258628D01*
X117502857Y-85258628D02*
X117121905Y-85258628D01*
X118550476Y-85068152D02*
X118550476Y-85734819D01*
X118312381Y-84687200D02*
X118074286Y-85401485D01*
X118074286Y-85401485D02*
X118693333Y-85401485D01*
X118063095Y-103644819D02*
X118063095Y-104454342D01*
X118063095Y-104454342D02*
X118110714Y-104549580D01*
X118110714Y-104549580D02*
X118158333Y-104597200D01*
X118158333Y-104597200D02*
X118253571Y-104644819D01*
X118253571Y-104644819D02*
X118444047Y-104644819D01*
X118444047Y-104644819D02*
X118539285Y-104597200D01*
X118539285Y-104597200D02*
X118586904Y-104549580D01*
X118586904Y-104549580D02*
X118634523Y-104454342D01*
X118634523Y-104454342D02*
X118634523Y-103644819D01*
X119634523Y-104644819D02*
X119063095Y-104644819D01*
X119348809Y-104644819D02*
X119348809Y-103644819D01*
X119348809Y-103644819D02*
X119253571Y-103787676D01*
X119253571Y-103787676D02*
X119158333Y-103882914D01*
X119158333Y-103882914D02*
X119063095Y-103930533D01*
X125897142Y-89784819D02*
X125563809Y-89308628D01*
X125325714Y-89784819D02*
X125325714Y-88784819D01*
X125325714Y-88784819D02*
X125706666Y-88784819D01*
X125706666Y-88784819D02*
X125801904Y-88832438D01*
X125801904Y-88832438D02*
X125849523Y-88880057D01*
X125849523Y-88880057D02*
X125897142Y-88975295D01*
X125897142Y-88975295D02*
X125897142Y-89118152D01*
X125897142Y-89118152D02*
X125849523Y-89213390D01*
X125849523Y-89213390D02*
X125801904Y-89261009D01*
X125801904Y-89261009D02*
X125706666Y-89308628D01*
X125706666Y-89308628D02*
X125325714Y-89308628D01*
X126849523Y-89784819D02*
X126278095Y-89784819D01*
X126563809Y-89784819D02*
X126563809Y-88784819D01*
X126563809Y-88784819D02*
X126468571Y-88927676D01*
X126468571Y-88927676D02*
X126373333Y-89022914D01*
X126373333Y-89022914D02*
X126278095Y-89070533D01*
X127230476Y-88880057D02*
X127278095Y-88832438D01*
X127278095Y-88832438D02*
X127373333Y-88784819D01*
X127373333Y-88784819D02*
X127611428Y-88784819D01*
X127611428Y-88784819D02*
X127706666Y-88832438D01*
X127706666Y-88832438D02*
X127754285Y-88880057D01*
X127754285Y-88880057D02*
X127801904Y-88975295D01*
X127801904Y-88975295D02*
X127801904Y-89070533D01*
X127801904Y-89070533D02*
X127754285Y-89213390D01*
X127754285Y-89213390D02*
X127182857Y-89784819D01*
X127182857Y-89784819D02*
X127801904Y-89784819D01*
X117693333Y-89784819D02*
X117360000Y-89308628D01*
X117121905Y-89784819D02*
X117121905Y-88784819D01*
X117121905Y-88784819D02*
X117502857Y-88784819D01*
X117502857Y-88784819D02*
X117598095Y-88832438D01*
X117598095Y-88832438D02*
X117645714Y-88880057D01*
X117645714Y-88880057D02*
X117693333Y-88975295D01*
X117693333Y-88975295D02*
X117693333Y-89118152D01*
X117693333Y-89118152D02*
X117645714Y-89213390D01*
X117645714Y-89213390D02*
X117598095Y-89261009D01*
X117598095Y-89261009D02*
X117502857Y-89308628D01*
X117502857Y-89308628D02*
X117121905Y-89308628D01*
X118598095Y-88784819D02*
X118121905Y-88784819D01*
X118121905Y-88784819D02*
X118074286Y-89261009D01*
X118074286Y-89261009D02*
X118121905Y-89213390D01*
X118121905Y-89213390D02*
X118217143Y-89165771D01*
X118217143Y-89165771D02*
X118455238Y-89165771D01*
X118455238Y-89165771D02*
X118550476Y-89213390D01*
X118550476Y-89213390D02*
X118598095Y-89261009D01*
X118598095Y-89261009D02*
X118645714Y-89356247D01*
X118645714Y-89356247D02*
X118645714Y-89594342D01*
X118645714Y-89594342D02*
X118598095Y-89689580D01*
X118598095Y-89689580D02*
X118550476Y-89737200D01*
X118550476Y-89737200D02*
X118455238Y-89784819D01*
X118455238Y-89784819D02*
X118217143Y-89784819D01*
X118217143Y-89784819D02*
X118121905Y-89737200D01*
X118121905Y-89737200D02*
X118074286Y-89689580D01*
X117693333Y-81684819D02*
X117360000Y-81208628D01*
X117121905Y-81684819D02*
X117121905Y-80684819D01*
X117121905Y-80684819D02*
X117502857Y-80684819D01*
X117502857Y-80684819D02*
X117598095Y-80732438D01*
X117598095Y-80732438D02*
X117645714Y-80780057D01*
X117645714Y-80780057D02*
X117693333Y-80875295D01*
X117693333Y-80875295D02*
X117693333Y-81018152D01*
X117693333Y-81018152D02*
X117645714Y-81113390D01*
X117645714Y-81113390D02*
X117598095Y-81161009D01*
X117598095Y-81161009D02*
X117502857Y-81208628D01*
X117502857Y-81208628D02*
X117121905Y-81208628D01*
X118026667Y-80684819D02*
X118645714Y-80684819D01*
X118645714Y-80684819D02*
X118312381Y-81065771D01*
X118312381Y-81065771D02*
X118455238Y-81065771D01*
X118455238Y-81065771D02*
X118550476Y-81113390D01*
X118550476Y-81113390D02*
X118598095Y-81161009D01*
X118598095Y-81161009D02*
X118645714Y-81256247D01*
X118645714Y-81256247D02*
X118645714Y-81494342D01*
X118645714Y-81494342D02*
X118598095Y-81589580D01*
X118598095Y-81589580D02*
X118550476Y-81637200D01*
X118550476Y-81637200D02*
X118455238Y-81684819D01*
X118455238Y-81684819D02*
X118169524Y-81684819D01*
X118169524Y-81684819D02*
X118074286Y-81637200D01*
X118074286Y-81637200D02*
X118026667Y-81589580D01*
X134577142Y-81684819D02*
X134243809Y-81208628D01*
X134005714Y-81684819D02*
X134005714Y-80684819D01*
X134005714Y-80684819D02*
X134386666Y-80684819D01*
X134386666Y-80684819D02*
X134481904Y-80732438D01*
X134481904Y-80732438D02*
X134529523Y-80780057D01*
X134529523Y-80780057D02*
X134577142Y-80875295D01*
X134577142Y-80875295D02*
X134577142Y-81018152D01*
X134577142Y-81018152D02*
X134529523Y-81113390D01*
X134529523Y-81113390D02*
X134481904Y-81161009D01*
X134481904Y-81161009D02*
X134386666Y-81208628D01*
X134386666Y-81208628D02*
X134005714Y-81208628D01*
X135529523Y-81684819D02*
X134958095Y-81684819D01*
X135243809Y-81684819D02*
X135243809Y-80684819D01*
X135243809Y-80684819D02*
X135148571Y-80827676D01*
X135148571Y-80827676D02*
X135053333Y-80922914D01*
X135053333Y-80922914D02*
X134958095Y-80970533D01*
X135862857Y-80684819D02*
X136529523Y-80684819D01*
X136529523Y-80684819D02*
X136100952Y-81684819D01*
X125897142Y-97884819D02*
X125563809Y-97408628D01*
X125325714Y-97884819D02*
X125325714Y-96884819D01*
X125325714Y-96884819D02*
X125706666Y-96884819D01*
X125706666Y-96884819D02*
X125801904Y-96932438D01*
X125801904Y-96932438D02*
X125849523Y-96980057D01*
X125849523Y-96980057D02*
X125897142Y-97075295D01*
X125897142Y-97075295D02*
X125897142Y-97218152D01*
X125897142Y-97218152D02*
X125849523Y-97313390D01*
X125849523Y-97313390D02*
X125801904Y-97361009D01*
X125801904Y-97361009D02*
X125706666Y-97408628D01*
X125706666Y-97408628D02*
X125325714Y-97408628D01*
X126849523Y-97884819D02*
X126278095Y-97884819D01*
X126563809Y-97884819D02*
X126563809Y-96884819D01*
X126563809Y-96884819D02*
X126468571Y-97027676D01*
X126468571Y-97027676D02*
X126373333Y-97122914D01*
X126373333Y-97122914D02*
X126278095Y-97170533D01*
X127706666Y-97218152D02*
X127706666Y-97884819D01*
X127468571Y-96837200D02*
X127230476Y-97551485D01*
X127230476Y-97551485D02*
X127849523Y-97551485D01*
X134577142Y-77634819D02*
X134243809Y-77158628D01*
X134005714Y-77634819D02*
X134005714Y-76634819D01*
X134005714Y-76634819D02*
X134386666Y-76634819D01*
X134386666Y-76634819D02*
X134481904Y-76682438D01*
X134481904Y-76682438D02*
X134529523Y-76730057D01*
X134529523Y-76730057D02*
X134577142Y-76825295D01*
X134577142Y-76825295D02*
X134577142Y-76968152D01*
X134577142Y-76968152D02*
X134529523Y-77063390D01*
X134529523Y-77063390D02*
X134481904Y-77111009D01*
X134481904Y-77111009D02*
X134386666Y-77158628D01*
X134386666Y-77158628D02*
X134005714Y-77158628D01*
X135529523Y-77634819D02*
X134958095Y-77634819D01*
X135243809Y-77634819D02*
X135243809Y-76634819D01*
X135243809Y-76634819D02*
X135148571Y-76777676D01*
X135148571Y-76777676D02*
X135053333Y-76872914D01*
X135053333Y-76872914D02*
X134958095Y-76920533D01*
X136386666Y-76634819D02*
X136196190Y-76634819D01*
X136196190Y-76634819D02*
X136100952Y-76682438D01*
X136100952Y-76682438D02*
X136053333Y-76730057D01*
X136053333Y-76730057D02*
X135958095Y-76872914D01*
X135958095Y-76872914D02*
X135910476Y-77063390D01*
X135910476Y-77063390D02*
X135910476Y-77444342D01*
X135910476Y-77444342D02*
X135958095Y-77539580D01*
X135958095Y-77539580D02*
X136005714Y-77587200D01*
X136005714Y-77587200D02*
X136100952Y-77634819D01*
X136100952Y-77634819D02*
X136291428Y-77634819D01*
X136291428Y-77634819D02*
X136386666Y-77587200D01*
X136386666Y-77587200D02*
X136434285Y-77539580D01*
X136434285Y-77539580D02*
X136481904Y-77444342D01*
X136481904Y-77444342D02*
X136481904Y-77206247D01*
X136481904Y-77206247D02*
X136434285Y-77111009D01*
X136434285Y-77111009D02*
X136386666Y-77063390D01*
X136386666Y-77063390D02*
X136291428Y-77015771D01*
X136291428Y-77015771D02*
X136100952Y-77015771D01*
X136100952Y-77015771D02*
X136005714Y-77063390D01*
X136005714Y-77063390D02*
X135958095Y-77111009D01*
X135958095Y-77111009D02*
X135910476Y-77206247D01*
D12*
X125370000Y-75500000D02*
X127980000Y-75500000D01*
X125370000Y-75500000D02*
G75*
G02*
X122630000Y-75500000I-1370000J0D01*
G01*
X122630000Y-75500000D02*
G75*
G02*
X125370000Y-75500000I1370000J0D01*
G01*
X125370000Y-83600000D02*
X127980000Y-83600000D01*
X125370000Y-83600000D02*
G75*
G02*
X122630000Y-83600000I-1370000J0D01*
G01*
X122630000Y-83600000D02*
G75*
G02*
X125370000Y-83600000I1370000J0D01*
G01*
X134050000Y-87650000D02*
X136660000Y-87650000D01*
X134050000Y-87650000D02*
G75*
G02*
X131310000Y-87650000I-1370000J0D01*
G01*
X131310000Y-87650000D02*
G75*
G02*
X134050000Y-87650000I1370000J0D01*
G01*
X99380000Y-71880000D02*
X107420000Y-71880000D01*
X99380000Y-132620000D02*
X99380000Y-71880000D01*
X99380000Y-132620000D02*
X107420000Y-132620000D01*
X102014000Y-73253000D02*
X102057000Y-73296000D01*
X102014000Y-78253000D02*
X102057000Y-78296000D01*
X102014000Y-83253000D02*
X102057000Y-83296000D01*
X102014000Y-88253000D02*
X102057000Y-88296000D01*
X102014000Y-93253000D02*
X102057000Y-93296000D01*
X102014000Y-98253000D02*
X102057000Y-98296000D01*
X102014000Y-103253000D02*
X102057000Y-103296000D01*
X102014000Y-108253000D02*
X102057000Y-108296000D01*
X102014000Y-113253000D02*
X102057000Y-113296000D01*
X102014000Y-118253000D02*
X102057000Y-118296000D01*
X102014000Y-123253000D02*
X102057000Y-123296000D01*
X102253000Y-73013000D02*
X102296000Y-73056000D01*
X102253000Y-78013000D02*
X102296000Y-78056000D01*
X102253000Y-83013000D02*
X102296000Y-83056000D01*
X102253000Y-88013000D02*
X102296000Y-88056000D01*
X102253000Y-93013000D02*
X102296000Y-93056000D01*
X102253000Y-98013000D02*
X102296000Y-98056000D01*
X102253000Y-103013000D02*
X102296000Y-103056000D01*
X102253000Y-108013000D02*
X102296000Y-108056000D01*
X102253000Y-113013000D02*
X102296000Y-113056000D01*
X102253000Y-118013000D02*
X102296000Y-118056000D01*
X102253000Y-123013000D02*
X102296000Y-123056000D01*
X103000000Y-72688000D02*
X103000000Y-71880000D01*
X103000000Y-77688000D02*
X103000000Y-76312000D01*
X103000000Y-82688000D02*
X103000000Y-81312000D01*
X103000000Y-87688000D02*
X103000000Y-86312000D01*
X103000000Y-92688000D02*
X103000000Y-91312000D01*
X103000000Y-97688000D02*
X103000000Y-96312000D01*
X103000000Y-102688000D02*
X103000000Y-101312000D01*
X103000000Y-107688000D02*
X103000000Y-106312000D01*
X103000000Y-112688000D02*
X103000000Y-111312000D01*
X103000000Y-117688000D02*
X103000000Y-116312000D01*
X103000000Y-122688000D02*
X103000000Y-121312000D01*
X103000000Y-127620000D02*
X103000000Y-126312000D01*
X103000000Y-132620000D02*
X103000000Y-131380000D01*
X104000000Y-72688000D02*
X104000000Y-71880000D01*
X104000000Y-77688000D02*
X104000000Y-76312000D01*
X104000000Y-82688000D02*
X104000000Y-81312000D01*
X104000000Y-87688000D02*
X104000000Y-86312000D01*
X104000000Y-92688000D02*
X104000000Y-91312000D01*
X104000000Y-97688000D02*
X104000000Y-96312000D01*
X104000000Y-102688000D02*
X104000000Y-101312000D01*
X104000000Y-107688000D02*
X104000000Y-106312000D01*
X104000000Y-112688000D02*
X104000000Y-111312000D01*
X104000000Y-117688000D02*
X104000000Y-116312000D01*
X104000000Y-122688000D02*
X104000000Y-121312000D01*
X104000000Y-127620000D02*
X104000000Y-126312000D01*
X104000000Y-132620000D02*
X104000000Y-131380000D01*
X104704000Y-75944000D02*
X104747000Y-75987000D01*
X104704000Y-80944000D02*
X104747000Y-80987000D01*
X104704000Y-85944000D02*
X104747000Y-85987000D01*
X104704000Y-90944000D02*
X104747000Y-90987000D01*
X104704000Y-95944000D02*
X104747000Y-95987000D01*
X104704000Y-100944000D02*
X104747000Y-100987000D01*
X104704000Y-105944000D02*
X104747000Y-105987000D01*
X104704000Y-110944000D02*
X104747000Y-110987000D01*
X104704000Y-115944000D02*
X104747000Y-115987000D01*
X104704000Y-120944000D02*
X104747000Y-120987000D01*
X104704000Y-125944000D02*
X104747000Y-125987000D01*
X104943000Y-75705000D02*
X104986000Y-75748000D01*
X104943000Y-80705000D02*
X104986000Y-80748000D01*
X104943000Y-85705000D02*
X104986000Y-85748000D01*
X104943000Y-90705000D02*
X104986000Y-90748000D01*
X104943000Y-95705000D02*
X104986000Y-95748000D01*
X104943000Y-100705000D02*
X104986000Y-100748000D01*
X104943000Y-105705000D02*
X104986000Y-105748000D01*
X104943000Y-110705000D02*
X104986000Y-110748000D01*
X104943000Y-115705000D02*
X104986000Y-115748000D01*
X104943000Y-120705000D02*
X104986000Y-120748000D01*
X104943000Y-125705000D02*
X104986000Y-125748000D01*
X105300000Y-73957000D02*
X105300000Y-71880000D01*
X105300000Y-78957000D02*
X105300000Y-75043000D01*
X105300000Y-83957000D02*
X105300000Y-80043000D01*
X105300000Y-88957000D02*
X105300000Y-85043000D01*
X105300000Y-93957000D02*
X105300000Y-90043000D01*
X105300000Y-98957000D02*
X105300000Y-95043000D01*
X105300000Y-103957000D02*
X105300000Y-100043000D01*
X105300000Y-108957000D02*
X105300000Y-105043000D01*
X105300000Y-113957000D02*
X105300000Y-110043000D01*
X105300000Y-118957000D02*
X105300000Y-115043000D01*
X105300000Y-123957000D02*
X105300000Y-120043000D01*
X105300000Y-127620000D02*
X105300000Y-125043000D01*
X105300000Y-132620000D02*
X105300000Y-131380000D01*
X107420000Y-129200000D02*
X107420000Y-71880000D01*
X107420000Y-132620000D02*
X107420000Y-129800000D01*
X101620000Y-130054000D02*
G75*
G02*
X101620139Y-128945528I1880000J554000D01*
G01*
X102946000Y-127620000D02*
G75*
G02*
X104054472Y-127620139I554000J-1880000D01*
G01*
X104054000Y-131380000D02*
G75*
G02*
X102945528Y-131379861I-554000J1879990D01*
G01*
X105380000Y-128946000D02*
G75*
G02*
X105379861Y-130054472I-1879990J-554000D01*
G01*
X105460000Y-74500000D02*
G75*
G02*
X101540000Y-74500000I-1960000J0D01*
G01*
X101540000Y-74500000D02*
G75*
G02*
X105460000Y-74500000I1960000J0D01*
G01*
X105460000Y-79500000D02*
G75*
G02*
X101540000Y-79500000I-1960000J0D01*
G01*
X101540000Y-79500000D02*
G75*
G02*
X105460000Y-79500000I1960000J0D01*
G01*
X105460000Y-84500000D02*
G75*
G02*
X101540000Y-84500000I-1960000J0D01*
G01*
X101540000Y-84500000D02*
G75*
G02*
X105460000Y-84500000I1960000J0D01*
G01*
X105460000Y-89500000D02*
G75*
G02*
X101540000Y-89500000I-1960000J0D01*
G01*
X101540000Y-89500000D02*
G75*
G02*
X105460000Y-89500000I1960000J0D01*
G01*
X105460000Y-94500000D02*
G75*
G02*
X101540000Y-94500000I-1960000J0D01*
G01*
X101540000Y-94500000D02*
G75*
G02*
X105460000Y-94500000I1960000J0D01*
G01*
X105460000Y-99500000D02*
G75*
G02*
X101540000Y-99500000I-1960000J0D01*
G01*
X101540000Y-99500000D02*
G75*
G02*
X105460000Y-99500000I1960000J0D01*
G01*
X105460000Y-104500000D02*
G75*
G02*
X101540000Y-104500000I-1960000J0D01*
G01*
X101540000Y-104500000D02*
G75*
G02*
X105460000Y-104500000I1960000J0D01*
G01*
X105460000Y-109500000D02*
G75*
G02*
X101540000Y-109500000I-1960000J0D01*
G01*
X101540000Y-109500000D02*
G75*
G02*
X105460000Y-109500000I1960000J0D01*
G01*
X105460000Y-114500000D02*
G75*
G02*
X101540000Y-114500000I-1960000J0D01*
G01*
X101540000Y-114500000D02*
G75*
G02*
X105460000Y-114500000I1960000J0D01*
G01*
X105460000Y-119500000D02*
G75*
G02*
X101540000Y-119500000I-1960000J0D01*
G01*
X101540000Y-119500000D02*
G75*
G02*
X105460000Y-119500000I1960000J0D01*
G01*
X105460000Y-124500000D02*
G75*
G02*
X101540000Y-124500000I-1960000J0D01*
G01*
X101540000Y-124500000D02*
G75*
G02*
X105460000Y-124500000I1960000J0D01*
G01*
X108030000Y-129940000D02*
X107420000Y-129500000D01*
X108030000Y-129060000D01*
X108030000Y-129940000D01*
G36*
X108030000Y-129940000D02*
G01*
X107420000Y-129500000D01*
X108030000Y-129060000D01*
X108030000Y-129940000D01*
G37*
X131795000Y-105190000D02*
X131795000Y-125630000D01*
X131795000Y-125630000D02*
X137095000Y-125630000D01*
X133445000Y-105190000D02*
X131795000Y-105190000D01*
X137095000Y-105190000D02*
X135445000Y-105190000D01*
X137095000Y-125630000D02*
X137095000Y-105190000D01*
X135445000Y-105190000D02*
G75*
G02*
X133445000Y-105190000I-1000000J0D01*
G01*
X134050000Y-91700000D02*
X136660000Y-91700000D01*
X134050000Y-91700000D02*
G75*
G02*
X131310000Y-91700000I-1370000J0D01*
G01*
X131310000Y-91700000D02*
G75*
G02*
X134050000Y-91700000I1370000J0D01*
G01*
X116690000Y-95750000D02*
X119300000Y-95750000D01*
X116690000Y-95750000D02*
G75*
G02*
X113950000Y-95750000I-1370000J0D01*
G01*
X113950000Y-95750000D02*
G75*
G02*
X116690000Y-95750000I1370000J0D01*
G01*
X134050000Y-75500000D02*
X136660000Y-75500000D01*
X134050000Y-75500000D02*
G75*
G02*
X131310000Y-75500000I-1370000J0D01*
G01*
X131310000Y-75500000D02*
G75*
G02*
X134050000Y-75500000I1370000J0D01*
G01*
X116690000Y-79550000D02*
X119300000Y-79550000D01*
X116690000Y-79550000D02*
G75*
G02*
X113950000Y-79550000I-1370000J0D01*
G01*
X113950000Y-79550000D02*
G75*
G02*
X116690000Y-79550000I1370000J0D01*
G01*
X144880000Y-71880000D02*
X152920000Y-71880000D01*
X144880000Y-132620000D02*
X144880000Y-71880000D01*
X144880000Y-132620000D02*
X152920000Y-132620000D01*
X147514000Y-73253000D02*
X147557000Y-73296000D01*
X147514000Y-78253000D02*
X147557000Y-78296000D01*
X147514000Y-83253000D02*
X147557000Y-83296000D01*
X147514000Y-88253000D02*
X147557000Y-88296000D01*
X147514000Y-93253000D02*
X147557000Y-93296000D01*
X147514000Y-98253000D02*
X147557000Y-98296000D01*
X147514000Y-103253000D02*
X147557000Y-103296000D01*
X147514000Y-108253000D02*
X147557000Y-108296000D01*
X147514000Y-113253000D02*
X147557000Y-113296000D01*
X147514000Y-118253000D02*
X147557000Y-118296000D01*
X147514000Y-123253000D02*
X147557000Y-123296000D01*
X147753000Y-73013000D02*
X147796000Y-73056000D01*
X147753000Y-78013000D02*
X147796000Y-78056000D01*
X147753000Y-83013000D02*
X147796000Y-83056000D01*
X147753000Y-88013000D02*
X147796000Y-88056000D01*
X147753000Y-93013000D02*
X147796000Y-93056000D01*
X147753000Y-98013000D02*
X147796000Y-98056000D01*
X147753000Y-103013000D02*
X147796000Y-103056000D01*
X147753000Y-108013000D02*
X147796000Y-108056000D01*
X147753000Y-113013000D02*
X147796000Y-113056000D01*
X147753000Y-118013000D02*
X147796000Y-118056000D01*
X147753000Y-123013000D02*
X147796000Y-123056000D01*
X148500000Y-72688000D02*
X148500000Y-71880000D01*
X148500000Y-77688000D02*
X148500000Y-76312000D01*
X148500000Y-82688000D02*
X148500000Y-81312000D01*
X148500000Y-87688000D02*
X148500000Y-86312000D01*
X148500000Y-92688000D02*
X148500000Y-91312000D01*
X148500000Y-97688000D02*
X148500000Y-96312000D01*
X148500000Y-102688000D02*
X148500000Y-101312000D01*
X148500000Y-107688000D02*
X148500000Y-106312000D01*
X148500000Y-112688000D02*
X148500000Y-111312000D01*
X148500000Y-117688000D02*
X148500000Y-116312000D01*
X148500000Y-122688000D02*
X148500000Y-121312000D01*
X148500000Y-127620000D02*
X148500000Y-126312000D01*
X148500000Y-132620000D02*
X148500000Y-131380000D01*
X149500000Y-72688000D02*
X149500000Y-71880000D01*
X149500000Y-77688000D02*
X149500000Y-76312000D01*
X149500000Y-82688000D02*
X149500000Y-81312000D01*
X149500000Y-87688000D02*
X149500000Y-86312000D01*
X149500000Y-92688000D02*
X149500000Y-91312000D01*
X149500000Y-97688000D02*
X149500000Y-96312000D01*
X149500000Y-102688000D02*
X149500000Y-101312000D01*
X149500000Y-107688000D02*
X149500000Y-106312000D01*
X149500000Y-112688000D02*
X149500000Y-111312000D01*
X149500000Y-117688000D02*
X149500000Y-116312000D01*
X149500000Y-122688000D02*
X149500000Y-121312000D01*
X149500000Y-127620000D02*
X149500000Y-126312000D01*
X149500000Y-132620000D02*
X149500000Y-131380000D01*
X150204000Y-75944000D02*
X150247000Y-75987000D01*
X150204000Y-80944000D02*
X150247000Y-80987000D01*
X150204000Y-85944000D02*
X150247000Y-85987000D01*
X150204000Y-90944000D02*
X150247000Y-90987000D01*
X150204000Y-95944000D02*
X150247000Y-95987000D01*
X150204000Y-100944000D02*
X150247000Y-100987000D01*
X150204000Y-105944000D02*
X150247000Y-105987000D01*
X150204000Y-110944000D02*
X150247000Y-110987000D01*
X150204000Y-115944000D02*
X150247000Y-115987000D01*
X150204000Y-120944000D02*
X150247000Y-120987000D01*
X150204000Y-125944000D02*
X150247000Y-125987000D01*
X150443000Y-75705000D02*
X150486000Y-75748000D01*
X150443000Y-80705000D02*
X150486000Y-80748000D01*
X150443000Y-85705000D02*
X150486000Y-85748000D01*
X150443000Y-90705000D02*
X150486000Y-90748000D01*
X150443000Y-95705000D02*
X150486000Y-95748000D01*
X150443000Y-100705000D02*
X150486000Y-100748000D01*
X150443000Y-105705000D02*
X150486000Y-105748000D01*
X150443000Y-110705000D02*
X150486000Y-110748000D01*
X150443000Y-115705000D02*
X150486000Y-115748000D01*
X150443000Y-120705000D02*
X150486000Y-120748000D01*
X150443000Y-125705000D02*
X150486000Y-125748000D01*
X150800000Y-73957000D02*
X150800000Y-71880000D01*
X150800000Y-78957000D02*
X150800000Y-75043000D01*
X150800000Y-83957000D02*
X150800000Y-80043000D01*
X150800000Y-88957000D02*
X150800000Y-85043000D01*
X150800000Y-93957000D02*
X150800000Y-90043000D01*
X150800000Y-98957000D02*
X150800000Y-95043000D01*
X150800000Y-103957000D02*
X150800000Y-100043000D01*
X150800000Y-108957000D02*
X150800000Y-105043000D01*
X150800000Y-113957000D02*
X150800000Y-110043000D01*
X150800000Y-118957000D02*
X150800000Y-115043000D01*
X150800000Y-123957000D02*
X150800000Y-120043000D01*
X150800000Y-127620000D02*
X150800000Y-125043000D01*
X150800000Y-132620000D02*
X150800000Y-131380000D01*
X152920000Y-129200000D02*
X152920000Y-71880000D01*
X152920000Y-132620000D02*
X152920000Y-129800000D01*
X147120000Y-130054000D02*
G75*
G02*
X147120139Y-128945528I1880000J554000D01*
G01*
X148446000Y-127620000D02*
G75*
G02*
X149554472Y-127620139I554000J-1880000D01*
G01*
X149554000Y-131380000D02*
G75*
G02*
X148445528Y-131379861I-554000J1879990D01*
G01*
X150880000Y-128946000D02*
G75*
G02*
X150879861Y-130054472I-1879990J-554000D01*
G01*
X150960000Y-74500000D02*
G75*
G02*
X147040000Y-74500000I-1960000J0D01*
G01*
X147040000Y-74500000D02*
G75*
G02*
X150960000Y-74500000I1960000J0D01*
G01*
X150960000Y-79500000D02*
G75*
G02*
X147040000Y-79500000I-1960000J0D01*
G01*
X147040000Y-79500000D02*
G75*
G02*
X150960000Y-79500000I1960000J0D01*
G01*
X150960000Y-84500000D02*
G75*
G02*
X147040000Y-84500000I-1960000J0D01*
G01*
X147040000Y-84500000D02*
G75*
G02*
X150960000Y-84500000I1960000J0D01*
G01*
X150960000Y-89500000D02*
G75*
G02*
X147040000Y-89500000I-1960000J0D01*
G01*
X147040000Y-89500000D02*
G75*
G02*
X150960000Y-89500000I1960000J0D01*
G01*
X150960000Y-94500000D02*
G75*
G02*
X147040000Y-94500000I-1960000J0D01*
G01*
X147040000Y-94500000D02*
G75*
G02*
X150960000Y-94500000I1960000J0D01*
G01*
X150960000Y-99500000D02*
G75*
G02*
X147040000Y-99500000I-1960000J0D01*
G01*
X147040000Y-99500000D02*
G75*
G02*
X150960000Y-99500000I1960000J0D01*
G01*
X150960000Y-104500000D02*
G75*
G02*
X147040000Y-104500000I-1960000J0D01*
G01*
X147040000Y-104500000D02*
G75*
G02*
X150960000Y-104500000I1960000J0D01*
G01*
X150960000Y-109500000D02*
G75*
G02*
X147040000Y-109500000I-1960000J0D01*
G01*
X147040000Y-109500000D02*
G75*
G02*
X150960000Y-109500000I1960000J0D01*
G01*
X150960000Y-114500000D02*
G75*
G02*
X147040000Y-114500000I-1960000J0D01*
G01*
X147040000Y-114500000D02*
G75*
G02*
X150960000Y-114500000I1960000J0D01*
G01*
X150960000Y-119500000D02*
G75*
G02*
X147040000Y-119500000I-1960000J0D01*
G01*
X147040000Y-119500000D02*
G75*
G02*
X150960000Y-119500000I1960000J0D01*
G01*
X150960000Y-124500000D02*
G75*
G02*
X147040000Y-124500000I-1960000J0D01*
G01*
X147040000Y-124500000D02*
G75*
G02*
X150960000Y-124500000I1960000J0D01*
G01*
X153530000Y-129940000D02*
X152920000Y-129500000D01*
X153530000Y-129060000D01*
X153530000Y-129940000D01*
G36*
X153530000Y-129940000D02*
G01*
X152920000Y-129500000D01*
X153530000Y-129060000D01*
X153530000Y-129940000D01*
G37*
X116690000Y-75500000D02*
X119300000Y-75500000D01*
X116690000Y-75500000D02*
G75*
G02*
X113950000Y-75500000I-1370000J0D01*
G01*
X113950000Y-75500000D02*
G75*
G02*
X116690000Y-75500000I1370000J0D01*
G01*
X125370000Y-79550000D02*
X127980000Y-79550000D01*
X125370000Y-79550000D02*
G75*
G02*
X122630000Y-79550000I-1370000J0D01*
G01*
X122630000Y-79550000D02*
G75*
G02*
X125370000Y-79550000I1370000J0D01*
G01*
X125370000Y-95750000D02*
X127980000Y-95750000D01*
X125370000Y-95750000D02*
G75*
G02*
X122630000Y-95750000I-1370000J0D01*
G01*
X122630000Y-95750000D02*
G75*
G02*
X125370000Y-95750000I1370000J0D01*
G01*
X116690000Y-99800000D02*
X119300000Y-99800000D01*
X116690000Y-99800000D02*
G75*
G02*
X113950000Y-99800000I-1370000J0D01*
G01*
X113950000Y-99800000D02*
G75*
G02*
X116690000Y-99800000I1370000J0D01*
G01*
X113130000Y-60347500D02*
X113130000Y-68387500D01*
X113130000Y-60347500D02*
X138870000Y-60347500D01*
X113130000Y-63967500D02*
X114370000Y-63967500D01*
X113130000Y-64967500D02*
X114370000Y-64967500D01*
X113130000Y-66267500D02*
X114370000Y-66267500D01*
X113130000Y-68387500D02*
X115950000Y-68387500D01*
X116550000Y-68387500D02*
X138870000Y-68387500D01*
X118130000Y-63967500D02*
X119438000Y-63967500D01*
X118130000Y-64967500D02*
X119438000Y-64967500D01*
X118130000Y-66267500D02*
X120707000Y-66267500D01*
X119806000Y-65671500D02*
X119763000Y-65714500D01*
X120045000Y-65910500D02*
X120002000Y-65953500D01*
X121793000Y-66267500D02*
X125707000Y-66267500D01*
X122497000Y-62981500D02*
X122454000Y-63024500D01*
X122737000Y-63220500D02*
X122694000Y-63263500D01*
X123062000Y-63967500D02*
X124438000Y-63967500D01*
X123062000Y-64967500D02*
X124438000Y-64967500D01*
X124806000Y-65671500D02*
X124763000Y-65714500D01*
X125045000Y-65910500D02*
X125002000Y-65953500D01*
X126793000Y-66267500D02*
X130707000Y-66267500D01*
X127497000Y-62981500D02*
X127454000Y-63024500D01*
X127737000Y-63220500D02*
X127694000Y-63263500D01*
X128062000Y-63967500D02*
X129438000Y-63967500D01*
X128062000Y-64967500D02*
X129438000Y-64967500D01*
X129806000Y-65671500D02*
X129763000Y-65714500D01*
X130045000Y-65910500D02*
X130002000Y-65953500D01*
X131793000Y-66267500D02*
X135707000Y-66267500D01*
X132497000Y-62981500D02*
X132454000Y-63024500D01*
X132737000Y-63220500D02*
X132694000Y-63263500D01*
X133062000Y-63967500D02*
X134438000Y-63967500D01*
X133062000Y-64967500D02*
X134438000Y-64967500D01*
X134806000Y-65671500D02*
X134763000Y-65714500D01*
X135045000Y-65910500D02*
X135002000Y-65953500D01*
X136793000Y-66267500D02*
X138870000Y-66267500D01*
X137497000Y-62981500D02*
X137454000Y-63024500D01*
X137737000Y-63220500D02*
X137694000Y-63263500D01*
X138062000Y-63967500D02*
X138870000Y-63967500D01*
X138062000Y-64967500D02*
X138870000Y-64967500D01*
X138870000Y-60347500D02*
X138870000Y-68387500D01*
X114370000Y-65021500D02*
G75*
G02*
X114370139Y-63913028I1879990J554000D01*
G01*
X115696000Y-62587500D02*
G75*
G02*
X116804472Y-62587639I554000J-1880000D01*
G01*
X116804000Y-66347500D02*
G75*
G02*
X115695528Y-66347361I-554000J1879990D01*
G01*
X118130000Y-63913500D02*
G75*
G02*
X118129861Y-65021972I-1880000J-554000D01*
G01*
X123210000Y-64467500D02*
G75*
G02*
X119290000Y-64467500I-1960000J0D01*
G01*
X119290000Y-64467500D02*
G75*
G02*
X123210000Y-64467500I1960000J0D01*
G01*
X128210000Y-64467500D02*
G75*
G02*
X124290000Y-64467500I-1960000J0D01*
G01*
X124290000Y-64467500D02*
G75*
G02*
X128210000Y-64467500I1960000J0D01*
G01*
X133210000Y-64467500D02*
G75*
G02*
X129290000Y-64467500I-1960000J0D01*
G01*
X129290000Y-64467500D02*
G75*
G02*
X133210000Y-64467500I1960000J0D01*
G01*
X138210000Y-64467500D02*
G75*
G02*
X134290000Y-64467500I-1960000J0D01*
G01*
X134290000Y-64467500D02*
G75*
G02*
X138210000Y-64467500I1960000J0D01*
G01*
X116690000Y-68997500D02*
X115810000Y-68997500D01*
X116250000Y-68387500D01*
X116690000Y-68997500D01*
G36*
X116690000Y-68997500D02*
G01*
X115810000Y-68997500D01*
X116250000Y-68387500D01*
X116690000Y-68997500D01*
G37*
X125370000Y-87650000D02*
X127980000Y-87650000D01*
X125370000Y-87650000D02*
G75*
G02*
X122630000Y-87650000I-1370000J0D01*
G01*
X122630000Y-87650000D02*
G75*
G02*
X125370000Y-87650000I1370000J0D01*
G01*
X116690000Y-87650000D02*
X119300000Y-87650000D01*
X116690000Y-87650000D02*
G75*
G02*
X113950000Y-87650000I-1370000J0D01*
G01*
X113950000Y-87650000D02*
G75*
G02*
X116690000Y-87650000I1370000J0D01*
G01*
X116175000Y-105190000D02*
X116175000Y-125630000D01*
X116175000Y-125630000D02*
X121475000Y-125630000D01*
X117825000Y-105190000D02*
X116175000Y-105190000D01*
X121475000Y-105190000D02*
X119825000Y-105190000D01*
X121475000Y-125630000D02*
X121475000Y-105190000D01*
X119825000Y-105190000D02*
G75*
G02*
X117825000Y-105190000I-1000000J0D01*
G01*
X125370000Y-91700000D02*
X127980000Y-91700000D01*
X125370000Y-91700000D02*
G75*
G02*
X122630000Y-91700000I-1370000J0D01*
G01*
X122630000Y-91700000D02*
G75*
G02*
X125370000Y-91700000I1370000J0D01*
G01*
X116690000Y-91700000D02*
X119300000Y-91700000D01*
X116690000Y-91700000D02*
G75*
G02*
X113950000Y-91700000I-1370000J0D01*
G01*
X113950000Y-91700000D02*
G75*
G02*
X116690000Y-91700000I1370000J0D01*
G01*
X116690000Y-83600000D02*
X119300000Y-83600000D01*
X116690000Y-83600000D02*
G75*
G02*
X113950000Y-83600000I-1370000J0D01*
G01*
X113950000Y-83600000D02*
G75*
G02*
X116690000Y-83600000I1370000J0D01*
G01*
X134050000Y-83600000D02*
X136660000Y-83600000D01*
X134050000Y-83600000D02*
G75*
G02*
X131310000Y-83600000I-1370000J0D01*
G01*
X131310000Y-83600000D02*
G75*
G02*
X134050000Y-83600000I1370000J0D01*
G01*
X125370000Y-99800000D02*
X127980000Y-99800000D01*
X125370000Y-99800000D02*
G75*
G02*
X122630000Y-99800000I-1370000J0D01*
G01*
X122630000Y-99800000D02*
G75*
G02*
X125370000Y-99800000I1370000J0D01*
G01*
X134050000Y-79550000D02*
X136660000Y-79550000D01*
X134050000Y-79550000D02*
G75*
G02*
X131310000Y-79550000I-1370000J0D01*
G01*
X131310000Y-79550000D02*
G75*
G02*
X134050000Y-79550000I1370000J0D01*
G01*
%LPC*%
D13*
X149500000Y-64500000D03*
D14*
X124000000Y-75500000D03*
D15*
X129080000Y-75500000D03*
D14*
X124000000Y-83600000D03*
D15*
X129080000Y-83600000D03*
D14*
X132680000Y-87650000D03*
D15*
X137760000Y-87650000D03*
D16*
X103500000Y-129500000D03*
D17*
X103500000Y-124500000D03*
X103500000Y-119500000D03*
X103500000Y-114500000D03*
X103500000Y-109500000D03*
X103500000Y-104500000D03*
X103500000Y-99500000D03*
X103500000Y-94500000D03*
X103500000Y-89500000D03*
X103500000Y-84500000D03*
X103500000Y-79500000D03*
X103500000Y-74500000D03*
D13*
X127000000Y-131000000D03*
D18*
X130635000Y-106520000D03*
D15*
X130635000Y-109060000D03*
X130635000Y-111600000D03*
X130635000Y-114140000D03*
X130635000Y-116680000D03*
X130635000Y-119220000D03*
X130635000Y-121760000D03*
X130635000Y-124300000D03*
X138255000Y-124300000D03*
X138255000Y-121760000D03*
X138255000Y-119220000D03*
X138255000Y-116680000D03*
X138255000Y-114140000D03*
X138255000Y-111600000D03*
X138255000Y-109060000D03*
X138255000Y-106520000D03*
D14*
X132680000Y-91700000D03*
D15*
X137760000Y-91700000D03*
D14*
X115320000Y-95750000D03*
D15*
X120400000Y-95750000D03*
D14*
X132680000Y-75500000D03*
D15*
X137760000Y-75500000D03*
D14*
X115320000Y-79550000D03*
D15*
X120400000Y-79550000D03*
D16*
X149000000Y-129500000D03*
D17*
X149000000Y-124500000D03*
X149000000Y-119500000D03*
X149000000Y-114500000D03*
X149000000Y-109500000D03*
X149000000Y-104500000D03*
X149000000Y-99500000D03*
X149000000Y-94500000D03*
X149000000Y-89500000D03*
X149000000Y-84500000D03*
X149000000Y-79500000D03*
X149000000Y-74500000D03*
D14*
X115320000Y-75500000D03*
D15*
X120400000Y-75500000D03*
D14*
X124000000Y-79550000D03*
D15*
X129080000Y-79550000D03*
D14*
X124000000Y-95750000D03*
D15*
X129080000Y-95750000D03*
D14*
X115320000Y-99800000D03*
D15*
X120400000Y-99800000D03*
D19*
X116250000Y-64467500D03*
D17*
X121250000Y-64467500D03*
X126250000Y-64467500D03*
X131250000Y-64467500D03*
X136250000Y-64467500D03*
D14*
X124000000Y-87650000D03*
D15*
X129080000Y-87650000D03*
D14*
X115320000Y-87650000D03*
D15*
X120400000Y-87650000D03*
D18*
X115015000Y-106520000D03*
D15*
X115015000Y-109060000D03*
X115015000Y-111600000D03*
X115015000Y-114140000D03*
X115015000Y-116680000D03*
X115015000Y-119220000D03*
X115015000Y-121760000D03*
X115015000Y-124300000D03*
X122635000Y-124300000D03*
X122635000Y-121760000D03*
X122635000Y-119220000D03*
X122635000Y-116680000D03*
X122635000Y-114140000D03*
X122635000Y-111600000D03*
X122635000Y-109060000D03*
X122635000Y-106520000D03*
D14*
X124000000Y-91700000D03*
D15*
X129080000Y-91700000D03*
D14*
X115320000Y-91700000D03*
D15*
X120400000Y-91700000D03*
D14*
X115320000Y-83600000D03*
D15*
X120400000Y-83600000D03*
D14*
X132680000Y-83600000D03*
D15*
X137760000Y-83600000D03*
D14*
X124000000Y-99800000D03*
D15*
X129080000Y-99800000D03*
D13*
X102500000Y-64500000D03*
D14*
X132680000Y-79550000D03*
D15*
X137760000Y-79550000D03*
%LPD*%
M02*
